<svg width="296" height="65" viewBox="0 0 296 65" fill="none" xmlns="http://www.w3.org/2000/svg">
<mask id="mask0_35_8735" style="mask-type:luminance" maskUnits="userSpaceOnUse" x="0" y="0" width="296" height="65">
<path d="M0.506958 0.491211H295.507V64.4177H0.506958V0.491211Z" fill="white"/>
</mask>
<g mask="url(#mask0_35_8735)">
<path d="M295.231 32.8372C295.196 32.9046 283.358 55.7176 271.762 50.7253C270.962 56.2131 267.858 72.0124 259.968 58.9797H36.0612C28.1715 72.0124 25.0699 56.2111 24.2672 50.7253C12.6714 55.7176 0.833873 32.9046 0.7982 32.8372L0.50885 32.2842L0.7982 31.7313C0.833873 31.6619 12.6714 8.84888 24.2672 13.8431C25.0679 8.3554 28.1715 -7.44388 36.0612 5.58676H259.968C267.858 -7.44388 270.962 8.3554 271.762 13.8431C283.358 8.84888 295.196 31.6619 295.231 31.7313L295.523 32.2842L295.231 32.8372ZM271.465 47.8655C280.423 53.8329 290.945 35.7188 292.831 32.2842C290.945 28.8497 280.423 10.7356 271.465 16.701L269.834 17.789L269.624 15.8369C269.618 15.7834 267.684 -3.03229 261.671 7.37241L261.326 7.96696H34.7036L34.3588 7.37241C28.3459 -3.03229 26.4116 15.7834 26.4057 15.8369L26.1956 17.789L24.5645 16.701C15.6066 10.7356 5.08494 28.8497 3.19822 32.2842C5.08494 35.7188 15.6066 53.8329 24.5645 47.8655L26.1956 46.7795L26.4057 48.7296C26.4116 48.7831 28.3459 67.6008 34.3588 57.1961L34.7036 56.6015C110.244 56.6015 185.786 56.6094 261.326 56.6015L261.671 57.1961C267.684 67.6008 269.618 48.7831 269.624 48.7296L269.834 46.7795L271.465 47.8655Z" fill="#B3B3B3"/>
<path d="M100.702 37.4912H97.0192V24.1318H106.612V25.8389H100.702V29.9673H105.267V31.665H100.702V37.4912ZM116.91 27.7222L115.147 30.6445C115.073 30.3971 114.977 30.1188 114.859 29.8096C114.742 29.5003 114.597 29.2127 114.423 28.9468C114.25 28.6746 114.043 28.4489 113.802 28.2695C113.561 28.084 113.282 27.9912 112.967 27.9912C112.676 27.9912 112.423 28.0654 112.206 28.2139C111.996 28.3623 111.817 28.5571 111.668 28.7983C111.52 29.0334 111.396 29.3024 111.297 29.6055C111.204 29.9023 111.13 30.2054 111.074 30.5146C111.025 30.8177 110.991 31.1115 110.972 31.396C110.954 31.6743 110.944 31.9155 110.944 32.1196V37.4912H107.799V26.7759H109.005L110.276 29.2715C110.45 28.8695 110.648 28.5015 110.87 28.1675C111.093 27.8273 111.35 27.5366 111.64 27.2954C111.931 27.048 112.259 26.8563 112.624 26.7202C112.995 26.5841 113.412 26.5161 113.876 26.5161C114.117 26.5161 114.386 26.5378 114.683 26.5811C114.98 26.6182 115.271 26.6862 115.555 26.7852C115.84 26.8779 116.103 27.0016 116.344 27.1562C116.585 27.3109 116.774 27.4995 116.91 27.7222ZM120.528 32.4072C120.911 32.4938 121.295 32.5618 121.678 32.6113C122.062 32.6608 122.448 32.6855 122.838 32.6855C123.246 32.6855 123.623 32.6484 123.97 32.5742C124.322 32.4938 124.625 32.3639 124.879 32.1846C125.139 31.999 125.343 31.7547 125.491 31.4517C125.64 31.1486 125.714 30.7713 125.714 30.3198C125.714 29.9549 125.665 29.6209 125.566 29.3179C125.467 29.0148 125.318 28.755 125.12 28.5386C124.929 28.3221 124.69 28.1551 124.406 28.0376C124.121 27.9139 123.79 27.8521 123.413 27.8521C123.061 27.8521 122.742 27.917 122.458 28.0469C122.179 28.1768 121.932 28.353 121.715 28.5757C121.505 28.7922 121.323 29.0457 121.168 29.3364C121.02 29.6271 120.896 29.9302 120.797 30.2456C120.698 30.561 120.627 30.8796 120.584 31.2012C120.54 31.5228 120.519 31.8258 120.519 32.1104C120.519 32.1598 120.519 32.2093 120.519 32.2588C120.519 32.3083 120.522 32.3577 120.528 32.4072ZM128.256 30.292C128.256 30.7311 128.185 31.1239 128.043 31.4702C127.9 31.8104 127.706 32.1104 127.458 32.3701C127.217 32.6299 126.936 32.8494 126.614 33.0288C126.292 33.2082 125.949 33.3566 125.584 33.4741C125.219 33.5854 124.842 33.6659 124.452 33.7153C124.069 33.7648 123.695 33.7896 123.33 33.7896C122.866 33.7896 122.408 33.7586 121.957 33.6968C121.505 33.6287 121.06 33.5236 120.621 33.3813C120.689 33.7896 120.797 34.1792 120.945 34.5503C121.094 34.9152 121.292 35.2368 121.539 35.5151C121.787 35.7873 122.09 36.0037 122.448 36.1646C122.813 36.3254 123.243 36.4058 123.738 36.4058C124.066 36.4058 124.378 36.3563 124.675 36.2573C124.972 36.1584 125.244 36.0192 125.491 35.8398C125.739 35.6605 125.955 35.4471 126.141 35.1997C126.332 34.9523 126.487 34.6771 126.605 34.374L127.959 34.875C127.755 35.3636 127.474 35.7873 127.115 36.146C126.762 36.4985 126.36 36.7923 125.909 37.0273C125.464 37.2562 124.987 37.4263 124.48 37.5376C123.979 37.6489 123.481 37.7046 122.986 37.7046C122.17 37.7046 121.415 37.5685 120.723 37.2964C120.03 37.0181 119.433 36.6315 118.932 36.1367C118.431 35.6419 118.039 35.0513 117.754 34.3647C117.47 33.6782 117.327 32.9268 117.327 32.1104C117.327 31.2939 117.47 30.5425 117.754 29.856C118.039 29.1694 118.431 28.5788 118.932 28.084C119.433 27.5892 120.03 27.2057 120.723 26.9336C121.415 26.6553 122.17 26.5161 122.986 26.5161C123.382 26.5161 123.787 26.5439 124.202 26.5996C124.616 26.6553 125.018 26.745 125.408 26.8687C125.797 26.9862 126.165 27.1408 126.512 27.3325C126.858 27.5243 127.158 27.7624 127.412 28.0469C127.672 28.3252 127.876 28.6499 128.024 29.021C128.179 29.3921 128.256 29.8158 128.256 30.292ZM139.435 34.0679C139.435 34.5379 139.367 34.9554 139.231 35.3203C139.095 35.6852 138.909 36.0037 138.674 36.2759C138.439 36.5418 138.161 36.7676 137.839 36.9531C137.518 37.1325 137.172 37.2778 136.8 37.3892C136.436 37.5005 136.052 37.5809 135.65 37.6304C135.248 37.6799 134.849 37.7046 134.453 37.7046C133.921 37.7046 133.451 37.6706 133.043 37.6025C132.635 37.5345 132.245 37.4263 131.874 37.2778C131.503 37.1232 131.132 36.9253 130.761 36.6841C130.396 36.4429 129.988 36.1491 129.536 35.8027L131.364 34.3091C131.531 34.6245 131.75 34.9121 132.023 35.1719C132.301 35.4255 132.589 35.645 132.885 35.8306C133.182 36.0161 133.47 36.1584 133.748 36.2573C134.026 36.3563 134.252 36.4058 134.425 36.4058C134.568 36.4058 134.728 36.4027 134.908 36.3965C135.087 36.3841 135.27 36.3656 135.455 36.3408C135.641 36.3099 135.823 36.2666 136.003 36.2109C136.182 36.1553 136.34 36.0811 136.476 35.9883C136.618 35.8893 136.729 35.7687 136.81 35.6265C136.896 35.478 136.94 35.3018 136.94 35.0977C136.94 34.8874 136.884 34.7049 136.773 34.5503C136.667 34.3895 136.528 34.2503 136.355 34.1328C136.182 34.0153 135.984 33.9163 135.761 33.8359C135.539 33.7555 135.313 33.6844 135.084 33.6226C134.861 33.5607 134.645 33.5081 134.435 33.4648C134.224 33.4154 134.042 33.369 133.887 33.3257C133.603 33.2453 133.303 33.1649 132.987 33.0845C132.672 32.9979 132.36 32.902 132.05 32.7969C131.741 32.6855 131.444 32.5557 131.16 32.4072C130.881 32.2588 130.634 32.0825 130.418 31.8784C130.207 31.6681 130.037 31.4238 129.907 31.1455C129.784 30.861 129.722 30.5301 129.722 30.1528C129.722 29.4601 129.858 28.8818 130.13 28.418C130.408 27.9479 130.773 27.5737 131.225 27.2954C131.676 27.0109 132.19 26.8099 132.765 26.6924C133.34 26.5749 133.924 26.5161 134.518 26.5161C134.926 26.5161 135.356 26.5594 135.808 26.646C136.259 26.7264 136.698 26.8501 137.125 27.0171C137.552 27.1779 137.951 27.3758 138.322 27.6108C138.693 27.8459 139.002 28.1149 139.25 28.418L137.422 29.9209C137.286 29.5498 137.107 29.2313 136.884 28.9653C136.667 28.6994 136.429 28.4829 136.17 28.3159C135.916 28.1427 135.653 28.016 135.381 27.9355C135.115 27.8551 134.868 27.8149 134.639 27.8149C134.416 27.8149 134.166 27.8242 133.887 27.8428C133.609 27.8613 133.346 27.9139 133.099 28.0005C132.858 28.0871 132.65 28.2201 132.477 28.3994C132.31 28.5726 132.227 28.8138 132.227 29.123C132.227 29.3457 132.276 29.5374 132.375 29.6982C132.48 29.8529 132.616 29.9889 132.783 30.1064C132.95 30.2178 133.139 30.3136 133.349 30.394C133.566 30.4683 133.785 30.5363 134.008 30.5981C134.231 30.6538 134.447 30.7033 134.657 30.7466C134.868 30.7899 135.056 30.8363 135.223 30.8857C135.508 30.9661 135.808 31.0496 136.123 31.1362C136.445 31.2166 136.76 31.3125 137.069 31.4238C137.379 31.529 137.676 31.6558 137.96 31.8042C138.251 31.9465 138.504 32.1227 138.721 32.333C138.937 32.5433 139.11 32.7907 139.24 33.0752C139.37 33.3535 139.435 33.6844 139.435 34.0679ZM152.377 31.3496C152.377 32.0732 152.287 32.8278 152.108 33.6133C151.935 34.3988 151.691 35.1688 151.375 35.9233C151.06 36.6779 150.682 37.3861 150.243 38.0479C149.804 38.7158 149.322 39.291 148.796 39.7734L147.618 39.1333C147.785 38.8241 147.943 38.4777 148.091 38.0942C148.239 37.7108 148.372 37.3057 148.49 36.8789C148.614 36.446 148.722 36.0007 148.815 35.543C148.914 35.0853 148.994 34.6338 149.056 34.1885C149.124 33.737 149.173 33.3009 149.204 32.8804C149.241 32.4536 149.26 32.0578 149.26 31.6929C149.26 31.4517 149.251 31.195 149.232 30.9229C149.214 30.6445 149.173 30.3693 149.111 30.0972C149.056 29.8188 148.978 29.5529 148.88 29.2993C148.781 29.0457 148.648 28.8231 148.481 28.6313C148.32 28.4396 148.122 28.285 147.887 28.1675C147.658 28.05 147.386 27.9912 147.07 27.9912C146.761 27.9912 146.486 28.0623 146.245 28.2046C146.004 28.3407 145.79 28.5231 145.605 28.752C145.419 28.9746 145.258 29.2313 145.122 29.522C144.992 29.8127 144.884 30.1126 144.797 30.4219C144.717 30.7249 144.658 31.0249 144.621 31.3218C144.584 31.6187 144.566 31.8846 144.566 32.1196V37.4912H141.421V22.833H144.556V28.353C144.958 27.7655 145.45 27.314 146.031 26.9985C146.619 26.6769 147.268 26.5161 147.98 26.5161C148.722 26.5161 149.368 26.6367 149.919 26.8779C150.469 27.1191 150.927 27.4562 151.292 27.8892C151.657 28.3159 151.929 28.8262 152.108 29.4199C152.287 30.0075 152.377 30.6507 152.377 31.3496ZM165.402 31.3496C165.402 32.0732 165.313 32.8278 165.133 33.6133C164.96 34.3988 164.716 35.1688 164.401 35.9233C164.085 36.6779 163.708 37.3861 163.269 38.0479C162.83 38.7158 162.347 39.291 161.821 39.7734L160.643 39.1333C160.81 38.8241 160.968 38.4777 161.116 38.0942C161.265 37.7108 161.398 37.3057 161.515 36.8789C161.639 36.446 161.747 36.0007 161.84 35.543C161.939 35.0853 162.019 34.6338 162.081 34.1885C162.149 33.737 162.199 33.3009 162.23 32.8804C162.267 32.4536 162.285 32.0578 162.285 31.6929C162.285 31.4517 162.276 31.195 162.257 30.9229C162.239 30.6445 162.199 30.3693 162.137 30.0972C162.081 29.8188 162.004 29.5529 161.905 29.2993C161.806 29.0457 161.673 28.8231 161.506 28.6313C161.345 28.4396 161.147 28.285 160.912 28.1675C160.683 28.05 160.411 27.9912 160.096 27.9912C159.787 27.9912 159.511 28.0623 159.27 28.2046C159.029 28.3407 158.816 28.5231 158.63 28.752C158.444 28.9746 158.284 29.2313 158.148 29.522C158.018 29.8127 157.909 30.1126 157.823 30.4219C157.742 30.7249 157.684 31.0249 157.647 31.3218C157.609 31.6187 157.591 31.8846 157.591 32.1196V37.4912H154.446V26.7759H155.652L157.09 29.2715C157.263 28.8571 157.48 28.4798 157.739 28.1396C157.999 27.7995 158.293 27.5088 158.621 27.2676C158.949 27.0264 159.31 26.8408 159.706 26.7109C160.108 26.5811 160.541 26.5161 161.005 26.5161C161.747 26.5161 162.394 26.6367 162.944 26.8779C163.494 27.1191 163.952 27.4562 164.317 27.8892C164.682 28.3159 164.954 28.8262 165.133 29.4199C165.313 30.0075 165.402 30.6507 165.402 31.3496ZM170.05 32.4072C170.434 32.4938 170.817 32.5618 171.201 32.6113C171.584 32.6608 171.971 32.6855 172.36 32.6855C172.769 32.6855 173.146 32.6484 173.492 32.5742C173.845 32.4938 174.148 32.3639 174.401 32.1846C174.661 31.999 174.865 31.7547 175.014 31.4517C175.162 31.1486 175.236 30.7713 175.236 30.3198C175.236 29.9549 175.187 29.6209 175.088 29.3179C174.989 29.0148 174.841 28.755 174.643 28.5386C174.451 28.3221 174.213 28.1551 173.928 28.0376C173.644 27.9139 173.313 27.8521 172.936 27.8521C172.583 27.8521 172.265 27.917 171.98 28.0469C171.702 28.1768 171.454 28.353 171.238 28.5757C171.028 28.7922 170.845 29.0457 170.691 29.3364C170.542 29.6271 170.418 29.9302 170.319 30.2456C170.22 30.561 170.149 30.8796 170.106 31.2012C170.063 31.5228 170.041 31.8258 170.041 32.1104C170.041 32.1598 170.041 32.2093 170.041 32.2588C170.041 32.3083 170.044 32.3577 170.05 32.4072ZM177.778 30.292C177.778 30.7311 177.707 31.1239 177.565 31.4702C177.423 31.8104 177.228 32.1104 176.981 32.3701C176.739 32.6299 176.458 32.8494 176.136 33.0288C175.815 33.2082 175.471 33.3566 175.107 33.4741C174.742 33.5854 174.364 33.6659 173.975 33.7153C173.591 33.7648 173.217 33.7896 172.852 33.7896C172.388 33.7896 171.931 33.7586 171.479 33.6968C171.028 33.6287 170.582 33.5236 170.143 33.3813C170.211 33.7896 170.319 34.1792 170.468 34.5503C170.616 34.9152 170.814 35.2368 171.062 35.5151C171.309 35.7873 171.612 36.0037 171.971 36.1646C172.336 36.3254 172.766 36.4058 173.26 36.4058C173.588 36.4058 173.901 36.3563 174.197 36.2573C174.494 36.1584 174.766 36.0192 175.014 35.8398C175.261 35.6605 175.478 35.4471 175.663 35.1997C175.855 34.9523 176.01 34.6771 176.127 34.374L177.482 34.875C177.277 35.3636 176.996 35.7873 176.637 36.146C176.285 36.4985 175.883 36.7923 175.431 37.0273C174.986 37.2562 174.51 37.4263 174.003 37.5376C173.502 37.6489 173.004 37.7046 172.509 37.7046C171.693 37.7046 170.938 37.5685 170.245 37.2964C169.553 37.0181 168.956 36.6315 168.455 36.1367C167.954 35.6419 167.561 35.0513 167.276 34.3647C166.992 33.6782 166.85 32.9268 166.85 32.1104C166.85 31.2939 166.992 30.5425 167.276 29.856C167.561 29.1694 167.954 28.5788 168.455 28.084C168.956 27.5892 169.553 27.2057 170.245 26.9336C170.938 26.6553 171.693 26.5161 172.509 26.5161C172.905 26.5161 173.31 26.5439 173.724 26.5996C174.139 26.6553 174.541 26.745 174.93 26.8687C175.32 26.9862 175.688 27.1408 176.034 27.3325C176.381 27.5243 176.681 27.7624 176.934 28.0469C177.194 28.3252 177.398 28.6499 177.547 29.021C177.701 29.3921 177.778 29.8158 177.778 30.292ZM188.958 34.0679C188.958 34.5379 188.89 34.9554 188.754 35.3203C188.617 35.6852 188.432 36.0037 188.197 36.2759C187.962 36.5418 187.684 36.7676 187.362 36.9531C187.04 37.1325 186.694 37.2778 186.323 37.3892C185.958 37.5005 185.575 37.5809 185.172 37.6304C184.77 37.6799 184.372 37.7046 183.976 37.7046C183.444 37.7046 182.974 37.6706 182.566 37.6025C182.157 37.5345 181.768 37.4263 181.397 37.2778C181.026 37.1232 180.654 36.9253 180.283 36.6841C179.918 36.4429 179.51 36.1491 179.059 35.8027L180.886 34.3091C181.053 34.6245 181.273 34.9121 181.545 35.1719C181.823 35.4255 182.111 35.645 182.408 35.8306C182.705 36.0161 182.992 36.1584 183.271 36.2573C183.549 36.3563 183.775 36.4058 183.948 36.4058C184.09 36.4058 184.251 36.4027 184.43 36.3965C184.61 36.3841 184.792 36.3656 184.978 36.3408C185.163 36.3099 185.346 36.2666 185.525 36.2109C185.704 36.1553 185.862 36.0811 185.998 35.9883C186.14 35.8893 186.252 35.7687 186.332 35.6265C186.419 35.478 186.462 35.3018 186.462 35.0977C186.462 34.8874 186.406 34.7049 186.295 34.5503C186.19 34.3895 186.051 34.2503 185.878 34.1328C185.704 34.0153 185.506 33.9163 185.284 33.8359C185.061 33.7555 184.835 33.6844 184.607 33.6226C184.384 33.5607 184.167 33.5081 183.957 33.4648C183.747 33.4154 183.564 33.369 183.41 33.3257C183.125 33.2453 182.825 33.1649 182.51 33.0845C182.194 32.9979 181.882 32.902 181.573 32.7969C181.264 32.6855 180.967 32.5557 180.682 32.4072C180.404 32.2588 180.157 32.0825 179.94 31.8784C179.73 31.6681 179.56 31.4238 179.43 31.1455C179.306 30.861 179.244 30.5301 179.244 30.1528C179.244 29.4601 179.38 28.8818 179.652 28.418C179.931 27.9479 180.296 27.5737 180.747 27.2954C181.199 27.0109 181.712 26.8099 182.287 26.6924C182.862 26.5749 183.447 26.5161 184.041 26.5161C184.449 26.5161 184.879 26.5594 185.33 26.646C185.782 26.7264 186.221 26.8501 186.648 27.0171C187.074 27.1779 187.473 27.3758 187.844 27.6108C188.215 27.8459 188.525 28.1149 188.772 28.418L186.944 29.9209C186.808 29.5498 186.629 29.2313 186.406 28.9653C186.19 28.6994 185.952 28.4829 185.692 28.3159C185.438 28.1427 185.176 28.016 184.903 27.9355C184.637 27.8551 184.39 27.8149 184.161 27.8149C183.939 27.8149 183.688 27.8242 183.41 27.8428C183.131 27.8613 182.869 27.9139 182.621 28.0005C182.38 28.0871 182.173 28.2201 182 28.3994C181.833 28.5726 181.749 28.8138 181.749 29.123C181.749 29.3457 181.799 29.5374 181.898 29.6982C182.003 29.8529 182.139 29.9889 182.306 30.1064C182.473 30.2178 182.661 30.3136 182.872 30.394C183.088 30.4683 183.308 30.5363 183.53 30.5981C183.753 30.6538 183.97 30.7033 184.18 30.7466C184.39 30.7899 184.579 30.8363 184.746 30.8857C185.03 30.9661 185.33 31.0496 185.646 31.1362C185.967 31.2166 186.283 31.3125 186.592 31.4238C186.901 31.529 187.198 31.6558 187.483 31.8042C187.773 31.9465 188.027 32.1227 188.243 32.333C188.46 32.5433 188.633 32.7907 188.763 33.0752C188.893 33.3535 188.958 33.6844 188.958 34.0679ZM200.165 34.0679C200.165 34.5379 200.097 34.9554 199.961 35.3203C199.825 35.6852 199.639 36.0037 199.404 36.2759C199.169 36.5418 198.891 36.7676 198.569 36.9531C198.247 37.1325 197.901 37.2778 197.53 37.3892C197.165 37.5005 196.782 37.5809 196.38 37.6304C195.977 37.6799 195.579 37.7046 195.183 37.7046C194.651 37.7046 194.181 37.6706 193.773 37.6025C193.364 37.5345 192.975 37.4263 192.604 37.2778C192.233 37.1232 191.861 36.9253 191.49 36.6841C191.125 36.4429 190.717 36.1491 190.266 35.8027L192.093 34.3091C192.26 34.6245 192.48 34.9121 192.752 35.1719C193.03 35.4255 193.318 35.645 193.615 35.8306C193.912 36.0161 194.199 36.1584 194.478 36.2573C194.756 36.3563 194.982 36.4058 195.155 36.4058C195.297 36.4058 195.458 36.4027 195.637 36.3965C195.817 36.3841 195.999 36.3656 196.185 36.3408C196.37 36.3099 196.553 36.2666 196.732 36.2109C196.911 36.1553 197.069 36.0811 197.205 35.9883C197.347 35.8893 197.459 35.7687 197.539 35.6265C197.626 35.478 197.669 35.3018 197.669 35.0977C197.669 34.8874 197.613 34.7049 197.502 34.5503C197.397 34.3895 197.258 34.2503 197.085 34.1328C196.911 34.0153 196.714 33.9163 196.491 33.8359C196.268 33.7555 196.042 33.6844 195.814 33.6226C195.591 33.5607 195.374 33.5081 195.164 33.4648C194.954 33.4154 194.771 33.369 194.617 33.3257C194.332 33.2453 194.032 33.1649 193.717 33.0845C193.401 32.9979 193.089 32.902 192.78 32.7969C192.471 32.6855 192.174 32.5557 191.889 32.4072C191.611 32.2588 191.364 32.0825 191.147 31.8784C190.937 31.6681 190.767 31.4238 190.637 31.1455C190.513 30.861 190.451 30.5301 190.451 30.1528C190.451 29.4601 190.587 28.8818 190.859 28.418C191.138 27.9479 191.503 27.5737 191.954 27.2954C192.406 27.0109 192.919 26.8099 193.494 26.6924C194.069 26.5749 194.654 26.5161 195.248 26.5161C195.656 26.5161 196.086 26.5594 196.537 26.646C196.989 26.7264 197.428 26.8501 197.855 27.0171C198.281 27.1779 198.68 27.3758 199.051 27.6108C199.422 27.8459 199.732 28.1149 199.979 28.418L198.151 29.9209C198.015 29.5498 197.836 29.2313 197.613 28.9653C197.397 28.6994 197.159 28.4829 196.899 28.3159C196.645 28.1427 196.383 28.016 196.11 27.9355C195.845 27.8551 195.597 27.8149 195.368 27.8149C195.146 27.8149 194.895 27.8242 194.617 27.8428C194.339 27.8613 194.076 27.9139 193.828 28.0005C193.587 28.0871 193.38 28.2201 193.207 28.3994C193.04 28.5726 192.956 28.8138 192.956 29.123C192.956 29.3457 193.006 29.5374 193.105 29.6982C193.21 29.8529 193.346 29.9889 193.513 30.1064C193.68 30.2178 193.868 30.3136 194.079 30.394C194.295 30.4683 194.515 30.5363 194.737 30.5981C194.96 30.6538 195.177 30.7033 195.387 30.7466C195.597 30.7899 195.786 30.8363 195.953 30.8857C196.237 30.9661 196.537 31.0496 196.853 31.1362C197.174 31.2166 197.49 31.3125 197.799 31.4238C198.108 31.529 198.405 31.6558 198.69 31.8042C198.98 31.9465 199.234 32.1227 199.45 32.333C199.667 32.5433 199.84 32.7907 199.97 33.0752C200.1 33.3535 200.165 33.6844 200.165 34.0679Z" fill="#FCD7AC"/>
</g>
</svg>
