<svg width="296" height="65" viewBox="0 0 296 65" fill="none" xmlns="http://www.w3.org/2000/svg">
<mask id="mask0_35_8741" style="mask-type:luminance" maskUnits="userSpaceOnUse" x="0" y="0" width="296" height="65">
<path d="M0.506958 0.491211H295.507V64.4177H0.506958V0.491211Z" fill="white"/>
</mask>
<g mask="url(#mask0_35_8741)">
<path d="M295.231 32.8372C295.196 32.9046 283.358 55.7176 271.762 50.7253C270.962 56.2131 267.858 72.0124 259.968 58.9797H36.0612C28.1715 72.0124 25.0699 56.2111 24.2672 50.7253C12.6714 55.7176 0.833873 32.9046 0.7982 32.8372L0.50885 32.2842L0.7982 31.7313C0.833873 31.6619 12.6714 8.84888 24.2672 13.8431C25.0679 8.3554 28.1715 -7.44388 36.0612 5.58676H259.968C267.858 -7.44388 270.962 8.3554 271.762 13.8431C283.358 8.84888 295.196 31.6619 295.231 31.7313L295.523 32.2842L295.231 32.8372ZM271.465 47.8655C280.423 53.8329 290.945 35.7188 292.831 32.2842C290.945 28.8497 280.423 10.7356 271.465 16.701L269.834 17.789L269.624 15.8369C269.618 15.7834 267.684 -3.03229 261.671 7.37241L261.326 7.96696H34.7036L34.3588 7.37241C28.3459 -3.03229 26.4116 15.7834 26.4057 15.8369L26.1956 17.789L24.5645 16.701C15.6066 10.7356 5.08494 28.8497 3.19822 32.2842C5.08494 35.7188 15.6066 53.8329 24.5645 47.8655L26.1956 46.7795L26.4057 48.7296C26.4116 48.7831 28.3459 67.6008 34.3588 57.1961L34.7036 56.6015C110.244 56.6015 185.786 56.6094 261.326 56.6015L261.671 57.1961C267.684 67.6008 269.618 48.7831 269.624 48.7296L269.834 46.7795L271.465 47.8655Z" fill="#B3B3B3"/>
<path d="M89.9664 33.4092C89.9664 33.9844 89.8922 34.4915 89.7438 34.9307C89.6015 35.3698 89.3974 35.7502 89.1315 36.0718C88.8717 36.3934 88.5625 36.6624 88.2037 36.8789C87.845 37.0954 87.4523 37.2686 87.0255 37.3984C86.6049 37.5283 86.1565 37.6211 85.6803 37.6768C85.2102 37.7324 84.7309 37.7603 84.2423 37.7603C83.5991 37.7603 83.0053 37.7108 82.4611 37.6118C81.9168 37.519 81.4034 37.3706 80.921 37.1665C80.4448 36.9562 79.984 36.6872 79.5387 36.3594C79.0996 36.0316 78.6604 35.6326 78.2213 35.1626L80.1139 33.2422C80.2871 33.6689 80.5252 34.0648 80.8282 34.4297C81.1313 34.7884 81.4622 35.0977 81.8209 35.3574C82.1858 35.6172 82.5631 35.8213 82.9528 35.9697C83.3424 36.1182 83.7104 36.1924 84.0568 36.1924C84.465 36.1924 84.8484 36.1646 85.2072 36.1089C85.5659 36.047 85.8782 35.9481 86.1442 35.812C86.4101 35.6759 86.6173 35.4966 86.7657 35.2739C86.9204 35.0451 86.9977 34.7606 86.9977 34.4204C86.9977 34.1606 86.9389 33.938 86.8214 33.7524C86.7039 33.5669 86.5493 33.4092 86.3575 33.2793C86.172 33.1432 85.9586 33.0288 85.7174 32.936C85.4762 32.8433 85.2288 32.766 84.9752 32.7041C84.7278 32.6361 84.4835 32.5773 84.2423 32.5278C84.0011 32.4722 83.7877 32.4165 83.6022 32.3608C83.2373 32.2557 82.8569 32.1444 82.4611 32.0269C82.0652 31.9032 81.6756 31.764 81.2921 31.6094C80.9087 31.4548 80.5437 31.2785 80.1974 31.0806C79.8572 30.8765 79.5573 30.6383 79.2975 30.3662C79.0377 30.0879 78.8305 29.7694 78.6759 29.4106C78.5213 29.0457 78.444 28.6283 78.444 28.1582C78.444 27.5954 78.512 27.0975 78.6481 26.6646C78.7903 26.2254 78.9882 25.8451 79.2418 25.5234C79.4954 25.2018 79.7954 24.9328 80.1417 24.7163C80.4881 24.4937 80.8684 24.3174 81.2828 24.1875C81.6972 24.0514 82.1364 23.9556 82.6002 23.8999C83.0703 23.8381 83.5496 23.8071 84.0382 23.8071C84.7062 23.8071 85.3123 23.869 85.8566 23.9927C86.407 24.1164 86.9142 24.2926 87.3781 24.5215C87.8419 24.7503 88.2656 25.0256 88.649 25.3472C89.0387 25.6626 89.4036 26.0151 89.7438 26.4048L87.8512 28.3252C87.7028 27.8799 87.4956 27.4779 87.2296 27.1191C86.9698 26.7604 86.6792 26.4543 86.3575 26.2007C86.0359 25.9409 85.6989 25.743 85.3463 25.6069C84.9938 25.4647 84.6536 25.3936 84.3258 25.3936C83.899 25.3936 83.5063 25.4245 83.1476 25.4863C82.7889 25.542 82.4796 25.6379 82.2198 25.7739C81.9663 25.9038 81.7684 26.0832 81.6261 26.312C81.4838 26.5347 81.4127 26.813 81.4127 27.147C81.4127 27.4129 81.4653 27.6387 81.5704 27.8242C81.6756 28.0098 81.8147 28.1675 81.9879 28.2974C82.1673 28.4272 82.3683 28.5355 82.5909 28.6221C82.8136 28.7025 83.0424 28.7736 83.2775 28.8354C83.5187 28.8973 83.7537 28.953 83.9825 29.0024C84.2176 29.0457 84.4309 29.0952 84.6227 29.1509C84.9938 29.256 85.3834 29.3674 85.7916 29.4849C86.1998 29.6024 86.6018 29.7415 86.9977 29.9023C87.3935 30.057 87.7708 30.2363 88.1295 30.4404C88.4882 30.6445 88.8037 30.8888 89.0758 31.1733C89.3479 31.4517 89.5644 31.7764 89.7252 32.1475C89.886 32.5124 89.9664 32.9329 89.9664 33.4092ZM91.423 32.9082C91.423 32.4196 91.4632 31.9124 91.5436 31.3867C91.6302 30.861 91.7508 30.3353 91.9054 29.8096C92.0662 29.2839 92.2579 28.7643 92.4806 28.251C92.7032 27.7376 92.9537 27.2459 93.2321 26.7759H95.5236C95.3689 27.2397 95.2298 27.7253 95.1061 28.2324C94.9886 28.7334 94.8865 29.2375 94.7999 29.7446C94.7195 30.2456 94.6546 30.7373 94.6051 31.2197C94.5618 31.7021 94.5402 32.1506 94.5402 32.5649C94.5402 32.8062 94.5494 33.0659 94.568 33.3442C94.5927 33.6164 94.6329 33.8916 94.6886 34.1699C94.7443 34.4421 94.8216 34.7049 94.9205 34.9585C95.0257 35.2121 95.1587 35.4378 95.3195 35.6357C95.4803 35.8275 95.6751 35.9821 95.9039 36.0996C96.139 36.2109 96.4142 36.2666 96.7296 36.2666C97.0389 36.2666 97.3141 36.1986 97.5553 36.0625C97.8027 35.9202 98.0192 35.7378 98.2047 35.5151C98.3903 35.2863 98.548 35.0265 98.6779 34.7358C98.8077 34.4451 98.9129 34.1483 98.9933 33.8452C99.0799 33.536 99.1417 33.236 99.1788 32.9453C99.2221 32.6484 99.2438 32.3825 99.2438 32.1475V26.7759H102.38V37.4912H101.173L99.7355 34.9956C99.5561 35.41 99.3365 35.7873 99.0768 36.1274C98.8232 36.4614 98.5325 36.749 98.2047 36.9902C97.8769 37.2314 97.512 37.417 97.11 37.5469C96.7142 37.6768 96.2843 37.7417 95.8204 37.7417C95.0782 37.7417 94.4319 37.6211 93.8815 37.3799C93.331 37.1387 92.8733 36.8047 92.5084 36.3779C92.1435 35.9512 91.8714 35.444 91.692 34.8564C91.5127 34.2627 91.423 33.6133 91.423 32.9082ZM114.217 34.0679C114.217 34.5379 114.149 34.9554 114.013 35.3203C113.877 35.6852 113.692 36.0037 113.457 36.2759C113.222 36.5418 112.943 36.7676 112.622 36.9531C112.3 37.1325 111.954 37.2778 111.583 37.3892C111.218 37.5005 110.834 37.5809 110.432 37.6304C110.03 37.6799 109.631 37.7046 109.235 37.7046C108.704 37.7046 108.234 37.6706 107.825 37.6025C107.417 37.5345 107.027 37.4263 106.656 37.2778C106.285 37.1232 105.914 36.9253 105.543 36.6841C105.178 36.4429 104.77 36.1491 104.318 35.8027L106.146 34.3091C106.313 34.6245 106.533 34.9121 106.805 35.1719C107.083 35.4255 107.371 35.645 107.668 35.8306C107.964 36.0161 108.252 36.1584 108.53 36.2573C108.809 36.3563 109.034 36.4058 109.208 36.4058C109.35 36.4058 109.511 36.4027 109.69 36.3965C109.869 36.3841 110.052 36.3656 110.237 36.3408C110.423 36.3099 110.605 36.2666 110.785 36.2109C110.964 36.1553 111.122 36.0811 111.258 35.9883C111.4 35.8893 111.512 35.7687 111.592 35.6265C111.679 35.478 111.722 35.3018 111.722 35.0977C111.722 34.8874 111.666 34.7049 111.555 34.5503C111.45 34.3895 111.311 34.2503 111.137 34.1328C110.964 34.0153 110.766 33.9163 110.544 33.8359C110.321 33.7555 110.095 33.6844 109.866 33.6226C109.644 33.5607 109.427 33.5081 109.217 33.4648C109.007 33.4154 108.824 33.369 108.67 33.3257C108.385 33.2453 108.085 33.1649 107.77 33.0845C107.454 32.9979 107.142 32.902 106.833 32.7969C106.523 32.6855 106.227 32.5557 105.942 32.4072C105.664 32.2588 105.416 32.0825 105.2 31.8784C104.99 31.6681 104.819 31.4238 104.69 31.1455C104.566 30.861 104.504 30.5301 104.504 30.1528C104.504 29.4601 104.64 28.8818 104.912 28.418C105.191 27.9479 105.555 27.5737 106.007 27.2954C106.458 27.0109 106.972 26.8099 107.547 26.6924C108.122 26.5749 108.707 26.5161 109.3 26.5161C109.709 26.5161 110.138 26.5594 110.59 26.646C111.041 26.7264 111.481 26.8501 111.907 27.0171C112.334 27.1779 112.733 27.3758 113.104 27.6108C113.475 27.8459 113.784 28.1149 114.032 28.418L112.204 29.9209C112.068 29.5498 111.889 29.2313 111.666 28.9653C111.45 28.6994 111.212 28.4829 110.952 28.3159C110.698 28.1427 110.435 28.016 110.163 27.9355C109.897 27.8551 109.65 27.8149 109.421 27.8149C109.198 27.8149 108.948 27.8242 108.67 27.8428C108.391 27.8613 108.128 27.9139 107.881 28.0005C107.64 28.0871 107.433 28.2201 107.259 28.3994C107.092 28.5726 107.009 28.8138 107.009 29.123C107.009 29.3457 107.058 29.5374 107.157 29.6982C107.262 29.8529 107.399 29.9889 107.566 30.1064C107.733 30.2178 107.921 30.3136 108.131 30.394C108.348 30.4683 108.568 30.5363 108.79 30.5981C109.013 30.6538 109.229 30.7033 109.44 30.7466C109.65 30.7899 109.839 30.8363 110.005 30.8857C110.29 30.9661 110.59 31.0496 110.905 31.1362C111.227 31.2166 111.542 31.3125 111.852 31.4238C112.161 31.529 112.458 31.6558 112.742 31.8042C113.033 31.9465 113.287 32.1227 113.503 32.333C113.72 32.5433 113.893 32.7907 114.023 33.0752C114.152 33.3535 114.217 33.6844 114.217 34.0679ZM120.238 37.4912H117.093V28.019H115.145V26.7759H117.093V22.833H120.238V26.7759H123.485V28.019H120.238V37.4912ZM135.379 37.4912H132.243V36.2109C131.872 36.7181 131.424 37.0954 130.898 37.3428C130.379 37.584 129.806 37.7046 129.182 37.7046C128.365 37.7046 127.636 37.5592 126.992 37.2686C126.349 36.9779 125.805 36.582 125.359 36.0811C124.914 35.5739 124.574 34.9801 124.339 34.2998C124.104 33.6195 123.986 32.8896 123.986 32.1104C123.986 31.3311 124.104 30.6012 124.339 29.9209C124.574 29.2406 124.914 28.6499 125.359 28.1489C125.805 27.6418 126.349 27.2428 126.992 26.9521C127.636 26.6615 128.365 26.5161 129.182 26.5161C129.596 26.5161 129.989 26.578 130.36 26.7017C130.737 26.8254 131.081 27.0016 131.39 27.2305C131.705 27.4531 131.98 27.7253 132.215 28.0469C132.457 28.3623 132.645 28.7148 132.781 29.1045L134.173 26.7759H135.379V37.4912ZM132.225 32.1104C132.225 31.832 132.209 31.5382 132.178 31.229C132.154 30.9198 132.107 30.6136 132.039 30.3105C131.971 30.0075 131.875 29.7199 131.752 29.4478C131.634 29.1694 131.479 28.9251 131.288 28.7148C131.102 28.4984 130.876 28.3283 130.61 28.2046C130.345 28.0809 130.035 28.019 129.683 28.019C129.33 28.019 129.024 28.084 128.764 28.2139C128.505 28.3376 128.282 28.5076 128.096 28.7241C127.911 28.9344 127.756 29.1787 127.632 29.457C127.515 29.7354 127.422 30.026 127.354 30.3291C127.286 30.6322 127.237 30.9383 127.206 31.2476C127.181 31.5506 127.169 31.8382 127.169 32.1104C127.169 32.3825 127.181 32.6732 127.206 32.9824C127.237 33.2917 127.286 33.5978 127.354 33.9009C127.422 34.2039 127.515 34.4946 127.632 34.7729C127.756 35.0513 127.911 35.2987 128.096 35.5151C128.282 35.7254 128.505 35.8955 128.764 36.0254C129.024 36.1491 129.33 36.2109 129.683 36.2109C130.004 36.2109 130.289 36.146 130.536 36.0161C130.79 35.88 131.009 35.7007 131.195 35.478C131.387 35.2554 131.547 35.0018 131.677 34.7173C131.807 34.4328 131.912 34.139 131.993 33.8359C132.073 33.5329 132.132 33.2329 132.169 32.936C132.206 32.633 132.225 32.3577 132.225 32.1104ZM141.298 24.1875C141.298 24.4225 141.252 24.6452 141.159 24.8555C141.072 25.0658 140.952 25.2482 140.797 25.4028C140.642 25.5575 140.46 25.6812 140.25 25.7739C140.039 25.8605 139.817 25.9038 139.582 25.9038C139.347 25.9038 139.124 25.8605 138.914 25.7739C138.71 25.6812 138.53 25.5575 138.376 25.4028C138.221 25.2482 138.097 25.0658 138.005 24.8555C137.918 24.6452 137.875 24.4225 137.875 24.1875C137.875 23.9525 137.918 23.7329 138.005 23.5288C138.097 23.3185 138.221 23.1361 138.376 22.9814C138.53 22.8268 138.71 22.7062 138.914 22.6196C139.124 22.5269 139.347 22.4805 139.582 22.4805C139.817 22.4805 140.039 22.5269 140.25 22.6196C140.46 22.7062 140.642 22.8268 140.797 22.9814C140.952 23.1361 141.072 23.3185 141.159 23.5288C141.252 23.7329 141.298 23.9525 141.298 24.1875ZM141.159 37.4912H138.014V26.7852H141.159V37.4912ZM154.75 31.3496C154.75 32.0732 154.66 32.8278 154.481 33.6133C154.308 34.3988 154.064 35.1688 153.748 35.9233C153.433 36.6779 153.055 37.3861 152.616 38.0479C152.177 38.7158 151.695 39.291 151.169 39.7734L149.991 39.1333C150.158 38.8241 150.316 38.4777 150.464 38.0942C150.612 37.7108 150.745 37.3057 150.863 36.8789C150.987 36.446 151.095 36.0007 151.188 35.543C151.287 35.0853 151.367 34.6338 151.429 34.1885C151.497 33.737 151.546 33.3009 151.577 32.8804C151.614 32.4536 151.633 32.0578 151.633 31.6929C151.633 31.4517 151.624 31.195 151.605 30.9229C151.587 30.6445 151.546 30.3693 151.484 30.0972C151.429 29.8188 151.352 29.5529 151.253 29.2993C151.154 29.0457 151.021 28.8231 150.854 28.6313C150.693 28.4396 150.495 28.285 150.26 28.1675C150.031 28.05 149.759 27.9912 149.443 27.9912C149.134 27.9912 148.859 28.0623 148.618 28.2046C148.377 28.3407 148.163 28.5231 147.978 28.752C147.792 28.9746 147.631 29.2313 147.495 29.522C147.365 29.8127 147.257 30.1126 147.171 30.4219C147.09 30.7249 147.031 31.0249 146.994 31.3218C146.957 31.6187 146.939 31.8846 146.939 32.1196V37.4912H143.794V26.7759H145L146.438 29.2715C146.611 28.8571 146.827 28.4798 147.087 28.1396C147.347 27.7995 147.641 27.5088 147.968 27.2676C148.296 27.0264 148.658 26.8408 149.054 26.7109C149.456 26.5811 149.889 26.5161 150.353 26.5161C151.095 26.5161 151.741 26.6367 152.292 26.8779C152.842 27.1191 153.3 27.4562 153.665 27.8892C154.03 28.3159 154.302 28.8262 154.481 29.4199C154.66 30.0075 154.75 30.6507 154.75 31.3496ZM167.609 37.4912H164.473V36.2109C164.102 36.7181 163.653 37.0954 163.128 37.3428C162.608 37.584 162.036 37.7046 161.411 37.7046C160.595 37.7046 159.865 37.5592 159.222 37.2686C158.579 36.9779 158.034 36.582 157.589 36.0811C157.144 35.5739 156.804 34.9801 156.568 34.2998C156.333 33.6195 156.216 32.8896 156.216 32.1104C156.216 31.3311 156.333 30.6012 156.568 29.9209C156.804 29.2406 157.144 28.6499 157.589 28.1489C158.034 27.6418 158.579 27.2428 159.222 26.9521C159.865 26.6615 160.595 26.5161 161.411 26.5161C161.826 26.5161 162.218 26.578 162.589 26.7017C162.967 26.8254 163.31 27.0016 163.619 27.2305C163.935 27.4531 164.21 27.7253 164.445 28.0469C164.686 28.3623 164.875 28.7148 165.011 29.1045L166.402 26.7759H167.609V37.4912ZM164.454 32.1104C164.454 31.832 164.439 31.5382 164.408 31.229C164.383 30.9198 164.337 30.6136 164.269 30.3105C164.201 30.0075 164.105 29.7199 163.981 29.4478C163.864 29.1694 163.709 28.9251 163.517 28.7148C163.332 28.4984 163.106 28.3283 162.84 28.2046C162.574 28.0809 162.265 28.019 161.912 28.019C161.56 28.019 161.254 28.084 160.994 28.2139C160.734 28.3376 160.511 28.5076 160.326 28.7241C160.14 28.9344 159.986 29.1787 159.862 29.457C159.744 29.7354 159.652 30.026 159.584 30.3291C159.516 30.6322 159.466 30.9383 159.435 31.2476C159.41 31.5506 159.398 31.8382 159.398 32.1104C159.398 32.3825 159.41 32.6732 159.435 32.9824C159.466 33.2917 159.516 33.5978 159.584 33.9009C159.652 34.2039 159.744 34.4946 159.862 34.7729C159.986 35.0513 160.14 35.2987 160.326 35.5151C160.511 35.7254 160.734 35.8955 160.994 36.0254C161.254 36.1491 161.56 36.2109 161.912 36.2109C162.234 36.2109 162.518 36.146 162.766 36.0161C163.019 35.88 163.239 35.7007 163.424 35.478C163.616 35.2554 163.777 35.0018 163.907 34.7173C164.037 34.4328 164.142 34.139 164.222 33.8359C164.303 33.5329 164.361 33.2329 164.399 32.936C164.436 32.633 164.454 32.3577 164.454 32.1104ZM181.627 32.1475C181.627 32.9268 181.509 33.6566 181.274 34.3369C181.039 35.0173 180.699 35.611 180.254 36.1182C179.808 36.6191 179.264 37.015 178.621 37.3057C177.977 37.5964 177.248 37.7417 176.431 37.7417C176.017 37.7417 175.621 37.6799 175.244 37.5562C174.873 37.4325 174.529 37.2593 174.214 37.0366C173.905 36.8078 173.63 36.5356 173.388 36.2202C173.153 35.9048 172.968 35.5522 172.832 35.1626L171.44 37.4912H170.234V22.833H173.37V28.0562C173.741 27.5428 174.186 27.1655 174.706 26.9243C175.231 26.6831 175.807 26.5625 176.431 26.5625C177.248 26.5625 177.977 26.7078 178.621 26.9985C179.264 27.2892 179.808 27.6851 180.254 28.186C180.699 28.687 181.039 29.2777 181.274 29.958C181.509 30.6383 181.627 31.3682 181.627 32.1475ZM178.444 32.1475C178.444 31.8753 178.429 31.5877 178.398 31.2847C178.373 30.9754 178.327 30.6693 178.259 30.3662C178.191 30.0632 178.095 29.7725 177.971 29.4941C177.854 29.2158 177.702 28.9715 177.517 28.7612C177.331 28.5448 177.109 28.3747 176.849 28.251C176.589 28.1211 176.283 28.0562 175.93 28.0562C175.609 28.0562 175.321 28.1242 175.068 28.2603C174.82 28.3901 174.601 28.5664 174.409 28.7891C174.223 29.0117 174.066 29.2653 173.936 29.5498C173.806 29.8343 173.701 30.1281 173.62 30.4312C173.54 30.7342 173.481 31.0342 173.444 31.3311C173.407 31.6279 173.388 31.9001 173.388 32.1475C173.388 32.4258 173.401 32.7196 173.425 33.0288C173.456 33.3381 173.506 33.6473 173.574 33.9565C173.642 34.2596 173.735 34.5503 173.852 34.8286C173.976 35.1007 174.13 35.3451 174.316 35.5615C174.508 35.7718 174.734 35.9388 174.993 36.0625C175.259 36.1862 175.572 36.248 175.93 36.248C176.277 36.248 176.58 36.1862 176.839 36.0625C177.105 35.9326 177.331 35.7625 177.517 35.5522C177.702 35.3358 177.854 35.0884 177.971 34.8101C178.095 34.5256 178.191 34.2318 178.259 33.9287C178.327 33.6257 178.373 33.3226 178.398 33.0195C178.429 32.7103 178.444 32.4196 178.444 32.1475ZM186.943 24.1875C186.943 24.4225 186.896 24.6452 186.803 24.8555C186.717 25.0658 186.596 25.2482 186.442 25.4028C186.287 25.5575 186.104 25.6812 185.894 25.7739C185.684 25.8605 185.461 25.9038 185.226 25.9038C184.991 25.9038 184.769 25.8605 184.558 25.7739C184.354 25.6812 184.175 25.5575 184.02 25.4028C183.866 25.2482 183.742 25.0658 183.649 24.8555C183.562 24.6452 183.519 24.4225 183.519 24.1875C183.519 23.9525 183.562 23.7329 183.649 23.5288C183.742 23.3185 183.866 23.1361 184.02 22.9814C184.175 22.8268 184.354 22.7062 184.558 22.6196C184.769 22.5269 184.991 22.4805 185.226 22.4805C185.461 22.4805 185.684 22.5269 185.894 22.6196C186.104 22.7062 186.287 22.8268 186.442 22.9814C186.596 23.1361 186.717 23.3185 186.803 23.5288C186.896 23.7329 186.943 23.9525 186.943 24.1875ZM186.803 37.4912H183.658V26.7852H186.803V37.4912ZM192.574 37.4912H189.438V21.8403H190.644L192.574 25.0967V37.4912ZM198.484 24.1875C198.484 24.4225 198.437 24.6452 198.344 24.8555C198.258 25.0658 198.137 25.2482 197.983 25.4028C197.828 25.5575 197.645 25.6812 197.435 25.7739C197.225 25.8605 197.002 25.9038 196.767 25.9038C196.532 25.9038 196.31 25.8605 196.099 25.7739C195.895 25.6812 195.716 25.5575 195.561 25.4028C195.407 25.2482 195.283 25.0658 195.19 24.8555C195.103 24.6452 195.06 24.4225 195.06 24.1875C195.06 23.9525 195.103 23.7329 195.19 23.5288C195.283 23.3185 195.407 23.1361 195.561 22.9814C195.716 22.8268 195.895 22.7062 196.099 22.6196C196.31 22.5269 196.532 22.4805 196.767 22.4805C197.002 22.4805 197.225 22.5269 197.435 22.6196C197.645 22.7062 197.828 22.8268 197.983 22.9814C198.137 23.1361 198.258 23.3185 198.344 23.5288C198.437 23.7329 198.484 23.9525 198.484 24.1875ZM198.344 37.4912H195.199V26.7852H198.344V37.4912ZM205.015 37.4912H201.87V28.019H199.922V26.7759H201.87V22.833H205.015V26.7759H208.262V28.019H205.015V37.4912ZM219.311 26.7759L215.415 36.2017C214.969 37.2778 214.471 38.3416 213.921 39.3931C213.377 40.4507 212.786 41.465 212.149 42.436L210.924 41.6938C211.079 41.4155 211.262 41.0939 211.472 40.729C211.682 40.3641 211.889 39.9868 212.093 39.5972C212.297 39.2075 212.486 38.821 212.659 38.4375C212.832 38.0602 212.965 37.7139 213.058 37.3984L208.373 26.7759H211.509L214.691 34.0215L217.14 26.7759H219.311Z" fill="#FCD7AC"/>
</g>
</svg>
