<svg width="296" height="65" viewBox="0 0 296 65" fill="none" xmlns="http://www.w3.org/2000/svg">
<path fill-rule="evenodd" clip-rule="evenodd" d="M293.824 32.6002C293.824 32.6002 281.423 56.4814 270.448 49.1724C270.448 49.1724 268.141 71.6981 260.285 58.1065H35.0299C27.1739 71.6981 24.867 49.1724 24.867 49.1724C13.8915 56.4814 1.49307 32.6002 1.49307 32.6002C1.49307 32.6002 13.8915 8.71692 24.867 16.028C24.867 16.028 27.1739 -6.49971 35.0299 7.09379H260.285C268.141 -6.49971 270.448 16.028 270.448 16.028C281.423 8.71692 293.824 32.6002 293.824 32.6002Z" fill="#FCD765"/>
<path d="M295.215 33.0076C295.18 33.075 283.342 55.888 271.746 50.8957C270.946 56.3835 267.842 72.1828 259.952 59.1501H36.0454C28.1556 72.1828 25.054 56.3815 24.2514 50.8957C12.6556 55.888 0.818019 33.075 0.782346 33.0076L0.492996 32.4546L0.782346 31.9017C0.818019 31.8323 12.6556 9.01929 24.2514 14.0136C25.052 8.52582 28.1556 -7.27347 36.0454 5.75717H259.952C267.842 -7.27347 270.946 8.52582 271.746 14.0136C283.342 9.01929 295.18 31.8323 295.215 31.9017L295.507 32.4546L295.215 33.0076ZM271.449 48.0359C280.407 54.0033 290.929 35.8892 292.816 32.4546C290.929 29.0201 280.407 10.906 271.449 16.8714L269.818 17.9594L269.608 16.0073C269.602 15.9538 267.668 -2.86188 261.655 7.54282L261.31 8.13737H34.6878L34.3429 7.54282C28.33 -2.86188 26.3957 15.9538 26.3898 16.0073L26.1797 17.9594L24.5487 16.8714C15.5907 10.906 5.06908 29.0201 3.18236 32.4546C5.06908 35.8892 15.5907 54.0033 24.5487 48.0359L26.1797 46.9499L26.3898 48.9C26.3957 48.9535 28.33 67.7712 34.3429 57.3665L34.6878 56.7719C110.228 56.7719 185.77 56.7798 261.31 56.7719L261.655 57.3665C267.668 67.7712 269.602 48.9535 269.608 48.9L269.818 46.9499L271.449 48.0359Z" fill="#FAF6F0"/>
</svg>
