<svg width="367" height="48" viewBox="0 0 367 48" fill="none" xmlns="http://www.w3.org/2000/svg">
<path d="M17.8992 9.97168C18.5004 5.85114 20.8305 -6.01177 26.7546 3.77246H142.058V5.55957H25.7361L25.4763 5.11328C20.9614 -2.69922 19.5091 11.4286 19.5046 11.4688L19.3474 12.9346L18.1228 12.1172C11.3968 7.63813 3.49678 21.239 2.07983 23.8184C3.49677 26.3977 11.3968 39.9981 18.1228 35.5176L19.3474 34.7021L19.5046 36.167C19.5145 36.2594 20.9699 50.3214 25.4763 42.5234L25.7361 42.0771C64.5098 42.0771 103.284 42.0773 142.058 42.0771V43.8633H26.7546C20.8307 53.6483 18.5018 41.784 17.8992 37.665C9.19236 41.4133 0.303885 24.284 0.2771 24.2334L0.0603027 23.8184L0.2771 23.4033C0.303885 23.3512 9.19236 6.2219 17.8992 9.97168Z" fill="#FE6701"/>
<path d="M18.6091 11.9824C18.6183 11.8937 20.3567 -4.90551 26.24 5.27441H137.058V43.5781H26.24C20.3589 53.7527 18.6195 36.9712 18.6091 36.8701C10.3681 42.358 1.05835 24.4258 1.05835 24.4258C1.1052 24.3357 10.3889 6.50677 18.6091 11.9824Z" fill="#FE6701"/>
<path d="M348.218 38.0283C347.616 42.1489 345.286 54.0118 339.362 44.2275H224.058V42.4404H340.381L340.64 42.8867C345.155 50.6992 346.608 36.5714 346.612 36.5312L346.769 35.0654L347.994 35.8828C354.72 40.3619 362.62 26.761 364.037 24.1816C362.62 21.6023 354.72 8.00187 347.994 12.4824L346.769 13.2979L346.612 11.833C346.602 11.7406 345.147 -2.32137 340.64 5.47656L340.381 5.92285C301.607 5.92285 262.833 5.92271 224.058 5.92285V4.13672H339.362C345.286 -5.64835 347.615 6.21596 348.218 10.335C356.924 6.58667 365.813 23.716 365.84 23.7666L366.056 24.1816L365.84 24.5967C365.813 24.6488 356.924 41.7781 348.218 38.0283Z" fill="#FE6701"/>
<path d="M347.508 37.0176C347.498 37.1063 345.76 53.9055 339.877 43.7256H229.058V5.42188H339.877C345.758 -4.75268 347.497 12.0288 347.508 12.1299C355.749 6.64195 365.058 24.5742 365.058 24.5742C365.012 24.6643 355.728 42.4932 347.508 37.0176Z" fill="#FE6701"/>
<path d="M237.058 43.3037H131.058V5H237.058V43.3037Z" fill="#FE6701"/>
<path d="M237.058 44.0908H129.058V42.3047C165.058 42.3057 201.058 42.3061 237.058 42.3047V44.0908ZM237.058 5.78711H129.058V4H237.058V5.78711Z" fill="#FE6701"/>
</svg>
