<svg width="296" height="64" viewBox="0 0 296 64" fill="none" xmlns="http://www.w3.org/2000/svg">
<path fill-rule="evenodd" clip-rule="evenodd" d="M293.824 32.1459C293.824 32.1459 281.423 56.0271 270.448 48.7181C270.448 48.7181 268.141 71.2438 260.285 57.6523H35.0299C27.1739 71.2438 24.867 48.7181 24.867 48.7181C13.8915 56.0271 1.49307 32.1459 1.49307 32.1459C1.49307 32.1459 13.8915 8.26264 24.867 15.5737C24.867 15.5737 27.1739 -6.95399 35.0299 6.6395H260.285C268.141 -6.95399 270.448 15.5737 270.448 15.5737C281.423 8.26264 293.824 32.1459 293.824 32.1459Z" fill="#FCD765"/>
<path d="M295.215 32.5532C295.18 32.6206 283.342 55.4336 271.746 50.4413C270.946 55.9291 267.842 71.7284 259.952 58.6957H36.0454C28.1556 71.7284 25.054 55.9271 24.2514 50.4413C12.6556 55.4336 0.818019 32.6206 0.782346 32.5532L0.492996 32.0002L0.782346 31.4473C0.818019 31.3779 12.6556 8.56489 24.2514 13.5591C25.052 8.07141 28.1556 -7.72788 36.0454 5.30277H259.952C267.842 -7.72788 270.946 8.07141 271.746 13.5591C283.342 8.56489 295.18 31.3779 295.215 31.4473L295.507 32.0002L295.215 32.5532ZM271.449 47.5815C280.407 53.5489 290.929 35.4348 292.816 32.0002C290.929 28.5657 280.407 10.4516 271.449 16.417L269.818 17.505L269.608 15.5529C269.602 15.4994 267.668 -3.31629 261.655 7.08841L261.31 7.68297H34.6878L34.3429 7.08841C28.33 -3.31629 26.3957 15.4994 26.3898 15.5529L26.1797 17.505L24.5487 16.417C15.5907 10.4516 5.06908 28.5657 3.18236 32.0002C5.06908 35.4348 15.5907 53.5489 24.5487 47.5815L26.1797 46.4955L26.3898 48.4456C26.3957 48.4991 28.33 67.3168 34.3429 56.9121L34.6878 56.3175C110.228 56.3175 185.77 56.3254 261.31 56.3175L261.655 56.9121C267.668 67.3168 269.602 48.4991 269.608 48.4456L269.818 46.4955L271.449 47.5815Z" fill="#FAF6F0"/>
<path d="M148.725 30.8865V31.0628C148.712 31.5823 148.656 32.1204 148.558 32.6771C148.465 33.2337 148.332 33.7903 148.159 34.347C147.985 34.9036 147.778 35.4541 147.537 35.9984C147.296 36.5426 147.024 37.0622 146.721 37.5569C146.424 38.0579 146.102 38.5249 145.756 38.9578C145.409 39.397 145.045 39.7835 144.661 40.1175L143.279 39.3196C143.495 38.9547 143.69 38.5558 143.863 38.1229C144.043 37.6961 144.203 37.2477 144.346 36.7776C144.488 36.3076 144.608 35.8252 144.707 35.3304C144.813 34.8356 144.899 34.3439 144.967 33.8553C145.035 33.3667 145.085 32.8873 145.116 32.4173C145.153 31.9411 145.171 31.4896 145.171 31.0628C145.171 30.7288 145.168 30.3515 145.162 29.931C145.162 29.5042 145.137 29.0713 145.088 28.6321C145.045 28.193 144.97 27.7663 144.865 27.3519C144.76 26.9313 144.602 26.5571 144.392 26.2293C144.188 25.9015 143.922 25.6387 143.594 25.4407C143.273 25.2428 142.871 25.1439 142.388 25.1439C141.961 25.1439 141.593 25.2181 141.284 25.3665C140.981 25.5088 140.721 25.7036 140.505 25.951C140.295 26.1922 140.124 26.4736 139.995 26.7952C139.871 27.1168 139.772 27.457 139.698 27.8157C139.63 28.1683 139.583 28.527 139.559 28.8919C139.54 29.2506 139.531 29.5908 139.531 29.9124V32.5008H143.529V34.0316H139.531V37.2786H135.848V30.4876C135.848 29.5166 136.002 28.6136 136.311 27.7786C136.621 26.9437 137.057 26.22 137.62 25.6077C138.189 24.9892 138.869 24.5068 139.661 24.1605C140.458 23.8079 141.346 23.6317 142.323 23.6317C142.985 23.6317 143.603 23.7275 144.179 23.9193C144.76 24.1048 145.289 24.3646 145.765 24.6985C146.241 25.0263 146.665 25.4191 147.036 25.8768C147.413 26.3283 147.726 26.8231 147.973 27.3611C148.227 27.8992 148.418 28.4682 148.548 29.0682C148.678 29.6681 148.737 30.2742 148.725 30.8865ZM153.911 37.2786H150.775V21.6277H151.981L153.911 24.8841V37.2786ZM159.663 37.2786H156.527V21.6277H157.733L159.663 24.8841V37.2786Z" fill="#4B0000"/>
</svg>
