<svg width="222" height="49" viewBox="0 0 222 49" fill="none" xmlns="http://www.w3.org/2000/svg">
<path fill-rule="evenodd" clip-rule="evenodd" d="M220.643 24.6313C220.643 24.6313 211.332 42.5628 203.091 37.0747C203.091 37.0747 201.359 53.9884 195.46 43.7831H26.325C20.4262 53.9884 18.694 37.0747 18.694 37.0747C10.453 42.5628 1.14343 24.6313 1.14343 24.6313C1.14343 24.6313 10.453 6.69825 18.694 12.1878C18.694 12.1878 20.4262 -4.72735 26.325 5.4795H195.46C201.359 -4.72735 203.091 12.1878 203.091 12.1878C211.332 6.69825 220.643 24.6313 220.643 24.6313Z" fill="#FE6701"/>
<mask id="mask0_35_8920" style="mask-type:luminance" maskUnits="userSpaceOnUse" x="0" y="0" width="222" height="49">
<path d="M0 0.491211H221.504V48.4912H0V0.491211Z" fill="white"/>
</mask>
<g mask="url(#mask0_35_8920)">
<path d="M221.298 24.7788C221.271 24.8294 212.383 41.9588 203.676 38.2103C203.075 42.3308 200.744 54.1939 194.82 44.4082H26.6967C20.7725 54.1939 18.4437 42.3294 17.841 38.2103C9.13415 41.9588 0.245757 24.8294 0.218971 24.7788L0.00170898 24.3636L0.218971 23.9484C0.245757 23.8963 9.13415 6.76686 17.841 10.5169C18.4422 6.39632 20.7725 -5.46677 26.6967 4.31745H194.82C200.744 -5.46677 203.075 6.39632 203.676 10.5169C212.383 6.76686 221.271 23.8963 221.298 23.9484L221.517 24.3636L221.298 24.7788ZM203.453 36.063C210.179 40.5436 218.079 26.9425 219.496 24.3636C218.079 21.7847 210.179 8.18353 203.453 12.6627L202.228 13.4797L202.07 12.0139C202.066 11.9737 200.613 -2.15427 196.098 5.65823L195.84 6.10466H25.6773L25.4184 5.65823C20.9035 -2.15427 19.4511 11.9737 19.4467 12.0139L19.2889 13.4797L18.0642 12.6627C11.338 8.18353 3.43772 21.7847 2.02105 24.3636C3.43772 26.9425 11.338 40.5436 18.0642 36.063L19.2889 35.2475L19.4467 36.7118C19.4511 36.752 20.9035 50.8814 25.4184 43.0689L25.6773 42.6225C82.3976 42.6225 139.119 42.6285 195.84 42.6225L196.098 43.0689C200.613 50.8814 202.066 36.752 202.07 36.7118L202.228 35.2475L203.453 36.063Z" fill="#FE6701"/>
</g>
</svg>
