<svg width="1440" height="56" viewBox="0 0 1440 56" fill="none" xmlns="http://www.w3.org/2000/svg">
<mask id="mask0_35_9026" style="mask-type:luminance" maskUnits="userSpaceOnUse" x="-5" y="0" width="793" height="56">
<path d="M-5 0H787.786V55.9513H-5V0Z" fill="white"/>
</mask>
<g mask="url(#mask0_35_9026)">
<path d="M647.363 10.4798L676.522 28.0017L647.363 45.5236V10.4798ZM679.94 28.0017L709.099 45.5236L738.257 28.0017L709.099 10.4798L679.94 28.0017ZM665.743 15.876L677.923 23.1993L690.109 15.876L677.923 8.55781L665.743 15.876ZM665.743 40.1222L677.923 47.4456L690.109 40.1222L677.923 32.8041L665.743 40.1222ZM728.093 15.876L740.274 23.1993L752.454 15.876L740.274 8.55781L728.093 15.876ZM728.093 40.1222L740.274 47.4456L752.454 40.1222L740.274 32.8041L728.093 40.1222ZM636.767 10.4798V45.5236H643.946L641.513 28.0069L643.946 10.4798H636.767ZM781.43 45.5288V10.4798H774.251L776.684 28.0017L774.251 45.5288H781.43ZM787.281 28.0017L784.848 45.5236H788.443V10.4798H784.848L787.281 28.0017ZM770.834 10.4798L741.675 28.0017L770.834 45.5236V10.4798ZM629.754 0.09375H-5V1.90115H788.443V0.09375H629.754ZM488.675 28.0069V45.5236L517.833 28.0017L488.675 10.4798V28.0069ZM521.251 28.0017L550.41 45.5236L579.569 28.0017L550.41 10.4798L521.251 28.0017ZM507.055 15.876L519.235 23.1993L531.42 15.876L519.235 8.55781L507.055 15.876ZM507.055 40.1222L519.235 47.4456L531.42 40.1222L519.235 32.8041L507.055 40.1222ZM569.399 15.876L581.585 23.1993L593.765 15.876L581.585 8.55781L569.399 15.876ZM569.399 40.1222L581.585 47.4456L593.765 40.1222L581.585 32.8041L569.399 40.1222ZM478.078 10.4798V45.5236H485.257L482.824 28.0069L485.257 10.4798H478.078ZM622.742 45.5288V10.4798H615.563L617.996 28.0017L615.563 45.5288H622.742ZM629.754 45.5236V45.5288H633.349L630.916 28.0069L633.349 10.4798H626.16L628.592 28.0017L626.16 45.5236H629.754ZM612.145 10.4798L582.986 28.0017L612.145 45.5236V10.4798ZM471.066 48.9561H-5V52.5813H788.443V48.9561H471.066ZM471.066 54.0918H-5V55.9044H788.443V54.0918H471.066ZM471.066 3.42208H-5V7.03167H788.443V3.42208H471.066ZM329.986 28.0069V45.5236L359.15 28.0017L329.986 10.4798V28.0069ZM362.562 28.0017L391.727 45.5236L420.885 28.0017L391.727 10.4798L362.562 28.0017ZM348.366 15.876L360.552 23.1993L372.732 15.876L360.552 8.55781L348.366 15.876ZM348.366 40.1222L360.552 47.4456L372.732 40.1222L360.552 32.8041L348.366 40.1222ZM410.716 15.876L422.896 23.1993L435.082 15.876L422.896 8.55781L410.716 15.876ZM410.716 40.1222L422.896 47.4456L435.082 40.1222L422.896 32.8041L410.716 40.1222ZM319.389 10.4798V45.5236H326.568L324.135 28.0069L326.568 10.4798H319.389ZM464.053 45.5288V10.4798H456.874L459.307 28.0017L456.874 45.5288H464.053ZM471.066 45.5236V45.5288H474.66L472.222 28.0069L474.66 10.4798H467.471L469.904 28.0017L467.471 45.5236H471.066ZM453.457 10.4798L424.298 28.0017L453.457 45.5236V10.4798ZM171.297 28.0069V45.5236L200.456 28.0017L171.297 10.4798V28.0069ZM203.874 28.0017L233.033 45.5236L262.192 28.0017L233.033 10.4798L203.874 28.0017ZM189.677 15.876L201.858 23.1993L214.043 15.876L201.858 8.55781L189.677 15.876ZM189.677 40.1222L201.858 47.4456L214.043 40.1222L201.858 32.8041L189.677 40.1222ZM252.028 15.876L264.208 23.1993L276.388 15.876L264.208 8.55781L252.028 15.876ZM252.028 40.1222L264.208 47.4456L276.388 40.1222L264.208 32.8041L252.028 40.1222ZM160.701 10.4798V45.5236H167.88L165.447 28.0069L167.88 10.4798H160.701ZM305.365 45.5288V10.4798H298.181L300.619 28.0017L298.181 45.5288H305.365ZM312.377 45.5236V45.5288H315.972L313.534 28.0069L315.972 10.4798H308.782L311.215 28.0017L308.782 45.5236H312.377ZM294.768 10.4798L265.609 28.0017L294.768 45.5236V10.4798ZM12.6089 28.0069V45.5236L41.7678 28.0017L12.6089 10.4798V28.0069ZM45.1854 28.0017L74.3443 45.5236L103.503 28.0017L74.3443 10.4798L45.1854 28.0017ZM30.9889 15.876L43.1692 23.1993L55.3548 15.876L43.1692 8.55781L30.9889 15.876ZM30.9889 40.1222L43.1692 47.4456L55.3548 40.1222L43.1692 32.8041L30.9889 40.1222ZM93.3338 15.876L105.519 23.1993L117.7 15.876L105.519 8.55781L93.3338 15.876ZM93.3338 40.1222L105.519 47.4456L117.7 40.1222L105.519 32.8041L93.3338 40.1222ZM2.0123 10.4798V45.5236H9.19132L6.75837 28.0069L9.19132 10.4798H2.0123ZM-3.84344 28.0069L-1.41049 10.4798H-5V45.5288H-1.41049L-3.84344 28.0069ZM146.676 45.5288V10.4798H139.492L141.93 28.0017L139.492 45.5288H146.676ZM153.689 45.5236V45.5288H157.278L154.845 28.0069L157.278 10.4798H150.094L152.527 28.0017L150.094 45.5236H153.689ZM136.08 10.4798L106.921 28.0017L136.08 45.5236V10.4798Z" fill="#3D261D"/>
</g>
<mask id="mask1_35_9026" style="mask-type:luminance" maskUnits="userSpaceOnUse" x="787" y="0" width="794" height="56">
<path d="M787.214 0H1580V55.9513H787.214V0Z" fill="white"/>
</mask>
<g mask="url(#mask1_35_9026)">
<path d="M1439.58 10.4798L1468.74 28.0017L1439.58 45.5236V10.4798ZM1472.15 28.0017L1501.31 45.5236L1530.47 28.0017L1501.31 10.4798L1472.15 28.0017ZM1457.96 15.876L1470.14 23.1993L1482.32 15.876L1470.14 8.55781L1457.96 15.876ZM1457.96 40.1222L1470.14 47.4456L1482.32 40.1222L1470.14 32.8041L1457.96 40.1222ZM1520.31 15.876L1532.49 23.1993L1544.67 15.876L1532.49 8.55781L1520.31 15.876ZM1520.31 40.1222L1532.49 47.4456L1544.67 40.1222L1532.49 32.8041L1520.31 40.1222ZM1428.98 10.4798V45.5236H1436.16L1433.73 28.0069L1436.16 10.4798H1428.98ZM1573.64 45.5288V10.4798H1566.47L1568.9 28.0017L1566.47 45.5288H1573.64ZM1579.49 28.0017L1577.06 45.5236H1580.66V10.4798H1577.06L1579.49 28.0017ZM1563.05 10.4798L1533.89 28.0017L1563.05 45.5236V10.4798ZM1421.97 0.09375H787.214V1.90115H1580.66V0.09375H1421.97ZM1280.89 28.0069V45.5236L1310.05 28.0017L1280.89 10.4798V28.0069ZM1313.46 28.0017L1342.62 45.5236L1371.78 28.0017L1342.62 10.4798L1313.46 28.0017ZM1299.27 15.876L1311.45 23.1993L1323.63 15.876L1311.45 8.55781L1299.27 15.876ZM1299.27 40.1222L1311.45 47.4456L1323.63 40.1222L1311.45 32.8041L1299.27 40.1222ZM1361.61 15.876L1373.8 23.1993L1385.98 15.876L1373.8 8.55781L1361.61 15.876ZM1361.61 40.1222L1373.8 47.4456L1385.98 40.1222L1373.8 32.8041L1361.61 40.1222ZM1270.29 10.4798V45.5236H1277.47L1275.04 28.0069L1277.47 10.4798H1270.29ZM1414.96 45.5288V10.4798H1407.78L1410.21 28.0017L1407.78 45.5288H1414.96ZM1421.97 45.5236V45.5288H1425.56L1423.13 28.0069L1425.56 10.4798H1418.37L1420.81 28.0017L1418.37 45.5236H1421.97ZM1404.36 10.4798L1375.2 28.0017L1404.36 45.5236V10.4798ZM1263.28 48.9561H787.214V52.5813H1580.66V48.9561H1263.28ZM1263.28 54.0918H787.214V55.9044H1580.66V54.0918H1263.28ZM1263.28 3.42208H787.214V7.03167H1580.66V3.42208H1263.28ZM1122.2 28.0069V45.5236L1151.36 28.0017L1122.2 10.4798V28.0069ZM1154.78 28.0017L1183.94 45.5236L1213.1 28.0017L1183.94 10.4798L1154.78 28.0017ZM1140.58 15.876L1152.77 23.1993L1164.95 15.876L1152.77 8.55781L1140.58 15.876ZM1140.58 40.1222L1152.77 47.4456L1164.95 40.1222L1152.77 32.8041L1140.58 40.1222ZM1202.93 15.876L1215.11 23.1993L1227.3 15.876L1215.11 8.55781L1202.93 15.876ZM1202.93 40.1222L1215.11 47.4456L1227.3 40.1222L1215.11 32.8041L1202.93 40.1222ZM1111.6 10.4798V45.5236H1118.78L1116.35 28.0069L1118.78 10.4798H1111.6ZM1256.27 45.5288V10.4798H1249.09L1251.52 28.0017L1249.09 45.5288H1256.27ZM1263.28 45.5236V45.5288H1266.87L1264.44 28.0069L1266.87 10.4798H1259.68L1262.12 28.0017L1259.68 45.5236H1263.28ZM1245.67 10.4798L1216.51 28.0017L1245.67 45.5236V10.4798ZM963.511 28.0069V45.5236L992.67 28.0017L963.511 10.4798V28.0069ZM996.088 28.0017L1025.25 45.5236L1054.41 28.0017L1025.25 10.4798L996.088 28.0017ZM981.891 15.876L994.072 23.1993L1006.26 15.876L994.072 8.55781L981.891 15.876ZM981.891 40.1222L994.072 47.4456L1006.26 40.1222L994.072 32.8041L981.891 40.1222ZM1044.24 15.876L1056.42 23.1993L1068.6 15.876L1056.42 8.55781L1044.24 15.876ZM1044.24 40.1222L1056.42 47.4456L1068.6 40.1222L1056.42 32.8041L1044.24 40.1222ZM952.915 10.4798V45.5236H960.094L957.661 28.0069L960.094 10.4798H952.915ZM1097.58 45.5288V10.4798H1090.39L1092.83 28.0017L1090.39 45.5288H1097.58ZM1104.59 45.5236V45.5288H1108.19L1105.75 28.0069L1108.19 10.4798H1101L1103.43 28.0017L1101 45.5236H1104.59ZM1086.98 10.4798L1057.82 28.0017L1086.98 45.5236V10.4798ZM804.823 28.0069V45.5236L833.982 28.0017L804.823 10.4798V28.0069ZM837.399 28.0017L866.558 45.5236L895.717 28.0017L866.558 10.4798L837.399 28.0017ZM823.203 15.876L835.383 23.1993L847.569 15.876L835.383 8.55781L823.203 15.876ZM823.203 40.1222L835.383 47.4456L847.569 40.1222L835.383 32.8041L823.203 40.1222ZM885.548 15.876L897.733 23.1993L909.914 15.876L897.733 8.55781L885.548 15.876ZM885.548 40.1222L897.733 47.4456L909.914 40.1222L897.733 32.8041L885.548 40.1222ZM794.226 10.4798V45.5236H801.405L798.972 28.0069L801.405 10.4798H794.226ZM788.37 28.0069L790.803 10.4798H787.214V45.5288H790.803L788.37 28.0069ZM938.89 45.5288V10.4798H931.706L934.144 28.0017L931.706 45.5288H938.89ZM945.902 45.5236V45.5288H949.492L947.059 28.0069L949.492 10.4798H942.308L944.741 28.0017L942.308 45.5236H945.902ZM928.294 10.4798L899.135 28.0017L928.294 45.5236V10.4798Z" fill="#3D261D"/>
</g>
</svg>
