<svg width="296" height="64" viewBox="0 0 296 64" fill="none" xmlns="http://www.w3.org/2000/svg">
<mask id="mask0_248_13300" style="mask-type:luminance" maskUnits="userSpaceOnUse" x="0" y="0" width="296" height="64">
<path d="M0.0136719 0H295.014V63.9265H0.0136719V0Z" fill="white"/>
</mask>
<g mask="url(#mask0_248_13300)">
<path d="M294.738 32.3458C294.702 32.4132 282.865 55.2263 271.269 50.234C270.468 55.7217 267.365 71.521 259.475 58.4884H35.568C27.6783 71.521 24.5767 55.7197 23.774 50.234C12.1782 55.2263 0.340648 32.4132 0.304975 32.3458L0.015625 31.7929L0.304975 31.24C0.340648 31.1706 12.1782 8.35755 23.774 13.3518C24.5747 7.86407 27.6783 -7.93522 35.568 5.09543H259.475C267.365 -7.93522 270.468 7.86407 271.269 13.3518C282.865 8.35755 294.702 31.1706 294.738 31.24L295.029 31.7929L294.738 32.3458ZM270.972 47.3742C279.93 53.3415 290.451 35.2274 292.338 31.7929C290.451 28.3584 279.93 10.2443 270.972 16.2096L269.341 17.2977L269.131 15.3455C269.125 15.292 267.19 -3.52362 261.178 6.88108L260.833 7.47563H34.2104L33.8656 6.88108C27.8527 -3.52362 25.9184 15.292 25.9124 15.3455L25.7024 17.2977L24.0713 16.2096C15.1133 10.2443 4.59171 28.3584 2.70499 31.7929C4.59171 35.2274 15.1133 53.3415 24.0713 47.3742L25.7024 46.2881L25.9124 48.2383C25.9184 48.2918 27.8527 67.1094 33.8656 56.7047L34.2104 56.1102C109.751 56.1102 185.293 56.1181 260.833 56.1102L261.178 56.7047C267.19 67.1094 269.125 48.2918 269.131 48.2383L269.341 46.2881L270.972 47.3742Z" fill="#B3B3B3"/>
<path d="M123.814 33.3726C123.814 33.7498 123.752 34.1024 123.628 34.4302C123.505 34.758 123.335 35.0579 123.118 35.3301C122.902 35.596 122.648 35.8341 122.357 36.0444C122.073 36.2547 121.764 36.431 121.43 36.5732C121.102 36.7155 120.762 36.8237 120.409 36.8979C120.057 36.966 119.71 37 119.37 37H111.512V23.6406H118.693C119.008 23.6406 119.339 23.6654 119.686 23.7148C120.032 23.7581 120.369 23.8293 120.697 23.9282C121.031 24.0272 121.346 24.1571 121.643 24.3179C121.946 24.4787 122.209 24.6766 122.432 24.9116C122.66 25.1405 122.84 25.4064 122.97 25.7095C123.106 26.0125 123.174 26.3589 123.174 26.7485C123.174 27.1196 123.1 27.4567 122.951 27.7598C122.803 28.0628 122.602 28.335 122.348 28.5762C122.101 28.8112 121.813 29.0215 121.485 29.207C121.164 29.3864 120.824 29.5441 120.465 29.6802C120.916 29.8039 121.343 29.9678 121.745 30.1719C122.153 30.376 122.509 30.6265 122.812 30.9233C123.121 31.2202 123.366 31.5728 123.545 31.981C123.724 32.383 123.814 32.8468 123.814 33.3726ZM119.435 27.0732C119.435 26.3187 119.234 25.7682 118.832 25.4219C118.436 25.0755 117.87 24.9023 117.134 24.9023H115.195V29.2349H116.819C117.153 29.2349 117.478 29.1947 117.793 29.1143C118.108 29.0277 118.387 28.8978 118.628 28.7246C118.875 28.5452 119.07 28.3195 119.212 28.0474C119.361 27.7752 119.435 27.4505 119.435 27.0732ZM120.084 33.1406C120.084 32.7757 120.038 32.4355 119.945 32.1201C119.853 31.7985 119.71 31.5233 119.519 31.2944C119.327 31.0594 119.086 30.877 118.795 30.7471C118.51 30.611 118.173 30.543 117.784 30.543H115.195V35.7012H117.459C117.836 35.7012 118.186 35.6393 118.507 35.5156C118.829 35.3919 119.107 35.2188 119.342 34.9961C119.577 34.7734 119.76 34.5044 119.89 34.189C120.02 33.8735 120.084 33.5241 120.084 33.1406ZM134.817 27.231L133.054 30.1533C132.98 29.9059 132.884 29.6276 132.767 29.3184C132.649 29.0091 132.504 28.7215 132.331 28.4556C132.157 28.1834 131.95 27.9577 131.709 27.7783C131.468 27.5928 131.189 27.5 130.874 27.5C130.583 27.5 130.33 27.5742 130.113 27.7227C129.903 27.8711 129.724 28.0659 129.575 28.3071C129.427 28.5422 129.303 28.8112 129.204 29.1143C129.111 29.4111 129.037 29.7142 128.981 30.0234C128.932 30.3265 128.898 30.6203 128.879 30.9048C128.861 31.1831 128.852 31.4243 128.852 31.6284V37H125.707V26.2847H126.913L128.184 28.7803C128.357 28.3783 128.555 28.0103 128.777 27.6763C129 27.3361 129.257 27.0454 129.547 26.8042C129.838 26.5568 130.166 26.3651 130.531 26.229C130.902 26.0929 131.319 26.0249 131.783 26.0249C132.024 26.0249 132.293 26.0465 132.59 26.0898C132.887 26.127 133.178 26.195 133.462 26.2939C133.747 26.3867 134.01 26.5104 134.251 26.665C134.492 26.8197 134.681 27.0083 134.817 27.231ZM138.435 31.916C138.819 32.0026 139.202 32.0706 139.585 32.1201C139.969 32.1696 140.355 32.1943 140.745 32.1943C141.153 32.1943 141.531 32.1572 141.877 32.083C142.229 32.0026 142.533 31.8727 142.786 31.6934C143.046 31.5078 143.25 31.2635 143.398 30.9604C143.547 30.6574 143.621 30.2801 143.621 29.8286C143.621 29.4637 143.572 29.1297 143.473 28.8267C143.374 28.5236 143.225 28.2638 143.027 28.0474C142.836 27.8309 142.597 27.6639 142.313 27.5464C142.028 27.4227 141.698 27.3608 141.32 27.3608C140.968 27.3608 140.649 27.4258 140.365 27.5557C140.086 27.6855 139.839 27.8618 139.623 28.0845C139.412 28.3009 139.23 28.5545 139.075 28.8452C138.927 29.1359 138.803 29.439 138.704 29.7544C138.605 30.0698 138.534 30.3883 138.491 30.71C138.447 31.0316 138.426 31.3346 138.426 31.6191C138.426 31.6686 138.426 31.7181 138.426 31.7676C138.426 31.8171 138.429 31.8665 138.435 31.916ZM146.163 29.8008C146.163 30.2399 146.092 30.6326 145.95 30.979C145.807 31.3192 145.613 31.6191 145.365 31.8789C145.124 32.1387 144.843 32.3582 144.521 32.5376C144.199 32.717 143.856 32.8654 143.491 32.9829C143.126 33.0942 142.749 33.1746 142.359 33.2241C141.976 33.2736 141.602 33.2983 141.237 33.2983C140.773 33.2983 140.315 33.2674 139.864 33.2056C139.412 33.1375 138.967 33.0324 138.528 32.8901C138.596 33.2983 138.704 33.688 138.853 34.0591C139.001 34.424 139.199 34.7456 139.446 35.0239C139.694 35.2961 139.997 35.5125 140.355 35.6733C140.72 35.8341 141.15 35.9146 141.645 35.9146C141.973 35.9146 142.285 35.8651 142.582 35.7661C142.879 35.6672 143.151 35.528 143.398 35.3486C143.646 35.1693 143.862 34.9559 144.048 34.7085C144.24 34.4611 144.394 34.1859 144.512 33.8828L145.866 34.3838C145.662 34.8724 145.381 35.2961 145.022 35.6548C144.669 36.0073 144.267 36.3011 143.816 36.5361C143.371 36.765 142.894 36.9351 142.387 37.0464C141.886 37.1577 141.388 37.2134 140.894 37.2134C140.077 37.2134 139.323 37.0773 138.63 36.8052C137.937 36.5269 137.34 36.1403 136.839 35.6455C136.338 35.1507 135.946 34.5601 135.661 33.8735C135.377 33.187 135.234 32.4355 135.234 31.6191C135.234 30.8027 135.377 30.0513 135.661 29.3647C135.946 28.6782 136.338 28.0876 136.839 27.5928C137.34 27.098 137.937 26.7145 138.63 26.4424C139.323 26.1641 140.077 26.0249 140.894 26.0249C141.289 26.0249 141.694 26.0527 142.109 26.1084C142.523 26.1641 142.925 26.2537 143.315 26.3774C143.705 26.495 144.073 26.6496 144.419 26.8413C144.765 27.033 145.065 27.2712 145.319 27.5557C145.579 27.834 145.783 28.1587 145.931 28.5298C146.086 28.9009 146.163 29.3245 146.163 29.8008ZM158.91 37H155.774V35.7197C155.403 36.2269 154.955 36.6042 154.429 36.8516C153.91 37.0928 153.338 37.2134 152.713 37.2134C151.896 37.2134 151.167 37.068 150.523 36.7773C149.88 36.4867 149.336 36.0908 148.891 35.5898C148.445 35.0827 148.105 34.4889 147.87 33.8086C147.635 33.1283 147.518 32.3984 147.518 31.6191C147.518 30.8398 147.635 30.11 147.87 29.4297C148.105 28.7493 148.445 28.1587 148.891 27.6577C149.336 27.1506 149.88 26.7516 150.523 26.4609C151.167 26.1702 151.896 26.0249 152.713 26.0249C153.127 26.0249 153.52 26.0868 153.891 26.2104C154.268 26.3341 154.612 26.5104 154.921 26.7393C155.236 26.9619 155.512 27.234 155.747 27.5557C155.988 27.8711 156.176 28.2236 156.312 28.6133L157.704 26.2847H158.91V37ZM155.756 31.6191C155.756 31.3408 155.74 31.047 155.709 30.7378C155.685 30.4285 155.638 30.1224 155.57 29.8193C155.502 29.5163 155.406 29.2287 155.283 28.9565C155.165 28.6782 155.011 28.4339 154.819 28.2236C154.633 28.0072 154.408 27.8371 154.142 27.7134C153.876 27.5897 153.566 27.5278 153.214 27.5278C152.861 27.5278 152.555 27.5928 152.295 27.7227C152.036 27.8464 151.813 28.0164 151.627 28.2329C151.442 28.4432 151.287 28.6875 151.164 28.9658C151.046 29.2441 150.953 29.5348 150.885 29.8379C150.817 30.141 150.768 30.4471 150.737 30.7563C150.712 31.0594 150.7 31.347 150.7 31.6191C150.7 31.8913 150.712 32.182 150.737 32.4912C150.768 32.8005 150.817 33.1066 150.885 33.4097C150.953 33.7127 151.046 34.0034 151.164 34.2817C151.287 34.5601 151.442 34.8075 151.627 35.0239C151.813 35.2342 152.036 35.4043 152.295 35.5342C152.555 35.6579 152.861 35.7197 153.214 35.7197C153.535 35.7197 153.82 35.6548 154.067 35.5249C154.321 35.3888 154.541 35.2095 154.726 34.9868C154.918 34.7642 155.079 34.5106 155.208 34.2261C155.338 33.9416 155.444 33.6478 155.524 33.3447C155.604 33.0417 155.663 32.7417 155.7 32.4448C155.737 32.1418 155.756 31.8665 155.756 31.6191ZM172.334 37H171.128L169.737 34.6714C169.601 35.061 169.412 35.4136 169.171 35.729C168.936 36.0444 168.661 36.3166 168.345 36.5454C168.036 36.7681 167.693 36.9412 167.315 37.0649C166.944 37.1886 166.552 37.2505 166.137 37.2505C165.321 37.2505 164.591 37.1051 163.948 36.8145C163.305 36.5238 162.76 36.1279 162.315 35.627C161.87 35.1198 161.529 34.526 161.294 33.8457C161.059 33.1654 160.942 32.4355 160.942 31.6562C160.942 30.877 161.059 30.1471 161.294 29.4668C161.529 28.7865 161.87 28.1958 162.315 27.6948C162.76 27.1938 163.305 26.798 163.948 26.5073C164.591 26.2166 165.321 26.0713 166.137 26.0713C166.762 26.0713 167.334 26.1919 167.854 26.4331C168.379 26.6743 168.828 27.0516 169.199 27.5649V22.3418H172.334V37ZM169.18 31.6562C169.18 31.4089 169.162 31.1367 169.125 30.8398C169.087 30.543 169.029 30.243 168.948 29.9399C168.868 29.6369 168.763 29.3431 168.633 29.0586C168.503 28.7741 168.342 28.5205 168.15 28.2979C167.965 28.0752 167.745 27.8989 167.492 27.769C167.244 27.633 166.96 27.5649 166.638 27.5649C166.286 27.5649 165.979 27.6299 165.72 27.7598C165.46 27.8835 165.237 28.0535 165.052 28.27C164.866 28.4803 164.712 28.7246 164.588 29.0029C164.47 29.2812 164.378 29.5719 164.31 29.875C164.242 30.1781 164.192 30.4842 164.161 30.7935C164.136 31.0965 164.124 31.3841 164.124 31.6562C164.124 31.9284 164.136 32.2191 164.161 32.5283C164.192 32.8314 164.242 33.1344 164.31 33.4375C164.378 33.7406 164.47 34.0343 164.588 34.3188C164.712 34.5972 164.866 34.8446 165.052 35.061C165.237 35.2713 165.46 35.4414 165.72 35.5713C165.979 35.695 166.286 35.7568 166.638 35.7568C166.991 35.7568 167.3 35.695 167.566 35.5713C167.832 35.4476 168.058 35.2806 168.243 35.0703C168.435 34.8538 168.59 34.6095 168.707 34.3374C168.831 34.0591 168.927 33.7684 168.995 33.4653C169.063 33.1561 169.109 32.8468 169.134 32.5376C169.165 32.2284 169.18 31.9346 169.18 31.6562ZM184.172 33.5767C184.172 34.0467 184.104 34.4642 183.968 34.8291C183.832 35.194 183.647 35.5125 183.412 35.7847C183.177 36.0506 182.898 36.2764 182.577 36.4619C182.255 36.6413 181.909 36.7866 181.538 36.8979C181.173 37.0093 180.789 37.0897 180.387 37.1392C179.985 37.1886 179.586 37.2134 179.19 37.2134C178.659 37.2134 178.188 37.1794 177.78 37.1113C177.372 37.0433 176.982 36.9351 176.611 36.7866C176.24 36.632 175.869 36.4341 175.498 36.1929C175.133 35.9517 174.725 35.6579 174.273 35.3115L176.101 33.8179C176.268 34.1333 176.488 34.4209 176.76 34.6807C177.038 34.9342 177.326 35.1538 177.623 35.3394C177.919 35.5249 178.207 35.6672 178.485 35.7661C178.764 35.8651 178.989 35.9146 179.163 35.9146C179.305 35.9146 179.466 35.9115 179.645 35.9053C179.824 35.8929 180.007 35.8743 180.192 35.8496C180.378 35.8187 180.56 35.7754 180.74 35.7197C180.919 35.6641 181.077 35.5898 181.213 35.4971C181.355 35.3981 181.466 35.2775 181.547 35.1353C181.633 34.9868 181.677 34.8105 181.677 34.6064C181.677 34.3962 181.621 34.2137 181.51 34.0591C181.405 33.8983 181.265 33.7591 181.092 33.6416C180.919 33.5241 180.721 33.4251 180.499 33.3447C180.276 33.2643 180.05 33.1932 179.821 33.1313C179.599 33.0695 179.382 33.0169 179.172 32.9736C178.962 32.9242 178.779 32.8778 178.625 32.8345C178.34 32.7541 178.04 32.6737 177.725 32.5933C177.409 32.5067 177.097 32.4108 176.788 32.3057C176.478 32.1943 176.181 32.0645 175.897 31.916C175.619 31.7676 175.371 31.5913 175.155 31.3872C174.944 31.1769 174.774 30.9326 174.645 30.6543C174.521 30.3698 174.459 30.0389 174.459 29.6616C174.459 28.9689 174.595 28.3906 174.867 27.9268C175.146 27.4567 175.51 27.0825 175.962 26.8042C176.413 26.5197 176.927 26.3187 177.502 26.2012C178.077 26.0837 178.662 26.0249 179.255 26.0249C179.664 26.0249 180.093 26.0682 180.545 26.1548C180.996 26.2352 181.436 26.3589 181.862 26.5259C182.289 26.6867 182.688 26.8846 183.059 27.1196C183.43 27.3547 183.739 27.6237 183.987 27.9268L182.159 29.4297C182.023 29.0586 181.844 28.7401 181.621 28.4741C181.405 28.2082 181.167 27.9917 180.907 27.8247C180.653 27.6515 180.39 27.5247 180.118 27.4443C179.852 27.3639 179.605 27.3237 179.376 27.3237C179.153 27.3237 178.903 27.333 178.625 27.3516C178.346 27.3701 178.083 27.4227 177.836 27.5093C177.595 27.5959 177.388 27.7288 177.214 27.9082C177.047 28.0814 176.964 28.3226 176.964 28.6318C176.964 28.8545 177.013 29.0462 177.112 29.207C177.217 29.3617 177.354 29.4977 177.521 29.6152C177.688 29.7266 177.876 29.8224 178.086 29.9028C178.303 29.9771 178.522 30.0451 178.745 30.1069C178.968 30.1626 179.184 30.2121 179.395 30.2554C179.605 30.2987 179.793 30.3451 179.96 30.3945C180.245 30.4749 180.545 30.5584 180.86 30.645C181.182 30.7254 181.497 30.8213 181.807 30.9326C182.116 31.0378 182.413 31.1646 182.697 31.313C182.988 31.4552 183.242 31.6315 183.458 31.8418C183.674 32.0521 183.848 32.2995 183.978 32.584C184.107 32.8623 184.172 33.1932 184.172 33.5767Z" fill="#C65E00"/>
</g>
</svg>
