<svg width="296" height="64" viewBox="0 0 296 64" fill="none" xmlns="http://www.w3.org/2000/svg">
<mask id="mask0_248_13306" style="mask-type:luminance" maskUnits="userSpaceOnUse" x="0" y="0" width="296" height="64">
<path d="M0.0136719 0H295.014V63.9265H0.0136719V0Z" fill="white"/>
</mask>
<g mask="url(#mask0_248_13306)">
<path d="M294.738 32.3458C294.702 32.4132 282.865 55.2263 271.269 50.234C270.468 55.7217 267.365 71.521 259.475 58.4884H35.568C27.6783 71.521 24.5767 55.7197 23.774 50.234C12.1782 55.2263 0.340648 32.4132 0.304975 32.3458L0.015625 31.7929L0.304975 31.24C0.340648 31.1706 12.1782 8.35755 23.774 13.3518C24.5747 7.86407 27.6783 -7.93522 35.568 5.09543H259.475C267.365 -7.93522 270.468 7.86407 271.269 13.3518C282.865 8.35755 294.702 31.1706 294.738 31.24L295.029 31.7929L294.738 32.3458ZM270.972 47.3742C279.93 53.3415 290.451 35.2274 292.338 31.7929C290.451 28.3584 279.93 10.2443 270.972 16.2096L269.341 17.2977L269.131 15.3455C269.125 15.292 267.19 -3.52362 261.178 6.88108L260.833 7.47563H34.2104L33.8656 6.88108C27.8527 -3.52362 25.9184 15.292 25.9124 15.3455L25.7024 17.2977L24.0713 16.2096C15.1133 10.2443 4.59171 28.3584 2.70499 31.7929C4.59171 35.2274 15.1133 53.3415 24.0713 47.3742L25.7024 46.2881L25.9124 48.2383C25.9184 48.2918 27.8527 67.1094 33.8656 56.7047L34.2104 56.1102C109.751 56.1102 185.293 56.1181 260.833 56.1102L261.178 56.7047C267.19 67.1094 269.125 48.2918 269.131 48.2383L269.341 46.2881L270.972 47.3742Z" fill="#B3B3B3"/>
<path d="M131.814 33.3726C131.814 33.7498 131.752 34.1024 131.628 34.4302C131.505 34.758 131.335 35.0579 131.118 35.3301C130.902 35.596 130.648 35.8341 130.357 36.0444C130.073 36.2547 129.764 36.431 129.43 36.5732C129.102 36.7155 128.762 36.8237 128.409 36.8979C128.057 36.966 127.71 37 127.37 37H119.512V23.6406H126.693C127.008 23.6406 127.339 23.6654 127.686 23.7148C128.032 23.7581 128.369 23.8293 128.697 23.9282C129.031 24.0272 129.346 24.1571 129.643 24.3179C129.946 24.4787 130.209 24.6766 130.432 24.9116C130.66 25.1405 130.84 25.4064 130.97 25.7095C131.106 26.0125 131.174 26.3589 131.174 26.7485C131.174 27.1196 131.1 27.4567 130.951 27.7598C130.803 28.0628 130.602 28.335 130.348 28.5762C130.101 28.8112 129.813 29.0215 129.485 29.207C129.164 29.3864 128.824 29.5441 128.465 29.6802C128.916 29.8039 129.343 29.9678 129.745 30.1719C130.153 30.376 130.509 30.6265 130.812 30.9233C131.121 31.2202 131.366 31.5728 131.545 31.981C131.724 32.383 131.814 32.8468 131.814 33.3726ZM127.435 27.0732C127.435 26.3187 127.234 25.7682 126.832 25.4219C126.436 25.0755 125.87 24.9023 125.134 24.9023H123.195V29.2349H124.819C125.153 29.2349 125.478 29.1947 125.793 29.1143C126.108 29.0277 126.387 28.8978 126.628 28.7246C126.875 28.5452 127.07 28.3195 127.212 28.0474C127.361 27.7752 127.435 27.4505 127.435 27.0732ZM128.084 33.1406C128.084 32.7757 128.038 32.4355 127.945 32.1201C127.853 31.7985 127.71 31.5233 127.519 31.2944C127.327 31.0594 127.086 30.877 126.795 30.7471C126.51 30.611 126.173 30.543 125.784 30.543H123.195V35.7012H125.459C125.836 35.7012 126.186 35.6393 126.507 35.5156C126.829 35.3919 127.107 35.2188 127.342 34.9961C127.577 34.7734 127.76 34.5044 127.89 34.189C128.02 33.8735 128.084 33.5241 128.084 33.1406ZM133.178 32.417C133.178 31.9284 133.218 31.4212 133.298 30.8955C133.385 30.3698 133.506 29.8441 133.66 29.3184C133.821 28.7926 134.013 28.2731 134.235 27.7598C134.458 27.2464 134.708 26.7547 134.987 26.2847H137.278C137.124 26.7485 136.985 27.234 136.861 27.7412C136.743 28.2422 136.641 28.7463 136.555 29.2534C136.474 29.7544 136.409 30.2461 136.36 30.7285C136.317 31.2109 136.295 31.6593 136.295 32.0737C136.295 32.3149 136.304 32.5747 136.323 32.853C136.347 33.1252 136.388 33.4004 136.443 33.6787C136.499 33.9508 136.576 34.2137 136.675 34.4673C136.78 34.7209 136.913 34.9466 137.074 35.1445C137.235 35.3363 137.43 35.4909 137.659 35.6084C137.894 35.7197 138.169 35.7754 138.484 35.7754C138.794 35.7754 139.069 35.7074 139.31 35.5713C139.557 35.429 139.774 35.2466 139.959 35.0239C140.145 34.7951 140.303 34.5353 140.433 34.2446C140.562 33.9539 140.668 33.6571 140.748 33.354C140.835 33.0448 140.896 32.7448 140.934 32.4541C140.977 32.1572 140.999 31.8913 140.999 31.6562V26.2847H144.134V37H142.928L141.49 34.5044C141.311 34.9188 141.091 35.2961 140.832 35.6362C140.578 35.9702 140.287 36.2578 139.959 36.499C139.632 36.7402 139.267 36.9258 138.865 37.0557C138.469 37.1855 138.039 37.2505 137.575 37.2505C136.833 37.2505 136.187 37.1299 135.636 36.8887C135.086 36.6475 134.628 36.3135 134.263 35.8867C133.898 35.46 133.626 34.9528 133.447 34.3652C133.267 33.7715 133.178 33.1221 133.178 32.417ZM157.707 30.8584C157.707 31.582 157.617 32.3366 157.438 33.1221C157.265 33.9076 157.021 34.6776 156.705 35.4321C156.39 36.1867 156.012 36.8949 155.573 37.5566C155.134 38.2246 154.652 38.7998 154.126 39.2822L152.948 38.6421C153.115 38.3328 153.272 37.9865 153.421 37.603C153.569 37.2196 153.702 36.8145 153.82 36.3877C153.944 35.9548 154.052 35.5094 154.145 35.0518C154.243 34.5941 154.324 34.1426 154.386 33.6973C154.454 33.2458 154.503 32.8097 154.534 32.3892C154.571 31.9624 154.59 31.5666 154.59 31.2017C154.59 30.9604 154.581 30.7038 154.562 30.4316C154.543 30.1533 154.503 29.8781 154.441 29.606C154.386 29.3276 154.308 29.0617 154.209 28.8081C154.111 28.5545 153.978 28.3319 153.811 28.1401C153.65 27.9484 153.452 27.7938 153.217 27.6763C152.988 27.5588 152.716 27.5 152.4 27.5C152.091 27.5 151.816 27.5711 151.575 27.7134C151.333 27.8494 151.12 28.0319 150.935 28.2607C150.749 28.4834 150.588 28.7401 150.452 29.0308C150.322 29.3215 150.214 29.6214 150.127 29.9307C150.047 30.2337 149.988 30.5337 149.951 30.8306C149.914 31.1274 149.896 31.3934 149.896 31.6284V37H146.75V26.2847H147.957L149.395 28.7803C149.568 28.3659 149.784 27.9886 150.044 27.6484C150.304 27.3083 150.597 27.0176 150.925 26.7764C151.253 26.5352 151.615 26.3496 152.011 26.2197C152.413 26.0898 152.846 26.0249 153.31 26.0249C154.052 26.0249 154.698 26.1455 155.249 26.3867C155.799 26.6279 156.257 26.965 156.622 27.3979C156.986 27.8247 157.259 28.335 157.438 28.9287C157.617 29.5163 157.707 30.1595 157.707 30.8584ZM168.998 33.5767C168.998 34.0467 168.93 34.4642 168.793 34.8291C168.657 35.194 168.472 35.5125 168.237 35.7847C168.002 36.0506 167.723 36.2764 167.402 36.4619C167.08 36.6413 166.734 36.7866 166.363 36.8979C165.998 37.0093 165.614 37.0897 165.212 37.1392C164.81 37.1886 164.411 37.2134 164.016 37.2134C163.484 37.2134 163.014 37.1794 162.605 37.1113C162.197 37.0433 161.808 36.9351 161.437 36.7866C161.065 36.632 160.694 36.4341 160.323 36.1929C159.958 35.9517 159.55 35.6579 159.099 35.3115L160.926 33.8179C161.093 34.1333 161.313 34.4209 161.585 34.6807C161.863 34.9342 162.151 35.1538 162.448 35.3394C162.745 35.5249 163.032 35.6672 163.311 35.7661C163.589 35.8651 163.815 35.9146 163.988 35.9146C164.13 35.9146 164.291 35.9115 164.47 35.9053C164.65 35.8929 164.832 35.8743 165.018 35.8496C165.203 35.8187 165.386 35.7754 165.565 35.7197C165.744 35.6641 165.902 35.5898 166.038 35.4971C166.18 35.3981 166.292 35.2775 166.372 35.1353C166.459 34.9868 166.502 34.8105 166.502 34.6064C166.502 34.3962 166.446 34.2137 166.335 34.0591C166.23 33.8983 166.091 33.7591 165.917 33.6416C165.744 33.5241 165.546 33.4251 165.324 33.3447C165.101 33.2643 164.875 33.1932 164.646 33.1313C164.424 33.0695 164.207 33.0169 163.997 32.9736C163.787 32.9242 163.604 32.8778 163.45 32.8345C163.165 32.7541 162.865 32.6737 162.55 32.5933C162.234 32.5067 161.922 32.4108 161.613 32.3057C161.304 32.1943 161.007 32.0645 160.722 31.916C160.444 31.7676 160.196 31.5913 159.98 31.3872C159.77 31.1769 159.6 30.9326 159.47 30.6543C159.346 30.3698 159.284 30.0389 159.284 29.6616C159.284 28.9689 159.42 28.3906 159.692 27.9268C159.971 27.4567 160.336 27.0825 160.787 26.8042C161.239 26.5197 161.752 26.3187 162.327 26.2012C162.902 26.0837 163.487 26.0249 164.081 26.0249C164.489 26.0249 164.919 26.0682 165.37 26.1548C165.822 26.2352 166.261 26.3589 166.688 26.5259C167.114 26.6867 167.513 26.8846 167.884 27.1196C168.255 27.3547 168.565 27.6237 168.812 27.9268L166.984 29.4297C166.848 29.0586 166.669 28.7401 166.446 28.4741C166.23 28.2082 165.992 27.9917 165.732 27.8247C165.478 27.6515 165.215 27.5247 164.943 27.4443C164.677 27.3639 164.43 27.3237 164.201 27.3237C163.979 27.3237 163.728 27.333 163.45 27.3516C163.171 27.3701 162.909 27.4227 162.661 27.5093C162.42 27.5959 162.213 27.7288 162.04 27.9082C161.873 28.0814 161.789 28.3226 161.789 28.6318C161.789 28.8545 161.839 29.0462 161.938 29.207C162.043 29.3617 162.179 29.4977 162.346 29.6152C162.513 29.7266 162.701 29.8224 162.912 29.9028C163.128 29.9771 163.348 30.0451 163.57 30.1069C163.793 30.1626 164.009 30.2121 164.22 30.2554C164.43 30.2987 164.619 30.3451 164.786 30.3945C165.07 30.4749 165.37 30.5584 165.686 30.645C166.007 30.7254 166.323 30.8213 166.632 30.9326C166.941 31.0378 167.238 31.1646 167.522 31.313C167.813 31.4552 168.067 31.6315 168.283 31.8418C168.5 32.0521 168.673 32.2995 168.803 32.584C168.933 32.8623 168.998 33.1932 168.998 33.5767Z" fill="#C65E00"/>
</g>
</svg>
