<svg width="222" height="48" viewBox="0 0 222 48" fill="none" xmlns="http://www.w3.org/2000/svg">
<mask id="mask0_35_6336" style="mask-type:luminance" maskUnits="userSpaceOnUse" x="0" y="0" width="223" height="48">
<path d="M0.5 0H222.004V48H0.5V0Z" fill="white"/>
</mask>
<g mask="url(#mask0_35_6336)">
<path d="M221.798 24.2871C221.771 24.3377 212.883 41.4672 204.176 37.7187C203.575 41.8392 201.244 53.7023 195.32 43.9166H27.1967C21.2725 53.7023 18.9437 41.8377 18.341 37.7187C9.63415 41.4672 0.745757 24.3377 0.718971 24.2871L0.501709 23.8719L0.718971 23.4568C0.745757 23.4047 9.63415 6.27522 18.341 10.0252C18.9422 5.90468 21.2725 -5.95841 27.1967 3.82582H195.32C201.244 -5.95841 203.575 5.90468 204.176 10.0252C212.883 6.27522 221.771 23.4047 221.798 23.4568L222.017 23.8719L221.798 24.2871ZM203.953 35.5714C210.679 40.052 218.579 26.4508 219.996 23.8719C218.579 21.2931 210.679 7.69189 203.953 12.1711L202.728 12.988L202.57 11.5222C202.566 11.4821 201.113 -2.64591 196.598 5.16659L196.34 5.61302H26.1773L25.9184 5.16659C21.4035 -2.64591 19.9511 11.4821 19.9467 11.5222L19.7889 12.988L18.5642 12.1711C11.838 7.69189 3.93772 21.2931 2.52105 23.8719C3.93772 26.4508 11.838 40.052 18.5642 35.5714L19.7889 34.7559L19.9467 36.2202C19.9511 36.2603 21.4035 50.3898 25.9184 42.5773L26.1773 42.1309C82.8976 42.1309 139.619 42.1368 196.34 42.1309L196.598 42.5773C201.113 50.3898 202.566 36.2603 202.57 36.2202L202.728 34.7559L203.953 35.5714Z" fill="#FCD765"/>
</g>
<path d="M50.7158 28H48.2344L44.5566 18.1562H47.3252L50.0527 26.0791L52.5205 18.1562H54.2021L50.7158 28ZM57.668 18.1973C57.668 18.3704 57.6338 18.5345 57.5654 18.6895C57.5016 18.8444 57.4128 18.9788 57.2988 19.0928C57.1849 19.2067 57.0505 19.2979 56.8955 19.3662C56.7406 19.43 56.5765 19.4619 56.4033 19.4619C56.2301 19.4619 56.0661 19.43 55.9111 19.3662C55.7607 19.2979 55.6286 19.2067 55.5146 19.0928C55.4007 18.9788 55.3096 18.8444 55.2412 18.6895C55.1774 18.5345 55.1455 18.3704 55.1455 18.1973C55.1455 18.0241 55.1774 17.8623 55.2412 17.7119C55.3096 17.557 55.4007 17.4225 55.5146 17.3086C55.6286 17.1947 55.7607 17.1058 55.9111 17.042C56.0661 16.9736 56.2301 16.9395 56.4033 16.9395C56.5765 16.9395 56.7406 16.9736 56.8955 17.042C57.0505 17.1058 57.1849 17.1947 57.2988 17.3086C57.4128 17.4225 57.5016 17.557 57.5654 17.7119C57.6338 17.8623 57.668 18.0241 57.668 18.1973ZM57.5654 28H55.248V20.1113H57.5654V28ZM61.4072 24.2539C61.6898 24.3177 61.9723 24.3678 62.2549 24.4043C62.5374 24.4408 62.8223 24.459 63.1094 24.459C63.4102 24.459 63.6882 24.4316 63.9434 24.377C64.2031 24.3177 64.4264 24.222 64.6133 24.0898C64.8047 23.9531 64.9551 23.7731 65.0645 23.5498C65.1738 23.3265 65.2285 23.0485 65.2285 22.7158C65.2285 22.4469 65.1921 22.2008 65.1191 21.9775C65.0462 21.7542 64.9368 21.5628 64.791 21.4033C64.6497 21.2438 64.4743 21.1208 64.2646 21.0342C64.055 20.943 63.8112 20.8975 63.5332 20.8975C63.2734 20.8975 63.0387 20.9453 62.8291 21.041C62.624 21.1367 62.4417 21.2666 62.2822 21.4307C62.1273 21.5902 61.9928 21.777 61.8789 21.9912C61.7695 22.2054 61.6784 22.4287 61.6055 22.6611C61.5326 22.8936 61.4801 23.1283 61.4482 23.3652C61.4163 23.6022 61.4004 23.8255 61.4004 24.0352C61.4004 24.0716 61.4004 24.1081 61.4004 24.1445C61.4004 24.181 61.4027 24.2174 61.4072 24.2539ZM67.1016 22.6953C67.1016 23.0189 67.0492 23.3083 66.9443 23.5635C66.8395 23.8141 66.696 24.0352 66.5137 24.2266C66.3359 24.418 66.1286 24.5798 65.8916 24.7119C65.6546 24.8441 65.4017 24.9535 65.1328 25.04C64.8639 25.1221 64.5859 25.1813 64.2988 25.2178C64.0163 25.2542 63.7406 25.2725 63.4717 25.2725C63.1299 25.2725 62.7926 25.2497 62.46 25.2041C62.1273 25.154 61.7992 25.0765 61.4756 24.9717C61.5257 25.2725 61.6055 25.5596 61.7148 25.833C61.8242 26.1019 61.9701 26.3389 62.1523 26.5439C62.3346 26.7445 62.5579 26.904 62.8223 27.0225C63.0911 27.141 63.4079 27.2002 63.7725 27.2002C64.014 27.2002 64.2441 27.1637 64.4629 27.0908C64.6816 27.0179 64.8822 26.9154 65.0645 26.7832C65.2467 26.651 65.4062 26.4938 65.543 26.3115C65.6842 26.1292 65.7982 25.9264 65.8848 25.7031L66.8828 26.0723C66.7324 26.4323 66.5251 26.7445 66.2607 27.0088C66.001 27.2686 65.7048 27.485 65.3721 27.6582C65.0439 27.8268 64.693 27.9521 64.3193 28.0342C63.9502 28.1162 63.5833 28.1572 63.2188 28.1572C62.6172 28.1572 62.0612 28.057 61.5508 27.8564C61.0404 27.6514 60.6006 27.3665 60.2314 27.002C59.8623 26.6374 59.5729 26.2021 59.3633 25.6963C59.1536 25.1904 59.0488 24.6367 59.0488 24.0352C59.0488 23.4336 59.1536 22.8799 59.3633 22.374C59.5729 21.8682 59.8623 21.4329 60.2314 21.0684C60.6006 20.7038 61.0404 20.4212 61.5508 20.2207C62.0612 20.0156 62.6172 19.9131 63.2188 19.9131C63.5104 19.9131 63.8089 19.9336 64.1143 19.9746C64.4196 20.0156 64.7158 20.0817 65.0029 20.1729C65.29 20.2594 65.5612 20.3734 65.8164 20.5146C66.0716 20.6559 66.2926 20.8314 66.4795 21.041C66.6709 21.2461 66.8213 21.4854 66.9307 21.7588C67.0446 22.0322 67.1016 22.3444 67.1016 22.6953ZM72.0986 28H70.0205L67.8604 20.1045H70.1709L71.5244 25.6416L72.6523 20.1045H74.7305L76.1113 25.792L77.4443 20.1045H79.0439L76.6514 28H74.5732L73.4043 23.2012L72.0986 28ZM87.8896 28H85.8115L83.6514 20.1045H85.9619L87.3154 25.6416L88.4434 20.1045H90.5215L91.9023 25.792L93.2354 20.1045H94.835L92.4424 28H90.3643L89.1953 23.2012L87.8896 28ZM97.7881 24.2539C98.0706 24.3177 98.3532 24.3678 98.6357 24.4043C98.9183 24.4408 99.2031 24.459 99.4902 24.459C99.791 24.459 100.069 24.4316 100.324 24.377C100.584 24.3177 100.807 24.222 100.994 24.0898C101.186 23.9531 101.336 23.7731 101.445 23.5498C101.555 23.3265 101.609 23.0485 101.609 22.7158C101.609 22.4469 101.573 22.2008 101.5 21.9775C101.427 21.7542 101.318 21.5628 101.172 21.4033C101.031 21.2438 100.855 21.1208 100.646 21.0342C100.436 20.943 100.192 20.8975 99.9141 20.8975C99.6543 20.8975 99.4196 20.9453 99.21 21.041C99.0049 21.1367 98.8226 21.2666 98.6631 21.4307C98.5081 21.5902 98.3737 21.777 98.2598 21.9912C98.1504 22.2054 98.0592 22.4287 97.9863 22.6611C97.9134 22.8936 97.861 23.1283 97.8291 23.3652C97.7972 23.6022 97.7812 23.8255 97.7812 24.0352C97.7812 24.0716 97.7812 24.1081 97.7812 24.1445C97.7812 24.181 97.7835 24.2174 97.7881 24.2539ZM103.482 22.6953C103.482 23.0189 103.43 23.3083 103.325 23.5635C103.22 23.8141 103.077 24.0352 102.895 24.2266C102.717 24.418 102.509 24.5798 102.272 24.7119C102.035 24.8441 101.783 24.9535 101.514 25.04C101.245 25.1221 100.967 25.1813 100.68 25.2178C100.397 25.2542 100.121 25.2725 99.8525 25.2725C99.5107 25.2725 99.1735 25.2497 98.8408 25.2041C98.5081 25.154 98.18 25.0765 97.8564 24.9717C97.9066 25.2725 97.9863 25.5596 98.0957 25.833C98.2051 26.1019 98.3509 26.3389 98.5332 26.5439C98.7155 26.7445 98.9388 26.904 99.2031 27.0225C99.472 27.141 99.7887 27.2002 100.153 27.2002C100.395 27.2002 100.625 27.1637 100.844 27.0908C101.062 27.0179 101.263 26.9154 101.445 26.7832C101.628 26.651 101.787 26.4938 101.924 26.3115C102.065 26.1292 102.179 25.9264 102.266 25.7031L103.264 26.0723C103.113 26.4323 102.906 26.7445 102.642 27.0088C102.382 27.2686 102.086 27.485 101.753 27.6582C101.425 27.8268 101.074 27.9521 100.7 28.0342C100.331 28.1162 99.9642 28.1572 99.5996 28.1572C98.998 28.1572 98.4421 28.057 97.9316 27.8564C97.4212 27.6514 96.9814 27.3665 96.6123 27.002C96.2432 26.6374 95.9538 26.2021 95.7441 25.6963C95.5345 25.1904 95.4297 24.6367 95.4297 24.0352C95.4297 23.4336 95.5345 22.8799 95.7441 22.374C95.9538 21.8682 96.2432 21.4329 96.6123 21.0684C96.9814 20.7038 97.4212 20.4212 97.9316 20.2207C98.4421 20.0156 98.998 19.9131 99.5996 19.9131C99.8913 19.9131 100.19 19.9336 100.495 19.9746C100.8 20.0156 101.097 20.0817 101.384 20.1729C101.671 20.2594 101.942 20.3734 102.197 20.5146C102.452 20.6559 102.674 20.8314 102.86 21.041C103.052 21.2461 103.202 21.4854 103.312 21.7588C103.425 22.0322 103.482 22.3444 103.482 22.6953ZM106.825 24.2539C107.108 24.3177 107.39 24.3678 107.673 24.4043C107.955 24.4408 108.24 24.459 108.527 24.459C108.828 24.459 109.106 24.4316 109.361 24.377C109.621 24.3177 109.844 24.222 110.031 24.0898C110.223 23.9531 110.373 23.7731 110.482 23.5498C110.592 23.3265 110.646 23.0485 110.646 22.7158C110.646 22.4469 110.61 22.2008 110.537 21.9775C110.464 21.7542 110.355 21.5628 110.209 21.4033C110.068 21.2438 109.892 21.1208 109.683 21.0342C109.473 20.943 109.229 20.8975 108.951 20.8975C108.691 20.8975 108.457 20.9453 108.247 21.041C108.042 21.1367 107.86 21.2666 107.7 21.4307C107.545 21.5902 107.411 21.777 107.297 21.9912C107.188 22.2054 107.096 22.4287 107.023 22.6611C106.951 22.8936 106.898 23.1283 106.866 23.3652C106.834 23.6022 106.818 23.8255 106.818 24.0352C106.818 24.0716 106.818 24.1081 106.818 24.1445C106.818 24.181 106.821 24.2174 106.825 24.2539ZM112.52 22.6953C112.52 23.0189 112.467 23.3083 112.362 23.5635C112.257 23.8141 112.114 24.0352 111.932 24.2266C111.754 24.418 111.547 24.5798 111.31 24.7119C111.073 24.8441 110.82 24.9535 110.551 25.04C110.282 25.1221 110.004 25.1813 109.717 25.2178C109.434 25.2542 109.159 25.2725 108.89 25.2725C108.548 25.2725 108.211 25.2497 107.878 25.2041C107.545 25.154 107.217 25.0765 106.894 24.9717C106.944 25.2725 107.023 25.5596 107.133 25.833C107.242 26.1019 107.388 26.3389 107.57 26.5439C107.753 26.7445 107.976 26.904 108.24 27.0225C108.509 27.141 108.826 27.2002 109.19 27.2002C109.432 27.2002 109.662 27.1637 109.881 27.0908C110.1 27.0179 110.3 26.9154 110.482 26.7832C110.665 26.651 110.824 26.4938 110.961 26.3115C111.102 26.1292 111.216 25.9264 111.303 25.7031L112.301 26.0723C112.15 26.4323 111.943 26.7445 111.679 27.0088C111.419 27.2686 111.123 27.485 110.79 27.6582C110.462 27.8268 110.111 27.9521 109.737 28.0342C109.368 28.1162 109.001 28.1572 108.637 28.1572C108.035 28.1572 107.479 28.057 106.969 27.8564C106.458 27.6514 106.019 27.3665 105.649 27.002C105.28 26.6374 104.991 26.2021 104.781 25.6963C104.572 25.1904 104.467 24.6367 104.467 24.0352C104.467 23.4336 104.572 22.8799 104.781 22.374C104.991 21.8682 105.28 21.4329 105.649 21.0684C106.019 20.7038 106.458 20.4212 106.969 20.2207C107.479 20.0156 108.035 19.9131 108.637 19.9131C108.928 19.9131 109.227 19.9336 109.532 19.9746C109.838 20.0156 110.134 20.0817 110.421 20.1729C110.708 20.2594 110.979 20.3734 111.234 20.5146C111.49 20.6559 111.711 20.8314 111.897 21.041C112.089 21.2461 112.239 21.4854 112.349 21.7588C112.463 22.0322 112.52 22.3444 112.52 22.6953ZM116.272 28H113.962V17.1992H116.272V24.2881C116.651 24.0146 117.022 23.7139 117.387 23.3857C117.756 23.0576 118.107 22.7135 118.439 22.3535C118.772 21.9889 119.08 21.6175 119.362 21.2393C119.649 20.861 119.9 20.4827 120.114 20.1045H121.687C121.368 20.6423 120.989 21.18 120.552 21.7178C120.114 22.251 119.638 22.7614 119.123 23.249L121.714 28H119.164L117.325 24.7051C116.983 24.9375 116.632 25.1517 116.272 25.3477V28ZM125.228 28H122.917V16.4678H123.806L125.228 18.8672V28ZM134.224 20.1045L131.353 27.0498C131.024 27.8428 130.658 28.6266 130.252 29.4014C129.851 30.1807 129.416 30.9281 128.946 31.6436L128.044 31.0967C128.158 30.8916 128.292 30.6546 128.447 30.3857C128.602 30.1169 128.755 29.8389 128.905 29.5518C129.056 29.2646 129.195 28.9798 129.322 28.6973C129.45 28.4193 129.548 28.1641 129.616 27.9316L126.164 20.1045H128.475L130.819 25.4434L132.624 20.1045H134.224ZM147.116 28H146.228L145.202 26.2842C145.102 26.5713 144.963 26.8311 144.785 27.0635C144.612 27.2959 144.409 27.4964 144.177 27.665C143.949 27.8291 143.696 27.9567 143.418 28.0479C143.145 28.139 142.855 28.1846 142.55 28.1846C141.948 28.1846 141.41 28.0775 140.937 27.8633C140.463 27.6491 140.062 27.3574 139.733 26.9883C139.405 26.6146 139.155 26.1771 138.981 25.6758C138.808 25.1745 138.722 24.6367 138.722 24.0625C138.722 23.4883 138.808 22.9505 138.981 22.4492C139.155 21.9479 139.405 21.5127 139.733 21.1436C140.062 20.7744 140.463 20.4827 140.937 20.2686C141.41 20.0544 141.948 19.9473 142.55 19.9473C143.01 19.9473 143.432 20.0361 143.814 20.2139C144.202 20.3916 144.532 20.6696 144.806 21.0479V17.1992H147.116V28ZM144.792 24.0625C144.792 23.8802 144.778 23.6797 144.751 23.4609C144.724 23.2422 144.68 23.0212 144.621 22.7979C144.562 22.5745 144.484 22.3581 144.389 22.1484C144.293 21.9388 144.174 21.752 144.033 21.5879C143.896 21.4238 143.735 21.2939 143.548 21.1982C143.366 21.098 143.156 21.0479 142.919 21.0479C142.659 21.0479 142.434 21.0957 142.242 21.1914C142.051 21.2826 141.887 21.4079 141.75 21.5674C141.613 21.7223 141.499 21.9023 141.408 22.1074C141.322 22.3125 141.253 22.5267 141.203 22.75C141.153 22.9733 141.117 23.1989 141.094 23.4268C141.076 23.6501 141.066 23.862 141.066 24.0625C141.066 24.263 141.076 24.4772 141.094 24.7051C141.117 24.9284 141.153 25.1517 141.203 25.375C141.253 25.5983 141.322 25.8148 141.408 26.0244C141.499 26.2295 141.613 26.4118 141.75 26.5713C141.887 26.7262 142.051 26.8516 142.242 26.9473C142.434 27.0384 142.659 27.084 142.919 27.084C143.179 27.084 143.407 27.0384 143.603 26.9473C143.799 26.8561 143.965 26.7331 144.102 26.5781C144.243 26.4186 144.357 26.2386 144.443 26.0381C144.535 25.833 144.605 25.6188 144.655 25.3955C144.705 25.1676 144.74 24.9398 144.758 24.7119C144.781 24.484 144.792 24.2676 144.792 24.0625ZM150.944 24.2539C151.227 24.3177 151.509 24.3678 151.792 24.4043C152.075 24.4408 152.359 24.459 152.646 24.459C152.947 24.459 153.225 24.4316 153.48 24.377C153.74 24.3177 153.964 24.222 154.15 24.0898C154.342 23.9531 154.492 23.7731 154.602 23.5498C154.711 23.3265 154.766 23.0485 154.766 22.7158C154.766 22.4469 154.729 22.2008 154.656 21.9775C154.583 21.7542 154.474 21.5628 154.328 21.4033C154.187 21.2438 154.011 21.1208 153.802 21.0342C153.592 20.943 153.348 20.8975 153.07 20.8975C152.811 20.8975 152.576 20.9453 152.366 21.041C152.161 21.1367 151.979 21.2666 151.819 21.4307C151.664 21.5902 151.53 21.777 151.416 21.9912C151.307 22.2054 151.215 22.4287 151.143 22.6611C151.07 22.8936 151.017 23.1283 150.985 23.3652C150.953 23.6022 150.938 23.8255 150.938 24.0352C150.938 24.0716 150.938 24.1081 150.938 24.1445C150.938 24.181 150.94 24.2174 150.944 24.2539ZM156.639 22.6953C156.639 23.0189 156.586 23.3083 156.481 23.5635C156.377 23.8141 156.233 24.0352 156.051 24.2266C155.873 24.418 155.666 24.5798 155.429 24.7119C155.192 24.8441 154.939 24.9535 154.67 25.04C154.401 25.1221 154.123 25.1813 153.836 25.2178C153.553 25.2542 153.278 25.2725 153.009 25.2725C152.667 25.2725 152.33 25.2497 151.997 25.2041C151.664 25.154 151.336 25.0765 151.013 24.9717C151.063 25.2725 151.143 25.5596 151.252 25.833C151.361 26.1019 151.507 26.3389 151.689 26.5439C151.872 26.7445 152.095 26.904 152.359 27.0225C152.628 27.141 152.945 27.2002 153.31 27.2002C153.551 27.2002 153.781 27.1637 154 27.0908C154.219 27.0179 154.419 26.9154 154.602 26.7832C154.784 26.651 154.943 26.4938 155.08 26.3115C155.221 26.1292 155.335 25.9264 155.422 25.7031L156.42 26.0723C156.27 26.4323 156.062 26.7445 155.798 27.0088C155.538 27.2686 155.242 27.485 154.909 27.6582C154.581 27.8268 154.23 27.9521 153.856 28.0342C153.487 28.1162 153.12 28.1572 152.756 28.1572C152.154 28.1572 151.598 28.057 151.088 27.8564C150.577 27.6514 150.138 27.3665 149.769 27.002C149.399 26.6374 149.11 26.2021 148.9 25.6963C148.691 25.1904 148.586 24.6367 148.586 24.0352C148.586 23.4336 148.691 22.8799 148.9 22.374C149.11 21.8682 149.399 21.4329 149.769 21.0684C150.138 20.7038 150.577 20.4212 151.088 20.2207C151.598 20.0156 152.154 19.9131 152.756 19.9131C153.048 19.9131 153.346 19.9336 153.651 19.9746C153.957 20.0156 154.253 20.0817 154.54 20.1729C154.827 20.2594 155.098 20.3734 155.354 20.5146C155.609 20.6559 155.83 20.8314 156.017 21.041C156.208 21.2461 156.358 21.4854 156.468 21.7588C156.582 22.0322 156.639 22.3444 156.639 22.6953ZM166.031 28H163.721V27.0566C163.447 27.4303 163.117 27.7083 162.729 27.8906C162.347 28.0684 161.925 28.1572 161.465 28.1572C160.863 28.1572 160.326 28.0501 159.852 27.8359C159.378 27.6217 158.977 27.3301 158.648 26.9609C158.32 26.5872 158.07 26.1497 157.896 25.6484C157.723 25.1471 157.637 24.6094 157.637 24.0352C157.637 23.4609 157.723 22.9232 157.896 22.4219C158.07 21.9206 158.32 21.4854 158.648 21.1162C158.977 20.7425 159.378 20.4486 159.852 20.2344C160.326 20.0202 160.863 19.9131 161.465 19.9131C161.77 19.9131 162.06 19.9587 162.333 20.0498C162.611 20.141 162.864 20.2708 163.092 20.4395C163.324 20.6035 163.527 20.804 163.7 21.041C163.878 21.2734 164.017 21.5332 164.117 21.8203L165.143 20.1045H166.031V28ZM163.707 24.0352C163.707 23.8301 163.696 23.6136 163.673 23.3857C163.655 23.1579 163.62 22.9323 163.57 22.709C163.52 22.4857 163.45 22.2738 163.358 22.0732C163.272 21.8682 163.158 21.6882 163.017 21.5332C162.88 21.3737 162.714 21.2484 162.518 21.1572C162.322 21.0661 162.094 21.0205 161.834 21.0205C161.574 21.0205 161.349 21.0684 161.157 21.1641C160.966 21.2552 160.802 21.3805 160.665 21.54C160.528 21.695 160.414 21.875 160.323 22.0801C160.237 22.2852 160.168 22.4993 160.118 22.7227C160.068 22.946 160.032 23.1715 160.009 23.3994C159.991 23.6227 159.981 23.8346 159.981 24.0352C159.981 24.2357 159.991 24.4499 160.009 24.6777C160.032 24.9056 160.068 25.1312 160.118 25.3545C160.168 25.5778 160.237 25.792 160.323 25.9971C160.414 26.2021 160.528 26.3844 160.665 26.5439C160.802 26.6989 160.966 26.8242 161.157 26.9199C161.349 27.0111 161.574 27.0566 161.834 27.0566C162.071 27.0566 162.281 27.0088 162.463 26.9131C162.65 26.8128 162.812 26.6807 162.948 26.5166C163.09 26.3525 163.208 26.1657 163.304 25.9561C163.399 25.7464 163.477 25.5299 163.536 25.3066C163.595 25.0833 163.639 24.8623 163.666 24.6436C163.693 24.4202 163.707 24.2174 163.707 24.0352ZM170.276 28H167.966V16.4678H168.854L170.276 18.8672V28ZM178.999 25.4775C178.999 25.8239 178.949 26.1315 178.849 26.4004C178.748 26.6693 178.612 26.904 178.438 27.1045C178.265 27.3005 178.06 27.4668 177.823 27.6035C177.586 27.7357 177.331 27.8428 177.058 27.9248C176.789 28.0068 176.506 28.0661 176.21 28.1025C175.914 28.139 175.62 28.1572 175.328 28.1572C174.936 28.1572 174.59 28.1322 174.289 28.082C173.988 28.0319 173.701 27.9521 173.428 27.8428C173.154 27.7288 172.881 27.583 172.607 27.4053C172.339 27.2275 172.038 27.0111 171.705 26.7559L173.052 25.6553C173.175 25.8877 173.337 26.0996 173.537 26.291C173.742 26.4779 173.954 26.6396 174.173 26.7764C174.392 26.9131 174.604 27.0179 174.809 27.0908C175.014 27.1637 175.18 27.2002 175.308 27.2002C175.412 27.2002 175.531 27.1979 175.663 27.1934C175.795 27.1842 175.93 27.1706 176.066 27.1523C176.203 27.1296 176.338 27.0977 176.47 27.0566C176.602 27.0156 176.718 26.9609 176.818 26.8926C176.923 26.8197 177.005 26.7308 177.064 26.626C177.128 26.5166 177.16 26.3867 177.16 26.2363C177.16 26.0814 177.119 25.9469 177.037 25.833C176.96 25.7145 176.857 25.612 176.729 25.5254C176.602 25.4388 176.456 25.3659 176.292 25.3066C176.128 25.2474 175.962 25.195 175.793 25.1494C175.629 25.1038 175.469 25.0651 175.314 25.0332C175.16 24.9967 175.025 24.9626 174.911 24.9307C174.701 24.8714 174.48 24.8122 174.248 24.7529C174.016 24.6891 173.785 24.6185 173.558 24.541C173.33 24.459 173.111 24.3633 172.901 24.2539C172.696 24.1445 172.514 24.0146 172.354 23.8643C172.2 23.7093 172.074 23.5293 171.979 23.3242C171.887 23.1146 171.842 22.8708 171.842 22.5928C171.842 22.0824 171.942 21.6562 172.143 21.3145C172.348 20.9681 172.617 20.6924 172.949 20.4873C173.282 20.2777 173.66 20.1296 174.084 20.043C174.508 19.9564 174.938 19.9131 175.376 19.9131C175.677 19.9131 175.993 19.945 176.326 20.0088C176.659 20.068 176.982 20.1592 177.297 20.2822C177.611 20.4007 177.905 20.5465 178.179 20.7197C178.452 20.8929 178.68 21.0911 178.862 21.3145L177.516 22.4219C177.415 22.1484 177.283 21.9137 177.119 21.7178C176.96 21.5218 176.784 21.3623 176.593 21.2393C176.406 21.1117 176.212 21.0182 176.012 20.959C175.816 20.8997 175.633 20.8701 175.465 20.8701C175.301 20.8701 175.116 20.877 174.911 20.8906C174.706 20.9043 174.512 20.943 174.33 21.0068C174.152 21.0706 174 21.1686 173.872 21.3008C173.749 21.4284 173.688 21.6061 173.688 21.834C173.688 21.998 173.724 22.1393 173.797 22.2578C173.874 22.3717 173.975 22.472 174.098 22.5586C174.221 22.6406 174.36 22.7113 174.515 22.7705C174.674 22.8252 174.836 22.8753 175 22.9209C175.164 22.9619 175.324 22.9984 175.479 23.0303C175.633 23.0622 175.772 23.0964 175.896 23.1328C176.105 23.1921 176.326 23.2536 176.559 23.3174C176.796 23.3766 177.028 23.4473 177.256 23.5293C177.484 23.6068 177.702 23.7002 177.912 23.8096C178.126 23.9144 178.313 24.0443 178.473 24.1992C178.632 24.3542 178.76 24.5365 178.855 24.7461C178.951 24.9512 178.999 25.195 178.999 25.4775Z" fill="#FCD765"/>
</svg>
