<svg width="222" height="49" viewBox="0 0 222 49" fill="none" xmlns="http://www.w3.org/2000/svg">
<path fill-rule="evenodd" clip-rule="evenodd" d="M220.891 24.1718C220.891 24.1718 211.58 42.1034 203.339 36.6153C203.339 36.6153 201.607 53.529 195.708 43.3236H26.5728C20.674 53.529 18.9419 36.6153 18.9419 36.6153C10.7008 42.1034 1.39125 24.1718 1.39125 24.1718C1.39125 24.1718 10.7008 6.23878 18.9419 11.7284C18.9419 11.7284 20.674 -5.18682 26.5728 5.02003H195.708C201.607 -5.18682 203.339 11.7284 203.339 11.7284C211.58 6.23878 220.891 24.1718 220.891 24.1718Z" fill="#FE6701"/>
<mask id="mask0_35_7541" style="mask-type:luminance" maskUnits="userSpaceOnUse" x="0" y="0" width="222" height="49">
<path d="M0.247803 0.03125H221.752V48.0313H0.247803V0.03125Z" fill="white"/>
</mask>
<g mask="url(#mask0_35_7541)">
<path d="M221.546 24.3183C221.519 24.3689 212.631 41.4984 203.924 37.7499C203.322 41.8704 200.992 53.7335 195.068 43.9478H26.9444C21.0203 53.7335 18.6915 41.8689 18.0888 37.7499C9.38194 41.4984 0.493544 24.3689 0.466758 24.3183L0.249496 23.9031L0.466758 23.488C0.493544 23.4359 9.38194 6.30641 18.0888 10.0564C18.69 5.93587 21.0203 -5.92722 26.9444 3.857H195.068C200.992 -5.92722 203.322 5.93587 203.924 10.0564C212.631 6.30641 221.519 23.4359 221.546 23.488L221.764 23.9031L221.546 24.3183ZM203.7 35.6025C210.427 40.0832 218.327 26.482 219.744 23.9031C218.327 21.3243 210.427 7.72308 203.7 12.2022L202.476 13.0192L202.318 11.5534C202.314 11.5133 200.861 -2.61472 196.346 5.19778L196.087 5.64421H25.9251L25.6662 5.19778C21.1513 -2.61472 19.6989 11.5133 19.6944 11.5534L19.5367 13.0192L18.312 12.2022C11.5858 7.72308 3.68551 21.3243 2.26884 23.9031C3.68551 26.482 11.5858 40.0832 18.312 35.6025L19.5367 34.7871L19.6944 36.2514C19.6989 36.2915 21.1513 50.421 25.6662 42.6085L25.9251 42.1621C82.6454 42.1621 139.367 42.168 196.087 42.1621L196.346 42.6085C200.861 50.421 202.314 36.2915 202.318 36.2514L202.476 34.7871L203.7 35.6025Z" fill="#FE6701"/>
</g>
<path d="M71.3884 20.6279L70.2195 21.1201C70.1283 20.8239 70.0053 20.5527 69.8503 20.3066C69.7 20.0605 69.5177 19.8509 69.3035 19.6777C69.0938 19.5 68.8546 19.3633 68.5857 19.2676C68.3168 19.1673 68.0229 19.1172 67.7039 19.1172C67.3621 19.1172 67.0476 19.1742 66.7605 19.2881C66.4779 19.402 66.2227 19.557 65.9949 19.7529C65.7716 19.9443 65.5756 20.1699 65.407 20.4297C65.2384 20.6895 65.0971 20.9674 64.9832 21.2637C64.8738 21.5553 64.7895 21.8584 64.7302 22.1729C64.6755 22.4873 64.6482 22.7949 64.6482 23.0957C64.6482 23.5742 64.7029 24.0505 64.8123 24.5244C64.9262 24.9984 65.1039 25.4245 65.3455 25.8027C65.5916 26.181 65.9083 26.4886 66.2957 26.7256C66.683 26.958 67.1524 27.0742 67.7039 27.0742C68.0046 27.0742 68.2393 27.0081 68.408 26.876C68.5766 26.7393 68.6609 26.5023 68.6609 26.165V23.1436H71.3748V28.0312H70.5886L70.1101 27.2588C69.6726 27.5915 69.1895 27.8376 68.6609 27.9971C68.1368 28.152 67.6013 28.2295 67.0544 28.2295C66.5714 28.2295 66.1065 28.1702 65.6599 28.0518C65.2179 27.9333 64.8054 27.7646 64.4226 27.5459C64.0398 27.3271 63.6912 27.0628 63.3767 26.7529C63.0668 26.443 62.8002 26.099 62.5769 25.7207C62.3582 25.3424 62.1873 24.9323 62.0642 24.4902C61.9457 24.0436 61.8865 23.5788 61.8865 23.0957C61.8865 22.6126 61.9457 22.1501 62.0642 21.708C62.1873 21.2614 62.3582 20.849 62.5769 20.4707C62.8002 20.0879 63.0668 19.7415 63.3767 19.4316C63.6912 19.1217 64.0398 18.8574 64.4226 18.6387C64.8054 18.4199 65.2179 18.2513 65.6599 18.1328C66.1065 18.0143 66.5714 17.9551 67.0544 17.9551C67.5193 17.9551 67.9727 18.0098 68.4148 18.1191C68.8614 18.2285 69.2761 18.3949 69.6589 18.6182C70.0417 18.8369 70.3813 19.1149 70.6775 19.4521C70.9783 19.7848 71.2153 20.1768 71.3884 20.6279ZM74.9568 24.2852C75.2393 24.349 75.5219 24.3991 75.8044 24.4355C76.087 24.472 76.3718 24.4902 76.6589 24.4902C76.9597 24.4902 77.2377 24.4629 77.4929 24.4082C77.7527 24.349 77.976 24.2533 78.1628 24.1211C78.3542 23.9844 78.5046 23.8044 78.614 23.5811C78.7234 23.3577 78.7781 23.0798 78.7781 22.7471C78.7781 22.4782 78.7416 22.2321 78.6687 22.0088C78.5958 21.7855 78.4864 21.5941 78.3406 21.4346C78.1993 21.2751 78.0238 21.152 77.8142 21.0654C77.6046 20.9743 77.3608 20.9287 77.0828 20.9287C76.823 20.9287 76.5883 20.9766 76.3787 21.0723C76.1736 21.168 75.9913 21.2979 75.8318 21.4619C75.6768 21.6214 75.5424 21.8083 75.4285 22.0225C75.3191 22.2367 75.2279 22.46 75.155 22.6924C75.0821 22.9248 75.0297 23.1595 74.9978 23.3965C74.9659 23.6335 74.95 23.8568 74.95 24.0664C74.95 24.1029 74.95 24.1393 74.95 24.1758C74.95 24.2122 74.9522 24.2487 74.9568 24.2852ZM80.6511 22.7266C80.6511 23.0501 80.5987 23.3395 80.4939 23.5947C80.3891 23.8454 80.2455 24.0664 80.0632 24.2578C79.8855 24.4492 79.6781 24.611 79.4412 24.7432C79.2042 24.8753 78.9513 24.9847 78.6824 25.0713C78.4135 25.1533 78.1355 25.2126 77.8484 25.249C77.5658 25.2855 77.2901 25.3037 77.0212 25.3037C76.6794 25.3037 76.3422 25.2809 76.0095 25.2354C75.6768 25.1852 75.3487 25.1077 75.0251 25.0029C75.0753 25.3037 75.155 25.5908 75.2644 25.8643C75.3738 26.1331 75.5196 26.3701 75.7019 26.5752C75.8842 26.7757 76.1075 26.9352 76.3718 27.0537C76.6407 27.1722 76.9574 27.2314 77.322 27.2314C77.5636 27.2314 77.7937 27.195 78.0125 27.1221C78.2312 27.0492 78.4317 26.9466 78.614 26.8145C78.7963 26.6823 78.9558 26.5251 79.0925 26.3428C79.2338 26.1605 79.3477 25.9577 79.4343 25.7344L80.4324 26.1035C80.282 26.4635 80.0746 26.7757 79.8103 27.04C79.5505 27.2998 79.2543 27.5163 78.9216 27.6895C78.5935 27.8581 78.2426 27.9834 77.8689 28.0654C77.4998 28.1475 77.1329 28.1885 76.7683 28.1885C76.1667 28.1885 75.6108 28.0882 75.1003 27.8877C74.5899 27.6826 74.1501 27.3978 73.781 27.0332C73.4119 26.6686 73.1225 26.2334 72.9128 25.7275C72.7032 25.2217 72.5984 24.668 72.5984 24.0664C72.5984 23.4648 72.7032 22.9111 72.9128 22.4053C73.1225 21.8994 73.4119 21.4642 73.781 21.0996C74.1501 20.735 74.5899 20.4525 75.1003 20.252C75.6108 20.0469 76.1667 19.9443 76.7683 19.9443C77.06 19.9443 77.3585 19.9648 77.6638 20.0059C77.9692 20.0469 78.2654 20.113 78.5525 20.2041C78.8396 20.2907 79.1108 20.4046 79.366 20.5459C79.6212 20.6872 79.8422 20.8626 80.0291 21.0723C80.2205 21.2773 80.3708 21.5166 80.4802 21.79C80.5942 22.0635 80.6511 22.3757 80.6511 22.7266ZM85.0671 28.0312H82.7498V21.0518H81.3142V20.1357H82.7498V17.2305H85.0671V20.1357H87.4597V21.0518H85.0671V28.0312ZM102.191 23.0957C102.191 23.5742 102.127 24.0299 102 24.4629C101.872 24.8913 101.692 25.2878 101.46 25.6523C101.232 26.0169 100.958 26.3473 100.639 26.6436C100.32 26.9352 99.9672 27.1836 99.5798 27.3887C99.197 27.5938 98.7846 27.7533 98.3425 27.8672C97.905 27.9766 97.4539 28.0312 96.989 28.0312H92.6482V18.1875H96.989C97.4539 18.1875 97.905 18.2422 98.3425 18.3516C98.78 18.4609 99.1902 18.6182 99.573 18.8232C99.9604 19.0238 100.314 19.2699 100.633 19.5615C100.956 19.8532 101.232 20.1813 101.46 20.5459C101.692 20.9059 101.872 21.3024 102 21.7354C102.127 22.1637 102.191 22.6172 102.191 23.0957ZM99.4363 23.0957C99.4363 22.5625 99.3702 22.0566 99.238 21.5781C99.1104 21.0951 98.9099 20.6712 98.6365 20.3066C98.363 19.9421 98.0144 19.6527 97.5906 19.4385C97.1713 19.2243 96.6677 19.1172 96.0798 19.1172H95.3621V27.0742H96.0798C96.6586 27.0742 97.1576 26.9671 97.5769 26.7529C98.0007 26.5342 98.3494 26.2425 98.6228 25.8779C98.9008 25.5088 99.1059 25.085 99.238 24.6064C99.3702 24.1279 99.4363 23.6243 99.4363 23.0957ZM106.012 18.2285C106.012 18.4017 105.978 18.5658 105.91 18.7207C105.846 18.8757 105.757 19.0101 105.643 19.124C105.529 19.238 105.395 19.3291 105.24 19.3975C105.085 19.4613 104.921 19.4932 104.748 19.4932C104.575 19.4932 104.411 19.4613 104.256 19.3975C104.105 19.3291 103.973 19.238 103.859 19.124C103.745 19.0101 103.654 18.8757 103.586 18.7207C103.522 18.5658 103.49 18.4017 103.49 18.2285C103.49 18.0553 103.522 17.8936 103.586 17.7432C103.654 17.5882 103.745 17.4538 103.859 17.3398C103.973 17.2259 104.105 17.137 104.256 17.0732C104.411 17.0049 104.575 16.9707 104.748 16.9707C104.921 16.9707 105.085 17.0049 105.24 17.0732C105.395 17.137 105.529 17.2259 105.643 17.3398C105.757 17.4538 105.846 17.5882 105.91 17.7432C105.978 17.8936 106.012 18.0553 106.012 18.2285ZM105.91 28.0312H103.593V20.1426H105.91V28.0312ZM114.564 20.833L113.265 22.9863C113.211 22.804 113.14 22.599 113.053 22.3711C112.967 22.1432 112.86 21.9313 112.732 21.7354C112.605 21.5348 112.452 21.3685 112.274 21.2363C112.096 21.0996 111.891 21.0312 111.659 21.0312C111.445 21.0312 111.258 21.0859 111.098 21.1953C110.943 21.3047 110.811 21.4482 110.702 21.626C110.593 21.7992 110.501 21.9974 110.428 22.2207C110.36 22.4395 110.305 22.6628 110.264 22.8906C110.228 23.1139 110.203 23.3304 110.189 23.54C110.176 23.7451 110.169 23.9229 110.169 24.0732V28.0312H107.851V20.1357H108.74L109.677 21.9746C109.804 21.6784 109.95 21.4072 110.114 21.1611C110.278 20.9105 110.467 20.6963 110.681 20.5186C110.896 20.3363 111.137 20.195 111.406 20.0947C111.679 19.9945 111.987 19.9443 112.329 19.9443C112.507 19.9443 112.705 19.9603 112.924 19.9922C113.142 20.0195 113.357 20.0697 113.566 20.1426C113.776 20.2109 113.969 20.3021 114.147 20.416C114.325 20.5299 114.464 20.6689 114.564 20.833ZM117.23 24.2852C117.513 24.349 117.795 24.3991 118.078 24.4355C118.36 24.472 118.645 24.4902 118.932 24.4902C119.233 24.4902 119.511 24.4629 119.766 24.4082C120.026 24.349 120.249 24.2533 120.436 24.1211C120.628 23.9844 120.778 23.8044 120.887 23.5811C120.997 23.3577 121.052 23.0798 121.052 22.7471C121.052 22.4782 121.015 22.2321 120.942 22.0088C120.869 21.7855 120.76 21.5941 120.614 21.4346C120.473 21.2751 120.297 21.152 120.088 21.0654C119.878 20.9743 119.634 20.9287 119.356 20.9287C119.096 20.9287 118.862 20.9766 118.652 21.0723C118.447 21.168 118.265 21.2979 118.105 21.4619C117.95 21.6214 117.816 21.8083 117.702 22.0225C117.593 22.2367 117.501 22.46 117.428 22.6924C117.356 22.9248 117.303 23.1595 117.271 23.3965C117.239 23.6335 117.223 23.8568 117.223 24.0664C117.223 24.1029 117.223 24.1393 117.223 24.1758C117.223 24.2122 117.226 24.2487 117.23 24.2852ZM122.925 22.7266C122.925 23.0501 122.872 23.3395 122.767 23.5947C122.663 23.8454 122.519 24.0664 122.337 24.2578C122.159 24.4492 121.952 24.611 121.715 24.7432C121.478 24.8753 121.225 24.9847 120.956 25.0713C120.687 25.1533 120.409 25.2126 120.122 25.249C119.839 25.2855 119.564 25.3037 119.295 25.3037C118.953 25.3037 118.616 25.2809 118.283 25.2354C117.95 25.1852 117.622 25.1077 117.299 25.0029C117.349 25.3037 117.428 25.5908 117.538 25.8643C117.647 26.1331 117.793 26.3701 117.975 26.5752C118.158 26.7757 118.381 26.9352 118.645 27.0537C118.914 27.1722 119.231 27.2314 119.595 27.2314C119.837 27.2314 120.067 27.195 120.286 27.1221C120.505 27.0492 120.705 26.9466 120.887 26.8145C121.07 26.6823 121.229 26.5251 121.366 26.3428C121.507 26.1605 121.621 25.9577 121.708 25.7344L122.706 26.1035C122.555 26.4635 122.348 26.7757 122.084 27.04C121.824 27.2998 121.528 27.5163 121.195 27.6895C120.867 27.8581 120.516 27.9834 120.142 28.0654C119.773 28.1475 119.406 28.1885 119.042 28.1885C118.44 28.1885 117.884 28.0882 117.374 27.8877C116.863 27.6826 116.424 27.3978 116.054 27.0332C115.685 26.6686 115.396 26.2334 115.186 25.7275C114.977 25.2217 114.872 24.668 114.872 24.0664C114.872 23.4648 114.977 22.9111 115.186 22.4053C115.396 21.8994 115.685 21.4642 116.054 21.0996C116.424 20.735 116.863 20.4525 117.374 20.252C117.884 20.0469 118.44 19.9443 119.042 19.9443C119.333 19.9443 119.632 19.9648 119.937 20.0059C120.243 20.0469 120.539 20.113 120.826 20.2041C121.113 20.2907 121.384 20.4046 121.639 20.5459C121.895 20.6872 122.116 20.8626 122.302 21.0723C122.494 21.2773 122.644 21.5166 122.754 21.79C122.868 22.0635 122.925 22.3757 122.925 22.7266ZM131.654 22.0908L130.656 22.4873C130.497 21.986 130.23 21.6009 129.856 21.332C129.483 21.0632 129.034 20.9287 128.51 20.9287C128.227 20.9287 127.974 20.9743 127.751 21.0654C127.532 21.152 127.338 21.2728 127.17 21.4277C127.006 21.5827 126.864 21.7627 126.746 21.9678C126.632 22.1729 126.538 22.3916 126.466 22.624C126.393 22.8564 126.34 23.098 126.308 23.3486C126.276 23.5947 126.26 23.834 126.26 24.0664C126.26 24.3171 126.274 24.57 126.302 24.8252C126.329 25.0804 126.374 25.3265 126.438 25.5635C126.507 25.7959 126.595 26.0146 126.705 26.2197C126.814 26.4202 126.951 26.5957 127.115 26.7461C127.284 26.8965 127.482 27.015 127.71 27.1016C127.942 27.1882 128.209 27.2314 128.51 27.2314C128.751 27.2314 128.981 27.195 129.2 27.1221C129.419 27.0492 129.619 26.9466 129.802 26.8145C129.984 26.6823 130.146 26.5251 130.287 26.3428C130.428 26.1605 130.54 25.9577 130.622 25.7344L131.627 26.1035C131.476 26.4635 131.276 26.7757 131.025 27.04C130.779 27.2998 130.499 27.5163 130.184 27.6895C129.87 27.8581 129.533 27.9834 129.173 28.0654C128.813 28.1475 128.448 28.1885 128.079 28.1885C127.482 28.1885 126.928 28.0882 126.418 27.8877C125.907 27.6826 125.465 27.3978 125.092 27.0332C124.722 26.6641 124.433 26.2288 124.223 25.7275C124.014 25.2217 123.909 24.668 123.909 24.0664C123.909 23.4603 124.011 22.9043 124.217 22.3984C124.426 21.8926 124.716 21.4574 125.085 21.0928C125.454 20.7282 125.894 20.4456 126.404 20.2451C126.914 20.0446 127.473 19.9443 128.079 19.9443C128.462 19.9443 128.835 19.9876 129.2 20.0742C129.565 20.1562 129.902 20.2861 130.212 20.4639C130.526 20.637 130.806 20.8581 131.052 21.127C131.303 21.3958 131.504 21.7171 131.654 22.0908ZM135.995 28.0312H133.677V21.0518H132.242V20.1357H133.677V17.2305H135.995V20.1357H138.387V21.0518H135.995V28.0312ZM141.887 18.2285C141.887 18.4017 141.853 18.5658 141.785 18.7207C141.721 18.8757 141.632 19.0101 141.518 19.124C141.404 19.238 141.27 19.3291 141.115 19.3975C140.96 19.4613 140.796 19.4932 140.623 19.4932C140.45 19.4932 140.286 19.4613 140.131 19.3975C139.98 19.3291 139.848 19.238 139.734 19.124C139.62 19.0101 139.529 18.8757 139.461 18.7207C139.397 18.5658 139.365 18.4017 139.365 18.2285C139.365 18.0553 139.397 17.8936 139.461 17.7432C139.529 17.5882 139.62 17.4538 139.734 17.3398C139.848 17.2259 139.98 17.137 140.131 17.0732C140.286 17.0049 140.45 16.9707 140.623 16.9707C140.796 16.9707 140.96 17.0049 141.115 17.0732C141.27 17.137 141.404 17.2259 141.518 17.3398C141.632 17.4538 141.721 17.5882 141.785 17.7432C141.853 17.8936 141.887 18.0553 141.887 18.2285ZM141.785 28.0312H139.468V20.1426H141.785V28.0312ZM152.066 24.0664C152.066 24.4766 152.011 24.8617 151.902 25.2217C151.793 25.5817 151.64 25.9144 151.444 26.2197C151.253 26.5251 151.02 26.8008 150.747 27.0469C150.473 27.2884 150.173 27.4935 149.844 27.6621C149.521 27.8307 149.172 27.9606 148.799 28.0518C148.429 28.1429 148.049 28.1885 147.657 28.1885C147.265 28.1885 146.885 28.1429 146.515 28.0518C146.146 27.9606 145.798 27.8307 145.469 27.6621C145.146 27.4935 144.847 27.2884 144.574 27.0469C144.301 26.8008 144.066 26.5251 143.87 26.2197C143.678 25.9144 143.528 25.5817 143.419 25.2217C143.309 24.8571 143.255 24.472 143.255 24.0664C143.255 23.6608 143.309 23.278 143.419 22.918C143.528 22.5534 143.678 22.2184 143.87 21.9131C144.066 21.6077 144.301 21.3343 144.574 21.0928C144.847 20.8467 145.146 20.6393 145.469 20.4707C145.798 20.3021 146.146 20.1722 146.515 20.0811C146.885 19.9899 147.265 19.9443 147.657 19.9443C148.049 19.9443 148.429 19.9899 148.799 20.0811C149.172 20.1722 149.521 20.3021 149.844 20.4707C150.173 20.6393 150.473 20.8467 150.747 21.0928C151.02 21.3343 151.253 21.6077 151.444 21.9131C151.64 22.2184 151.793 22.5534 151.902 22.918C152.011 23.278 152.066 23.6608 152.066 24.0664ZM149.715 24.0664C149.715 23.8477 149.701 23.6175 149.674 23.376C149.651 23.1299 149.61 22.8906 149.551 22.6582C149.491 22.4212 149.409 22.1956 149.304 21.9814C149.204 21.7627 149.079 21.5736 148.928 21.4141C148.778 21.25 148.598 21.1201 148.388 21.0244C148.179 20.9242 147.935 20.874 147.657 20.874C147.393 20.874 147.158 20.9242 146.953 21.0244C146.748 21.1247 146.568 21.2591 146.413 21.4277C146.262 21.5918 146.135 21.7832 146.03 22.002C145.93 22.2207 145.848 22.4486 145.784 22.6855C145.72 22.918 145.675 23.1549 145.647 23.3965C145.62 23.6335 145.606 23.8568 145.606 24.0664C145.606 24.276 145.62 24.5016 145.647 24.7432C145.675 24.9801 145.72 25.2171 145.784 25.4541C145.848 25.6911 145.93 25.9189 146.03 26.1377C146.135 26.3519 146.262 26.5433 146.413 26.7119C146.568 26.876 146.748 27.0081 146.953 27.1084C147.158 27.2087 147.393 27.2588 147.657 27.2588C147.93 27.2588 148.172 27.2109 148.382 27.1152C148.591 27.015 148.771 26.8828 148.922 26.7188C149.077 26.5547 149.204 26.3656 149.304 26.1514C149.405 25.9372 149.484 25.7116 149.544 25.4746C149.608 25.2376 149.651 24.9984 149.674 24.7568C149.701 24.5153 149.715 24.2852 149.715 24.0664ZM161.602 23.5059C161.602 24.0391 161.536 24.5951 161.404 25.1738C161.276 25.7526 161.096 26.32 160.864 26.876C160.632 27.432 160.354 27.9538 160.03 28.4414C159.706 28.9336 159.351 29.3574 158.964 29.7129L158.095 29.2412C158.219 29.0133 158.335 28.7581 158.444 28.4756C158.553 28.193 158.651 27.8945 158.738 27.5801C158.829 27.2611 158.909 26.9329 158.977 26.5957C159.05 26.2585 159.109 25.9258 159.155 25.5977C159.205 25.265 159.242 24.9437 159.264 24.6338C159.292 24.3193 159.305 24.0277 159.305 23.7588C159.305 23.5811 159.299 23.3919 159.285 23.1914C159.271 22.9863 159.242 22.7835 159.196 22.583C159.155 22.3779 159.098 22.182 159.025 21.9951C158.952 21.8083 158.854 21.6442 158.731 21.5029C158.613 21.3617 158.467 21.2477 158.294 21.1611C158.125 21.0745 157.925 21.0312 157.692 21.0312C157.464 21.0312 157.261 21.0837 157.084 21.1885C156.906 21.2887 156.749 21.4232 156.612 21.5918C156.475 21.7559 156.357 21.945 156.257 22.1592C156.161 22.3734 156.081 22.5944 156.017 22.8223C155.958 23.0456 155.915 23.2666 155.887 23.4854C155.86 23.7041 155.846 23.9001 155.846 24.0732V28.0312H153.529V20.1357H154.418L155.477 21.9746C155.605 21.6693 155.764 21.3913 155.956 21.1406C156.147 20.89 156.364 20.6758 156.605 20.498C156.847 20.3203 157.113 20.1836 157.405 20.0879C157.701 19.9922 158.02 19.9443 158.362 19.9443C158.909 19.9443 159.385 20.0332 159.791 20.2109C160.196 20.3887 160.534 20.637 160.802 20.9561C161.071 21.2705 161.272 21.6465 161.404 22.084C161.536 22.5169 161.602 22.9909 161.602 23.5059Z" fill="#310000"/>
</svg>
