<svg width="222" height="48" viewBox="0 0 222 48" fill="none" xmlns="http://www.w3.org/2000/svg">
<path fill-rule="evenodd" clip-rule="evenodd" d="M220.639 24.1404C220.639 24.1404 211.328 42.072 203.087 36.5839C203.087 36.5839 201.355 53.4976 195.456 43.2922H26.3206C20.4218 53.4976 18.6896 36.5839 18.6896 36.5839C10.4485 42.072 1.13901 24.1404 1.13901 24.1404C1.13901 24.1404 10.4485 6.2074 18.6896 11.697C18.6896 11.697 20.4218 -5.21819 26.3206 4.98865H195.456C201.355 -5.21819 203.087 11.697 203.087 11.697C211.328 6.2074 220.639 24.1404 220.639 24.1404Z" fill="#FE6701"/>
<mask id="mask0_35_6327" style="mask-type:luminance" maskUnits="userSpaceOnUse" x="-1" y="0" width="223" height="48">
<path d="M-0.00445557 0H221.5V48H-0.00445557V0Z" fill="white"/>
</mask>
<g mask="url(#mask0_35_6327)">
<path d="M221.293 24.2871C221.267 24.3377 212.378 41.4672 203.671 37.7187C203.07 41.8392 200.74 53.7023 194.816 43.9166H26.6922C20.7681 53.7023 18.4392 41.8377 17.8365 37.7187C9.12967 41.4672 0.241271 24.3377 0.214485 24.2871L-0.0027771 23.8719L0.214485 23.4568C0.241271 23.4047 9.12967 6.27522 17.8365 10.0252C18.4377 5.90468 20.7681 -5.95841 26.6922 3.82582H194.816C200.74 -5.95841 203.07 5.90468 203.671 10.0252C212.378 6.27522 221.267 23.4047 221.293 23.4568L221.512 23.8719L221.293 24.2871ZM203.448 35.5714C210.174 40.052 218.075 26.4508 219.491 23.8719C218.075 21.2931 210.174 7.69189 203.448 12.1711L202.223 12.988L202.066 11.5222C202.061 11.4821 200.609 -2.64591 196.094 5.16659L195.835 5.61302H25.6728L25.4139 5.16659C20.899 -2.64591 19.4466 11.4821 19.4422 11.5222L19.2844 12.988L18.0597 12.1711C11.3335 7.69189 3.43324 21.2931 2.01657 23.8719C3.43324 26.4508 11.3335 40.052 18.0597 35.5714L19.2844 34.7559L19.4422 36.2202C19.4466 36.2603 20.899 50.3898 25.4139 42.5773L25.6728 42.1309C82.3931 42.1309 139.115 42.1368 195.835 42.1309L196.094 42.5773C200.609 50.3898 202.061 36.2603 202.066 36.2202L202.223 34.7559L203.448 35.5714Z" fill="#FE6701"/>
</g>
<path d="M48.5903 28H41.5219V18.1562H48.5903V19.4141H44.2358V22.4561H47.5991V23.707H44.2358V26.7422H48.5903V28ZM57.101 28H54.7905L52.8559 25.2314L50.8803 28H49.2807L52.2543 24.3633L49.2807 20.1045H51.5912L53.4643 22.7842L55.5014 20.1045H57.101L54.0659 23.6455L57.101 28ZM66.5688 24.0352C66.5688 24.6094 66.4822 25.1471 66.309 25.6484C66.1358 26.1497 65.8852 26.5872 65.5571 26.9609C65.2289 27.3301 64.8279 27.6217 64.3539 27.8359C63.88 28.0501 63.3422 28.1572 62.7407 28.1572C62.2804 28.1572 61.8565 28.0684 61.4692 27.8906C61.0864 27.7083 60.7582 27.4303 60.4848 27.0566V31.6436H58.1743V20.1045H59.0629L60.0883 21.8203C60.1886 21.5332 60.3253 21.2734 60.4985 21.041C60.6762 20.804 60.879 20.6035 61.1069 20.4395C61.3393 20.2708 61.5922 20.141 61.8657 20.0498C62.1437 19.9587 62.4353 19.9131 62.7407 19.9131C63.3422 19.9131 63.88 20.0202 64.3539 20.2344C64.8279 20.4486 65.2289 20.7425 65.5571 21.1162C65.8852 21.4854 66.1358 21.9206 66.309 22.4219C66.4822 22.9232 66.5688 23.4609 66.5688 24.0352ZM64.2241 24.0352C64.2241 23.8346 64.2127 23.6227 64.1899 23.3994C64.1717 23.1715 64.1375 22.946 64.0873 22.7227C64.0372 22.4993 63.9666 22.2852 63.8754 22.0801C63.7888 21.875 63.6772 21.695 63.5405 21.54C63.4037 21.3805 63.2374 21.2552 63.0414 21.1641C62.85 21.0684 62.6267 21.0205 62.3715 21.0205C62.1072 21.0205 61.8771 21.0661 61.6811 21.1572C61.4897 21.2484 61.3233 21.3737 61.1821 21.5332C61.0453 21.6882 60.9314 21.8682 60.8403 22.0732C60.7537 22.2738 60.6853 22.4857 60.6352 22.709C60.5851 22.9323 60.5486 23.1579 60.5258 23.3857C60.5076 23.6136 60.4985 23.8301 60.4985 24.0352C60.4985 24.2174 60.5121 24.4202 60.5395 24.6436C60.5668 24.8623 60.6101 25.0833 60.6694 25.3066C60.7286 25.5299 60.8061 25.7464 60.9018 25.9561C60.9975 26.1657 61.1137 26.3525 61.2504 26.5166C61.3917 26.6807 61.5535 26.8128 61.7358 26.9131C61.9226 27.0088 62.1345 27.0566 62.3715 27.0566C62.6313 27.0566 62.8569 27.0111 63.0483 26.9199C63.2397 26.8242 63.4037 26.6989 63.5405 26.5439C63.6772 26.3844 63.7888 26.2021 63.8754 25.9971C63.9666 25.792 64.0372 25.5778 64.0873 25.3545C64.1375 25.1312 64.1717 24.9056 64.1899 24.6777C64.2127 24.4499 64.2241 24.2357 64.2241 24.0352ZM70.3696 28H68.059V16.4678H68.9477L70.3696 18.8672V28ZM80.6371 24.0352C80.6371 24.4453 80.5825 24.8304 80.4731 25.1904C80.3637 25.5505 80.211 25.8831 80.0151 26.1885C79.8237 26.4938 79.5912 26.7695 79.3178 27.0156C79.0444 27.2572 78.7436 27.4622 78.4155 27.6309C78.0919 27.7995 77.7433 27.9294 77.3696 28.0205C77.0004 28.1117 76.6199 28.1572 76.228 28.1572C75.836 28.1572 75.4555 28.1117 75.0864 28.0205C74.7172 27.9294 74.3686 27.7995 74.0405 27.6309C73.7169 27.4622 73.4184 27.2572 73.145 27.0156C72.8715 26.7695 72.6368 26.4938 72.4409 26.1885C72.2495 25.8831 72.0991 25.5505 71.9897 25.1904C71.8803 24.8258 71.8256 24.4408 71.8256 24.0352C71.8256 23.6296 71.8803 23.2467 71.9897 22.8867C72.0991 22.5221 72.2495 22.1872 72.4409 21.8818C72.6368 21.5765 72.8715 21.3031 73.145 21.0615C73.4184 20.8154 73.7169 20.6081 74.0405 20.4395C74.3686 20.2708 74.7172 20.141 75.0864 20.0498C75.4555 19.9587 75.836 19.9131 76.228 19.9131C76.6199 19.9131 77.0004 19.9587 77.3696 20.0498C77.7433 20.141 78.0919 20.2708 78.4155 20.4395C78.7436 20.6081 79.0444 20.8154 79.3178 21.0615C79.5912 21.3031 79.8237 21.5765 80.0151 21.8818C80.211 22.1872 80.3637 22.5221 80.4731 22.8867C80.5825 23.2467 80.6371 23.6296 80.6371 24.0352ZM78.2856 24.0352C78.2856 23.8164 78.2719 23.5863 78.2446 23.3447C78.2218 23.0986 78.1808 22.8594 78.1215 22.627C78.0623 22.39 77.9802 22.1644 77.8754 21.9502C77.7752 21.7314 77.6498 21.5423 77.4995 21.3828C77.3491 21.2188 77.169 21.0889 76.9594 20.9932C76.7498 20.8929 76.506 20.8428 76.228 20.8428C75.9636 20.8428 75.7289 20.8929 75.5239 20.9932C75.3188 21.0934 75.1388 21.2279 74.9838 21.3965C74.8334 21.5605 74.7058 21.752 74.601 21.9707C74.5008 22.1895 74.4187 22.4173 74.3549 22.6543C74.2911 22.8867 74.2455 23.1237 74.2182 23.3652C74.1909 23.6022 74.1772 23.8255 74.1772 24.0352C74.1772 24.2448 74.1909 24.4704 74.2182 24.7119C74.2455 24.9489 74.2911 25.1859 74.3549 25.4229C74.4187 25.6598 74.5008 25.8877 74.601 26.1064C74.7058 26.3206 74.8334 26.512 74.9838 26.6807C75.1388 26.8447 75.3188 26.9769 75.5239 27.0771C75.7289 27.1774 75.9636 27.2275 76.228 27.2275C76.5014 27.2275 76.7429 27.1797 76.9526 27.084C77.1622 26.9837 77.3422 26.8516 77.4926 26.6875C77.6476 26.5234 77.7752 26.3343 77.8754 26.1201C77.9757 25.9059 78.0554 25.6803 78.1147 25.4434C78.1785 25.2064 78.2218 24.9671 78.2446 24.7256C78.2719 24.484 78.2856 24.2539 78.2856 24.0352ZM88.8129 20.8018L87.5141 22.9551C87.4594 22.7728 87.3888 22.5677 87.3022 22.3398C87.2156 22.112 87.1085 21.9001 86.9809 21.7041C86.8533 21.5036 86.7006 21.3372 86.5229 21.2051C86.3452 21.0684 86.1401 21 85.9077 21C85.6935 21 85.5066 21.0547 85.3471 21.1641C85.1922 21.2734 85.06 21.417 84.9506 21.5947C84.8412 21.7679 84.7501 21.9661 84.6772 22.1895C84.6088 22.4082 84.5541 22.6315 84.5131 22.8594C84.4767 23.0827 84.4516 23.2992 84.4379 23.5088C84.4243 23.7139 84.4174 23.8916 84.4174 24.042V28H82.1V20.1045H82.9887L83.9252 21.9434C84.0528 21.6471 84.1987 21.376 84.3627 21.1299C84.5268 20.8792 84.7159 20.665 84.9301 20.4873C85.1443 20.305 85.3858 20.1637 85.6547 20.0635C85.9282 19.9632 86.2358 19.9131 86.5776 19.9131C86.7553 19.9131 86.9536 19.929 87.1723 19.9609C87.3911 19.9883 87.6052 20.0384 87.8149 20.1113C88.0245 20.1797 88.2182 20.2708 88.3959 20.3848C88.5737 20.4987 88.7127 20.6377 88.8129 20.8018ZM91.4789 24.2539C91.7615 24.3177 92.044 24.3678 92.3266 24.4043C92.6092 24.4408 92.894 24.459 93.1811 24.459C93.4819 24.459 93.7599 24.4316 94.0151 24.377C94.2748 24.3177 94.4981 24.222 94.685 24.0898C94.8764 23.9531 95.0268 23.7731 95.1362 23.5498C95.2455 23.3265 95.3002 23.0485 95.3002 22.7158C95.3002 22.4469 95.2638 22.2008 95.1909 21.9775C95.1179 21.7542 95.0086 21.5628 94.8627 21.4033C94.7215 21.2438 94.546 21.1208 94.3364 21.0342C94.1267 20.943 93.8829 20.8975 93.6049 20.8975C93.3452 20.8975 93.1105 20.9453 92.9008 21.041C92.6957 21.1367 92.5134 21.2666 92.3539 21.4307C92.199 21.5902 92.0646 21.777 91.9506 21.9912C91.8412 22.2054 91.7501 22.4287 91.6772 22.6611C91.6043 22.8936 91.5519 23.1283 91.52 23.3652C91.4881 23.6022 91.4721 23.8255 91.4721 24.0352C91.4721 24.0716 91.4721 24.1081 91.4721 24.1445C91.4721 24.181 91.4744 24.2174 91.4789 24.2539ZM97.1733 22.6953C97.1733 23.0189 97.1209 23.3083 97.0161 23.5635C96.9112 23.8141 96.7677 24.0352 96.5854 24.2266C96.4077 24.418 96.2003 24.5798 95.9633 24.7119C95.7263 24.8441 95.4734 24.9535 95.2045 25.04C94.9356 25.1221 94.6577 25.1813 94.3705 25.2178C94.088 25.2542 93.8123 25.2725 93.5434 25.2725C93.2016 25.2725 92.8644 25.2497 92.5317 25.2041C92.199 25.154 91.8709 25.0765 91.5473 24.9717C91.5974 25.2725 91.6772 25.5596 91.7866 25.833C91.8959 26.1019 92.0418 26.3389 92.2241 26.5439C92.4064 26.7445 92.6297 26.904 92.894 27.0225C93.1629 27.141 93.4796 27.2002 93.8442 27.2002C94.0857 27.2002 94.3159 27.1637 94.5346 27.0908C94.7534 27.0179 94.9539 26.9154 95.1362 26.7832C95.3185 26.651 95.478 26.4938 95.6147 26.3115C95.756 26.1292 95.8699 25.9264 95.9565 25.7031L96.9545 26.0723C96.8041 26.4323 96.5968 26.7445 96.3325 27.0088C96.0727 27.2686 95.7765 27.485 95.4438 27.6582C95.1157 27.8268 94.7648 27.9521 94.3911 28.0342C94.0219 28.1162 93.655 28.1572 93.2905 28.1572C92.6889 28.1572 92.1329 28.057 91.6225 27.8564C91.1121 27.6514 90.6723 27.3665 90.3032 27.002C89.934 26.6374 89.6446 26.2021 89.435 25.6963C89.2254 25.1904 89.1205 24.6367 89.1205 24.0352C89.1205 23.4336 89.2254 22.8799 89.435 22.374C89.6446 21.8682 89.934 21.4329 90.3032 21.0684C90.6723 20.7038 91.1121 20.4212 91.6225 20.2207C92.1329 20.0156 92.6889 19.9131 93.2905 19.9131C93.5821 19.9131 93.8806 19.9336 94.186 19.9746C94.4913 20.0156 94.7875 20.0817 95.0746 20.1729C95.3618 20.2594 95.6329 20.3734 95.8881 20.5146C96.1433 20.6559 96.3644 20.8314 96.5512 21.041C96.7426 21.2461 96.893 21.4854 97.0024 21.7588C97.1163 22.0322 97.1733 22.3444 97.1733 22.6953ZM110.92 24.0352C110.92 24.4453 110.866 24.8304 110.756 25.1904C110.647 25.5505 110.494 25.8831 110.298 26.1885C110.107 26.4938 109.874 26.7695 109.601 27.0156C109.328 27.2572 109.027 27.4622 108.699 27.6309C108.375 27.7995 108.026 27.9294 107.653 28.0205C107.284 28.1117 106.903 28.1572 106.511 28.1572C106.119 28.1572 105.739 28.1117 105.37 28.0205C105 27.9294 104.652 27.7995 104.324 27.6309C104 27.4622 103.702 27.2572 103.428 27.0156C103.155 26.7695 102.92 26.4938 102.724 26.1885C102.533 25.8831 102.382 25.5505 102.273 25.1904C102.164 24.8258 102.109 24.4408 102.109 24.0352C102.109 23.6296 102.164 23.2467 102.273 22.8867C102.382 22.5221 102.533 22.1872 102.724 21.8818C102.92 21.5765 103.155 21.3031 103.428 21.0615C103.702 20.8154 104 20.6081 104.324 20.4395C104.652 20.2708 105 20.141 105.37 20.0498C105.739 19.9587 106.119 19.9131 106.511 19.9131C106.903 19.9131 107.284 19.9587 107.653 20.0498C108.026 20.141 108.375 20.2708 108.699 20.4395C109.027 20.6081 109.328 20.8154 109.601 21.0615C109.874 21.3031 110.107 21.5765 110.298 21.8818C110.494 22.1872 110.647 22.5221 110.756 22.8867C110.866 23.2467 110.92 23.6296 110.92 24.0352ZM108.569 24.0352C108.569 23.8164 108.555 23.5863 108.528 23.3447C108.505 23.0986 108.464 22.8594 108.405 22.627C108.345 22.39 108.263 22.1644 108.159 21.9502C108.058 21.7314 107.933 21.5423 107.783 21.3828C107.632 21.2188 107.452 21.0889 107.243 20.9932C107.033 20.8929 106.789 20.8428 106.511 20.8428C106.247 20.8428 106.012 20.8929 105.807 20.9932C105.602 21.0934 105.422 21.2279 105.267 21.3965C105.117 21.5605 104.989 21.752 104.884 21.9707C104.784 22.1895 104.702 22.4173 104.638 22.6543C104.574 22.8867 104.529 23.1237 104.501 23.3652C104.474 23.6022 104.46 23.8255 104.46 24.0352C104.46 24.2448 104.474 24.4704 104.501 24.7119C104.529 24.9489 104.574 25.1859 104.638 25.4229C104.702 25.6598 104.784 25.8877 104.884 26.1064C104.989 26.3206 105.117 26.512 105.267 26.6807C105.422 26.8447 105.602 26.9769 105.807 27.0771C106.012 27.1774 106.247 27.2275 106.511 27.2275C106.785 27.2275 107.026 27.1797 107.236 27.084C107.445 26.9837 107.625 26.8516 107.776 26.6875C107.931 26.5234 108.058 26.3343 108.159 26.1201C108.259 25.9059 108.339 25.6803 108.398 25.4434C108.462 25.2064 108.505 24.9671 108.528 24.7256C108.555 24.484 108.569 24.2539 108.569 24.0352ZM111.98 24.623C111.98 24.263 112.01 23.8893 112.069 23.502C112.133 23.1146 112.221 22.7272 112.335 22.3398C112.454 21.9525 112.595 21.5697 112.759 21.1914C112.923 20.8132 113.108 20.4508 113.313 20.1045H115.001C114.887 20.4463 114.785 20.804 114.694 21.1777C114.607 21.5469 114.532 21.9183 114.468 22.292C114.409 22.6611 114.361 23.0234 114.325 23.3789C114.293 23.7344 114.277 24.0648 114.277 24.3701C114.277 24.5479 114.284 24.7393 114.297 24.9443C114.316 25.1449 114.345 25.3477 114.386 25.5527C114.427 25.7533 114.484 25.9469 114.557 26.1338C114.635 26.3206 114.733 26.487 114.851 26.6328C114.97 26.7741 115.113 26.888 115.282 26.9746C115.455 27.0566 115.658 27.0977 115.89 27.0977C116.118 27.0977 116.321 27.0475 116.498 26.9473C116.681 26.8424 116.84 26.708 116.977 26.5439C117.114 26.3753 117.23 26.1839 117.326 25.9697C117.421 25.7555 117.499 25.5368 117.558 25.3135C117.622 25.0856 117.667 24.8646 117.695 24.6504C117.727 24.4316 117.743 24.2357 117.743 24.0625V20.1045H120.053V28H119.164L118.105 26.1611C117.973 26.4665 117.811 26.7445 117.62 26.9951C117.433 27.2412 117.219 27.4531 116.977 27.6309C116.735 27.8086 116.467 27.9453 116.17 28.041C115.879 28.1367 115.562 28.1846 115.22 28.1846C114.673 28.1846 114.197 28.0957 113.791 27.918C113.386 27.7402 113.049 27.4941 112.78 27.1797C112.511 26.8652 112.31 26.4915 112.178 26.0586C112.046 25.6211 111.98 25.1426 111.98 24.623ZM128.694 20.8018L127.395 22.9551C127.34 22.7728 127.27 22.5677 127.183 22.3398C127.096 22.112 126.989 21.9001 126.862 21.7041C126.734 21.5036 126.581 21.3372 126.404 21.2051C126.226 21.0684 126.021 21 125.789 21C125.574 21 125.387 21.0547 125.228 21.1641C125.073 21.2734 124.941 21.417 124.831 21.5947C124.722 21.7679 124.631 21.9661 124.558 22.1895C124.49 22.4082 124.435 22.6315 124.394 22.8594C124.358 23.0827 124.332 23.2992 124.319 23.5088C124.305 23.7139 124.298 23.8916 124.298 24.042V28H121.981V20.1045H122.87L123.806 21.9434C123.934 21.6471 124.08 21.376 124.244 21.1299C124.408 20.8792 124.597 20.665 124.811 20.4873C125.025 20.305 125.267 20.1637 125.536 20.0635C125.809 19.9632 126.117 19.9131 126.458 19.9131C126.636 19.9131 126.834 19.929 127.053 19.9609C127.272 19.9883 127.486 20.0384 127.696 20.1113C127.905 20.1797 128.099 20.2708 128.277 20.3848C128.455 20.4987 128.594 20.6377 128.694 20.8018ZM140.424 25.4775C140.424 25.8239 140.374 26.1315 140.274 26.4004C140.174 26.6693 140.037 26.904 139.864 27.1045C139.691 27.3005 139.485 27.4668 139.248 27.6035C139.011 27.7357 138.756 27.8428 138.483 27.9248C138.214 28.0068 137.931 28.0661 137.635 28.1025C137.339 28.139 137.045 28.1572 136.753 28.1572C136.361 28.1572 136.015 28.1322 135.714 28.082C135.414 28.0319 135.126 27.9521 134.853 27.8428C134.58 27.7288 134.306 27.583 134.033 27.4053C133.764 27.2275 133.463 27.0111 133.13 26.7559L134.477 25.6553C134.6 25.8877 134.762 26.0996 134.962 26.291C135.167 26.4779 135.379 26.6396 135.598 26.7764C135.817 26.9131 136.029 27.0179 136.234 27.0908C136.439 27.1637 136.605 27.2002 136.733 27.2002C136.838 27.2002 136.956 27.1979 137.088 27.1934C137.22 27.1842 137.355 27.1706 137.492 27.1523C137.628 27.1296 137.763 27.0977 137.895 27.0566C138.027 27.0156 138.143 26.9609 138.244 26.8926C138.348 26.8197 138.43 26.7308 138.49 26.626C138.553 26.5166 138.585 26.3867 138.585 26.2363C138.585 26.0814 138.544 25.9469 138.462 25.833C138.385 25.7145 138.282 25.612 138.155 25.5254C138.027 25.4388 137.881 25.3659 137.717 25.3066C137.553 25.2474 137.387 25.195 137.218 25.1494C137.054 25.1038 136.895 25.0651 136.74 25.0332C136.585 24.9967 136.45 24.9626 136.336 24.9307C136.127 24.8714 135.906 24.8122 135.673 24.7529C135.441 24.6891 135.211 24.6185 134.983 24.541C134.755 24.459 134.536 24.3633 134.327 24.2539C134.122 24.1445 133.939 24.0146 133.78 23.8643C133.625 23.7093 133.499 23.5293 133.404 23.3242C133.313 23.1146 133.267 22.8708 133.267 22.5928C133.267 22.0824 133.367 21.6562 133.568 21.3145C133.773 20.9681 134.042 20.6924 134.374 20.4873C134.707 20.2777 135.085 20.1296 135.509 20.043C135.933 19.9564 136.364 19.9131 136.801 19.9131C137.102 19.9131 137.419 19.945 137.751 20.0088C138.084 20.068 138.408 20.1592 138.722 20.2822C139.037 20.4007 139.331 20.5465 139.604 20.7197C139.877 20.8929 140.105 21.0911 140.288 21.3145L138.941 22.4219C138.841 22.1484 138.708 21.9137 138.544 21.7178C138.385 21.5218 138.209 21.3623 138.018 21.2393C137.831 21.1117 137.637 21.0182 137.437 20.959C137.241 20.8997 137.059 20.8701 136.89 20.8701C136.726 20.8701 136.541 20.877 136.336 20.8906C136.131 20.9043 135.938 20.943 135.755 21.0068C135.578 21.0706 135.425 21.1686 135.297 21.3008C135.174 21.4284 135.113 21.6061 135.113 21.834C135.113 21.998 135.149 22.1393 135.222 22.2578C135.3 22.3717 135.4 22.472 135.523 22.5586C135.646 22.6406 135.785 22.7113 135.94 22.7705C136.099 22.8252 136.261 22.8753 136.425 22.9209C136.589 22.9619 136.749 22.9984 136.904 23.0303C137.059 23.0622 137.198 23.0964 137.321 23.1328C137.53 23.1921 137.751 23.2536 137.984 23.3174C138.221 23.3766 138.453 23.4473 138.681 23.5293C138.909 23.6068 139.128 23.7002 139.337 23.8096C139.552 23.9144 139.738 24.0443 139.898 24.1992C140.057 24.3542 140.185 24.5365 140.281 24.7461C140.376 24.9512 140.424 25.195 140.424 25.4775ZM144.861 28H142.543V21.0205H141.108V20.1045H142.543V17.1992H144.861V20.1045H147.253V21.0205H144.861V28ZM156.311 24.0352C156.311 24.4453 156.256 24.8304 156.147 25.1904C156.038 25.5505 155.885 25.8831 155.689 26.1885C155.497 26.4938 155.265 26.7695 154.992 27.0156C154.718 27.2572 154.417 27.4622 154.089 27.6309C153.766 27.7995 153.417 27.9294 153.043 28.0205C152.674 28.1117 152.294 28.1572 151.902 28.1572C151.51 28.1572 151.129 28.1117 150.76 28.0205C150.391 27.9294 150.042 27.7995 149.714 27.6309C149.391 27.4622 149.092 27.2572 148.819 27.0156C148.545 26.7695 148.311 26.4938 148.115 26.1885C147.923 25.8831 147.773 25.5505 147.664 25.1904C147.554 24.8258 147.499 24.4408 147.499 24.0352C147.499 23.6296 147.554 23.2467 147.664 22.8867C147.773 22.5221 147.923 22.1872 148.115 21.8818C148.311 21.5765 148.545 21.3031 148.819 21.0615C149.092 20.8154 149.391 20.6081 149.714 20.4395C150.042 20.2708 150.391 20.141 150.76 20.0498C151.129 19.9587 151.51 19.9131 151.902 19.9131C152.294 19.9131 152.674 19.9587 153.043 20.0498C153.417 20.141 153.766 20.2708 154.089 20.4395C154.417 20.6081 154.718 20.8154 154.992 21.0615C155.265 21.3031 155.497 21.5765 155.689 21.8818C155.885 22.1872 156.038 22.5221 156.147 22.8867C156.256 23.2467 156.311 23.6296 156.311 24.0352ZM153.959 24.0352C153.959 23.8164 153.946 23.5863 153.918 23.3447C153.896 23.0986 153.855 22.8594 153.795 22.627C153.736 22.39 153.654 22.1644 153.549 21.9502C153.449 21.7314 153.324 21.5423 153.173 21.3828C153.023 21.2188 152.843 21.0889 152.633 20.9932C152.424 20.8929 152.18 20.8428 151.902 20.8428C151.637 20.8428 151.403 20.8929 151.198 20.9932C150.993 21.0934 150.813 21.2279 150.658 21.3965C150.507 21.5605 150.38 21.752 150.275 21.9707C150.175 22.1895 150.093 22.4173 150.029 22.6543C149.965 22.8867 149.919 23.1237 149.892 23.3652C149.865 23.6022 149.851 23.8255 149.851 24.0352C149.851 24.2448 149.865 24.4704 149.892 24.7119C149.919 24.9489 149.965 25.1859 150.029 25.4229C150.093 25.6598 150.175 25.8877 150.275 26.1064C150.38 26.3206 150.507 26.512 150.658 26.6807C150.813 26.8447 150.993 26.9769 151.198 27.0771C151.403 27.1774 151.637 27.2275 151.902 27.2275C152.175 27.2275 152.417 27.1797 152.626 27.084C152.836 26.9837 153.016 26.8516 153.166 26.6875C153.321 26.5234 153.449 26.3343 153.549 26.1201C153.65 25.9059 153.729 25.6803 153.789 25.4434C153.852 25.2064 153.896 24.9671 153.918 24.7256C153.946 24.484 153.959 24.2539 153.959 24.0352ZM164.487 20.8018L163.188 22.9551C163.133 22.7728 163.063 22.5677 162.976 22.3398C162.889 22.112 162.782 21.9001 162.655 21.7041C162.527 21.5036 162.374 21.3372 162.197 21.2051C162.019 21.0684 161.814 21 161.581 21C161.367 21 161.18 21.0547 161.021 21.1641C160.866 21.2734 160.734 21.417 160.624 21.5947C160.515 21.7679 160.424 21.9661 160.351 22.1895C160.283 22.4082 160.228 22.6315 160.187 22.8594C160.15 23.0827 160.125 23.2992 160.112 23.5088C160.098 23.7139 160.091 23.8916 160.091 24.042V28H157.774V20.1045H158.663L159.599 21.9434C159.727 21.6471 159.872 21.376 160.037 21.1299C160.201 20.8792 160.39 20.665 160.604 20.4873C160.818 20.305 161.06 20.1637 161.329 20.0635C161.602 19.9632 161.91 19.9131 162.251 19.9131C162.429 19.9131 162.627 19.929 162.846 19.9609C163.065 19.9883 163.279 20.0384 163.489 20.1113C163.698 20.1797 163.892 20.2708 164.07 20.3848C164.247 20.4987 164.386 20.6377 164.487 20.8018ZM167.153 24.2539C167.435 24.3177 167.718 24.3678 168 24.4043C168.283 24.4408 168.568 24.459 168.855 24.459C169.156 24.459 169.434 24.4316 169.689 24.377C169.949 24.3177 170.172 24.222 170.359 24.0898C170.55 23.9531 170.701 23.7731 170.81 23.5498C170.919 23.3265 170.974 23.0485 170.974 22.7158C170.974 22.4469 170.938 22.2008 170.865 21.9775C170.792 21.7542 170.682 21.5628 170.537 21.4033C170.395 21.2438 170.22 21.1208 170.01 21.0342C169.801 20.943 169.557 20.8975 169.279 20.8975C169.019 20.8975 168.784 20.9453 168.575 21.041C168.37 21.1367 168.187 21.2666 168.028 21.4307C167.873 21.5902 167.738 21.777 167.624 21.9912C167.515 22.2054 167.424 22.4287 167.351 22.6611C167.278 22.8936 167.226 23.1283 167.194 23.3652C167.162 23.6022 167.146 23.8255 167.146 24.0352C167.146 24.0716 167.146 24.1081 167.146 24.1445C167.146 24.181 167.148 24.2174 167.153 24.2539ZM172.847 22.6953C172.847 23.0189 172.795 23.3083 172.69 23.5635C172.585 23.8141 172.442 24.0352 172.259 24.2266C172.081 24.418 171.874 24.5798 171.637 24.7119C171.4 24.8441 171.147 24.9535 170.878 25.04C170.609 25.1221 170.331 25.1813 170.044 25.2178C169.762 25.2542 169.486 25.2725 169.217 25.2725C168.875 25.2725 168.538 25.2497 168.206 25.2041C167.873 25.154 167.545 25.0765 167.221 24.9717C167.271 25.2725 167.351 25.5596 167.46 25.833C167.57 26.1019 167.716 26.3389 167.898 26.5439C168.08 26.7445 168.303 26.904 168.568 27.0225C168.837 27.141 169.153 27.2002 169.518 27.2002C169.76 27.2002 169.99 27.1637 170.208 27.0908C170.427 27.0179 170.628 26.9154 170.81 26.7832C170.992 26.651 171.152 26.4938 171.289 26.3115C171.43 26.1292 171.544 25.9264 171.63 25.7031L172.628 26.0723C172.478 26.4323 172.271 26.7445 172.006 27.0088C171.747 27.2686 171.45 27.485 171.118 27.6582C170.789 27.8268 170.439 27.9521 170.065 28.0342C169.696 28.1162 169.329 28.1572 168.964 28.1572C168.363 28.1572 167.807 28.057 167.296 27.8564C166.786 27.6514 166.346 27.3665 165.977 27.002C165.608 26.6374 165.318 26.2021 165.109 25.6963C164.899 25.1904 164.794 24.6367 164.794 24.0352C164.794 23.4336 164.899 22.8799 165.109 22.374C165.318 21.8682 165.608 21.4329 165.977 21.0684C166.346 20.7038 166.786 20.4212 167.296 20.2207C167.807 20.0156 168.363 19.9131 168.964 19.9131C169.256 19.9131 169.554 19.9336 169.86 19.9746C170.165 20.0156 170.461 20.0817 170.748 20.1729C171.036 20.2594 171.307 20.3734 171.562 20.5146C171.817 20.6559 172.038 20.8314 172.225 21.041C172.416 21.2461 172.567 21.4854 172.676 21.7588C172.79 22.0322 172.847 22.3444 172.847 22.6953ZM181.084 25.4775C181.084 25.8239 181.034 26.1315 180.934 26.4004C180.834 26.6693 180.697 26.904 180.524 27.1045C180.351 27.3005 180.146 27.4668 179.909 27.6035C179.672 27.7357 179.416 27.8428 179.143 27.9248C178.874 28.0068 178.592 28.0661 178.295 28.1025C177.999 28.139 177.705 28.1572 177.414 28.1572C177.022 28.1572 176.675 28.1322 176.374 28.082C176.074 28.0319 175.787 27.9521 175.513 27.8428C175.24 27.7288 174.966 27.583 174.693 27.4053C174.424 27.2275 174.123 27.0111 173.79 26.7559L175.137 25.6553C175.26 25.8877 175.422 26.0996 175.622 26.291C175.828 26.4779 176.039 26.6396 176.258 26.7764C176.477 26.9131 176.689 27.0179 176.894 27.0908C177.099 27.1637 177.265 27.2002 177.393 27.2002C177.498 27.2002 177.616 27.1979 177.748 27.1934C177.881 27.1842 178.015 27.1706 178.152 27.1523C178.289 27.1296 178.423 27.0977 178.555 27.0566C178.687 27.0156 178.803 26.9609 178.904 26.8926C179.009 26.8197 179.091 26.7308 179.15 26.626C179.214 26.5166 179.246 26.3867 179.246 26.2363C179.246 26.0814 179.205 25.9469 179.122 25.833C179.045 25.7145 178.942 25.612 178.815 25.5254C178.687 25.4388 178.541 25.3659 178.377 25.3066C178.213 25.2474 178.047 25.195 177.878 25.1494C177.714 25.1038 177.555 25.0651 177.4 25.0332C177.245 24.9967 177.11 24.9626 176.997 24.9307C176.787 24.8714 176.566 24.8122 176.333 24.7529C176.101 24.6891 175.871 24.6185 175.643 24.541C175.415 24.459 175.196 24.3633 174.987 24.2539C174.782 24.1445 174.599 24.0146 174.44 23.8643C174.285 23.7093 174.16 23.5293 174.064 23.3242C173.973 23.1146 173.927 22.8708 173.927 22.5928C173.927 22.0824 174.027 21.6562 174.228 21.3145C174.433 20.9681 174.702 20.6924 175.035 20.4873C175.367 20.2777 175.746 20.1296 176.169 20.043C176.593 19.9564 177.024 19.9131 177.461 19.9131C177.762 19.9131 178.079 19.945 178.412 20.0088C178.744 20.068 179.068 20.1592 179.382 20.2822C179.697 20.4007 179.991 20.5465 180.264 20.7197C180.538 20.8929 180.765 21.0911 180.948 21.3145L179.601 22.4219C179.501 22.1484 179.369 21.9137 179.205 21.7178C179.045 21.5218 178.87 21.3623 178.678 21.2393C178.491 21.1117 178.298 21.0182 178.097 20.959C177.901 20.8997 177.719 20.8701 177.55 20.8701C177.386 20.8701 177.202 20.877 176.997 20.8906C176.791 20.9043 176.598 20.943 176.415 21.0068C176.238 21.0706 176.085 21.1686 175.957 21.3008C175.834 21.4284 175.773 21.6061 175.773 21.834C175.773 21.998 175.809 22.1393 175.882 22.2578C175.96 22.3717 176.06 22.472 176.183 22.5586C176.306 22.6406 176.445 22.7113 176.6 22.7705C176.76 22.8252 176.921 22.8753 177.085 22.9209C177.249 22.9619 177.409 22.9984 177.564 23.0303C177.719 23.0622 177.858 23.0964 177.981 23.1328C178.191 23.1921 178.412 23.2536 178.644 23.3174C178.881 23.3766 179.113 23.4473 179.341 23.5293C179.569 23.6068 179.788 23.7002 179.997 23.8096C180.212 23.9144 180.399 24.0443 180.558 24.1992C180.718 24.3542 180.845 24.5365 180.941 24.7461C181.037 24.9512 181.084 25.195 181.084 25.4775Z" fill="#310000"/>
</svg>
