<svg width="164" height="47" viewBox="0 0 164 47" fill="none" xmlns="http://www.w3.org/2000/svg">
<path d="M20.0671 23.439V23.4894C13.7246 23.4894 10.3668 28.3194 10.3668 37.465H10.3366C10.3366 28.3194 6.97878 23.4894 0.626221 23.4894V23.439C6.97878 23.439 10.3366 18.599 10.3366 9.46338H10.3668C10.3668 18.599 13.7246 23.439 20.0671 23.439Z" fill="#CCCCCC"/>
<path d="M52.5079 23.439V23.4894C46.1654 23.4894 42.8077 28.3194 42.8077 37.465H42.7774C42.7774 28.3194 39.4196 23.4894 33.0671 23.4894V23.439C39.4196 23.439 42.7774 18.599 42.7774 9.46338H42.8077C42.8077 18.599 46.1654 23.439 52.5079 23.439Z" fill="#CCCCCC"/>
<mask id="mask0_35_7692" style="mask-type:luminance" maskUnits="userSpaceOnUse" x="65" y="0" width="35" height="47">
<path d="M65.5079 0.251953H99.0655V46.676H65.5079V0.251953Z" fill="white"/>
</mask>
<g mask="url(#mask0_35_7692)">
<path d="M98.4509 23.4237V23.5043C87.9238 23.5043 82.3679 31.5206 82.3679 46.676H82.2973C82.2973 31.5206 76.7413 23.5043 66.2142 23.5043V23.4237C76.7413 23.4237 82.2973 15.4073 82.2973 0.251953H82.3679C82.3679 15.4073 87.9238 23.4237 98.4509 23.4237Z" fill="#970000"/>
<path d="M98.4509 23.4237V23.5043C87.9238 23.5043 82.3679 31.5206 82.3679 46.676H82.2973C82.2973 31.5206 76.7413 23.5043 66.2142 23.5043V23.4237C76.7413 23.4237 82.2973 15.4073 82.2973 0.251953H82.3679C82.3679 15.4073 87.9238 23.4237 98.4509 23.4237Z" fill="#970000"/>
</g>
<path d="M131.506 23.439V23.4894C125.164 23.4894 121.806 28.3194 121.806 37.465H121.766C121.766 28.3194 118.408 23.4894 112.065 23.4894V23.439C118.408 23.439 121.766 18.599 121.766 9.46338H121.806C121.806 18.599 125.164 23.439 131.506 23.439Z" fill="#CCCCCC"/>
<path d="M163.947 23.439V23.4894C157.605 23.4894 154.247 28.3194 154.247 37.465H154.207C154.207 28.3194 150.849 23.4894 144.506 23.4894V23.439C150.849 23.439 154.207 18.599 154.207 9.46338H154.247C154.247 18.599 157.605 23.439 163.947 23.439Z" fill="#CCCCCC"/>
</svg>
