<svg width="391" height="64" viewBox="0 0 391 64" fill="none" xmlns="http://www.w3.org/2000/svg">
<mask id="mask0_21_1110" style="mask-type:luminance" maskUnits="userSpaceOnUse" x="0" y="0" width="391" height="64">
<path d="M0 0.870361H391V63.0444H0V0.870361Z" fill="white"/>
</mask>
<g mask="url(#mask0_21_1110)">
<path d="M376.345 46.2249C377.811 44.7941 379.115 43.0312 380.493 41.1603C383.139 37.574 385.876 33.8665 390.046 32.1906L390.636 31.9561L390.046 31.7189C385.876 30.0457 383.139 26.3355 380.493 22.7492C379.115 20.881 377.811 19.1155 376.345 17.6873C374.62 16.0035 371.874 15.2103 369.279 15.6267L361.451 0.870361H29.3563L21.5283 15.6267C18.934 15.2103 16.1842 16.0035 14.4623 17.6873C12.9965 19.1155 11.6929 20.881 10.3148 22.7492C7.66867 26.3355 4.93177 30.0457 0.76157 31.7189L0.171387 31.9561L0.76157 32.1906C4.93177 33.8665 7.66867 37.574 10.3148 41.1603C11.6929 43.0312 12.9965 44.7941 14.4623 46.2249C16.1842 47.9061 18.934 48.7018 21.5283 48.2855L29.3563 63.0418H361.451L369.279 48.2855C371.874 48.7018 374.62 47.9061 376.345 46.2249Z" fill="#014D40"/>
</g>
</svg>
