<svg width="28" height="314" viewBox="0 0 28 314" fill="none" xmlns="http://www.w3.org/2000/svg">
<path d="M15.0518 0.689453V129.085H12.9736V0.689453H15.0518Z" fill="#FCD765"/>
<path d="M15.0518 185.054V313.455H12.9736V185.054H15.0518Z" fill="#FCD765"/>
<mask id="mask0_35_8750" style="mask-type:luminance" maskUnits="userSpaceOnUse" x="0" y="142" width="28" height="30">
<path d="M28 142.372V171.705H0.026041V142.372H28Z" fill="white"/>
</mask>
<g mask="url(#mask0_35_8750)">
<path d="M0.026041 156.882L14.0104 142.903L28 156.882L14.0104 170.867L0.026041 156.882ZM14.0104 145.836L2.96354 156.882L14.0104 167.929L25.0625 156.882L14.0104 145.836Z" fill="#FCD765"/>
</g>
<path d="M4.52604 136.028L14.0104 126.544L23.5 136.028L14.0104 145.513L4.52604 136.028ZM14.0104 129.481L7.46354 136.028L14.0104 142.575L20.5625 136.028L14.0104 129.481Z" fill="#FCD765"/>
<path d="M4.52604 177.45L14.0104 167.966L23.5 177.45L14.0104 186.935L4.52604 177.45ZM14.0104 170.903L7.46354 177.45L14.0104 183.997L20.5625 177.45L14.0104 170.903Z" fill="#FCD765"/>
<path d="M8.46842 156.737L14.3226 150.888L20.1768 156.737L14.3226 162.586L8.46842 156.737ZM14.3226 151.867L9.44759 156.737L14.3226 161.612L19.1976 156.737L14.3226 151.867Z" fill="#FCD765"/>
<path d="M12.4215 177.304C12.4215 179.533 15.8799 179.533 15.8799 177.304C15.8799 175.075 12.4215 175.075 12.4215 177.304Z" fill="#FCD765"/>
<path d="M12.4896 135.663C12.4896 137.887 15.9531 137.887 15.9531 135.663C15.9531 133.434 12.4896 133.434 12.4896 135.663Z" fill="#FCD765"/>
<path d="M8.52067 181.638V224.705C8.52067 225.148 9.21338 225.148 9.21338 224.705V181.638C9.21338 181.195 8.52067 181.195 8.52067 181.638Z" fill="#FCD765"/>
<path d="M18.6823 181.638C18.6823 193.257 18.6823 204.882 18.6823 216.502C18.6823 228.127 18.6823 239.632 18.6823 251.19C18.6823 257.711 18.6823 264.231 18.6823 270.757C18.6823 271.2 19.375 271.2 19.375 270.757C19.375 259.138 19.375 247.513 19.375 235.893C19.375 224.268 19.375 212.768 19.375 201.205C19.375 194.685 19.375 188.164 19.375 181.638C19.375 181.195 18.6823 181.195 18.6823 181.638Z" fill="#FCD765"/>
<path d="M9.75488 132.07C9.75488 119.054 9.75488 106.034 9.75488 93.0231C9.75488 80.0075 9.75488 67.1221 9.75488 54.1742V32.2627C9.75488 31.8148 9.06217 31.8148 9.06217 32.2627V71.3096C9.06217 84.2575 9.06217 97.2106 9.06217 110.153C9.06217 117.455 9.06217 124.768 9.06217 132.07C9.06217 132.513 9.75488 132.513 9.75488 132.07Z" fill="#FCD765"/>
<path d="M18.8175 132.476C18.8175 132.918 19.5103 132.918 19.5103 132.476C19.5103 132.033 18.8175 132.033 18.8175 132.476Z" fill="#FCD765"/>
<path d="M19.2393 132.476V66.7363C19.2393 66.2936 18.5465 66.2936 18.5465 66.7363V132.476C18.5465 132.919 19.2393 132.919 19.2393 132.476Z" fill="#FCD765"/>
<path d="M8.86947 226.299C8.59342 226.299 8.35905 226.2 8.16113 226.007C7.96842 225.809 7.86947 225.575 7.86947 225.299C7.86947 225.028 7.96842 224.788 8.16113 224.595C8.35905 224.403 8.59342 224.304 8.86947 224.304C9.14551 224.304 9.37988 224.403 9.57259 224.595C9.7653 224.788 9.86426 225.028 9.86426 225.299C9.86426 225.575 9.7653 225.809 9.57259 226.007C9.37988 226.2 9.14551 226.299 8.86947 226.299Z" fill="#FCD765"/>
<path d="M19.1663 271.747C18.8903 271.747 18.6559 271.653 18.458 271.455C18.2653 271.262 18.1663 271.028 18.1663 270.752C18.1663 270.476 18.2653 270.242 18.458 270.049C18.6559 269.851 18.8903 269.752 19.1663 269.752C19.4424 269.752 19.6768 269.851 19.8695 270.049C20.0622 270.242 20.1611 270.476 20.1611 270.752C20.1611 271.028 20.0622 271.262 19.8695 271.455C19.6768 271.653 19.4424 271.747 19.1663 271.747Z" fill="#FCD765"/>
<path d="M9.40625 32.2624C9.13021 32.2624 8.89583 32.1634 8.70312 31.9655C8.51042 31.7728 8.41146 31.5384 8.41146 31.2624C8.41146 30.9863 8.51042 30.752 8.70312 30.5592C8.89583 30.3613 9.13021 30.2676 9.40625 30.2676C9.68229 30.2676 9.91667 30.3613 10.1146 30.5592C10.3073 30.752 10.4062 30.9863 10.4062 31.2624C10.4062 31.5384 10.3073 31.7728 10.1146 31.9655C9.91667 32.1634 9.68229 32.2624 9.40625 32.2624Z" fill="#FCD765"/>
<path d="M18.8958 66.8822C18.6198 66.8822 18.3854 66.7884 18.1875 66.5905C17.9948 66.3978 17.8958 66.1634 17.8958 65.8874C17.8958 65.6113 17.9948 65.377 18.1875 65.1842C18.3854 64.9863 18.6198 64.8926 18.8958 64.8926C19.1719 64.8926 19.4063 64.9863 19.599 65.1842C19.7969 65.377 19.8906 65.6113 19.8906 65.8874C19.8906 66.1634 19.7969 66.3978 19.599 66.5905C19.4063 66.7884 19.1719 66.8822 18.8958 66.8822Z" fill="#FCD765"/>
<path d="M18.8955 73.8454C18.7184 73.8454 18.5465 73.8141 18.3799 73.7464C18.2132 73.6787 18.0726 73.5798 17.9424 73.4548C17.8174 73.3298 17.7236 73.1839 17.6559 73.0173C17.583 72.8558 17.5518 72.6839 17.5518 72.5016C17.5518 72.3245 17.583 72.1527 17.6559 71.9912C17.7236 71.8245 17.8174 71.6787 17.9424 71.5537C18.0726 71.4287 18.2132 71.3298 18.3799 71.262C18.5465 71.1943 18.7184 71.1631 18.8955 71.1631C19.0726 71.1631 19.2445 71.1943 19.4059 71.262C19.5726 71.3298 19.7184 71.4287 19.8434 71.5537C19.9684 71.6787 20.0674 71.8245 20.1351 71.9912C20.2028 72.1527 20.2393 72.3245 20.2393 72.5016C20.2393 72.6839 20.2028 72.8558 20.1351 73.0173C20.0674 73.1839 19.9684 73.3298 19.8434 73.4548C19.7184 73.5798 19.5726 73.6787 19.4059 73.7464C19.2445 73.8141 19.0726 73.8454 18.8955 73.8454Z" fill="#FCD765"/>
<path d="M8.86963 203.174C8.68734 203.174 8.52067 203.137 8.354 203.07C8.18734 203.002 8.0415 202.903 7.9165 202.778C7.7915 202.653 7.69255 202.507 7.62484 202.34C7.55713 202.179 7.52588 202.007 7.52588 201.83C7.52588 201.653 7.55713 201.481 7.62484 201.314C7.69255 201.148 7.7915 201.007 7.9165 200.877C8.0415 200.752 8.18734 200.658 8.354 200.59C8.52067 200.518 8.68734 200.486 8.86963 200.486C9.04671 200.486 9.21859 200.518 9.38005 200.59C9.54671 200.658 9.69255 200.752 9.81755 200.877C9.94255 201.007 10.0415 201.148 10.1092 201.314C10.1769 201.481 10.2134 201.653 10.2134 201.83C10.2134 202.007 10.1769 202.179 10.1092 202.34C10.0415 202.507 9.94255 202.653 9.81755 202.778C9.69255 202.903 9.54671 203.002 9.38005 203.07C9.21859 203.137 9.04671 203.174 8.86963 203.174Z" fill="#FCD765"/>
<path d="M19.1665 216.715C18.9842 216.715 18.8175 216.684 18.6509 216.617C18.4842 216.549 18.3384 216.45 18.2134 216.325C18.0884 216.2 17.9894 216.054 17.9217 215.887C17.854 215.726 17.8228 215.554 17.8228 215.377C17.8228 215.195 17.854 215.028 17.9217 214.861C17.9894 214.695 18.0884 214.549 18.2134 214.424C18.3384 214.299 18.4842 214.2 18.6509 214.132C18.8175 214.064 18.9842 214.033 19.1665 214.033C19.3436 214.033 19.5155 214.064 19.6769 214.132C19.8436 214.2 19.9894 214.299 20.1144 214.424C20.2394 214.549 20.3384 214.695 20.4061 214.861C20.4738 215.028 20.5103 215.195 20.5103 215.377C20.5103 215.554 20.4738 215.726 20.4061 215.887C20.3384 216.054 20.2394 216.2 20.1144 216.325C19.9894 216.45 19.8436 216.549 19.6769 216.617C19.5155 216.684 19.3436 216.715 19.1665 216.715Z" fill="#FCD765"/>
<path d="M9.40625 99.6113C9.22917 99.6113 9.05729 99.5749 8.89583 99.5072C8.72917 99.4395 8.58333 99.3457 8.45833 99.2155C8.33333 99.0905 8.23437 98.9447 8.16667 98.7832C8.09896 98.6165 8.0625 98.4447 8.0625 98.2676C8.0625 98.0905 8.09896 97.9186 8.16667 97.752C8.23437 97.5905 8.33333 97.4447 8.45833 97.3197C8.58333 97.1947 8.72917 97.0957 8.89583 97.028C9.05729 96.9603 9.22917 96.9238 9.40625 96.9238C9.58854 96.9238 9.75521 96.9603 9.92188 97.028C10.0885 97.0957 10.2344 97.1947 10.3594 97.3197C10.4844 97.4447 10.5833 97.5905 10.651 97.752C10.7188 97.9186 10.75 98.0905 10.75 98.2676C10.75 98.4447 10.7188 98.6165 10.651 98.7832C10.5833 98.9447 10.4844 99.0905 10.3594 99.2155C10.2344 99.3457 10.0885 99.4395 9.92188 99.5072C9.75521 99.5749 9.58854 99.6113 9.40625 99.6113Z" fill="#FCD765"/>
</svg>
