<svg width="222" height="49" viewBox="0 0 222 49" fill="none" xmlns="http://www.w3.org/2000/svg">
<path fill-rule="evenodd" clip-rule="evenodd" d="M220.644 24.6313C220.644 24.6313 211.333 42.5628 203.092 37.0747C203.092 37.0747 201.36 53.9884 195.461 43.7831H26.3259C20.4271 53.9884 18.6949 37.0747 18.6949 37.0747C10.4539 42.5628 1.14435 24.6313 1.14435 24.6313C1.14435 24.6313 10.4539 6.69825 18.6949 12.1878C18.6949 12.1878 20.4271 -4.72735 26.3259 5.4795H195.461C201.36 -4.72735 203.092 12.1878 203.092 12.1878C211.333 6.69825 220.644 24.6313 220.644 24.6313Z" fill="#FE6701"/>
<mask id="mask0_35_8803" style="mask-type:luminance" maskUnits="userSpaceOnUse" x="0" y="0" width="222" height="49">
<path d="M0.000915527 0.491211H221.505V48.4912H0.000915527V0.491211Z" fill="white"/>
</mask>
<g mask="url(#mask0_35_8803)">
<path d="M221.299 24.7788C221.272 24.8294 212.384 41.9588 203.677 38.2103C203.076 42.3308 200.745 54.1939 194.821 44.4082H26.6976C20.7735 54.1939 18.4446 42.3294 17.8419 38.2103C9.13507 41.9588 0.246672 24.8294 0.219886 24.7788L0.00262451 24.3636L0.219886 23.9484C0.246672 23.8963 9.13507 6.76686 17.8419 10.5169C18.4431 6.39632 20.7735 -5.46677 26.6976 4.31745H194.821C200.745 -5.46677 203.076 6.39632 203.677 10.5169C212.384 6.76686 221.272 23.8963 221.299 23.9484L221.518 24.3636L221.299 24.7788ZM203.454 36.063C210.18 40.5436 218.08 26.9425 219.497 24.3636C218.08 21.7847 210.18 8.18353 203.454 12.6627L202.229 13.4797L202.071 12.0139C202.067 11.9737 200.614 -2.15427 196.099 5.65823L195.84 6.10466H25.6782L25.4193 5.65823C20.9044 -2.15427 19.452 11.9737 19.4476 12.0139L19.2898 13.4797L18.0651 12.6627C11.3389 8.18353 3.43864 21.7847 2.02197 24.3636C3.43864 26.9425 11.3389 40.5436 18.0651 36.063L19.2898 35.2475L19.4476 36.7118C19.452 36.752 20.9044 50.8814 25.4193 43.0689L25.6782 42.6225C82.3985 42.6225 139.12 42.6285 195.84 42.6225L196.099 43.0689C200.614 50.8814 202.067 36.752 202.071 36.7118L202.229 35.2475L203.454 36.063Z" fill="#FE6701"/>
</g>
<path d="M84.2656 25.4834C84.2656 25.9072 84.2109 26.2809 84.1015 26.6045C83.9967 26.9281 83.8463 27.2083 83.6503 27.4453C83.4589 27.6823 83.2311 27.8805 82.9667 28.04C82.7024 28.1995 82.413 28.3271 82.0986 28.4229C81.7887 28.5186 81.4583 28.5869 81.1074 28.6279C80.761 28.6689 80.4078 28.6895 80.0478 28.6895C79.5738 28.6895 79.1363 28.653 78.7353 28.5801C78.3342 28.5117 77.956 28.4023 77.6005 28.252C77.2496 28.097 76.9101 27.8988 76.582 27.6572C76.2584 27.4157 75.9348 27.1217 75.6113 26.7754L77.0058 25.3604C77.1334 25.6748 77.3089 25.9665 77.5322 26.2354C77.7555 26.4997 77.9993 26.7275 78.2636 26.9189C78.5325 27.1104 78.8105 27.2607 79.0976 27.3701C79.3847 27.4795 79.6559 27.5342 79.9111 27.5342C80.2119 27.5342 80.4944 27.5137 80.7587 27.4727C81.0231 27.4271 81.2532 27.3542 81.4492 27.2539C81.6451 27.1536 81.7978 27.0215 81.9072 26.8574C82.0211 26.6888 82.0781 26.4792 82.0781 26.2285C82.0781 26.0371 82.0348 25.873 81.9482 25.7363C81.8616 25.5996 81.7477 25.4834 81.6064 25.3877C81.4697 25.2874 81.3124 25.2031 81.1347 25.1348C80.957 25.0664 80.7747 25.0094 80.5878 24.9639C80.4055 24.9137 80.2255 24.8704 80.0478 24.834C79.8701 24.793 79.7128 24.752 79.5761 24.7109C79.3072 24.6335 79.027 24.5514 78.7353 24.4648C78.4436 24.3737 78.1565 24.2712 77.874 24.1572C77.5914 24.0433 77.3225 23.9134 77.0673 23.7676C76.8167 23.6172 76.5956 23.4417 76.4042 23.2412C76.2128 23.0361 76.0602 22.8014 75.9462 22.5371C75.8323 22.2682 75.7753 21.9606 75.7753 21.6143C75.7753 21.1995 75.8255 20.8327 75.9257 20.5137C76.0305 20.1901 76.1764 19.9098 76.3632 19.6729C76.5501 19.4359 76.7711 19.2376 77.0263 19.0781C77.2815 18.9141 77.5618 18.7842 77.8671 18.6885C78.1725 18.5882 78.496 18.5176 78.8378 18.4766C79.1842 18.431 79.5374 18.4082 79.8974 18.4082C80.3896 18.4082 80.8362 18.4538 81.2372 18.5449C81.6428 18.6361 82.0165 18.766 82.3583 18.9346C82.7001 19.1032 83.0123 19.306 83.2949 19.543C83.582 19.7754 83.8509 20.0352 84.1015 20.3223L82.707 21.7373C82.5976 21.4092 82.4449 21.113 82.249 20.8486C82.0576 20.5843 81.8434 20.3587 81.6064 20.1719C81.3694 19.9805 81.121 19.8346 80.8613 19.7344C80.6015 19.6296 80.3509 19.5771 80.1093 19.5771C79.7949 19.5771 79.5055 19.5999 79.2411 19.6455C78.9768 19.6865 78.749 19.7572 78.5576 19.8574C78.3707 19.9531 78.2249 20.0853 78.1201 20.2539C78.0152 20.418 77.9628 20.623 77.9628 20.8691C77.9628 21.0651 78.0016 21.2314 78.079 21.3682C78.1565 21.5049 78.2591 21.6211 78.3867 21.7168C78.5188 21.8125 78.6669 21.8923 78.831 21.9561C78.9951 22.0153 79.1637 22.0677 79.3369 22.1133C79.5146 22.1589 79.6878 22.1999 79.8564 22.2363C80.0296 22.2682 80.1868 22.3047 80.3281 22.3457C80.6015 22.4232 80.8886 22.5052 81.1894 22.5918C81.4902 22.6784 81.7864 22.7809 82.0781 22.8994C82.3697 23.0133 82.6477 23.1455 82.912 23.2959C83.1764 23.4463 83.4088 23.6263 83.6093 23.8359C83.8098 24.041 83.9693 24.2803 84.0878 24.5537C84.2063 24.8226 84.2656 25.1325 84.2656 25.4834ZM87.6288 24.7451C87.9114 24.8089 88.1939 24.859 88.4765 24.8955C88.7591 24.932 89.0439 24.9502 89.331 24.9502C89.6318 24.9502 89.9098 24.9229 90.165 24.8682C90.4247 24.8089 90.6481 24.7132 90.8349 24.5811C91.0263 24.4443 91.1767 24.2643 91.2861 24.041C91.3954 23.8177 91.4501 23.5397 91.4501 23.207C91.4501 22.9382 91.4137 22.6921 91.3408 22.4688C91.2678 22.2454 91.1585 22.054 91.0126 21.8945C90.8714 21.735 90.6959 21.612 90.4863 21.5254C90.2766 21.4342 90.0328 21.3887 89.7548 21.3887C89.4951 21.3887 89.2604 21.4365 89.0507 21.5322C88.8456 21.6279 88.6634 21.7578 88.5038 21.9219C88.3489 22.0814 88.2145 22.2682 88.1005 22.4824C87.9911 22.6966 87.9 22.9199 87.8271 23.1523C87.7542 23.3848 87.7018 23.6195 87.6699 23.8564C87.638 24.0934 87.622 24.3167 87.622 24.5264C87.622 24.5628 87.622 24.5993 87.622 24.6357C87.622 24.6722 87.6243 24.7087 87.6288 24.7451ZM93.3232 23.1865C93.3232 23.5101 93.2708 23.7995 93.166 24.0547C93.0611 24.3053 92.9176 24.5264 92.7353 24.7178C92.5576 24.9092 92.3502 25.071 92.1132 25.2031C91.8762 25.3353 91.6233 25.4447 91.3544 25.5312C91.0856 25.6133 90.8076 25.6725 90.5204 25.709C90.2379 25.7454 89.9622 25.7637 89.6933 25.7637C89.3515 25.7637 89.0143 25.7409 88.6816 25.6953C88.3489 25.6452 88.0208 25.5677 87.6972 25.4629C87.7473 25.7637 87.8271 26.0508 87.9365 26.3242C88.0458 26.5931 88.1917 26.8301 88.374 27.0352C88.5563 27.2357 88.7796 27.3952 89.0439 27.5137C89.3128 27.6322 89.6295 27.6914 89.9941 27.6914C90.2356 27.6914 90.4658 27.6549 90.6845 27.582C90.9033 27.5091 91.1038 27.4066 91.2861 27.2744C91.4684 27.1423 91.6279 26.985 91.7646 26.8027C91.9059 26.6204 92.0198 26.4176 92.1064 26.1943L93.1044 26.5635C92.954 26.9235 92.7467 27.2357 92.4824 27.5C92.2226 27.7598 91.9264 27.9762 91.5937 28.1494C91.2656 28.318 90.9147 28.4434 90.541 28.5254C90.1718 28.6074 89.805 28.6484 89.4404 28.6484C88.8388 28.6484 88.2828 28.5482 87.7724 28.3477C87.262 28.1426 86.8222 27.8577 86.4531 27.4932C86.0839 27.1286 85.7945 26.6934 85.5849 26.1875C85.3753 25.6816 85.2704 25.1279 85.2704 24.5264C85.2704 23.9248 85.3753 23.3711 85.5849 22.8652C85.7945 22.3594 86.0839 21.9242 86.4531 21.5596C86.8222 21.195 87.262 20.9124 87.7724 20.7119C88.2828 20.5068 88.8388 20.4043 89.4404 20.4043C89.732 20.4043 90.0305 20.4248 90.3359 20.4658C90.6412 20.5068 90.9374 20.5729 91.2245 20.6641C91.5117 20.7507 91.7828 20.8646 92.038 21.0059C92.2932 21.1471 92.5143 21.3226 92.7011 21.5322C92.8925 21.7373 93.0429 21.9766 93.1523 22.25C93.2662 22.5234 93.3232 22.8356 93.3232 23.1865ZM96.666 24.7451C96.9485 24.8089 97.2311 24.859 97.5136 24.8955C97.7962 24.932 98.081 24.9502 98.3681 24.9502C98.6689 24.9502 98.9469 24.9229 99.2021 24.8682C99.4619 24.8089 99.6852 24.7132 99.872 24.5811C100.063 24.4443 100.214 24.2643 100.323 24.041C100.433 23.8177 100.487 23.5397 100.487 23.207C100.487 22.9382 100.451 22.6921 100.378 22.4688C100.305 22.2454 100.196 22.054 100.05 21.8945C99.9085 21.735 99.733 21.612 99.5234 21.5254C99.3137 21.4342 99.0699 21.3887 98.7919 21.3887C98.5322 21.3887 98.2975 21.4365 98.0878 21.5322C97.8828 21.6279 97.7005 21.7578 97.541 21.9219C97.386 22.0814 97.2516 22.2682 97.1376 22.4824C97.0283 22.6966 96.9371 22.9199 96.8642 23.1523C96.7913 23.3848 96.7389 23.6195 96.707 23.8564C96.6751 24.0934 96.6591 24.3167 96.6591 24.5264C96.6591 24.5628 96.6591 24.5993 96.6591 24.6357C96.6591 24.6722 96.6614 24.7087 96.666 24.7451ZM102.36 23.1865C102.36 23.5101 102.308 23.7995 102.203 24.0547C102.098 24.3053 101.955 24.5264 101.772 24.7178C101.595 24.9092 101.387 25.071 101.15 25.2031C100.913 25.3353 100.66 25.4447 100.392 25.5312C100.123 25.6133 99.8447 25.6725 99.5576 25.709C99.275 25.7454 98.9993 25.7637 98.7304 25.7637C98.3886 25.7637 98.0514 25.7409 97.7187 25.6953C97.386 25.6452 97.0579 25.5677 96.7343 25.4629C96.7844 25.7637 96.8642 26.0508 96.9736 26.3242C97.0829 26.5931 97.2288 26.8301 97.4111 27.0352C97.5934 27.2357 97.8167 27.3952 98.081 27.5137C98.3499 27.6322 98.6666 27.6914 99.0312 27.6914C99.2727 27.6914 99.5029 27.6549 99.7216 27.582C99.9404 27.5091 100.141 27.4066 100.323 27.2744C100.505 27.1423 100.665 26.985 100.802 26.8027C100.943 26.6204 101.057 26.4176 101.143 26.1943L102.142 26.5635C101.991 26.9235 101.784 27.2357 101.519 27.5C101.26 27.7598 100.963 27.9762 100.631 28.1494C100.303 28.318 99.9518 28.4434 99.5781 28.5254C99.2089 28.6074 98.8421 28.6484 98.4775 28.6484C97.8759 28.6484 97.3199 28.5482 96.8095 28.3477C96.2991 28.1426 95.8593 27.8577 95.4902 27.4932C95.121 27.1286 94.8316 26.6934 94.622 26.1875C94.4124 25.6816 94.3076 25.1279 94.3076 24.5264C94.3076 23.9248 94.4124 23.3711 94.622 22.8652C94.8316 22.3594 95.121 21.9242 95.4902 21.5596C95.8593 21.195 96.2991 20.9124 96.8095 20.7119C97.3199 20.5068 97.8759 20.4043 98.4775 20.4043C98.7691 20.4043 99.0676 20.4248 99.373 20.4658C99.6783 20.5068 99.9745 20.5729 100.262 20.6641C100.549 20.7507 100.82 20.8646 101.075 21.0059C101.33 21.1471 101.551 21.3226 101.738 21.5322C101.93 21.7373 102.08 21.9766 102.189 22.25C102.303 22.5234 102.36 22.8356 102.36 23.1865ZM109.88 21.1494L109.114 28.4912H107.439L109.114 18.6475H111.596L113.899 26.1602L116.23 18.6475H118.712L120.106 28.4912H117.345L116.531 21.3408L114.61 28.4912H112.129L109.88 21.1494ZM129.902 24.5264C129.902 24.9365 129.848 25.3216 129.738 25.6816C129.629 26.0417 129.476 26.3743 129.28 26.6797C129.089 26.985 128.856 27.2607 128.583 27.5068C128.31 27.7484 128.009 27.9535 127.681 28.1221C127.357 28.2907 127.008 28.4206 126.635 28.5117C126.266 28.6029 125.885 28.6484 125.493 28.6484C125.101 28.6484 124.721 28.6029 124.352 28.5117C123.982 28.4206 123.634 28.2907 123.306 28.1221C122.982 27.9535 122.684 27.7484 122.41 27.5068C122.137 27.2607 121.902 26.985 121.706 26.6797C121.515 26.3743 121.364 26.0417 121.255 25.6816C121.145 25.3171 121.091 24.932 121.091 24.5264C121.091 24.1208 121.145 23.738 121.255 23.3779C121.364 23.0133 121.515 22.6784 121.706 22.373C121.902 22.0677 122.137 21.7943 122.41 21.5527C122.684 21.3066 122.982 21.0993 123.306 20.9307C123.634 20.762 123.982 20.6322 124.352 20.541C124.721 20.4499 125.101 20.4043 125.493 20.4043C125.885 20.4043 126.266 20.4499 126.635 20.541C127.008 20.6322 127.357 20.762 127.681 20.9307C128.009 21.0993 128.31 21.3066 128.583 21.5527C128.856 21.7943 129.089 22.0677 129.28 22.373C129.476 22.6784 129.629 23.0133 129.738 23.3779C129.848 23.738 129.902 24.1208 129.902 24.5264ZM127.551 24.5264C127.551 24.3076 127.537 24.0775 127.51 23.8359C127.487 23.5898 127.446 23.3506 127.387 23.1182C127.327 22.8812 127.245 22.6556 127.141 22.4414C127.04 22.2227 126.915 22.0335 126.765 21.874C126.614 21.71 126.434 21.5801 126.225 21.4844C126.015 21.3841 125.771 21.334 125.493 21.334C125.229 21.334 124.994 21.3841 124.789 21.4844C124.584 21.5846 124.404 21.7191 124.249 21.8877C124.099 22.0518 123.971 22.2432 123.866 22.4619C123.766 22.6807 123.684 22.9085 123.62 23.1455C123.556 23.3779 123.511 23.6149 123.483 23.8564C123.456 24.0934 123.442 24.3167 123.442 24.5264C123.442 24.736 123.456 24.9616 123.483 25.2031C123.511 25.4401 123.556 25.6771 123.62 25.9141C123.684 26.151 123.766 26.3789 123.866 26.5977C123.971 26.8118 124.099 27.0033 124.249 27.1719C124.404 27.3359 124.584 27.4681 124.789 27.5684C124.994 27.6686 125.229 27.7188 125.493 27.7188C125.767 27.7188 126.008 27.6709 126.218 27.5752C126.427 27.4749 126.607 27.3428 126.758 27.1787C126.913 27.0146 127.04 26.8255 127.141 26.6113C127.241 26.3971 127.321 26.1715 127.38 25.9346C127.444 25.6976 127.487 25.4583 127.51 25.2168C127.537 24.9753 127.551 24.7451 127.551 24.5264ZM138.078 21.293L136.779 23.4463C136.725 23.264 136.654 23.0589 136.567 22.8311C136.481 22.6032 136.374 22.3913 136.246 22.1953C136.118 21.9948 135.966 21.8285 135.788 21.6963C135.61 21.5596 135.405 21.4912 135.173 21.4912C134.959 21.4912 134.772 21.5459 134.612 21.6553C134.457 21.7646 134.325 21.9082 134.216 22.0859C134.106 22.2591 134.015 22.4574 133.942 22.6807C133.874 22.8994 133.819 23.1227 133.778 23.3506C133.742 23.5739 133.717 23.7904 133.703 24C133.689 24.2051 133.683 24.3828 133.683 24.5332V28.4912H131.365V20.5957H132.254L133.19 22.4346C133.318 22.1383 133.464 21.8672 133.628 21.6211C133.792 21.3704 133.981 21.1562 134.195 20.9785C134.409 20.7962 134.651 20.6549 134.92 20.5547C135.193 20.4544 135.501 20.4043 135.843 20.4043C136.02 20.4043 136.219 20.4202 136.437 20.4521C136.656 20.4795 136.87 20.5296 137.08 20.6025C137.29 20.6709 137.483 20.762 137.661 20.876C137.839 20.9899 137.978 21.1289 138.078 21.293ZM140.744 24.7451C141.027 24.8089 141.309 24.859 141.592 24.8955C141.874 24.932 142.159 24.9502 142.446 24.9502C142.747 24.9502 143.025 24.9229 143.28 24.8682C143.54 24.8089 143.763 24.7132 143.95 24.5811C144.142 24.4443 144.292 24.2643 144.401 24.041C144.511 23.8177 144.565 23.5397 144.565 23.207C144.565 22.9382 144.529 22.6921 144.456 22.4688C144.383 22.2454 144.274 22.054 144.128 21.8945C143.987 21.735 143.811 21.612 143.602 21.5254C143.392 21.4342 143.148 21.3887 142.87 21.3887C142.61 21.3887 142.376 21.4365 142.166 21.5322C141.961 21.6279 141.779 21.7578 141.619 21.9219C141.464 22.0814 141.33 22.2682 141.216 22.4824C141.106 22.6966 141.015 22.9199 140.942 23.1523C140.869 23.3848 140.817 23.6195 140.785 23.8564C140.753 24.0934 140.737 24.3167 140.737 24.5264C140.737 24.5628 140.737 24.5993 140.737 24.6357C140.737 24.6722 140.74 24.7087 140.744 24.7451ZM146.438 23.1865C146.438 23.5101 146.386 23.7995 146.281 24.0547C146.176 24.3053 146.033 24.5264 145.851 24.7178C145.673 24.9092 145.465 25.071 145.228 25.2031C144.991 25.3353 144.739 25.4447 144.47 25.5312C144.201 25.6133 143.923 25.6725 143.636 25.709C143.353 25.7454 143.077 25.7637 142.809 25.7637C142.467 25.7637 142.129 25.7409 141.797 25.6953C141.464 25.6452 141.136 25.5677 140.812 25.4629C140.863 25.7637 140.942 26.0508 141.052 26.3242C141.161 26.5931 141.307 26.8301 141.489 27.0352C141.671 27.2357 141.895 27.3952 142.159 27.5137C142.428 27.6322 142.745 27.6914 143.109 27.6914C143.351 27.6914 143.581 27.6549 143.8 27.582C144.018 27.5091 144.219 27.4066 144.401 27.2744C144.584 27.1423 144.743 26.985 144.88 26.8027C145.021 26.6204 145.135 26.4176 145.222 26.1943L146.22 26.5635C146.069 26.9235 145.862 27.2357 145.598 27.5C145.338 27.7598 145.042 27.9762 144.709 28.1494C144.381 28.318 144.03 28.4434 143.656 28.5254C143.287 28.6074 142.92 28.6484 142.556 28.6484C141.954 28.6484 141.398 28.5482 140.888 28.3477C140.377 28.1426 139.937 27.8577 139.568 27.4932C139.199 27.1286 138.91 26.6934 138.7 26.1875C138.49 25.6816 138.386 25.1279 138.386 24.5264C138.386 23.9248 138.49 23.3711 138.7 22.8652C138.91 22.3594 139.199 21.9242 139.568 21.5596C139.937 21.195 140.377 20.9124 140.888 20.7119C141.398 20.5068 141.954 20.4043 142.556 20.4043C142.847 20.4043 143.146 20.4248 143.451 20.4658C143.756 20.5068 144.053 20.5729 144.34 20.6641C144.627 20.7507 144.898 20.8646 145.153 21.0059C145.408 21.1471 145.629 21.3226 145.816 21.5322C146.008 21.7373 146.158 21.9766 146.268 22.25C146.381 22.5234 146.438 22.8356 146.438 23.1865Z" fill="#310000"/>
</svg>
