<svg width="222" height="49" viewBox="0 0 222 49" fill="none" xmlns="http://www.w3.org/2000/svg">
<path fill-rule="evenodd" clip-rule="evenodd" d="M220.643 24.6313C220.643 24.6313 211.332 42.5628 203.091 37.0747C203.091 37.0747 201.359 53.9884 195.46 43.7831H26.325C20.4262 53.9884 18.694 37.0747 18.694 37.0747C10.453 42.5628 1.14343 24.6313 1.14343 24.6313C1.14343 24.6313 10.453 6.69825 18.694 12.1878C18.694 12.1878 20.4262 -4.72735 26.325 5.4795H195.46C201.359 -4.72735 203.091 12.1878 203.091 12.1878C211.332 6.69825 220.643 24.6313 220.643 24.6313Z" fill="#FE6701"/>
<mask id="mask0_35_8919" style="mask-type:luminance" maskUnits="userSpaceOnUse" x="0" y="0" width="222" height="49">
<path d="M0 0.491211H221.504V48.4912H0V0.491211Z" fill="white"/>
</mask>
<g mask="url(#mask0_35_8919)">
<path d="M221.298 24.7788C221.271 24.8294 212.383 41.9588 203.676 38.2103C203.075 42.3308 200.744 54.1939 194.82 44.4082H26.6967C20.7725 54.1939 18.4437 42.3294 17.841 38.2103C9.13415 41.9588 0.245757 24.8294 0.218971 24.7788L0.00170898 24.3636L0.218971 23.9484C0.245757 23.8963 9.13415 6.76686 17.841 10.5169C18.4422 6.39632 20.7725 -5.46677 26.6967 4.31745H194.82C200.744 -5.46677 203.075 6.39632 203.676 10.5169C212.383 6.76686 221.271 23.8963 221.298 23.9484L221.517 24.3636L221.298 24.7788ZM203.453 36.063C210.179 40.5436 218.079 26.9425 219.496 24.3636C218.079 21.7847 210.179 8.18353 203.453 12.6627L202.228 13.4797L202.07 12.0139C202.066 11.9737 200.613 -2.15427 196.098 5.65823L195.84 6.10466H25.6773L25.4184 5.65823C20.9035 -2.15427 19.4511 11.9737 19.4467 12.0139L19.2889 13.4797L18.0642 12.6627C11.338 8.18353 3.43772 21.7847 2.02105 24.3636C3.43772 26.9425 11.338 40.5436 18.0642 36.063L19.2889 35.2475L19.4467 36.7118C19.4511 36.752 20.9035 50.8814 25.4184 43.0689L25.6773 42.6225C82.3976 42.6225 139.119 42.6285 195.84 42.6225L196.098 43.0689C200.613 50.8814 202.066 36.752 202.07 36.7118L202.228 35.2475L203.453 36.063Z" fill="#FE6701"/>
</g>
<path d="M71.9258 23.7812V23.9111C71.9167 24.2939 71.8757 24.6904 71.8027 25.1006C71.7344 25.5107 71.6364 25.9209 71.5088 26.3311C71.3812 26.7412 71.2285 27.1468 71.0508 27.5479C70.873 27.9489 70.6725 28.3317 70.4492 28.6963C70.2305 29.0654 69.9935 29.4095 69.7383 29.7285C69.4831 30.0521 69.2142 30.3369 68.9316 30.583L67.9131 29.9951C68.0726 29.7262 68.2161 29.4323 68.3438 29.1133C68.4759 28.7988 68.5944 28.4684 68.6992 28.1221C68.804 27.7757 68.8929 27.4202 68.9658 27.0557C69.0433 26.6911 69.1071 26.3288 69.1572 25.9688C69.2074 25.6087 69.2438 25.2555 69.2666 24.9092C69.2939 24.5583 69.3076 24.2256 69.3076 23.9111C69.3076 23.665 69.3053 23.387 69.3008 23.0771C69.3008 22.7627 69.2826 22.4437 69.2461 22.1201C69.2142 21.7965 69.1595 21.4821 69.082 21.1768C69.0046 20.8669 68.8883 20.5911 68.7334 20.3496C68.583 20.1081 68.387 19.9144 68.1455 19.7686C67.9085 19.6227 67.6123 19.5498 67.2568 19.5498C66.9424 19.5498 66.6712 19.6045 66.4434 19.7139C66.2201 19.8187 66.0286 19.9622 65.8691 20.1445C65.7142 20.3223 65.5889 20.5296 65.4932 20.7666C65.402 21.0036 65.3291 21.2542 65.2744 21.5186C65.2243 21.7783 65.1901 22.0426 65.1719 22.3115C65.1582 22.5758 65.1514 22.8265 65.1514 23.0635V24.9707H68.0977V26.0986H65.1514V28.4912H62.4375V23.4873C62.4375 22.7718 62.5514 22.1064 62.7793 21.4912C63.0072 20.876 63.3285 20.3428 63.7432 19.8916C64.1624 19.4359 64.6637 19.0804 65.2471 18.8252C65.835 18.5654 66.4889 18.4355 67.209 18.4355C67.6966 18.4355 68.1523 18.5062 68.5762 18.6475C69.0046 18.7842 69.3942 18.9756 69.7451 19.2217C70.096 19.4632 70.4082 19.7526 70.6816 20.0898C70.9596 20.4225 71.1898 20.7871 71.3721 21.1836C71.5589 21.5801 71.7002 21.9993 71.7959 22.4414C71.8916 22.8835 71.9349 23.3301 71.9258 23.7812ZM80.2588 25.9688C80.2588 26.3151 80.2087 26.6227 80.1084 26.8916C80.0081 27.1605 79.8714 27.3952 79.6982 27.5957C79.5251 27.7917 79.32 27.958 79.083 28.0947C78.846 28.2269 78.5908 28.334 78.3174 28.416C78.0485 28.498 77.766 28.5573 77.4697 28.5938C77.1735 28.6302 76.8796 28.6484 76.5879 28.6484C76.196 28.6484 75.8496 28.6234 75.5488 28.5732C75.248 28.5231 74.9609 28.4434 74.6875 28.334C74.4141 28.2201 74.1406 28.0742 73.8672 27.8965C73.5983 27.7188 73.2975 27.5023 72.9648 27.2471L74.3115 26.1465C74.4346 26.3789 74.5964 26.5908 74.7969 26.7822C75.002 26.9691 75.2139 27.1309 75.4326 27.2676C75.6514 27.4043 75.8633 27.5091 76.0684 27.582C76.2734 27.6549 76.4398 27.6914 76.5674 27.6914C76.6722 27.6914 76.7907 27.6891 76.9229 27.6846C77.055 27.6755 77.1895 27.6618 77.3262 27.6436C77.4629 27.6208 77.5973 27.5889 77.7295 27.5479C77.8617 27.5068 77.9779 27.4521 78.0781 27.3838C78.1829 27.3109 78.265 27.222 78.3242 27.1172C78.388 27.0078 78.4199 26.8779 78.4199 26.7275C78.4199 26.5726 78.3789 26.4382 78.2969 26.3242C78.2194 26.2057 78.1169 26.1032 77.9893 26.0166C77.8617 25.93 77.7158 25.8571 77.5518 25.7979C77.3877 25.7386 77.2214 25.6862 77.0527 25.6406C76.8887 25.5951 76.7292 25.5563 76.5742 25.5244C76.4193 25.488 76.2848 25.4538 76.1709 25.4219C75.9613 25.3626 75.7402 25.3034 75.5078 25.2441C75.2754 25.1803 75.0452 25.1097 74.8174 25.0322C74.5895 24.9502 74.3708 24.8545 74.1611 24.7451C73.9561 24.6357 73.7738 24.5059 73.6143 24.3555C73.4593 24.2005 73.334 24.0205 73.2383 23.8154C73.1471 23.6058 73.1016 23.362 73.1016 23.084C73.1016 22.5736 73.2018 22.1475 73.4023 21.8057C73.6074 21.4593 73.8763 21.1836 74.209 20.9785C74.5417 20.7689 74.9199 20.6208 75.3438 20.5342C75.7676 20.4476 76.1982 20.4043 76.6357 20.4043C76.9365 20.4043 77.2533 20.4362 77.5859 20.5C77.9186 20.5592 78.2422 20.6504 78.5566 20.7734C78.8711 20.8919 79.165 21.0378 79.4385 21.2109C79.7119 21.3841 79.9398 21.5824 80.1221 21.8057L78.7754 22.9131C78.6751 22.6396 78.543 22.4049 78.3789 22.209C78.2194 22.013 78.0439 21.8535 77.8525 21.7305C77.6657 21.6029 77.472 21.5094 77.2715 21.4502C77.0755 21.391 76.8932 21.3613 76.7246 21.3613C76.5605 21.3613 76.376 21.3682 76.1709 21.3818C75.9658 21.3955 75.7721 21.4342 75.5898 21.498C75.4121 21.5618 75.2594 21.6598 75.1318 21.792C75.0088 21.9196 74.9473 22.0973 74.9473 22.3252C74.9473 22.4893 74.9837 22.6305 75.0566 22.749C75.1341 22.863 75.2344 22.9632 75.3574 23.0498C75.4805 23.1318 75.6195 23.2025 75.7744 23.2617C75.9339 23.3164 76.0957 23.3665 76.2598 23.4121C76.4238 23.4531 76.5833 23.4896 76.7383 23.5215C76.8932 23.5534 77.0322 23.5876 77.1553 23.624C77.3649 23.6833 77.5859 23.7448 77.8184 23.8086C78.0553 23.8678 78.2878 23.9385 78.5156 24.0205C78.7435 24.098 78.9622 24.1914 79.1719 24.3008C79.3861 24.4056 79.5729 24.5355 79.7324 24.6904C79.8919 24.8454 80.0195 25.0277 80.1152 25.2373C80.2109 25.4424 80.2588 25.6862 80.2588 25.9688ZM84.0322 28.4912H81.7217V17.6904H84.0322V24.7793C84.4105 24.5059 84.7819 24.2051 85.1465 23.877C85.5156 23.5488 85.8665 23.2048 86.1992 22.8447C86.5319 22.4801 86.8395 22.1087 87.1221 21.7305C87.4092 21.3522 87.6598 20.974 87.874 20.5957H89.4463C89.1273 21.1335 88.749 21.6712 88.3115 22.209C87.874 22.7422 87.3978 23.2526 86.8828 23.7402L89.4736 28.4912H86.9238L85.085 25.1963C84.7432 25.4287 84.3923 25.6429 84.0322 25.8389V28.4912ZM102.592 32.1348H100.281V27.5479C100.008 27.9215 99.6774 28.1995 99.29 28.3818C98.9072 28.5596 98.4857 28.6484 98.0254 28.6484C97.4238 28.6484 96.8861 28.5413 96.4121 28.3271C95.9382 28.113 95.5371 27.8213 95.209 27.4521C94.8809 27.0785 94.6302 26.641 94.457 26.1396C94.2839 25.6383 94.1973 25.1006 94.1973 24.5264C94.1973 23.9521 94.2839 23.4144 94.457 22.9131C94.6302 22.4118 94.8809 21.9766 95.209 21.6074C95.5371 21.2337 95.9382 20.9398 96.4121 20.7256C96.8861 20.5114 97.4238 20.4043 98.0254 20.4043C98.3307 20.4043 98.6201 20.4499 98.8936 20.541C99.1715 20.6322 99.4245 20.762 99.6523 20.9307C99.8848 21.0947 100.088 21.2952 100.261 21.5322C100.438 21.7646 100.577 22.0244 100.678 22.3115L101.703 20.5957H102.592V32.1348ZM100.268 24.5264C100.268 24.3213 100.256 24.1048 100.233 23.877C100.215 23.6491 100.181 23.4235 100.131 23.2002C100.081 22.9769 100.01 22.765 99.9189 22.5645C99.8324 22.3594 99.7184 22.1794 99.5771 22.0244C99.4404 21.8649 99.2741 21.7396 99.0781 21.6484C98.8822 21.5573 98.6543 21.5117 98.3945 21.5117C98.1348 21.5117 97.9092 21.5596 97.7178 21.6553C97.5264 21.7464 97.3623 21.8717 97.2256 22.0312C97.0889 22.1862 96.9749 22.3662 96.8838 22.5713C96.7972 22.7764 96.7288 22.9906 96.6787 23.2139C96.6286 23.4372 96.5921 23.6628 96.5693 23.8906C96.5511 24.1139 96.542 24.3258 96.542 24.5264C96.542 24.7269 96.5511 24.9411 96.5693 25.1689C96.5921 25.3968 96.6286 25.6224 96.6787 25.8457C96.7288 26.069 96.7972 26.2832 96.8838 26.4883C96.9749 26.6934 97.0889 26.8757 97.2256 27.0352C97.3623 27.1901 97.5264 27.3154 97.7178 27.4111C97.9092 27.5023 98.1348 27.5479 98.3945 27.5479C98.6315 27.5479 98.8411 27.5 99.0234 27.4043C99.2103 27.304 99.3721 27.1719 99.5088 27.0078C99.6501 26.8438 99.7686 26.6569 99.8643 26.4473C99.96 26.2376 100.037 26.0212 100.097 25.7979C100.156 25.5745 100.199 25.3535 100.227 25.1348C100.254 24.9115 100.268 24.7087 100.268 24.5264ZM104.123 25.1143C104.123 24.7542 104.153 24.3805 104.212 23.9932C104.276 23.6058 104.365 23.2184 104.479 22.8311C104.597 22.4437 104.738 22.0609 104.902 21.6826C105.066 21.3044 105.251 20.9421 105.456 20.5957H107.145C107.031 20.9375 106.928 21.2952 106.837 21.6689C106.75 22.0381 106.675 22.4095 106.611 22.7832C106.552 23.1523 106.504 23.5146 106.468 23.8701C106.436 24.2256 106.42 24.556 106.42 24.8613C106.42 25.0391 106.427 25.2305 106.44 25.4355C106.459 25.6361 106.488 25.8389 106.529 26.0439C106.57 26.2445 106.627 26.4382 106.7 26.625C106.778 26.8118 106.876 26.9782 106.994 27.124C107.113 27.2653 107.256 27.3792 107.425 27.4658C107.598 27.5479 107.801 27.5889 108.033 27.5889C108.261 27.5889 108.464 27.5387 108.642 27.4385C108.824 27.3337 108.983 27.1992 109.12 27.0352C109.257 26.8665 109.373 26.6751 109.469 26.4609C109.564 26.2467 109.642 26.028 109.701 25.8047C109.765 25.5768 109.811 25.3558 109.838 25.1416C109.87 24.9229 109.886 24.7269 109.886 24.5537V20.5957H112.196V28.4912H111.308L110.248 26.6523C110.116 26.9577 109.954 27.2357 109.763 27.4863C109.576 27.7324 109.362 27.9443 109.12 28.1221C108.879 28.2998 108.61 28.4365 108.313 28.5322C108.022 28.6279 107.705 28.6758 107.363 28.6758C106.816 28.6758 106.34 28.5869 105.935 28.4092C105.529 28.2314 105.192 27.9854 104.923 27.6709C104.654 27.3564 104.453 26.9827 104.321 26.5498C104.189 26.1123 104.123 25.6338 104.123 25.1143ZM116.024 24.7451C116.307 24.8089 116.59 24.859 116.872 24.8955C117.155 24.932 117.439 24.9502 117.727 24.9502C118.027 24.9502 118.305 24.9229 118.561 24.8682C118.82 24.8089 119.044 24.7132 119.23 24.5811C119.422 24.4443 119.572 24.2643 119.682 24.041C119.791 23.8177 119.846 23.5397 119.846 23.207C119.846 22.9382 119.809 22.6921 119.736 22.4688C119.663 22.2454 119.554 22.054 119.408 21.8945C119.267 21.735 119.091 21.612 118.882 21.5254C118.672 21.4342 118.428 21.3887 118.15 21.3887C117.891 21.3887 117.656 21.4365 117.446 21.5322C117.241 21.6279 117.059 21.7578 116.899 21.9219C116.744 22.0814 116.61 22.2682 116.496 22.4824C116.387 22.6966 116.296 22.9199 116.223 23.1523C116.15 23.3848 116.097 23.6195 116.065 23.8564C116.034 24.0934 116.018 24.3167 116.018 24.5264C116.018 24.5628 116.018 24.5993 116.018 24.6357C116.018 24.6722 116.02 24.7087 116.024 24.7451ZM121.719 23.1865C121.719 23.5101 121.666 23.7995 121.562 24.0547C121.457 24.3053 121.313 24.5264 121.131 24.7178C120.953 24.9092 120.746 25.071 120.509 25.2031C120.272 25.3353 120.019 25.4447 119.75 25.5312C119.481 25.6133 119.203 25.6725 118.916 25.709C118.633 25.7454 118.358 25.7637 118.089 25.7637C117.747 25.7637 117.41 25.7409 117.077 25.6953C116.744 25.6452 116.416 25.5677 116.093 25.4629C116.143 25.7637 116.223 26.0508 116.332 26.3242C116.441 26.5931 116.587 26.8301 116.77 27.0352C116.952 27.2357 117.175 27.3952 117.439 27.5137C117.708 27.6322 118.025 27.6914 118.39 27.6914C118.631 27.6914 118.861 27.6549 119.08 27.582C119.299 27.5091 119.499 27.4066 119.682 27.2744C119.864 27.1423 120.023 26.985 120.16 26.8027C120.301 26.6204 120.415 26.4176 120.502 26.1943L121.5 26.5635C121.35 26.9235 121.142 27.2357 120.878 27.5C120.618 27.7598 120.322 27.9762 119.989 28.1494C119.661 28.318 119.31 28.4434 118.937 28.5254C118.567 28.6074 118.201 28.6484 117.836 28.6484C117.234 28.6484 116.678 28.5482 116.168 28.3477C115.658 28.1426 115.218 27.8577 114.849 27.4932C114.479 27.1286 114.19 26.6934 113.98 26.1875C113.771 25.6816 113.666 25.1279 113.666 24.5264C113.666 23.9248 113.771 23.3711 113.98 22.8652C114.19 22.3594 114.479 21.9242 114.849 21.5596C115.218 21.195 115.658 20.9124 116.168 20.7119C116.678 20.5068 117.234 20.4043 117.836 20.4043C118.128 20.4043 118.426 20.4248 118.731 20.4658C119.037 20.5068 119.333 20.5729 119.62 20.6641C119.907 20.7507 120.178 20.8646 120.434 21.0059C120.689 21.1471 120.91 21.3226 121.097 21.5322C121.288 21.7373 121.438 21.9766 121.548 22.25C121.662 22.5234 121.719 22.8356 121.719 23.1865ZM129.956 25.9688C129.956 26.3151 129.906 26.6227 129.806 26.8916C129.705 27.1605 129.569 27.3952 129.396 27.5957C129.222 27.7917 129.017 27.958 128.78 28.0947C128.543 28.2269 128.288 28.334 128.015 28.416C127.746 28.498 127.463 28.5573 127.167 28.5938C126.871 28.6302 126.577 28.6484 126.285 28.6484C125.893 28.6484 125.547 28.6234 125.246 28.5732C124.945 28.5231 124.658 28.4434 124.385 28.334C124.111 28.2201 123.838 28.0742 123.564 27.8965C123.296 27.7188 122.995 27.5023 122.662 27.2471L124.009 26.1465C124.132 26.3789 124.294 26.5908 124.494 26.7822C124.699 26.9691 124.911 27.1309 125.13 27.2676C125.349 27.4043 125.561 27.5091 125.766 27.582C125.971 27.6549 126.137 27.6914 126.265 27.6914C126.369 27.6914 126.488 27.6891 126.62 27.6846C126.752 27.6755 126.887 27.6618 127.023 27.6436C127.16 27.6208 127.295 27.5889 127.427 27.5479C127.559 27.5068 127.675 27.4521 127.775 27.3838C127.88 27.3109 127.962 27.222 128.021 27.1172C128.085 27.0078 128.117 26.8779 128.117 26.7275C128.117 26.5726 128.076 26.4382 127.994 26.3242C127.917 26.2057 127.814 26.1032 127.687 26.0166C127.559 25.93 127.413 25.8571 127.249 25.7979C127.085 25.7386 126.919 25.6862 126.75 25.6406C126.586 25.5951 126.426 25.5563 126.271 25.5244C126.117 25.488 125.982 25.4538 125.868 25.4219C125.659 25.3626 125.438 25.3034 125.205 25.2441C124.973 25.1803 124.743 25.1097 124.515 25.0322C124.287 24.9502 124.068 24.8545 123.858 24.7451C123.653 24.6357 123.471 24.5059 123.312 24.3555C123.157 24.2005 123.031 24.0205 122.936 23.8154C122.844 23.6058 122.799 23.362 122.799 23.084C122.799 22.5736 122.899 22.1475 123.1 21.8057C123.305 21.4593 123.574 21.1836 123.906 20.9785C124.239 20.7689 124.617 20.6208 125.041 20.5342C125.465 20.4476 125.896 20.4043 126.333 20.4043C126.634 20.4043 126.951 20.4362 127.283 20.5C127.616 20.5592 127.939 20.6504 128.254 20.7734C128.568 20.8919 128.862 21.0378 129.136 21.2109C129.409 21.3841 129.637 21.5824 129.819 21.8057L128.473 22.9131C128.372 22.6396 128.24 22.4049 128.076 22.209C127.917 22.013 127.741 21.8535 127.55 21.7305C127.363 21.6029 127.169 21.5094 126.969 21.4502C126.773 21.391 126.59 21.3613 126.422 21.3613C126.258 21.3613 126.073 21.3682 125.868 21.3818C125.663 21.3955 125.469 21.4342 125.287 21.498C125.109 21.5618 124.957 21.6598 124.829 21.792C124.706 21.9196 124.645 22.0973 124.645 22.3252C124.645 22.4893 124.681 22.6305 124.754 22.749C124.831 22.863 124.932 22.9632 125.055 23.0498C125.178 23.1318 125.317 23.2025 125.472 23.2617C125.631 23.3164 125.793 23.3665 125.957 23.4121C126.121 23.4531 126.281 23.4896 126.436 23.5215C126.59 23.5534 126.729 23.5876 126.853 23.624C127.062 23.6833 127.283 23.7448 127.516 23.8086C127.753 23.8678 127.985 23.9385 128.213 24.0205C128.441 24.098 128.66 24.1914 128.869 24.3008C129.083 24.4056 129.27 24.5355 129.43 24.6904C129.589 24.8454 129.717 25.0277 129.812 25.2373C129.908 25.4424 129.956 25.6862 129.956 25.9688ZM134.393 28.4912H132.075V21.5117H130.64V20.5957H132.075V17.6904H134.393V20.5957H136.785V21.5117H134.393V28.4912ZM140.285 18.6885C140.285 18.8617 140.251 19.0257 140.183 19.1807C140.119 19.3356 140.03 19.4701 139.916 19.584C139.802 19.6979 139.668 19.7891 139.513 19.8574C139.358 19.9212 139.194 19.9531 139.021 19.9531C138.847 19.9531 138.683 19.9212 138.528 19.8574C138.378 19.7891 138.246 19.6979 138.132 19.584C138.018 19.4701 137.927 19.3356 137.858 19.1807C137.795 19.0257 137.763 18.8617 137.763 18.6885C137.763 18.5153 137.795 18.3535 137.858 18.2031C137.927 18.0482 138.018 17.9137 138.132 17.7998C138.246 17.6859 138.378 17.597 138.528 17.5332C138.683 17.4648 138.847 17.4307 139.021 17.4307C139.194 17.4307 139.358 17.4648 139.513 17.5332C139.668 17.597 139.802 17.6859 139.916 17.7998C140.03 17.9137 140.119 18.0482 140.183 18.2031C140.251 18.3535 140.285 18.5153 140.285 18.6885ZM140.183 28.4912H137.865V20.6025H140.183V28.4912ZM150.464 24.5264C150.464 24.9365 150.409 25.3216 150.3 25.6816C150.19 26.0417 150.038 26.3743 149.842 26.6797C149.65 26.985 149.418 27.2607 149.145 27.5068C148.871 27.7484 148.57 27.9535 148.242 28.1221C147.919 28.2907 147.57 28.4206 147.196 28.5117C146.827 28.6029 146.447 28.6484 146.055 28.6484C145.663 28.6484 145.282 28.6029 144.913 28.5117C144.544 28.4206 144.195 28.2907 143.867 28.1221C143.544 27.9535 143.245 27.7484 142.972 27.5068C142.698 27.2607 142.464 26.985 142.268 26.6797C142.076 26.3743 141.926 26.0417 141.816 25.6816C141.707 25.3171 141.652 24.932 141.652 24.5264C141.652 24.1208 141.707 23.738 141.816 23.3779C141.926 23.0133 142.076 22.6784 142.268 22.373C142.464 22.0677 142.698 21.7943 142.972 21.5527C143.245 21.3066 143.544 21.0993 143.867 20.9307C144.195 20.762 144.544 20.6322 144.913 20.541C145.282 20.4499 145.663 20.4043 146.055 20.4043C146.447 20.4043 146.827 20.4499 147.196 20.541C147.57 20.6322 147.919 20.762 148.242 20.9307C148.57 21.0993 148.871 21.3066 149.145 21.5527C149.418 21.7943 149.65 22.0677 149.842 22.373C150.038 22.6784 150.19 23.0133 150.3 23.3779C150.409 23.738 150.464 24.1208 150.464 24.5264ZM148.112 24.5264C148.112 24.3076 148.099 24.0775 148.071 23.8359C148.049 23.5898 148.007 23.3506 147.948 23.1182C147.889 22.8812 147.807 22.6556 147.702 22.4414C147.602 22.2227 147.477 22.0335 147.326 21.874C147.176 21.71 146.996 21.5801 146.786 21.4844C146.576 21.3841 146.333 21.334 146.055 21.334C145.79 21.334 145.556 21.3841 145.351 21.4844C145.146 21.5846 144.965 21.7191 144.811 21.8877C144.66 22.0518 144.533 22.2432 144.428 22.4619C144.327 22.6807 144.245 22.9085 144.182 23.1455C144.118 23.3779 144.072 23.6149 144.045 23.8564C144.018 24.0934 144.004 24.3167 144.004 24.5264C144.004 24.736 144.018 24.9616 144.045 25.2031C144.072 25.4401 144.118 25.6771 144.182 25.9141C144.245 26.151 144.327 26.3789 144.428 26.5977C144.533 26.8118 144.66 27.0033 144.811 27.1719C144.965 27.3359 145.146 27.4681 145.351 27.5684C145.556 27.6686 145.79 27.7188 146.055 27.7188C146.328 27.7188 146.57 27.6709 146.779 27.5752C146.989 27.4749 147.169 27.3428 147.319 27.1787C147.474 27.0146 147.602 26.8255 147.702 26.6113C147.802 26.3971 147.882 26.1715 147.941 25.9346C148.005 25.6976 148.049 25.4583 148.071 25.2168C148.099 24.9753 148.112 24.7451 148.112 24.5264ZM160 23.9658C160 24.499 159.934 25.055 159.802 25.6338C159.674 26.2126 159.494 26.7799 159.262 27.3359C159.029 27.8919 158.751 28.4137 158.428 28.9014C158.104 29.3936 157.749 29.8174 157.361 30.1729L156.493 29.7012C156.616 29.4733 156.732 29.2181 156.842 28.9355C156.951 28.653 157.049 28.3545 157.136 28.04C157.227 27.721 157.307 27.3929 157.375 27.0557C157.448 26.7184 157.507 26.3857 157.553 26.0576C157.603 25.7249 157.639 25.4036 157.662 25.0938C157.689 24.7793 157.703 24.4876 157.703 24.2188C157.703 24.041 157.696 23.8519 157.683 23.6514C157.669 23.4463 157.639 23.2435 157.594 23.043C157.553 22.8379 157.496 22.6419 157.423 22.4551C157.35 22.2682 157.252 22.1042 157.129 21.9629C157.01 21.8216 156.865 21.7077 156.691 21.6211C156.523 21.5345 156.322 21.4912 156.09 21.4912C155.862 21.4912 155.659 21.5436 155.481 21.6484C155.304 21.7487 155.146 21.8831 155.01 22.0518C154.873 22.2158 154.755 22.4049 154.654 22.6191C154.559 22.8333 154.479 23.0544 154.415 23.2822C154.356 23.5055 154.312 23.7266 154.285 23.9453C154.258 24.1641 154.244 24.36 154.244 24.5332V28.4912H151.927V20.5957H152.815L153.875 22.4346C154.003 22.1292 154.162 21.8512 154.354 21.6006C154.545 21.3499 154.761 21.1357 155.003 20.958C155.244 20.7803 155.511 20.6436 155.803 20.5479C156.099 20.4521 156.418 20.4043 156.76 20.4043C157.307 20.4043 157.783 20.4932 158.188 20.6709C158.594 20.8486 158.931 21.097 159.2 21.416C159.469 21.7305 159.67 22.1064 159.802 22.5439C159.934 22.9769 160 23.4508 160 23.9658Z" fill="#310000"/>
</svg>
