<svg width="1280" height="21" viewBox="0 0 1280 21" fill="none" xmlns="http://www.w3.org/2000/svg">
<mask id="mask0_344_1235" style="mask-type:luminance" maskUnits="userSpaceOnUse" x="619" y="0" width="42" height="21">
<path d="M619.851 20.3037H660.216V0.303711H619.851V20.3037Z" fill="white"/>
</mask>
<g mask="url(#mask0_344_1235)">
<path d="M647.244 10.3635C647.509 10.9329 647.67 11.4894 647.832 11.9678C649.326 16.5336 645.599 20.3037 639.998 20.3037C634.401 20.3037 630.663 16.5336 632.165 11.9678C632.315 11.4894 632.48 10.9329 632.756 10.3635C629.47 12.1862 624.481 13.4108 620.074 9.52368C626.865 7.10558 633.53 3.14302 636.067 0.337511H636.4C635.601 3.28603 634.594 5.82113 629.341 8.79305C631.67 8.79305 635.787 6.95478 638.206 4.04006C638.482 6.81957 638.482 10.5299 634.791 14.2169C636.576 13.8477 637.999 13.1508 639.998 8.55904C642.001 13.1508 643.413 13.8477 645.194 14.2169C641.503 10.5299 641.514 6.81957 641.783 4.04006C644.202 6.95478 648.319 8.79305 650.655 8.79305C645.391 5.82113 644.395 3.28603 643.6 0.337511H643.922C646.456 3.14302 653.121 7.10558 659.915 9.52368C655.504 13.4108 650.53 12.1862 647.244 10.3635Z" fill="#F68207"/>
</g>
<path d="M605 3.15234H607.828C611.329 3.15234 614.786 3.58634 618.185 4.20816C619.024 4.35536 620.076 4.46196 621.396 4.46196C622.318 4.46196 623.183 4.39851 624 4.29952C621.584 5.74111 618.116 7.14209 614.156 7.15225C607.137 7.17509 605 3.15234 605 3.15234Z" fill="#F68207"/>
<path d="M665.845 7.15225C661.885 7.14209 658.416 5.74111 656 4.29952C656.817 4.39851 657.682 4.46196 658.604 4.46196C659.924 4.46196 660.973 4.35536 661.816 4.20816C665.212 3.58634 668.67 3.15234 672.186 3.15234H675C675 3.15234 672.862 7.17509 665.845 7.15225Z" fill="#F68207"/>
<mask id="mask1_344_1235" style="mask-type:luminance" maskUnits="userSpaceOnUse" x="0" y="5" width="597" height="5">
<path d="M0 9.7627H597V5.4898H0V9.7627Z" fill="white"/>
</mask>
<g mask="url(#mask1_344_1235)">
<path d="M595.999 5.68477H0.97168V8.86719H595.999V5.68477Z" fill="#F68207"/>
</g>
<mask id="mask2_344_1235" style="mask-type:luminance" maskUnits="userSpaceOnUse" x="682" y="5" width="598" height="5">
<path d="M682 9.7666H1280V5.48655H682V9.7666Z" fill="white"/>
</mask>
<g mask="url(#mask2_344_1235)">
<path d="M1291.46 5.68139H682.807V8.86914H1291.46V5.68139Z" fill="#F68207"/>
</g>
</svg>
