<svg width="296" height="64" viewBox="0 0 296 64" fill="none" xmlns="http://www.w3.org/2000/svg">
<mask id="mask0_248_10415" style="mask-type:luminance" maskUnits="userSpaceOnUse" x="0" y="0" width="296" height="64">
<path d="M0.506958 0.0367432H295.507V63.9632H0.506958V0.0367432Z" fill="white"/>
</mask>
<g mask="url(#mask0_248_10415)">
<path d="M295.231 32.3826C295.196 32.45 283.358 55.263 271.762 50.2707C270.962 55.7585 267.858 71.5578 259.968 58.5251H36.0612C28.1715 71.5578 25.0699 55.7565 24.2672 50.2707C12.6714 55.263 0.833873 32.45 0.7982 32.3826L0.50885 31.8296L0.7982 31.2767C0.833873 31.2073 12.6714 8.39429 24.2672 13.3886C25.0679 7.90082 28.1715 -7.89847 36.0612 5.13217H259.968C267.858 -7.89847 270.962 7.90082 271.762 13.3886C283.358 8.39429 295.196 31.2073 295.231 31.2767L295.523 31.8296L295.231 32.3826ZM271.465 47.4109C280.423 53.3783 290.945 35.2642 292.831 31.8296C290.945 28.3951 280.423 10.281 271.465 16.2464L269.834 17.3344L269.624 15.3823C269.618 15.3288 267.684 -3.48688 261.671 6.91782L261.326 7.51237H34.7036L34.3588 6.91782C28.3459 -3.48688 26.4116 15.3288 26.4057 15.3823L26.1956 17.3344L24.5645 16.2464C15.6066 10.281 5.08494 28.3951 3.19822 31.8296C5.08494 35.2642 15.6066 53.3783 24.5645 47.4109L26.1956 46.3249L26.4057 48.275C26.4116 48.3285 28.3459 67.1462 34.3588 56.7415L34.7036 56.1469C110.244 56.1469 185.786 56.1548 261.326 56.1469L261.671 56.7415C267.684 67.1462 269.618 48.3285 269.624 48.275L269.834 46.3249L271.465 47.4109Z" fill="#B3B3B3"/>
<path d="M123.689 37.0367H120.005V23.6774H129.598V25.3844H123.689V29.5128H128.253V31.2106H123.689V37.0367ZM139.896 27.2677L138.133 30.1901C138.059 29.9427 137.963 29.6643 137.846 29.3551C137.728 29.0459 137.583 28.7583 137.41 28.4923C137.237 28.2202 137.029 27.9944 136.788 27.8151C136.547 27.6295 136.269 27.5367 135.953 27.5367C135.663 27.5367 135.409 27.611 135.193 27.7594C134.982 27.9078 134.803 28.1027 134.654 28.3439C134.506 28.5789 134.382 28.8479 134.283 29.151C134.191 29.4479 134.116 29.7509 134.061 30.0602C134.011 30.3632 133.977 30.657 133.959 30.9415C133.94 31.2198 133.931 31.4611 133.931 31.6652V37.0367H130.786V26.3214H131.992L133.263 28.817C133.436 28.415 133.634 28.047 133.857 27.713C134.079 27.3728 134.336 27.0822 134.627 26.8409C134.917 26.5935 135.245 26.4018 135.61 26.2657C135.981 26.1297 136.399 26.0616 136.862 26.0616C137.104 26.0616 137.373 26.0833 137.67 26.1266C137.966 26.1637 138.257 26.2317 138.542 26.3307C138.826 26.4235 139.089 26.5472 139.33 26.7018C139.571 26.8564 139.76 27.045 139.896 27.2677ZM140.462 32.4537C140.462 31.9651 140.502 31.458 140.583 30.9323C140.669 30.4065 140.79 29.8808 140.944 29.3551C141.105 28.8294 141.297 28.3099 141.52 27.7965C141.742 27.2832 141.993 26.7915 142.271 26.3214H144.563C144.408 26.7853 144.269 27.2708 144.145 27.778C144.028 28.2789 143.926 28.783 143.839 29.2902C143.759 29.7911 143.694 30.2828 143.644 30.7653C143.601 31.2477 143.579 31.6961 143.579 32.1105C143.579 32.3517 143.589 32.6115 143.607 32.8898C143.632 33.1619 143.672 33.4371 143.728 33.7155C143.783 33.9876 143.861 34.2504 143.96 34.504C144.065 34.7576 144.198 34.9834 144.359 35.1813C144.519 35.373 144.714 35.5276 144.943 35.6451C145.178 35.7565 145.453 35.8121 145.769 35.8121C146.078 35.8121 146.353 35.7441 146.594 35.608C146.842 35.4658 147.058 35.2833 147.244 35.0607C147.429 34.8318 147.587 34.5721 147.717 34.2814C147.847 33.9907 147.952 33.6938 148.032 33.3907C148.119 33.0815 148.181 32.7815 148.218 32.4908C148.261 32.194 148.283 31.928 148.283 31.693V26.3214H151.419V37.0367H150.213L148.775 34.5411C148.595 34.9555 148.376 35.3328 148.116 35.673C147.862 36.007 147.572 36.2946 147.244 36.5358C146.916 36.777 146.551 36.9625 146.149 37.0924C145.753 37.2223 145.323 37.2872 144.859 37.2872C144.117 37.2872 143.471 37.1666 142.921 36.9254C142.37 36.6842 141.912 36.3502 141.547 35.9235C141.183 35.4967 140.91 34.9895 140.731 34.402C140.552 33.8082 140.462 33.1588 140.462 32.4537ZM157.328 23.733C157.328 23.9681 157.282 24.1907 157.189 24.401C157.102 24.6113 156.982 24.7937 156.827 24.9484C156.673 25.103 156.49 25.2267 156.28 25.3195C156.07 25.406 155.847 25.4493 155.612 25.4493C155.377 25.4493 155.154 25.406 154.944 25.3195C154.74 25.2267 154.561 25.103 154.406 24.9484C154.251 24.7937 154.128 24.6113 154.035 24.401C153.948 24.1907 153.905 23.9681 153.905 23.733C153.905 23.498 153.948 23.2784 154.035 23.0743C154.128 22.8641 154.251 22.6816 154.406 22.527C154.561 22.3724 154.74 22.2517 154.944 22.1652C155.154 22.0724 155.377 22.026 155.612 22.026C155.847 22.026 156.07 22.0724 156.28 22.1652C156.49 22.2517 156.673 22.3724 156.827 22.527C156.982 22.6816 157.102 22.8641 157.189 23.0743C157.282 23.2784 157.328 23.498 157.328 23.733ZM157.189 37.0367H154.044V26.3307H157.189V37.0367ZM163.859 37.0367H160.714V27.5646H158.766V26.3214H160.714V22.3785H163.859V26.3214H167.107V27.5646H163.859V37.0367ZM177.711 33.6134C177.711 34.0835 177.643 34.5009 177.506 34.8658C177.37 35.2308 177.185 35.5493 176.95 35.8214C176.715 36.0874 176.436 36.3131 176.115 36.4987C175.793 36.678 175.447 36.8234 175.076 36.9347C174.711 37.046 174.327 37.1264 173.925 37.1759C173.523 37.2254 173.124 37.2501 172.729 37.2501C172.197 37.2501 171.727 37.2161 171.318 37.1481C170.91 37.08 170.521 36.9718 170.15 36.8234C169.778 36.6687 169.407 36.4708 169.036 36.2296C168.671 35.9884 168.263 35.6946 167.812 35.3483L169.639 33.8546C169.806 34.17 170.026 34.4576 170.298 34.7174C170.576 34.971 170.864 35.1906 171.161 35.3761C171.458 35.5616 171.745 35.7039 172.024 35.8029C172.302 35.9018 172.528 35.9513 172.701 35.9513C172.843 35.9513 173.004 35.9482 173.183 35.942C173.363 35.9296 173.545 35.9111 173.731 35.8864C173.916 35.8554 174.099 35.8121 174.278 35.7565C174.457 35.7008 174.615 35.6266 174.751 35.5338C174.893 35.4349 175.005 35.3142 175.085 35.172C175.172 35.0236 175.215 34.8473 175.215 34.6432C175.215 34.4329 175.159 34.2504 175.048 34.0958C174.943 33.935 174.804 33.7959 174.63 33.6783C174.457 33.5608 174.259 33.4619 174.037 33.3815C173.814 33.3011 173.588 33.2299 173.359 33.1681C173.137 33.1062 172.92 33.0537 172.71 33.0104C172.5 32.9609 172.317 32.9145 172.163 32.8712C171.878 32.7908 171.578 32.7104 171.263 32.63C170.947 32.5434 170.635 32.4476 170.326 32.3424C170.017 32.2311 169.72 32.1012 169.435 31.9528C169.157 31.8043 168.909 31.6281 168.693 31.424C168.483 31.2137 168.313 30.9694 168.183 30.691C168.059 30.4065 167.997 30.0756 167.997 29.6984C167.997 29.0057 168.133 28.4274 168.405 27.9635C168.684 27.4934 169.049 27.1193 169.5 26.8409C169.952 26.5564 170.465 26.3554 171.04 26.2379C171.615 26.1204 172.2 26.0616 172.794 26.0616C173.202 26.0616 173.632 26.1049 174.083 26.1915C174.535 26.2719 174.974 26.3956 175.401 26.5626C175.827 26.7234 176.226 26.9213 176.597 27.1564C176.968 27.3914 177.278 27.6604 177.525 27.9635L175.697 29.4664C175.561 29.0953 175.382 28.7768 175.159 28.5109C174.943 28.2449 174.705 28.0284 174.445 27.8615C174.191 27.6883 173.929 27.5615 173.656 27.4811C173.39 27.4007 173.143 27.3605 172.914 27.3605C172.692 27.3605 172.441 27.3698 172.163 27.3883C171.884 27.4069 171.622 27.4594 171.374 27.546C171.133 27.6326 170.926 27.7656 170.753 27.9449C170.586 28.1181 170.502 28.3593 170.502 28.6686C170.502 28.8912 170.552 29.083 170.651 29.2438C170.756 29.3984 170.892 29.5345 171.059 29.652C171.226 29.7633 171.414 29.8592 171.625 29.9396C171.841 30.0138 172.061 30.0818 172.283 30.1437C172.506 30.1993 172.722 30.2488 172.933 30.2921C173.143 30.3354 173.332 30.3818 173.499 30.4313C173.783 30.5117 174.083 30.5952 174.399 30.6818C174.72 30.7622 175.036 30.858 175.345 30.9694C175.654 31.0745 175.951 31.2013 176.235 31.3497C176.526 31.492 176.78 31.6683 176.996 31.8785C177.213 32.0888 177.386 32.3362 177.516 32.6207C177.646 32.899 177.711 33.2299 177.711 33.6134Z" fill="#C65E00"/>
</g>
</svg>
