<svg width="412" height="41" viewBox="0 0 412 41" fill="none" xmlns="http://www.w3.org/2000/svg">
<mask id="mask0_35_7500" style="mask-type:luminance" maskUnits="userSpaceOnUse" x="21" y="0" width="60" height="41">
<path d="M21.6094 40.0312H80.276V0.03125H21.6094V40.0312Z" fill="white"/>
</mask>
<g mask="url(#mask0_35_7500)">
<path d="M61.4219 20.1509C61.8073 21.2897 62.0417 22.4025 62.276 23.3594C64.4479 32.4909 59.0312 40.0312 50.8906 40.0312C42.7552 40.0312 37.3229 32.4909 39.5052 23.3594C39.7239 22.4025 39.9635 21.2897 40.3646 20.1509C35.5885 23.7962 28.3385 26.2455 21.9323 18.4712C31.8021 13.635 41.4896 5.70988 45.1771 0.0988503H45.6614C44.5 5.99589 43.0364 11.0661 35.401 17.0099C38.7864 17.0099 44.7708 13.3334 48.2864 7.50395C48.6875 13.063 48.6875 20.4837 43.3229 27.8576C45.9167 27.1191 47.9844 25.7255 50.8906 16.5419C53.8021 25.7255 55.8542 27.1191 58.4427 27.8576C53.0781 20.4837 53.0937 13.063 53.4844 7.50395C57 13.3334 62.9844 17.0099 66.3802 17.0099C58.7292 11.0661 57.2812 5.99589 56.125 0.0988503H56.5937C60.276 5.70988 69.9635 13.635 79.8385 18.4712C73.4271 26.2455 66.1979 23.7962 61.4219 20.1509Z" fill="#F68207"/>
</g>
<path d="M0 5.27302H4.07292C9.11458 5.27302 14.0938 6.16226 18.9896 7.43631C20.1979 7.73792 21.7135 7.95633 23.6146 7.95633C24.9427 7.95633 26.1875 7.82633 27.3646 7.62352C23.8854 10.5772 18.8906 13.4478 13.1875 13.4686C3.07812 13.5154 0 5.27302 0 5.27302Z" fill="#F68207"/>
<path d="M88.5828 13.4686C82.8797 13.4478 77.8849 10.5772 74.4058 7.62352C75.5828 7.82633 76.8276 7.95633 78.1558 7.95633C80.0568 7.95633 81.5672 7.73792 82.7808 7.43631C87.6714 6.16226 92.6506 5.27302 97.7131 5.27302H101.765C101.765 5.27302 98.687 13.5154 88.5828 13.4686Z" fill="#F68207"/>
<mask id="mask1_35_7500" style="mask-type:luminance" maskUnits="userSpaceOnUse" x="124" y="5" width="288" height="5">
<path d="M124.276 9.3501H412V5.35634H124.276V9.3501Z" fill="white"/>
</mask>
<g mask="url(#mask1_35_7500)">
<path d="M417.515 5.53818H124.665V8.5127H417.515V5.53818Z" fill="#F68207"/>
</g>
</svg>
