<svg width="506" height="40" viewBox="0 0 506 40" fill="none" xmlns="http://www.w3.org/2000/svg">
<mask id="mask0_35_6374" style="mask-type:luminance" maskUnits="userSpaceOnUse" x="223" y="0" width="60" height="40">
<path d="M223.666 40H282.333V0H223.666V40Z" fill="white"/>
</mask>
<g mask="url(#mask0_35_6374)">
<path d="M263.479 20.1196C263.864 21.2584 264.098 22.3713 264.333 23.3281C266.505 32.4597 261.088 40 252.947 40C244.812 40 239.38 32.4597 241.562 23.3281C241.781 22.3713 242.02 21.2584 242.421 20.1196C237.645 23.7649 230.395 26.2142 223.989 18.4399C233.859 13.6037 243.546 5.67863 247.234 0.0676003H247.718C246.557 5.96464 245.093 11.0348 237.458 16.9787C240.843 16.9787 246.828 13.3021 250.343 7.4727C250.744 13.0317 250.744 20.4524 245.38 27.8263C247.973 27.0879 250.041 25.6942 252.947 16.5107C255.859 25.6942 257.911 27.0879 260.499 27.8263C255.135 20.4524 255.151 13.0317 255.541 7.4727C259.057 13.3021 265.041 16.9787 268.437 16.9787C260.786 11.0348 259.338 5.96464 258.182 0.0676003H258.651C262.333 5.67863 272.02 13.6037 281.895 18.4399C275.484 26.2142 268.255 23.7649 263.479 20.1196Z" fill="#F68207"/>
</g>
<path d="M202.057 5.24177H206.13C211.171 5.24177 216.151 6.13101 221.046 7.40506C222.255 7.70667 223.77 7.92508 225.671 7.92508C227 7.92508 228.244 7.79508 229.421 7.59227C225.942 10.546 220.947 13.4165 215.244 13.4373C205.135 13.4841 202.057 5.24177 202.057 5.24177Z" fill="#F68207"/>
<path d="M290.64 13.4373C284.937 13.4165 279.942 10.546 276.463 7.59227C277.64 7.79508 278.884 7.92508 280.213 7.92508C282.114 7.92508 283.624 7.70667 284.838 7.40506C289.728 6.13101 294.707 5.24177 299.77 5.24177H303.822C303.822 5.24177 300.744 13.4841 290.64 13.4373Z" fill="#F68207"/>
<mask id="mask1_35_6374" style="mask-type:luminance" maskUnits="userSpaceOnUse" x="0" y="5" width="180" height="5">
<path d="M0.327332 9.31897H179.666V5.32521H0.327332V9.31897Z" fill="white"/>
</mask>
<g mask="url(#mask1_35_6374)">
<path d="M179.365 5.50705H0.619324V8.48157H179.365V5.50705Z" fill="#F68207"/>
</g>
<mask id="mask2_35_6374" style="mask-type:luminance" maskUnits="userSpaceOnUse" x="326" y="5" width="180" height="5">
<path d="M326.333 9.31897H505.673V5.32521H326.333V9.31897Z" fill="white"/>
</mask>
<g mask="url(#mask2_35_6374)">
<path d="M509.11 5.50705H326.575V8.48157H509.11V5.50705Z" fill="#F68207"/>
</g>
</svg>
