<svg width="296" height="64" viewBox="0 0 296 64" fill="none" xmlns="http://www.w3.org/2000/svg">
<mask id="mask0_248_16338" style="mask-type:luminance" maskUnits="userSpaceOnUse" x="0" y="0" width="296" height="64">
<path d="M0.0136719 0H295.014V63.9265H0.0136719V0Z" fill="white"/>
</mask>
<g mask="url(#mask0_248_16338)">
<path d="M294.738 32.3458C294.702 32.4132 282.865 55.2263 271.269 50.234C270.468 55.7217 267.365 71.521 259.475 58.4884H35.568C27.6783 71.521 24.5767 55.7197 23.774 50.234C12.1782 55.2263 0.340648 32.4132 0.304975 32.3458L0.015625 31.7929L0.304975 31.24C0.340648 31.1706 12.1782 8.35755 23.774 13.3518C24.5747 7.86407 27.6783 -7.93522 35.568 5.09543H259.475C267.365 -7.93522 270.468 7.86407 271.269 13.3518C282.865 8.35755 294.702 31.1706 294.738 31.24L295.029 31.7929L294.738 32.3458ZM270.972 47.3742C279.93 53.3415 290.451 35.2274 292.338 31.7929C290.451 28.3584 279.93 10.2443 270.972 16.2096L269.341 17.2977L269.131 15.3455C269.125 15.292 267.19 -3.52362 261.178 6.88108L260.833 7.47563H34.2104L33.8656 6.88108C27.8527 -3.52362 25.9184 15.292 25.9124 15.3455L25.7024 17.2977L24.0713 16.2096C15.1133 10.2443 4.59171 28.3584 2.70499 31.7929C4.59171 35.2274 15.1133 53.3415 24.0713 47.3742L25.7024 46.2881L25.9124 48.2383C25.9184 48.2918 27.8527 67.1094 33.8656 56.7047L34.2104 56.1102C109.751 56.1102 185.293 56.1181 260.833 56.1102L261.178 56.7047C267.19 67.1094 269.125 48.2918 269.131 48.2383L269.341 46.2881L270.972 47.3742Z" fill="#B3B3B3"/>
<path d="M76.1953 37H72.5122V23.6406H76.1953V29.4761H81.0752V23.6406H84.7583V37H81.0752V31.1738H76.1953V37ZM98.6929 31.6191C98.6929 32.1758 98.6187 32.6984 98.4702 33.187C98.3218 33.6756 98.1146 34.1271 97.8486 34.5415C97.5889 34.9559 97.2734 35.3301 96.9023 35.6641C96.5312 35.9919 96.123 36.2702 95.6777 36.499C95.2386 36.7279 94.7655 36.9041 94.2583 37.0278C93.7573 37.1515 93.2409 37.2134 92.709 37.2134C92.1771 37.2134 91.6606 37.1515 91.1597 37.0278C90.6587 36.9041 90.1855 36.7279 89.7402 36.499C89.3011 36.2702 88.896 35.9919 88.5249 35.6641C88.1538 35.3301 87.8353 34.9559 87.5693 34.5415C87.3096 34.1271 87.1055 33.6756 86.957 33.187C86.8086 32.6922 86.7344 32.1696 86.7344 31.6191C86.7344 31.0687 86.8086 30.5492 86.957 30.0605C87.1055 29.5658 87.3096 29.1112 87.5693 28.6968C87.8353 28.2824 88.1538 27.9113 88.5249 27.5835C88.896 27.2495 89.3011 26.9681 89.7402 26.7393C90.1855 26.5104 90.6587 26.3341 91.1597 26.2104C91.6606 26.0868 92.1771 26.0249 92.709 26.0249C93.2409 26.0249 93.7573 26.0868 94.2583 26.2104C94.7655 26.3341 95.2386 26.5104 95.6777 26.7393C96.123 26.9681 96.5312 27.2495 96.9023 27.5835C97.2734 27.9113 97.5889 28.2824 97.8486 28.6968C98.1146 29.1112 98.3218 29.5658 98.4702 30.0605C98.6187 30.5492 98.6929 31.0687 98.6929 31.6191ZM95.5015 31.6191C95.5015 31.3223 95.4829 31.0099 95.4458 30.6821C95.4149 30.3481 95.3592 30.0234 95.2788 29.708C95.1984 29.3864 95.0871 29.0802 94.9448 28.7896C94.8088 28.4927 94.6387 28.236 94.4346 28.0195C94.2305 27.7969 93.9862 27.6206 93.7017 27.4907C93.4172 27.3547 93.0863 27.2866 92.709 27.2866C92.3503 27.2866 92.0317 27.3547 91.7534 27.4907C91.4751 27.6268 91.2308 27.8092 91.0205 28.0381C90.8164 28.2607 90.6432 28.5205 90.501 28.8174C90.3649 29.1143 90.2536 29.4235 90.167 29.7451C90.0804 30.0605 90.0186 30.3822 89.9814 30.71C89.9443 31.0316 89.9258 31.3346 89.9258 31.6191C89.9258 31.9036 89.9443 32.2098 89.9814 32.5376C90.0186 32.8592 90.0804 33.1808 90.167 33.5024C90.2536 33.8241 90.3649 34.1333 90.501 34.4302C90.6432 34.7209 90.8164 34.9806 91.0205 35.2095C91.2308 35.4321 91.4751 35.6115 91.7534 35.7476C92.0317 35.8836 92.3503 35.9517 92.709 35.9517C93.0801 35.9517 93.4079 35.8867 93.6924 35.7568C93.9769 35.6208 94.2212 35.4414 94.4253 35.2188C94.6356 34.9961 94.8088 34.7394 94.9448 34.4487C95.0809 34.158 95.1891 33.8519 95.2695 33.5303C95.3561 33.2087 95.4149 32.884 95.4458 32.5562C95.4829 32.2284 95.5015 31.916 95.5015 31.6191ZM104.436 37H101.291V27.5278H99.3423V26.2847H101.291V22.3418H104.436V26.2847H107.683V27.5278H104.436V37ZM127.026 33.3726C127.026 33.7498 126.964 34.1024 126.84 34.4302C126.717 34.758 126.547 35.0579 126.33 35.3301C126.114 35.596 125.86 35.8341 125.569 36.0444C125.285 36.2547 124.976 36.431 124.642 36.5732C124.314 36.7155 123.974 36.8237 123.621 36.8979C123.269 36.966 122.922 37 122.582 37H114.724V23.6406H121.905C122.22 23.6406 122.551 23.6654 122.897 23.7148C123.244 23.7581 123.581 23.8293 123.909 23.9282C124.243 24.0272 124.558 24.1571 124.855 24.3179C125.158 24.4787 125.421 24.6766 125.644 24.9116C125.872 25.1405 126.052 25.4064 126.182 25.7095C126.318 26.0125 126.386 26.3589 126.386 26.7485C126.386 27.1196 126.312 27.4567 126.163 27.7598C126.015 28.0628 125.814 28.335 125.56 28.5762C125.313 28.8112 125.025 29.0215 124.697 29.207C124.376 29.3864 124.035 29.5441 123.677 29.6802C124.128 29.8039 124.555 29.9678 124.957 30.1719C125.365 30.376 125.721 30.6265 126.024 30.9233C126.333 31.2202 126.577 31.5728 126.757 31.981C126.936 32.383 127.026 32.8468 127.026 33.3726ZM122.647 27.0732C122.647 26.3187 122.446 25.7682 122.044 25.4219C121.648 25.0755 121.082 24.9023 120.346 24.9023H118.407V29.2349H120.031C120.365 29.2349 120.689 29.1947 121.005 29.1143C121.32 29.0277 121.599 28.8978 121.84 28.7246C122.087 28.5452 122.282 28.3195 122.424 28.0474C122.573 27.7752 122.647 27.4505 122.647 27.0732ZM123.296 33.1406C123.296 32.7757 123.25 32.4355 123.157 32.1201C123.064 31.7985 122.922 31.5233 122.73 31.2944C122.539 31.0594 122.298 30.877 122.007 30.7471C121.722 30.611 121.385 30.543 120.996 30.543H118.407V35.7012H120.671C121.048 35.7012 121.398 35.6393 121.719 35.5156C122.041 35.3919 122.319 35.2188 122.554 34.9961C122.789 34.7734 122.972 34.5044 123.102 34.189C123.231 33.8735 123.296 33.5241 123.296 33.1406ZM131.479 31.916C131.862 32.0026 132.246 32.0706 132.629 32.1201C133.013 32.1696 133.399 32.1943 133.789 32.1943C134.197 32.1943 134.575 32.1572 134.921 32.083C135.273 32.0026 135.576 31.8727 135.83 31.6934C136.09 31.5078 136.294 31.2635 136.442 30.9604C136.591 30.6574 136.665 30.2801 136.665 29.8286C136.665 29.4637 136.616 29.1297 136.517 28.8267C136.418 28.5236 136.269 28.2638 136.071 28.0474C135.88 27.8309 135.641 27.6639 135.357 27.5464C135.072 27.4227 134.742 27.3608 134.364 27.3608C134.012 27.3608 133.693 27.4258 133.409 27.5557C133.13 27.6855 132.883 27.8618 132.667 28.0845C132.456 28.3009 132.274 28.5545 132.119 28.8452C131.971 29.1359 131.847 29.439 131.748 29.7544C131.649 30.0698 131.578 30.3883 131.535 30.71C131.491 31.0316 131.47 31.3346 131.47 31.6191C131.47 31.6686 131.47 31.7181 131.47 31.7676C131.47 31.8171 131.473 31.8665 131.479 31.916ZM139.207 29.8008C139.207 30.2399 139.136 30.6326 138.994 30.979C138.851 31.3192 138.657 31.6191 138.409 31.8789C138.168 32.1387 137.887 32.3582 137.565 32.5376C137.243 32.717 136.9 32.8654 136.535 32.9829C136.17 33.0942 135.793 33.1746 135.403 33.2241C135.02 33.2736 134.646 33.2983 134.281 33.2983C133.817 33.2983 133.359 33.2674 132.908 33.2056C132.456 33.1375 132.011 33.0324 131.572 32.8901C131.64 33.2983 131.748 33.688 131.896 34.0591C132.045 34.424 132.243 34.7456 132.49 35.0239C132.738 35.2961 133.041 35.5125 133.399 35.6733C133.764 35.8341 134.194 35.9146 134.689 35.9146C135.017 35.9146 135.329 35.8651 135.626 35.7661C135.923 35.6672 136.195 35.528 136.442 35.3486C136.69 35.1693 136.906 34.9559 137.092 34.7085C137.284 34.4611 137.438 34.1859 137.556 33.8828L138.91 34.3838C138.706 34.8724 138.425 35.2961 138.066 35.6548C137.713 36.0073 137.311 36.3011 136.86 36.5361C136.415 36.765 135.938 36.9351 135.431 37.0464C134.93 37.1577 134.432 37.2134 133.938 37.2134C133.121 37.2134 132.367 37.0773 131.674 36.8052C130.981 36.5269 130.384 36.1403 129.883 35.6455C129.382 35.1507 128.99 34.5601 128.705 33.8735C128.421 33.187 128.278 32.4355 128.278 31.6191C128.278 30.8027 128.421 30.0513 128.705 29.3647C128.99 28.6782 129.382 28.0876 129.883 27.5928C130.384 27.098 130.981 26.7145 131.674 26.4424C132.367 26.1641 133.121 26.0249 133.938 26.0249C134.333 26.0249 134.738 26.0527 135.153 26.1084C135.567 26.1641 135.969 26.2537 136.359 26.3774C136.749 26.495 137.117 26.6496 137.463 26.8413C137.809 27.033 138.109 27.2712 138.363 27.5557C138.623 27.834 138.827 28.1587 138.975 28.5298C139.13 28.9009 139.207 29.3245 139.207 29.8008ZM146.675 37H143.855L139.958 26.2847H143.094L145.952 34.8198L148.726 26.2847H150.896L146.675 37ZM154.58 31.916C154.963 32.0026 155.347 32.0706 155.73 32.1201C156.113 32.1696 156.5 32.1943 156.89 32.1943C157.298 32.1943 157.675 32.1572 158.021 32.083C158.374 32.0026 158.677 31.8727 158.931 31.6934C159.19 31.5078 159.395 31.2635 159.543 30.9604C159.691 30.6574 159.766 30.2801 159.766 29.8286C159.766 29.4637 159.716 29.1297 159.617 28.8267C159.518 28.5236 159.37 28.2638 159.172 28.0474C158.98 27.8309 158.742 27.6639 158.458 27.5464C158.173 27.4227 157.842 27.3608 157.465 27.3608C157.112 27.3608 156.794 27.4258 156.509 27.5557C156.231 27.6855 155.984 27.8618 155.767 28.0845C155.557 28.3009 155.374 28.5545 155.22 28.8452C155.071 29.1359 154.948 29.439 154.849 29.7544C154.75 30.0698 154.679 30.3883 154.635 30.71C154.592 31.0316 154.57 31.3346 154.57 31.6191C154.57 31.6686 154.57 31.7181 154.57 31.7676C154.57 31.8171 154.573 31.8665 154.58 31.916ZM162.308 29.8008C162.308 30.2399 162.236 30.6326 162.094 30.979C161.952 31.3192 161.757 31.6191 161.51 31.8789C161.269 32.1387 160.987 32.3582 160.666 32.5376C160.344 32.717 160.001 32.8654 159.636 32.9829C159.271 33.0942 158.894 33.1746 158.504 33.2241C158.12 33.2736 157.746 33.2983 157.381 33.2983C156.917 33.2983 156.46 33.2674 156.008 33.2056C155.557 33.1375 155.111 33.0324 154.672 32.8901C154.74 33.2983 154.849 33.688 154.997 34.0591C155.146 34.424 155.343 34.7456 155.591 35.0239C155.838 35.2961 156.141 35.5125 156.5 35.6733C156.865 35.8341 157.295 35.9146 157.79 35.9146C158.117 35.9146 158.43 35.8651 158.727 35.7661C159.023 35.6672 159.296 35.528 159.543 35.3486C159.79 35.1693 160.007 34.9559 160.192 34.7085C160.384 34.4611 160.539 34.1859 160.656 33.8828L162.011 34.3838C161.807 34.8724 161.525 35.2961 161.167 35.6548C160.814 36.0073 160.412 36.3011 159.96 36.5361C159.515 36.765 159.039 36.9351 158.532 37.0464C158.031 37.1577 157.533 37.2134 157.038 37.2134C156.222 37.2134 155.467 37.0773 154.774 36.8052C154.082 36.5269 153.485 36.1403 152.984 35.6455C152.483 35.1507 152.09 34.5601 151.806 33.8735C151.521 33.187 151.379 32.4355 151.379 31.6191C151.379 30.8027 151.521 30.0513 151.806 29.3647C152.09 28.6782 152.483 28.0876 152.984 27.5928C153.485 27.098 154.082 26.7145 154.774 26.4424C155.467 26.1641 156.222 26.0249 157.038 26.0249C157.434 26.0249 157.839 26.0527 158.253 26.1084C158.668 26.1641 159.07 26.2537 159.459 26.3774C159.849 26.495 160.217 26.6496 160.563 26.8413C160.91 27.033 161.21 27.2712 161.463 27.5557C161.723 27.834 161.927 28.1587 162.076 28.5298C162.23 28.9009 162.308 29.3245 162.308 29.8008ZM173.375 27.231L171.613 30.1533C171.539 29.9059 171.443 29.6276 171.325 29.3184C171.208 29.0091 171.062 28.7215 170.889 28.4556C170.716 28.1834 170.509 27.9577 170.268 27.7783C170.026 27.5928 169.748 27.5 169.433 27.5C169.142 27.5 168.888 27.5742 168.672 27.7227C168.462 27.8711 168.282 28.0659 168.134 28.3071C167.985 28.5422 167.862 28.8112 167.763 29.1143C167.67 29.4111 167.596 29.7142 167.54 30.0234C167.491 30.3265 167.457 30.6203 167.438 30.9048C167.419 31.1831 167.41 31.4243 167.41 31.6284V37H164.265V26.2847H165.471L166.742 28.7803C166.915 28.3783 167.113 28.0103 167.336 27.6763C167.559 27.3361 167.815 27.0454 168.106 26.8042C168.397 26.5568 168.724 26.3651 169.089 26.229C169.46 26.0929 169.878 26.0249 170.342 26.0249C170.583 26.0249 170.852 26.0465 171.149 26.0898C171.446 26.127 171.736 26.195 172.021 26.2939C172.306 26.3867 172.568 26.5104 172.81 26.665C173.051 26.8197 173.239 27.0083 173.375 27.231ZM185.26 37H182.124V35.7197C181.753 36.2269 181.305 36.6042 180.779 36.8516C180.259 37.0928 179.687 37.2134 179.062 37.2134C178.246 37.2134 177.516 37.068 176.873 36.7773C176.23 36.4867 175.686 36.0908 175.24 35.5898C174.795 35.0827 174.455 34.4889 174.22 33.8086C173.985 33.1283 173.867 32.3984 173.867 31.6191C173.867 30.8398 173.985 30.11 174.22 29.4297C174.455 28.7493 174.795 28.1587 175.24 27.6577C175.686 27.1506 176.23 26.7516 176.873 26.4609C177.516 26.1702 178.246 26.0249 179.062 26.0249C179.477 26.0249 179.87 26.0868 180.241 26.2104C180.618 26.3341 180.961 26.5104 181.271 26.7393C181.586 26.9619 181.861 27.234 182.096 27.5557C182.337 27.8711 182.526 28.2236 182.662 28.6133L184.054 26.2847H185.26V37ZM182.105 31.6191C182.105 31.3408 182.09 31.047 182.059 30.7378C182.034 30.4285 181.988 30.1224 181.92 29.8193C181.852 29.5163 181.756 29.2287 181.632 28.9565C181.515 28.6782 181.36 28.4339 181.168 28.2236C180.983 28.0072 180.757 27.8371 180.491 27.7134C180.225 27.5897 179.916 27.5278 179.563 27.5278C179.211 27.5278 178.905 27.5928 178.645 27.7227C178.385 27.8464 178.163 28.0164 177.977 28.2329C177.792 28.4432 177.637 28.6875 177.513 28.9658C177.396 29.2441 177.303 29.5348 177.235 29.8379C177.167 30.141 177.117 30.4471 177.086 30.7563C177.062 31.0594 177.049 31.347 177.049 31.6191C177.049 31.8913 177.062 32.182 177.086 32.4912C177.117 32.8005 177.167 33.1066 177.235 33.4097C177.303 33.7127 177.396 34.0034 177.513 34.2817C177.637 34.5601 177.792 34.8075 177.977 35.0239C178.163 35.2342 178.385 35.4043 178.645 35.5342C178.905 35.6579 179.211 35.7197 179.563 35.7197C179.885 35.7197 180.17 35.6548 180.417 35.5249C180.671 35.3888 180.89 35.2095 181.076 34.9868C181.267 34.7642 181.428 34.5106 181.558 34.2261C181.688 33.9416 181.793 33.6478 181.874 33.3447C181.954 33.0417 182.013 32.7417 182.05 32.4448C182.087 32.1418 182.105 31.8665 182.105 31.6191ZM198.675 35.7104C198.675 36.564 198.548 37.368 198.294 38.1226C198.041 38.8771 197.673 39.5358 197.19 40.0986C196.708 40.6676 196.114 41.116 195.409 41.4438C194.71 41.7778 193.912 41.9448 193.016 41.9448C192.521 41.9448 192.02 41.8892 191.513 41.7778C191.012 41.6665 190.535 41.4933 190.084 41.2583C189.639 41.0295 189.237 40.7357 188.878 40.377C188.525 40.0244 188.247 39.6069 188.043 39.1245L189.397 38.6143C189.515 38.9173 189.667 39.1956 189.852 39.4492C190.044 39.7028 190.263 39.9193 190.511 40.0986C190.758 40.2842 191.03 40.4264 191.327 40.5254C191.624 40.6305 191.936 40.6831 192.264 40.6831C192.883 40.6831 193.399 40.5563 193.813 40.3027C194.234 40.0492 194.571 39.7183 194.825 39.3101C195.078 38.9019 195.261 38.438 195.372 37.9185C195.483 37.4051 195.539 36.8825 195.539 36.3506V35.7197C195.168 36.2269 194.72 36.6042 194.194 36.8516C193.674 37.0928 193.102 37.2134 192.478 37.2134C191.661 37.2134 190.931 37.068 190.288 36.7773C189.645 36.4867 189.101 36.0908 188.655 35.5898C188.21 35.0827 187.87 34.4889 187.635 33.8086C187.4 33.1283 187.282 32.3984 187.282 31.6191C187.282 30.8398 187.4 30.11 187.635 29.4297C187.87 28.7493 188.21 28.1587 188.655 27.6577C189.101 27.1506 189.645 26.7516 190.288 26.4609C190.931 26.1702 191.661 26.0249 192.478 26.0249C192.892 26.0249 193.285 26.0868 193.656 26.2104C194.033 26.3341 194.376 26.5104 194.686 26.7393C195.001 26.9619 195.276 27.234 195.511 27.5557C195.752 27.8711 195.941 28.2236 196.077 28.6133L197.469 26.2847H198.675V35.7104ZM195.521 31.6191C195.521 31.3408 195.505 31.047 195.474 30.7378C195.449 30.4285 195.403 30.1224 195.335 29.8193C195.267 29.5163 195.171 29.2287 195.047 28.9565C194.93 28.6782 194.775 28.4339 194.583 28.2236C194.398 28.0072 194.172 27.8371 193.906 27.7134C193.64 27.5897 193.331 27.5278 192.979 27.5278C192.626 27.5278 192.32 27.5928 192.06 27.7227C191.8 27.8464 191.578 28.0164 191.392 28.2329C191.207 28.4432 191.052 28.6875 190.928 28.9658C190.811 29.2441 190.718 29.5348 190.65 29.8379C190.582 30.141 190.532 30.4471 190.501 30.7563C190.477 31.0594 190.464 31.347 190.464 31.6191C190.464 31.8913 190.477 32.182 190.501 32.4912C190.532 32.8005 190.582 33.1066 190.65 33.4097C190.718 33.7127 190.811 34.0034 190.928 34.2817C191.052 34.5601 191.207 34.8075 191.392 35.0239C191.578 35.2342 191.8 35.4043 192.06 35.5342C192.32 35.6579 192.626 35.7197 192.979 35.7197C193.3 35.7197 193.585 35.6548 193.832 35.5249C194.086 35.3888 194.305 35.2095 194.491 34.9868C194.682 34.7642 194.843 34.5106 194.973 34.2261C195.103 33.9416 195.208 33.6478 195.289 33.3447C195.369 33.0417 195.428 32.7417 195.465 32.4448C195.502 32.1418 195.521 31.8665 195.521 31.6191ZM203.879 31.916C204.263 32.0026 204.646 32.0706 205.03 32.1201C205.413 32.1696 205.8 32.1943 206.189 32.1943C206.598 32.1943 206.975 32.1572 207.321 32.083C207.674 32.0026 207.977 31.8727 208.23 31.6934C208.49 31.5078 208.694 31.2635 208.843 30.9604C208.991 30.6574 209.065 30.2801 209.065 29.8286C209.065 29.4637 209.016 29.1297 208.917 28.8267C208.818 28.5236 208.67 28.2638 208.472 28.0474C208.28 27.8309 208.042 27.6639 207.757 27.5464C207.473 27.4227 207.142 27.3608 206.765 27.3608C206.412 27.3608 206.094 27.4258 205.809 27.5557C205.531 27.6855 205.283 27.8618 205.067 28.0845C204.857 28.3009 204.674 28.5545 204.52 28.8452C204.371 29.1359 204.247 29.439 204.148 29.7544C204.049 30.0698 203.978 30.3883 203.935 30.71C203.892 31.0316 203.87 31.3346 203.87 31.6191C203.87 31.6686 203.87 31.7181 203.87 31.7676C203.87 31.8171 203.873 31.8665 203.879 31.916ZM211.607 29.8008C211.607 30.2399 211.536 30.6326 211.394 30.979C211.252 31.3192 211.057 31.6191 210.81 31.8789C210.568 32.1387 210.287 32.3582 209.965 32.5376C209.644 32.717 209.3 32.8654 208.936 32.9829C208.571 33.0942 208.193 33.1746 207.804 33.2241C207.42 33.2736 207.046 33.2983 206.681 33.2983C206.217 33.2983 205.76 33.2674 205.308 33.2056C204.857 33.1375 204.411 33.0324 203.972 32.8901C204.04 33.2983 204.148 33.688 204.297 34.0591C204.445 34.424 204.643 34.7456 204.891 35.0239C205.138 35.2961 205.441 35.5125 205.8 35.6733C206.165 35.8341 206.595 35.9146 207.089 35.9146C207.417 35.9146 207.729 35.8651 208.026 35.7661C208.323 35.6672 208.595 35.528 208.843 35.3486C209.09 35.1693 209.307 34.9559 209.492 34.7085C209.684 34.4611 209.839 34.1859 209.956 33.8828L211.311 34.3838C211.106 34.8724 210.825 35.2961 210.466 35.6548C210.114 36.0073 209.712 36.3011 209.26 36.5361C208.815 36.765 208.339 36.9351 207.832 37.0464C207.331 37.1577 206.833 37.2134 206.338 37.2134C205.521 37.2134 204.767 37.0773 204.074 36.8052C203.382 36.5269 202.785 36.1403 202.284 35.6455C201.783 35.1507 201.39 34.5601 201.105 33.8735C200.821 33.187 200.679 32.4355 200.679 31.6191C200.679 30.8027 200.821 30.0513 201.105 29.3647C201.39 28.6782 201.783 28.0876 202.284 27.5928C202.785 27.098 203.382 26.7145 204.074 26.4424C204.767 26.1641 205.521 26.0249 206.338 26.0249C206.734 26.0249 207.139 26.0527 207.553 26.1084C207.968 26.1641 208.37 26.2537 208.759 26.3774C209.149 26.495 209.517 26.6496 209.863 26.8413C210.21 27.033 210.51 27.2712 210.763 27.5557C211.023 27.834 211.227 28.1587 211.375 28.5298C211.53 28.9009 211.607 29.3245 211.607 29.8008ZM222.787 33.5767C222.787 34.0467 222.719 34.4642 222.583 34.8291C222.446 35.194 222.261 35.5125 222.026 35.7847C221.791 36.0506 221.513 36.2764 221.191 36.4619C220.869 36.6413 220.523 36.7866 220.152 36.8979C219.787 37.0093 219.403 37.0897 219.001 37.1392C218.599 37.1886 218.201 37.2134 217.805 37.2134C217.273 37.2134 216.803 37.1794 216.395 37.1113C215.986 37.0433 215.597 36.9351 215.226 36.7866C214.854 36.632 214.483 36.4341 214.112 36.1929C213.747 35.9517 213.339 35.6579 212.888 35.3115L214.715 33.8179C214.882 34.1333 215.102 34.4209 215.374 34.6807C215.652 34.9342 215.94 35.1538 216.237 35.3394C216.534 35.5249 216.821 35.6672 217.1 35.7661C217.378 35.8651 217.604 35.9146 217.777 35.9146C217.919 35.9146 218.08 35.9115 218.259 35.9053C218.439 35.8929 218.621 35.8743 218.807 35.8496C218.992 35.8187 219.175 35.7754 219.354 35.7197C219.533 35.6641 219.691 35.5898 219.827 35.4971C219.969 35.3981 220.081 35.2775 220.161 35.1353C220.248 34.9868 220.291 34.8105 220.291 34.6064C220.291 34.3962 220.235 34.2137 220.124 34.0591C220.019 33.8983 219.88 33.7591 219.707 33.6416C219.533 33.5241 219.335 33.4251 219.113 33.3447C218.89 33.2643 218.664 33.1932 218.436 33.1313C218.213 33.0695 217.996 33.0169 217.786 32.9736C217.576 32.9242 217.393 32.8778 217.239 32.8345C216.954 32.7541 216.654 32.6737 216.339 32.5933C216.023 32.5067 215.711 32.4108 215.402 32.3057C215.093 32.1943 214.796 32.0645 214.511 31.916C214.233 31.7676 213.986 31.5913 213.769 31.3872C213.559 31.1769 213.389 30.9326 213.259 30.6543C213.135 30.3698 213.073 30.0389 213.073 29.6616C213.073 28.9689 213.209 28.3906 213.481 27.9268C213.76 27.4567 214.125 27.0825 214.576 26.8042C215.028 26.5197 215.541 26.3187 216.116 26.2012C216.691 26.0837 217.276 26.0249 217.87 26.0249C218.278 26.0249 218.708 26.0682 219.159 26.1548C219.611 26.2352 220.05 26.3589 220.477 26.5259C220.903 26.6867 221.302 26.8846 221.673 27.1196C222.044 27.3547 222.354 27.6237 222.601 27.9268L220.773 29.4297C220.637 29.0586 220.458 28.7401 220.235 28.4741C220.019 28.2082 219.781 27.9917 219.521 27.8247C219.267 27.6515 219.005 27.5247 218.732 27.4443C218.466 27.3639 218.219 27.3237 217.99 27.3237C217.768 27.3237 217.517 27.333 217.239 27.3516C216.96 27.3701 216.698 27.4227 216.45 27.5093C216.209 27.5959 216.002 27.7288 215.829 27.9082C215.662 28.0814 215.578 28.3226 215.578 28.6318C215.578 28.8545 215.628 29.0462 215.727 29.207C215.832 29.3617 215.968 29.4977 216.135 29.6152C216.302 29.7266 216.49 29.8224 216.701 29.9028C216.917 29.9771 217.137 30.0451 217.359 30.1069C217.582 30.1626 217.799 30.2121 218.009 30.2554C218.219 30.2987 218.408 30.3451 218.575 30.3945C218.859 30.4749 219.159 30.5584 219.475 30.645C219.796 30.7254 220.112 30.8213 220.421 30.9326C220.73 31.0378 221.027 31.1646 221.312 31.313C221.602 31.4552 221.856 31.6315 222.072 31.8418C222.289 32.0521 222.462 32.2995 222.592 32.584C222.722 32.8623 222.787 33.1932 222.787 33.5767Z" fill="#C65E00"/>
</g>
</svg>
