<svg width="277" height="111" viewBox="0 0 277 111" fill="none" xmlns="http://www.w3.org/2000/svg">
<path fill-rule="evenodd" clip-rule="evenodd" d="M57.6739 7.33203C74.2382 8.73199 89.7114 18.0843 97.8406 33.444C107.054 50.8515 104.274 71.1348 92.444 85.4992C101.734 71.5404 102.963 52.1276 94.0368 34.9448C86.2055 19.8693 72.3832 10.0303 57.6739 7.33203ZM49.0672 103.504C32.5029 102.104 17.0294 92.7514 8.9003 77.3917C-0.313277 59.9842 2.4667 39.7009 14.2965 25.3365C5.00651 39.2953 3.77774 58.708 12.7038 75.8909C20.5354 90.9664 34.358 100.805 49.0672 103.504Z" fill="#FE6701"/>
<path d="M32.5868 41.6394C32.4869 40.6315 32.0579 39.8486 31.2999 39.2905C30.542 38.7324 29.5133 38.4534 28.2139 38.4534C27.331 38.4534 26.5855 38.5784 25.9775 38.8282C25.3695 39.0698 24.903 39.4071 24.5782 39.8403C24.2616 40.2734 24.1034 40.7648 24.1034 41.3145C24.0867 41.7727 24.1825 42.1725 24.3908 42.514C24.6073 42.8555 24.903 43.1512 25.2778 43.401C25.6526 43.6426 26.0858 43.855 26.5772 44.0382C27.0686 44.2132 27.5934 44.3631 28.1515 44.488L30.4504 45.0378C31.5665 45.2876 32.591 45.6208 33.5239 46.0373C34.4568 46.4538 35.2647 46.966 35.9477 47.574C36.6307 48.1821 37.1596 48.8984 37.5345 49.723C37.9176 50.5476 38.1134 51.493 38.1217 52.5592C38.1134 54.1251 37.7135 55.4828 36.9223 56.6322C36.1393 57.7733 35.0065 58.6604 33.5239 59.2934C32.0496 59.9181 30.2713 60.2305 28.1889 60.2305C26.1233 60.2305 24.3241 59.914 22.7915 59.2809C21.2672 58.6479 20.0762 57.7109 19.2182 56.4698C18.3686 55.2204 17.923 53.6753 17.8814 51.8345H23.1164C23.1747 52.6924 23.4204 53.4088 23.8535 53.9835C24.295 54.5499 24.8822 54.9788 25.6152 55.2704C26.3565 55.5536 27.1936 55.6952 28.1265 55.6952C29.0427 55.6952 29.8381 55.5619 30.5128 55.2954C31.1958 55.0288 31.7247 54.6582 32.0996 54.1834C32.4744 53.7086 32.6618 53.163 32.6618 52.5467C32.6618 51.9719 32.491 51.4888 32.1495 51.0974C31.8164 50.7059 31.3249 50.3727 30.6752 50.0978C30.0339 49.823 29.2468 49.5731 28.3139 49.3482L25.5277 48.6485C23.3704 48.1238 21.6671 47.3033 20.4177 46.1872C19.1683 45.0711 18.5477 43.5676 18.556 41.6769C18.5477 40.1276 18.96 38.7741 19.793 37.6163C20.6342 36.4585 21.7878 35.5548 23.2538 34.9051C24.7198 34.2554 26.3856 33.9306 28.2514 33.9306C30.1505 33.9306 31.808 34.2554 33.224 34.9051C34.6483 35.5548 35.7561 36.4585 36.5474 37.6163C37.3387 38.7741 37.7469 40.1151 37.7718 41.6394H32.5868ZM41.7606 59.8682V34.2804H51.8557C53.7965 34.2804 55.4498 34.6511 56.8159 35.3924C58.1819 36.1254 59.223 37.1457 59.9394 38.4534C60.664 39.7528 61.0263 41.2521 61.0263 42.9513C61.0263 44.6504 60.6598 46.1497 59.9269 47.4491C59.1939 48.7485 58.1319 49.7605 56.7409 50.4852C55.3582 51.2098 53.684 51.5721 51.7183 51.5721H45.2839V47.2367H50.8437C51.8849 47.2367 52.7428 47.0576 53.4175 46.6995C54.1005 46.333 54.6086 45.8291 54.9418 45.1877C55.2833 44.538 55.454 43.7925 55.454 42.9513C55.454 42.1017 55.2833 41.3604 54.9418 40.7273C54.6086 40.086 54.1005 39.5904 53.4175 39.2405C52.7345 38.8824 51.8682 38.7033 50.8187 38.7033H47.1705V59.8682H41.7606ZM87.117 43.2386H81.6446C81.5446 42.5306 81.3406 41.9018 81.0324 41.352C80.7242 40.794 80.3286 40.3192 79.8455 39.9277C79.3624 39.5362 78.8043 39.2364 78.1713 39.0281C77.5466 38.8199 76.8677 38.7158 76.1347 38.7158C74.8104 38.7158 73.6567 39.0448 72.6739 39.7028C71.691 40.3525 70.9289 41.3021 70.3875 42.5515C69.8461 43.7925 69.5754 45.3001 69.5754 47.0743C69.5754 48.8984 69.8461 50.431 70.3875 51.6721C70.9372 52.9132 71.7035 53.8502 72.6864 54.4832C73.6692 55.1163 74.8062 55.4328 76.0972 55.4328C76.8219 55.4328 77.4924 55.337 78.1088 55.1454C78.7335 54.9539 79.2874 54.6748 79.7705 54.3083C80.2536 53.9335 80.6534 53.4796 80.9699 52.9465C81.2948 52.4134 81.5197 51.8054 81.6446 51.1224L87.117 51.1473C86.9754 52.3218 86.6214 53.4546 86.055 54.5457C85.4969 55.6285 84.7431 56.5989 83.7936 57.4568C82.8523 58.3064 81.7279 58.9811 80.4202 59.4808C79.1208 59.9723 77.6507 60.218 76.0098 60.218C73.7275 60.218 71.6869 59.7016 69.8877 58.6687C68.0969 57.6359 66.6809 56.1408 65.6398 54.1834C64.6069 52.226 64.0905 49.8563 64.0905 47.0743C64.0905 44.284 64.6152 41.9101 65.6647 39.9527C66.7142 37.9953 68.1386 36.5043 69.9377 35.4798C71.7368 34.447 73.7609 33.9306 76.0098 33.9306C77.4924 33.9306 78.8668 34.1388 80.1328 34.5553C81.4072 34.9717 82.5358 35.5798 83.5187 36.3794C84.5016 37.1707 85.3012 38.1411 85.9175 39.2905C86.5422 40.44 86.9421 41.756 87.117 43.2386Z" fill="#FE6701"/>
<path d="M36.1769 68.8429C36.1538 68.6097 36.0545 68.4285 35.8791 68.2994C35.7038 68.1703 35.4658 68.1057 35.1651 68.1057C34.9608 68.1057 34.7883 68.1346 34.6477 68.1924C34.507 68.2483 34.399 68.3264 34.3239 68.4266C34.2507 68.5268 34.214 68.6405 34.214 68.7677C34.2102 68.8737 34.2323 68.9662 34.2805 69.0452C34.3306 69.1242 34.399 69.1927 34.4858 69.2505C34.5725 69.3064 34.6727 69.3555 34.7864 69.3979C34.9001 69.4384 35.0215 69.4731 35.1507 69.502L35.6826 69.6292C35.9408 69.687 36.1779 69.7641 36.3937 69.8604C36.6095 69.9568 36.7965 70.0753 36.9545 70.216C37.1125 70.3567 37.2349 70.5224 37.3216 70.7132C37.4103 70.904 37.4556 71.1228 37.4575 71.3694C37.4556 71.7317 37.3631 72.0459 37.18 72.3118C36.9988 72.5759 36.7367 72.7811 36.3937 72.9276C36.0526 73.0721 35.6411 73.1444 35.1593 73.1444C34.6814 73.1444 34.2651 73.0711 33.9105 72.9247C33.5578 72.7782 33.2822 72.5614 33.0837 72.2743C32.8872 71.9852 32.7841 71.6277 32.7744 71.2018H33.9857C33.9992 71.4003 34.056 71.566 34.1562 71.699C34.2584 71.83 34.3942 71.9293 34.5638 71.9967C34.7353 72.0623 34.929 72.095 35.1449 72.095C35.3569 72.095 35.5409 72.0642 35.697 72.0025C35.855 71.9408 35.9774 71.8551 36.0641 71.7452C36.1509 71.6354 36.1942 71.5092 36.1942 71.3665C36.1942 71.2336 36.1547 71.1218 36.0757 71.0312C35.9986 70.9406 35.8849 70.8635 35.7346 70.7999C35.5862 70.7363 35.4041 70.6785 35.1882 70.6265L34.5436 70.4646C34.0444 70.3432 33.6503 70.1534 33.3613 69.8951C33.0722 69.6369 32.9286 69.289 32.9305 68.8516C32.9286 68.4931 33.024 68.1799 33.2167 67.912C33.4114 67.6442 33.6783 67.4351 34.0175 67.2847C34.3567 67.1344 34.7421 67.0593 35.1738 67.0593C35.6132 67.0593 35.9967 67.1344 36.3243 67.2847C36.6539 67.4351 36.9102 67.6442 37.0933 67.912C37.2764 68.1799 37.3708 68.4902 37.3766 68.8429H36.1769ZM37.9526 67.1402H39.3546L40.7046 69.6899H40.7624L42.1124 67.1402H43.5144L41.355 70.9676V73.0605H40.112V70.9676L37.9526 67.1402ZM46.2968 73.0605H44.1981V67.1402H46.3142C46.9097 67.1402 47.4223 67.2587 47.8521 67.4958C48.2818 67.7309 48.6124 68.0691 48.8436 68.5104C49.0768 68.9518 49.1934 69.4798 49.1934 70.0946C49.1934 70.7113 49.0768 71.2413 48.8436 71.6845C48.6124 72.1278 48.2799 72.4679 47.8463 72.705C47.4146 72.942 46.8981 73.0605 46.2968 73.0605ZM45.4498 71.9881H46.2448C46.6148 71.9881 46.9261 71.9225 47.1785 71.7915C47.4329 71.6585 47.6237 71.4533 47.7509 71.1757C47.88 70.8963 47.9446 70.5359 47.9446 70.0946C47.9446 69.6571 47.88 69.2996 47.7509 69.0221C47.6237 68.7446 47.4339 68.5403 47.1814 68.4093C46.929 68.2782 46.6177 68.2127 46.2477 68.2127H45.4498V71.9881ZM55.0726 67.1402V73.0605H53.9914L51.4157 69.3343H51.3723V73.0605H50.1206V67.1402H51.2191L53.7746 70.8635H53.8266V67.1402H55.0726ZM56.1067 73.0605V67.1402H60.096V68.1722H57.3585V69.5829H59.8908V70.6149H57.3585V72.0285H60.1076V73.0605H56.1067ZM60.7443 67.1402H62.1463L63.4963 69.6899H63.5542L64.9042 67.1402H66.3062L64.1468 70.9676V73.0605H62.9037V70.9676L60.7443 67.1402Z" fill="#FE6701"/>
<path d="M32.9652 82.9648V77.0445H35.301C35.75 77.0445 36.1326 77.1303 36.4486 77.3018C36.7647 77.4714 37.0056 77.7075 37.1713 78.01C37.339 78.3107 37.4228 78.6576 37.4228 79.0507C37.4228 79.4439 37.338 79.7908 37.1684 80.0914C36.9988 80.392 36.7531 80.6262 36.4313 80.7939C36.1114 80.9615 35.724 81.0454 35.2692 81.0454H33.7804V80.0423H35.0668C35.3077 80.0423 35.5062 80.0008 35.6623 79.9179C35.8204 79.8332 35.9379 79.7166 36.015 79.5682C36.094 79.4178 36.1335 79.2454 36.1335 79.0507C36.1335 78.8541 36.094 78.6826 36.015 78.5361C35.9379 78.3878 35.8204 78.2731 35.6623 78.1921C35.5043 78.1093 35.3039 78.0678 35.061 78.0678H34.2169V82.9648H32.9652ZM38.5726 82.9648H37.2313L39.2751 77.0445H40.8882L42.9291 82.9648H41.5877L40.1048 78.3974H40.0585L38.5726 82.9648ZM38.4888 80.6378H41.6571V81.6148H38.4888V80.6378ZM43.578 82.9648V82.2219L46.5324 78.0765H43.5723V77.0445H48.105V77.7874L45.1477 81.9328H48.1108V82.9648H43.578ZM49.0713 82.9648V77.0445H50.323V79.4872H52.864V77.0445H54.1128V82.9648H52.864V80.5192H50.323V82.9648H49.0713ZM56.1653 82.9648H54.824L56.8677 77.0445H58.4808L60.5217 82.9648H59.1804L57.6974 78.3974H57.6512L56.1653 82.9648ZM56.0815 80.6378H59.2498V81.6148H56.0815V80.6378ZM61.2343 77.0445H62.778L64.4084 81.0222H64.4778L66.1082 77.0445H67.6519V82.9648H66.4377V79.1114H66.3886L64.8565 82.9359H64.0297L62.4976 79.097H62.4484V82.9648H61.2343V77.0445ZM72.34 77.0445H73.5917V80.8893C73.5917 81.3209 73.4886 81.6987 73.2824 82.0224C73.0781 82.3462 72.7919 82.5987 72.4238 82.7798C72.0557 82.9591 71.6269 83.0487 71.1374 83.0487C70.646 83.0487 70.2162 82.9591 69.8481 82.7798C69.48 82.5987 69.1939 82.3462 68.9896 82.0224C68.7853 81.6987 68.6831 81.3209 68.6831 80.8893V77.0445H69.9349V80.7823C69.9349 81.0078 69.984 81.2082 70.0823 81.3836C70.1825 81.559 70.3232 81.6967 70.5043 81.797C70.6855 81.8972 70.8965 81.9473 71.1374 81.9473C71.3803 81.9473 71.5913 81.8972 71.7705 81.797C71.9517 81.6967 72.0914 81.559 72.1897 81.3836C72.2899 81.2082 72.34 81.0078 72.34 80.7823V77.0445ZM76.7203 82.9648H74.6216V77.0445H76.7376C77.3331 77.0445 77.8458 77.163 78.2755 77.4001C78.7053 77.6352 79.0358 77.9734 79.2671 78.4147C79.5003 78.8561 79.6168 79.3841 79.6168 79.9989C79.6168 80.6156 79.5003 81.1456 79.2671 81.5888C79.0358 82.0321 78.7034 82.3722 78.2697 82.6093C77.838 82.8463 77.3216 82.9648 76.7203 82.9648ZM75.8733 81.8924H76.6682C77.0383 81.8924 77.3495 81.8268 77.602 81.6958C77.8564 81.5628 78.0471 81.3576 78.1743 81.08C78.3035 80.8006 78.368 80.4402 78.368 79.9989C78.368 79.5614 78.3035 79.2039 78.1743 78.9264C78.0471 78.6489 77.8573 78.4446 77.6049 78.3136C77.3524 78.1825 77.0412 78.117 76.6711 78.117H75.8733V81.8924ZM81.7958 77.0445V82.9648H80.5441V77.0445H81.7958ZM82.8256 82.9648V77.0445H85.1614C85.6085 77.0445 85.9901 77.1245 86.3061 77.2844C86.6241 77.4425 86.866 77.667 87.0317 77.958C87.1994 78.2471 87.2832 78.5872 87.2832 78.9784C87.2832 79.3716 87.1984 79.7098 87.0288 79.9931C86.8593 80.2745 86.6135 80.4903 86.2917 80.6406C85.9718 80.791 85.5844 80.8661 85.1296 80.8661H83.5657V79.8601H84.9272C85.1662 79.8601 85.3647 79.8274 85.5227 79.7618C85.6808 79.6963 85.7983 79.598 85.8754 79.467C85.9544 79.3359 85.9939 79.1731 85.9939 78.9784C85.9939 78.7819 85.9544 78.6161 85.8754 78.4812C85.7983 78.3463 85.6798 78.2442 85.5199 78.1748C85.3618 78.1035 85.1624 78.0678 84.9215 78.0678H84.0773V82.9648H82.8256ZM86.0228 80.2706L87.4943 82.9648H86.1125L84.6728 80.2706H86.0228Z" fill="#FE6701"/>
<path d="M38.1889 89.0254H36.9227C36.8996 88.8616 36.8524 88.7161 36.7811 88.5889C36.7098 88.4598 36.6182 88.3499 36.5064 88.2593C36.3947 88.1688 36.2655 88.0994 36.1191 88.0512C35.9745 88.003 35.8175 87.9789 35.6479 87.9789C35.3414 87.9789 35.0745 88.0551 34.8471 88.2073C34.6197 88.3576 34.4434 88.5773 34.3181 88.8664C34.1928 89.1536 34.1302 89.5024 34.1302 89.9129C34.1302 90.3349 34.1928 90.6895 34.3181 90.9767C34.4453 91.2638 34.6226 91.4806 34.85 91.6271C35.0774 91.7736 35.3405 91.8468 35.6392 91.8468C35.8069 91.8468 35.962 91.8247 36.1046 91.7803C36.2492 91.736 36.3773 91.6714 36.4891 91.5866C36.6009 91.4999 36.6934 91.3949 36.7666 91.2715C36.8418 91.1482 36.8938 91.0075 36.9227 90.8495L38.1889 90.8553C38.1561 91.127 38.0742 91.3891 37.9432 91.6416C37.814 91.8921 37.6396 92.1166 37.4199 92.3151C37.2022 92.5117 36.942 92.6678 36.6394 92.7834C36.3388 92.8971 35.9986 92.954 35.619 92.954C35.0909 92.954 34.6187 92.8345 34.2025 92.5955C33.7881 92.3566 33.4605 92.0106 33.2196 91.5577C32.9806 91.1048 32.8611 90.5566 32.8611 89.9129C32.8611 89.2673 32.9826 88.718 33.2254 88.2651C33.4682 87.8122 33.7978 87.4673 34.214 87.2302C34.6303 86.9912 35.0986 86.8718 35.619 86.8718C35.962 86.8718 36.28 86.9199 36.5729 87.0163C36.8678 87.1127 37.1289 87.2533 37.3563 87.4384C37.5837 87.6214 37.7688 87.846 37.9114 88.1119C38.0559 88.3779 38.1484 88.6824 38.1889 89.0254ZM39.0865 92.873V86.9527H40.3382V89.3954H42.8792V86.9527H44.128V92.873H42.8792V90.4274H40.3382V92.873H39.0865ZM50.6005 89.9129C50.6005 90.5585 50.4781 91.1077 50.2334 91.5606C49.9905 92.0135 49.6591 92.3594 49.2389 92.5984C48.8207 92.8355 48.3505 92.954 47.8282 92.954C47.3021 92.954 46.8299 92.8345 46.4117 92.5955C45.9935 92.3566 45.663 92.0106 45.4202 91.5577C45.1774 91.1048 45.056 90.5566 45.056 89.9129C45.056 89.2673 45.1774 88.718 45.4202 88.2651C45.663 87.8122 45.9935 87.4673 46.4117 87.2302C46.8299 86.9912 47.3021 86.8718 47.8282 86.8718C48.3505 86.8718 48.8207 86.9912 49.2389 87.2302C49.6591 87.4673 49.9905 87.8122 50.2334 88.2651C50.4781 88.718 50.6005 89.2673 50.6005 89.9129ZM49.3314 89.9129C49.3314 89.4947 49.2688 89.142 49.1435 88.8548C49.0202 88.5677 48.8458 88.3499 48.6203 88.2015C48.3948 88.0531 48.1308 87.9789 47.8282 87.9789C47.5257 87.9789 47.2616 88.0531 47.0362 88.2015C46.8107 88.3499 46.6353 88.5677 46.51 88.8548C46.3867 89.142 46.325 89.4947 46.325 89.9129C46.325 90.3311 46.3867 90.6838 46.51 90.9709C46.6353 91.2581 46.8107 91.4758 47.0362 91.6242C47.2616 91.7726 47.5257 91.8468 47.8282 91.8468C48.1308 91.8468 48.3948 91.7726 48.6203 91.6242C48.8458 91.4758 49.0202 91.2581 49.1435 90.9709C49.2688 90.6838 49.3314 90.3311 49.3314 89.9129ZM51.5277 92.873V86.9527H52.7794V91.841H55.3176V92.873H51.5277ZM57.318 92.873H55.9767L58.0204 86.9527H59.6335L61.6744 92.873H60.3331L58.8501 88.3056H58.8039L57.318 92.873ZM57.2342 90.546H60.4025V91.523H57.2342V90.546ZM63.6387 86.9527V92.873H62.387V86.9527H63.6387Z" fill="#FE6701"/>
<path fill-rule="evenodd" clip-rule="evenodd" d="M26.0549 35.6124C20.2373 35.1935 18.8321 29.33 21.5913 24.893C23.0788 22.5003 24.5668 20.1078 26.0549 17.7148C27.5423 20.1078 29.0301 22.5003 30.5182 24.893C33.2774 29.33 31.8719 35.1935 26.0549 35.6124ZM25.6762 33.272C23.1904 32.7972 22.6336 29.7765 23.9026 27.465C24.6194 26.1575 25.3374 24.8498 26.0549 23.5418C26.7723 24.8498 27.4897 26.1575 28.2071 27.465C29.4758 29.7765 28.9188 32.7972 26.4332 33.272C26.2609 33.6482 26.1008 34.0529 26.0549 34.4972C26.0089 34.0529 25.8485 33.6482 25.6762 33.272Z" fill="#FE6701"/>
<path fill-rule="evenodd" clip-rule="evenodd" d="M25.6265 32.4002C24.1296 31.9999 23.8169 30.1811 24.6271 28.7765C25.103 27.9516 25.5786 27.1267 26.0545 26.3018C26.5304 27.1267 27.0063 27.9516 27.4822 28.7765C28.2924 30.1811 27.9794 31.9999 26.4827 32.4002C26.5922 31.9564 26.5758 31.3348 26.4376 30.8113C26.3099 30.328 26.1822 29.844 26.0545 29.3607C25.9268 29.844 25.7991 30.328 25.6717 30.8113C25.5332 31.3348 25.5168 31.9564 25.6265 32.4002Z" fill="#FE6701"/>
<path fill-rule="evenodd" clip-rule="evenodd" d="M24.9882 59.4297H27.2269V81.1313C27.9878 81.4094 28.5061 81.9622 28.5061 82.5988C28.5061 82.7592 28.4731 82.9143 28.4116 83.0611H23.8034C23.7419 82.9143 23.7087 82.7592 23.7087 82.5988C23.7087 81.9622 24.2272 81.4094 24.9882 81.1313V59.4297Z" fill="#FE6701"/>
<path d="M134.898 26.0619C134.839 25.4664 134.586 25.0038 134.138 24.674C133.69 24.3443 133.082 24.1794 132.314 24.1794C131.793 24.1794 131.352 24.2532 130.993 24.4009C130.634 24.5436 130.358 24.7429 130.166 24.9989C129.979 25.2548 129.885 25.5452 129.885 25.87C129.876 26.1407 129.932 26.3769 130.055 26.5787C130.183 26.7805 130.358 26.9552 130.579 27.1029C130.801 27.2456 131.057 27.3711 131.347 27.4794C131.638 27.5827 131.948 27.6713 132.277 27.7451L133.636 28.07C134.295 28.2176 134.901 28.4145 135.452 28.6606C136.003 28.9067 136.481 29.2093 136.884 29.5686C137.288 29.9279 137.6 30.3512 137.822 30.8384C138.048 31.3257 138.164 31.8843 138.169 32.5142C138.164 33.4395 137.928 34.2417 137.46 34.9209C136.997 35.5952 136.328 36.1194 135.452 36.4934C134.581 36.8625 133.53 37.0471 132.3 37.0471C131.079 37.0471 130.016 36.8601 129.11 36.486C128.21 36.112 127.506 35.5583 126.999 34.825C126.497 34.0867 126.234 33.1737 126.209 32.0861H129.302C129.337 32.593 129.482 33.0163 129.738 33.3558C129.999 33.6905 130.346 33.944 130.779 34.1162C131.217 34.2836 131.711 34.3673 132.263 34.3673C132.804 34.3673 133.274 34.2885 133.673 34.131C134.076 33.9735 134.389 33.7545 134.61 33.474C134.832 33.1934 134.943 32.8711 134.943 32.5069C134.943 32.1673 134.842 31.8818 134.64 31.6505C134.443 31.4192 134.153 31.2223 133.769 31.0599C133.39 30.8975 132.925 30.7498 132.373 30.6169L130.727 30.2035C129.452 29.8935 128.446 29.4087 127.708 28.7492C126.969 28.0897 126.603 27.2013 126.608 26.0841C126.603 25.1687 126.846 24.3689 127.339 23.6848C127.836 23.0007 128.517 22.4667 129.383 22.0828C130.25 21.6989 131.234 21.5069 132.336 21.5069C133.459 21.5069 134.438 21.6989 135.275 22.0828C136.116 22.4667 136.771 23.0007 137.238 23.6848C137.706 24.3689 137.947 25.1613 137.962 26.0619H134.898ZM139.433 21.7136H143.013L146.461 28.225H146.609L150.056 21.7136H153.637L148.122 31.4881V36.833H144.948V31.4881L139.433 21.7136ZM160.743 36.833H155.383V21.7136H160.787C162.308 21.7136 163.617 22.0163 164.714 22.6217C165.812 23.2221 166.656 24.0859 167.247 25.2129C167.842 26.34 168.14 27.6885 168.14 29.2586C168.14 30.8335 167.842 32.187 167.247 33.3189C166.656 34.4509 165.807 35.3196 164.7 35.925C163.597 36.5303 162.278 36.833 160.743 36.833ZM158.579 34.0941H160.61C161.555 34.0941 162.349 33.9268 162.994 33.5921C163.644 33.2525 164.131 32.7283 164.456 32.0196C164.786 31.306 164.951 30.3856 164.951 29.2586C164.951 28.1413 164.786 27.2284 164.456 26.5197C164.131 25.8109 163.646 25.2892 163.002 24.9546C162.357 24.6199 161.562 24.4525 160.617 24.4525H158.579V34.0941ZM183.154 21.7136V36.833H180.393L173.815 27.317H173.704V36.833H170.508V21.7136H173.313L179.839 31.2223H179.972V21.7136H183.154ZM185.795 36.833V21.7136H195.983V24.3492H188.992V27.9519H195.459V30.5874H188.992V34.1975H196.012V36.833H185.795ZM197.638 21.7136H201.219L204.667 28.225H204.814L208.262 21.7136H211.842L206.328 31.4881V36.833H203.153V31.4881L197.638 21.7136Z" fill="#FE6701"/>
<path d="M126.696 62.1318V47.0125H132.661C133.808 47.0125 134.785 47.2315 135.592 47.6695C136.399 48.1026 137.015 48.7055 137.438 49.4782C137.866 50.246 138.08 51.1319 138.08 52.1359C138.08 53.1399 137.864 54.0258 137.43 54.7936C136.997 55.5614 136.37 56.1594 135.548 56.5876C134.731 57.0158 133.742 57.2299 132.58 57.2299H128.778V54.6681H132.063C132.679 54.6681 133.185 54.5623 133.584 54.3507C133.988 54.1341 134.288 53.8364 134.485 53.4574C134.687 53.0735 134.787 52.633 134.787 52.1359C134.787 51.6339 134.687 51.1959 134.485 50.8218C134.288 50.4429 133.988 50.15 133.584 49.9433C133.181 49.7317 132.669 49.6259 132.049 49.6259H129.893V62.1318H126.696ZM141.016 62.1318H137.591L142.81 47.0125H146.93L152.142 62.1318H148.716L144.929 50.4675H144.811L141.016 62.1318ZM140.802 56.1889H148.894V58.6842H140.802V56.1889ZM153.799 62.1318V60.2345L161.344 49.648H153.785V47.0125H165.36V48.9098L157.808 59.4963H165.375V62.1318H153.799ZM167.828 62.1318V47.0125H171.024V53.2507H177.514V47.0125H180.703V62.1318H177.514V55.8862H171.024V62.1318H167.828ZM185.945 62.1318H182.519L187.738 47.0125H191.858L197.07 62.1318H193.644L189.857 50.4675H189.739L185.945 62.1318ZM185.73 56.1889H193.822V58.6842H185.73V56.1889ZM198.89 47.0125H202.832L206.996 57.1708H207.173L211.337 47.0125H215.279V62.1318H212.178V52.291H212.053L208.14 62.058H206.029L202.116 52.254H201.99V62.1318H198.89V47.0125ZM227.251 47.0125H230.448V56.8312C230.448 57.9337 230.185 58.8983 229.658 59.7251C229.136 60.552 228.406 61.1967 227.466 61.6594C226.526 62.1171 225.43 62.3459 224.18 62.3459C222.925 62.3459 221.828 62.1171 220.888 61.6594C219.948 61.1967 219.217 60.552 218.695 59.7251C218.173 58.8983 217.913 57.9337 217.913 56.8312V47.0125H221.109V56.558C221.109 57.1339 221.235 57.6457 221.486 58.0936C221.742 58.5415 222.101 58.8934 222.564 59.1493C223.026 59.4052 223.565 59.5332 224.18 59.5332C224.8 59.5332 225.339 59.4052 225.797 59.1493C226.26 58.8934 226.617 58.5415 226.868 58.0936C227.124 57.6457 227.251 57.1339 227.251 56.558V47.0125ZM238.438 62.1318H233.078V47.0125H238.482C240.003 47.0125 241.312 47.3152 242.41 47.9205C243.507 48.521 244.351 49.3847 244.942 50.5118C245.537 51.6388 245.835 52.9874 245.835 54.5574C245.835 56.1323 245.537 57.4858 244.942 58.6178C244.351 59.7497 243.502 60.6184 242.395 61.2238C241.292 61.8292 239.973 62.1318 238.438 62.1318ZM236.275 59.3929H238.305C239.25 59.3929 240.045 59.2256 240.689 58.8909C241.339 58.5513 241.826 58.0272 242.151 57.3184C242.481 56.6048 242.646 55.6844 242.646 54.5574C242.646 53.4402 242.481 52.5272 242.151 51.8185C241.826 51.1098 241.342 50.5881 240.697 50.2534C240.052 49.9187 239.257 49.7514 238.312 49.7514H236.275V59.3929ZM251.4 47.0125V62.1318H248.203V47.0125H251.4ZM254.03 62.1318V47.0125H259.995C261.137 47.0125 262.111 47.2167 262.918 47.6252C263.73 48.0288 264.348 48.6022 264.771 49.3453C265.199 50.0836 265.413 50.9523 265.413 51.9514C265.413 52.9554 265.197 53.8191 264.764 54.5426C264.331 55.2612 263.703 55.8124 262.881 56.1963C262.064 56.5802 261.075 56.7721 259.914 56.7721H255.92V54.203H259.397C260.007 54.203 260.514 54.1194 260.918 53.952C261.321 53.7847 261.621 53.5337 261.818 53.199C262.02 52.8643 262.121 52.4485 262.121 51.9514C262.121 51.4494 262.02 51.0261 261.818 50.6816C261.621 50.3371 261.319 50.0762 260.91 49.899C260.507 49.7169 259.997 49.6259 259.382 49.6259H257.226V62.1318H254.03ZM262.195 55.2513L265.952 62.1318H262.424L258.747 55.2513H262.195Z" fill="#FE6701"/>
<path d="M140.036 77.6075H136.803C136.744 77.1891 136.623 76.8176 136.441 76.4927C136.259 76.163 136.025 75.8824 135.74 75.6511C135.454 75.4198 135.125 75.2426 134.751 75.1196C134.381 74.9965 133.98 74.935 133.547 74.935C132.765 74.935 132.083 75.1294 131.502 75.5182C130.922 75.9021 130.471 76.4632 130.151 77.2014C129.831 77.9348 129.671 78.8256 129.671 79.8739C129.671 80.9518 129.831 81.8573 130.151 82.5907C130.476 83.324 130.929 83.8777 131.51 84.2517C132.09 84.6258 132.762 84.8128 133.525 84.8128C133.953 84.8128 134.349 84.7562 134.714 84.643C135.083 84.5298 135.41 84.3649 135.696 84.1484C135.981 83.9269 136.217 83.6587 136.404 83.3437C136.596 83.0287 136.729 82.6694 136.803 82.2658L140.036 82.2806C139.953 82.9746 139.744 83.6439 139.409 84.2886C139.079 84.9285 138.634 85.5018 138.073 86.0088C137.517 86.5108 136.852 86.9094 136.079 87.2047C135.312 87.4951 134.443 87.6403 133.473 87.6403C132.125 87.6403 130.919 87.3352 129.856 86.7249C128.798 86.1146 127.961 85.2311 127.346 84.0746C126.736 82.918 126.43 81.5177 126.43 79.8739C126.43 78.2252 126.741 76.8225 127.361 75.6659C127.981 74.5093 128.822 73.6283 129.885 73.0229C130.949 72.4127 132.145 72.1075 133.473 72.1075C134.349 72.1075 135.162 72.2306 135.91 72.4766C136.663 72.7227 137.33 73.082 137.91 73.5545C138.491 74.022 138.964 74.5954 139.328 75.2746C139.697 75.9538 139.933 76.7314 140.036 77.6075ZM142.329 87.4336V72.3142H145.525V78.5524H152.015V72.3142H155.204V87.4336H152.015V81.188H145.525V87.4336H142.329ZM171.733 79.8739C171.733 81.5227 171.421 82.9253 170.796 84.0819C170.176 85.2385 169.329 86.122 168.256 86.7323C167.188 87.3376 165.987 87.6403 164.653 87.6403C163.31 87.6403 162.104 87.3352 161.036 86.7249C159.968 86.1146 159.124 85.2311 158.504 84.0746C157.884 82.918 157.574 81.5177 157.574 79.8739C157.574 78.2252 157.884 76.8225 158.504 75.6659C159.124 74.5093 159.968 73.6283 161.036 73.0229C162.104 72.4127 163.31 72.1075 164.653 72.1075C165.987 72.1075 167.188 72.4127 168.256 73.0229C169.329 73.6283 170.176 74.5093 170.796 75.6659C171.421 76.8225 171.733 78.2252 171.733 79.8739ZM168.492 79.8739C168.492 78.8059 168.332 77.9052 168.012 77.1719C167.697 76.4386 167.252 75.8824 166.676 75.5035C166.1 75.1245 165.426 74.935 164.653 74.935C163.881 74.935 163.206 75.1245 162.631 75.5035C162.055 75.8824 161.607 76.4386 161.287 77.1719C160.972 77.9052 160.814 78.8059 160.814 79.8739C160.814 80.9419 160.972 81.8426 161.287 82.5759C161.607 83.3092 162.055 83.8654 162.631 84.2444C163.206 84.6233 163.881 84.8128 164.653 84.8128C165.426 84.8128 166.1 84.6233 166.676 84.2444C167.252 83.8654 167.697 83.3092 168.012 82.5759C168.332 81.8426 168.492 80.9419 168.492 79.8739ZM174.101 87.4336V72.3142H177.298V84.798H183.78V87.4336H174.101ZM188.888 87.4336H185.463L190.682 72.3142H194.802L200.014 87.4336H196.588L192.801 75.7692H192.683L188.888 87.4336ZM188.674 81.4907H196.765V83.986H188.674V81.4907ZM205.03 72.3142V87.4336H201.834V72.3142H205.03Z" fill="#FE6701"/>
</svg>
