<svg width="296" height="64" viewBox="0 0 296 64" fill="none" xmlns="http://www.w3.org/2000/svg">
<mask id="mask0_248_16350" style="mask-type:luminance" maskUnits="userSpaceOnUse" x="0" y="0" width="296" height="64">
<path d="M0.0136719 0H295.014V63.9265H0.0136719V0Z" fill="white"/>
</mask>
<g mask="url(#mask0_248_16350)">
</g>
<mask id="mask1_248_16350" style="mask-type:luminance" maskUnits="userSpaceOnUse" x="0" y="0" width="296" height="64">
<path d="M0.0136719 0H295.014V63.9265H0.0136719V0Z" fill="white"/>
</mask>
<g mask="url(#mask1_248_16350)">
</g>
<mask id="mask2_248_16350" style="mask-type:luminance" maskUnits="userSpaceOnUse" x="0" y="0" width="296" height="64">
<path d="M0.0136719 0H295.014V63.9265H0.0136719V0Z" fill="white"/>
</mask>
<g mask="url(#mask2_248_16350)">
<path d="M294.738 32.3458C294.702 32.4132 282.865 55.2263 271.269 50.234C270.468 55.7217 267.365 71.521 259.475 58.4884H35.568C27.6783 71.521 24.5767 55.7197 23.774 50.234C12.1782 55.2263 0.340648 32.4132 0.304975 32.3458L0.015625 31.7929L0.304975 31.24C0.340648 31.1706 12.1782 8.35755 23.774 13.3518C24.5747 7.86407 27.6783 -7.93522 35.568 5.09543H259.475C267.365 -7.93522 270.468 7.86407 271.269 13.3518C282.865 8.35755 294.702 31.1706 294.738 31.24L295.029 31.7929L294.738 32.3458ZM270.972 47.3742C279.93 53.3415 290.451 35.2274 292.338 31.7929C290.451 28.3584 279.93 10.2443 270.972 16.2096L269.341 17.2977L269.131 15.3455C269.125 15.292 267.19 -3.52362 261.178 6.88108L260.833 7.47563H34.2104L33.8656 6.88108C27.8527 -3.52362 25.9184 15.292 25.9124 15.3455L25.7024 17.2977L24.0713 16.2096C15.1133 10.2443 4.59171 28.3584 2.70499 31.7929C4.59171 35.2274 15.1133 53.3415 24.0713 47.3742L25.7024 46.2881L25.9124 48.2383C25.9184 48.2918 27.8527 67.1094 33.8656 56.7047L34.2104 56.1102C109.751 56.1102 185.293 56.1181 260.833 56.1102L261.178 56.7047C267.19 67.1094 269.125 48.2918 269.131 48.2383L269.341 46.2881L270.972 47.3742Z" fill="#B3B3B3"/>
<path d="M95.1748 27.0361L94.1357 37H91.8628L94.1357 23.6406H97.5034L100.63 33.8364L103.793 23.6406H107.161L109.054 37H105.306L104.202 27.2959L101.595 37H98.2271L95.1748 27.0361ZM114.416 23.6963C114.416 23.9313 114.37 24.154 114.277 24.3643C114.19 24.5745 114.07 24.757 113.915 24.9116C113.76 25.0662 113.578 25.1899 113.368 25.2827C113.157 25.3693 112.935 25.4126 112.7 25.4126C112.465 25.4126 112.242 25.3693 112.032 25.2827C111.828 25.1899 111.648 25.0662 111.494 24.9116C111.339 24.757 111.215 24.5745 111.123 24.3643C111.036 24.154 110.993 23.9313 110.993 23.6963C110.993 23.4613 111.036 23.2417 111.123 23.0376C111.215 22.8273 111.339 22.6449 111.494 22.4902C111.648 22.3356 111.828 22.215 112.032 22.1284C112.242 22.0356 112.465 21.9893 112.7 21.9893C112.935 21.9893 113.157 22.0356 113.368 22.1284C113.578 22.215 113.76 22.3356 113.915 22.4902C114.07 22.6449 114.19 22.8273 114.277 23.0376C114.37 23.2417 114.416 23.4613 114.416 23.6963ZM114.277 37H111.132V26.2939H114.277V37ZM120.047 37H116.912V21.3491H118.118L120.047 24.6055V37ZM125.799 37H122.664V21.3491H123.87L125.799 24.6055V37ZM130.995 31.916C131.378 32.0026 131.762 32.0706 132.145 32.1201C132.528 32.1696 132.915 32.1943 133.305 32.1943C133.713 32.1943 134.09 32.1572 134.437 32.083C134.789 32.0026 135.092 31.8727 135.346 31.6934C135.605 31.5078 135.81 31.2635 135.958 30.9604C136.106 30.6574 136.181 30.2801 136.181 29.8286C136.181 29.4637 136.131 29.1297 136.032 28.8267C135.933 28.5236 135.785 28.2638 135.587 28.0474C135.395 27.8309 135.157 27.6639 134.873 27.5464C134.588 27.4227 134.257 27.3608 133.88 27.3608C133.527 27.3608 133.209 27.4258 132.924 27.5557C132.646 27.6855 132.399 27.8618 132.182 28.0845C131.972 28.3009 131.789 28.5545 131.635 28.8452C131.486 29.1359 131.363 29.439 131.264 29.7544C131.165 30.0698 131.094 30.3883 131.05 30.71C131.007 31.0316 130.985 31.3346 130.985 31.6191C130.985 31.6686 130.985 31.7181 130.985 31.7676C130.985 31.8171 130.988 31.8665 130.995 31.916ZM138.723 29.8008C138.723 30.2399 138.652 30.6326 138.509 30.979C138.367 31.3192 138.172 31.6191 137.925 31.8789C137.684 32.1387 137.402 32.3582 137.081 32.5376C136.759 32.717 136.416 32.8654 136.051 32.9829C135.686 33.0942 135.309 33.1746 134.919 33.2241C134.535 33.2736 134.161 33.2983 133.796 33.2983C133.333 33.2983 132.875 33.2674 132.423 33.2056C131.972 33.1375 131.527 33.0324 131.087 32.8901C131.155 33.2983 131.264 33.688 131.412 34.0591C131.561 34.424 131.758 34.7456 132.006 35.0239C132.253 35.2961 132.556 35.5125 132.915 35.6733C133.28 35.8341 133.71 35.9146 134.205 35.9146C134.532 35.9146 134.845 35.8651 135.142 35.7661C135.438 35.6672 135.711 35.528 135.958 35.3486C136.205 35.1693 136.422 34.9559 136.607 34.7085C136.799 34.4611 136.954 34.1859 137.071 33.8828L138.426 34.3838C138.222 34.8724 137.94 35.2961 137.582 35.6548C137.229 36.0073 136.827 36.3011 136.375 36.5361C135.93 36.765 135.454 36.9351 134.947 37.0464C134.446 37.1577 133.948 37.2134 133.453 37.2134C132.637 37.2134 131.882 37.0773 131.189 36.8052C130.497 36.5269 129.9 36.1403 129.399 35.6455C128.898 35.1507 128.505 34.5601 128.221 33.8735C127.936 33.187 127.794 32.4355 127.794 31.6191C127.794 30.8027 127.936 30.0513 128.221 29.3647C128.505 28.6782 128.898 28.0876 129.399 27.5928C129.9 27.098 130.497 26.7145 131.189 26.4424C131.882 26.1641 132.637 26.0249 133.453 26.0249C133.849 26.0249 134.254 26.0527 134.668 26.1084C135.083 26.1641 135.485 26.2537 135.875 26.3774C136.264 26.495 136.632 26.6496 136.979 26.8413C137.325 27.033 137.625 27.2712 137.878 27.5557C138.138 27.834 138.342 28.1587 138.491 28.5298C138.645 28.9009 138.723 29.3245 138.723 29.8008ZM144.716 37H141.571V27.5278H139.623V26.2847H141.571V22.3418H144.716V26.2847H147.963V27.5278H144.716V37ZM158.688 37H155.004V23.6406H164.597V25.3477H158.688V29.4761H163.252V31.1738H158.688V37ZM176.992 31.6191C176.992 32.1758 176.917 32.6984 176.769 33.187C176.621 33.6756 176.413 34.1271 176.147 34.5415C175.888 34.9559 175.572 35.3301 175.201 35.6641C174.83 35.9919 174.422 36.2702 173.977 36.499C173.537 36.7279 173.064 36.9041 172.557 37.0278C172.056 37.1515 171.54 37.2134 171.008 37.2134C170.476 37.2134 169.959 37.1515 169.458 37.0278C168.958 36.9041 168.484 36.7279 168.039 36.499C167.6 36.2702 167.195 35.9919 166.824 35.6641C166.453 35.3301 166.134 34.9559 165.868 34.5415C165.608 34.1271 165.404 33.6756 165.256 33.187C165.107 32.6922 165.033 32.1696 165.033 31.6191C165.033 31.0687 165.107 30.5492 165.256 30.0605C165.404 29.5658 165.608 29.1112 165.868 28.6968C166.134 28.2824 166.453 27.9113 166.824 27.5835C167.195 27.2495 167.6 26.9681 168.039 26.7393C168.484 26.5104 168.958 26.3341 169.458 26.2104C169.959 26.0868 170.476 26.0249 171.008 26.0249C171.54 26.0249 172.056 26.0868 172.557 26.2104C173.064 26.3341 173.537 26.5104 173.977 26.7393C174.422 26.9681 174.83 27.2495 175.201 27.5835C175.572 27.9113 175.888 28.2824 176.147 28.6968C176.413 29.1112 176.621 29.5658 176.769 30.0605C176.917 30.5492 176.992 31.0687 176.992 31.6191ZM173.8 31.6191C173.8 31.3223 173.782 31.0099 173.745 30.6821C173.714 30.3481 173.658 30.0234 173.578 29.708C173.497 29.3864 173.386 29.0802 173.244 28.7896C173.108 28.4927 172.938 28.236 172.733 28.0195C172.529 27.7969 172.285 27.6206 172 27.4907C171.716 27.3547 171.385 27.2866 171.008 27.2866C170.649 27.2866 170.331 27.3547 170.052 27.4907C169.774 27.6268 169.53 27.8092 169.319 28.0381C169.115 28.2607 168.942 28.5205 168.8 28.8174C168.664 29.1143 168.552 29.4235 168.466 29.7451C168.379 30.0605 168.317 30.3822 168.28 30.71C168.243 31.0316 168.225 31.3346 168.225 31.6191C168.225 31.9036 168.243 32.2098 168.28 32.5376C168.317 32.8592 168.379 33.1808 168.466 33.5024C168.552 33.8241 168.664 34.1333 168.8 34.4302C168.942 34.7209 169.115 34.9806 169.319 35.2095C169.53 35.4321 169.774 35.6115 170.052 35.7476C170.331 35.8836 170.649 35.9517 171.008 35.9517C171.379 35.9517 171.707 35.8867 171.991 35.7568C172.276 35.6208 172.52 35.4414 172.724 35.2188C172.934 34.9961 173.108 34.7394 173.244 34.4487C173.38 34.158 173.488 33.8519 173.568 33.5303C173.655 33.2087 173.714 32.884 173.745 32.5562C173.782 32.2284 173.8 31.916 173.8 31.6191ZM190.295 31.6191C190.295 32.1758 190.221 32.6984 190.073 33.187C189.924 33.6756 189.717 34.1271 189.451 34.5415C189.191 34.9559 188.876 35.3301 188.505 35.6641C188.134 35.9919 187.726 36.2702 187.28 36.499C186.841 36.7279 186.368 36.9041 185.861 37.0278C185.36 37.1515 184.843 37.2134 184.312 37.2134C183.78 37.2134 183.263 37.1515 182.762 37.0278C182.261 36.9041 181.788 36.7279 181.343 36.499C180.904 36.2702 180.499 35.9919 180.127 35.6641C179.756 35.3301 179.438 34.9559 179.172 34.5415C178.912 34.1271 178.708 33.6756 178.56 33.187C178.411 32.6922 178.337 32.1696 178.337 31.6191C178.337 31.0687 178.411 30.5492 178.56 30.0605C178.708 29.5658 178.912 29.1112 179.172 28.6968C179.438 28.2824 179.756 27.9113 180.127 27.5835C180.499 27.2495 180.904 26.9681 181.343 26.7393C181.788 26.5104 182.261 26.3341 182.762 26.2104C183.263 26.0868 183.78 26.0249 184.312 26.0249C184.843 26.0249 185.36 26.0868 185.861 26.2104C186.368 26.3341 186.841 26.5104 187.28 26.7393C187.726 26.9681 188.134 27.2495 188.505 27.5835C188.876 27.9113 189.191 28.2824 189.451 28.6968C189.717 29.1112 189.924 29.5658 190.073 30.0605C190.221 30.5492 190.295 31.0687 190.295 31.6191ZM187.104 31.6191C187.104 31.3223 187.085 31.0099 187.048 30.6821C187.017 30.3481 186.962 30.0234 186.881 29.708C186.801 29.3864 186.69 29.0802 186.547 28.7896C186.411 28.4927 186.241 28.236 186.037 28.0195C185.833 27.7969 185.589 27.6206 185.304 27.4907C185.02 27.3547 184.689 27.2866 184.312 27.2866C183.953 27.2866 183.634 27.3547 183.356 27.4907C183.078 27.6268 182.833 27.8092 182.623 28.0381C182.419 28.2607 182.246 28.5205 182.104 28.8174C181.967 29.1143 181.856 29.4235 181.77 29.7451C181.683 30.0605 181.621 30.3822 181.584 30.71C181.547 31.0316 181.528 31.3346 181.528 31.6191C181.528 31.9036 181.547 32.2098 181.584 32.5376C181.621 32.8592 181.683 33.1808 181.77 33.5024C181.856 33.8241 181.967 34.1333 182.104 34.4302C182.246 34.7209 182.419 34.9806 182.623 35.2095C182.833 35.4321 183.078 35.6115 183.356 35.7476C183.634 35.8836 183.953 35.9517 184.312 35.9517C184.683 35.9517 185.01 35.8867 185.295 35.7568C185.579 35.6208 185.824 35.4414 186.028 35.2188C186.238 34.9961 186.411 34.7394 186.547 34.4487C186.683 34.158 186.792 33.8519 186.872 33.5303C186.959 33.2087 187.017 32.884 187.048 32.5562C187.085 32.2284 187.104 31.916 187.104 31.6191ZM203.08 37H201.874L200.482 34.6714C200.346 35.061 200.157 35.4136 199.916 35.729C199.681 36.0444 199.406 36.3166 199.09 36.5454C198.781 36.7681 198.438 36.9412 198.061 37.0649C197.689 37.1886 197.297 37.2505 196.882 37.2505C196.066 37.2505 195.336 37.1051 194.693 36.8145C194.05 36.5238 193.505 36.1279 193.06 35.627C192.615 35.1198 192.275 34.526 192.04 33.8457C191.805 33.1654 191.687 32.4355 191.687 31.6562C191.687 30.877 191.805 30.1471 192.04 29.4668C192.275 28.7865 192.615 28.1958 193.06 27.6948C193.505 27.1938 194.05 26.798 194.693 26.5073C195.336 26.2166 196.066 26.0713 196.882 26.0713C197.507 26.0713 198.079 26.1919 198.599 26.4331C199.124 26.6743 199.573 27.0516 199.944 27.5649V22.3418H203.08V37ZM199.925 31.6562C199.925 31.4089 199.907 31.1367 199.87 30.8398C199.833 30.543 199.774 30.243 199.693 29.9399C199.613 29.6369 199.508 29.3431 199.378 29.0586C199.248 28.7741 199.087 28.5205 198.896 28.2979C198.71 28.0752 198.49 27.8989 198.237 27.769C197.989 27.633 197.705 27.5649 197.383 27.5649C197.031 27.5649 196.725 27.6299 196.465 27.7598C196.205 27.8835 195.982 28.0535 195.797 28.27C195.611 28.4803 195.457 28.7246 195.333 29.0029C195.215 29.2812 195.123 29.5719 195.055 29.875C194.987 30.1781 194.937 30.4842 194.906 30.7935C194.882 31.0965 194.869 31.3841 194.869 31.6562C194.869 31.9284 194.882 32.2191 194.906 32.5283C194.937 32.8314 194.987 33.1344 195.055 33.4375C195.123 33.7406 195.215 34.0343 195.333 34.3188C195.457 34.5972 195.611 34.8446 195.797 35.061C195.982 35.2713 196.205 35.4414 196.465 35.5713C196.725 35.695 197.031 35.7568 197.383 35.7568C197.736 35.7568 198.045 35.695 198.311 35.5713C198.577 35.4476 198.803 35.2806 198.988 35.0703C199.18 34.8538 199.335 34.6095 199.452 34.3374C199.576 34.0591 199.672 33.7684 199.74 33.4653C199.808 33.1561 199.854 32.8468 199.879 32.5376C199.91 32.2284 199.925 31.9346 199.925 31.6562Z" fill="#C65E00"/>
</g>
</svg>
