<svg width="21" height="22" viewBox="0 0 21 22" fill="none" xmlns="http://www.w3.org/2000/svg">
<rect y="0.53125" width="21" height="21" rx="7.06665" fill="#FCD7AC"/>
<path d="M10.5 9.03125C10.8978 9.03125 11.2794 9.18929 11.5607 9.47059C11.842 9.75189 12 10.1334 12 10.5312C12 10.6639 12.0527 10.791 12.1464 10.8848C12.2402 10.9786 12.3674 11.0312 12.5 11.0312C12.6326 11.0312 12.7598 10.9786 12.8536 10.8848C12.9473 10.791 13 10.6639 13 10.5312C13 9.86821 12.7366 9.23232 12.2678 8.76348C11.7989 8.29464 11.163 8.03125 10.5 8.03125C10.3674 8.03125 10.2402 8.08393 10.1464 8.1777C10.0527 8.27146 10 8.39864 10 8.53125C10 8.66386 10.0527 8.79104 10.1464 8.8848C10.2402 8.97857 10.3674 9.03125 10.5 9.03125Z" fill="#970000"/>
<path d="M10.5 7.03125C11.4283 7.03125 12.3185 7.4 12.9749 8.05638C13.6313 8.71275 14 9.60299 14 10.5312C14 10.6639 14.0527 10.791 14.1464 10.8848C14.2402 10.9786 14.3674 11.0312 14.5 11.0312C14.6326 11.0312 14.7598 10.9786 14.8536 10.8848C14.9473 10.791 15 10.6639 15 10.5312C15 9.33778 14.5259 8.19318 13.682 7.34927C12.8381 6.50536 11.6935 6.03125 10.5 6.03125C10.3674 6.03125 10.2402 6.08393 10.1464 6.1777C10.0527 6.27146 10 6.39864 10 6.53125C10 6.66386 10.0527 6.79104 10.1464 6.8848C10.2402 6.97857 10.3674 7.03125 10.5 7.03125ZM14.875 12.9862C14.8475 12.906 14.8 12.834 14.737 12.7772C14.6741 12.7203 14.5977 12.6804 14.515 12.6613L11.515 11.9763C11.4336 11.9578 11.3488 11.96 11.2685 11.9827C11.1881 12.0054 11.1147 12.0479 11.055 12.1062C10.985 12.1712 10.98 12.1762 10.655 12.7962C9.5766 12.2993 8.7125 11.4317 8.22 10.3513C8.855 10.0312 8.86 10.0312 8.925 9.95625C8.98336 9.89653 9.02582 9.82314 9.04853 9.74279C9.07124 9.66244 9.07346 9.57768 9.055 9.49625L8.37 6.53125C8.35082 6.4486 8.31093 6.37219 8.25407 6.30921C8.19722 6.24623 8.12527 6.19875 8.045 6.17125C7.92823 6.12954 7.80766 6.0994 7.685 6.08125C7.55863 6.05195 7.42967 6.0352 7.3 6.03125C6.69 6.03125 6.10499 6.27357 5.67365 6.7049C5.24232 7.13624 5 7.72125 5 8.33125C5.00265 10.3726 5.81474 12.3296 7.2582 13.773C8.70166 15.2165 10.6586 16.0286 12.7 16.0312C13.002 16.0312 13.3011 15.9718 13.5802 15.8562C13.8592 15.7406 14.1128 15.5712 14.3263 15.3576C14.5399 15.144 14.7093 14.8905 14.8249 14.6114C14.9405 14.3324 15 14.0333 15 13.7312C15.0002 13.604 14.9901 13.4769 14.97 13.3512C14.949 13.2271 14.9172 13.1049 14.875 12.9862Z" fill="#970000"/>
</svg>
