<svg width="222" height="48" viewBox="0 0 222 48" fill="none" xmlns="http://www.w3.org/2000/svg">
<path fill-rule="evenodd" clip-rule="evenodd" d="M220.639 24.1404C220.639 24.1404 211.328 42.072 203.087 36.5839C203.087 36.5839 201.355 53.4976 195.456 43.2922H26.3206C20.4218 53.4976 18.6896 36.5839 18.6896 36.5839C10.4485 42.072 1.13901 24.1404 1.13901 24.1404C1.13901 24.1404 10.4485 6.2074 18.6896 11.697C18.6896 11.697 20.4218 -5.21819 26.3206 4.98865H195.456C201.355 -5.21819 203.087 11.697 203.087 11.697C211.328 6.2074 220.639 24.1404 220.639 24.1404Z" fill="#FE6701"/>
<mask id="mask0_35_6328" style="mask-type:luminance" maskUnits="userSpaceOnUse" x="-1" y="0" width="223" height="48">
<path d="M-0.00445557 0H221.5V48H-0.00445557V0Z" fill="white"/>
</mask>
<g mask="url(#mask0_35_6328)">
<path d="M221.293 24.2871C221.267 24.3377 212.378 41.4672 203.671 37.7187C203.07 41.8392 200.74 53.7023 194.816 43.9166H26.6922C20.7681 53.7023 18.4392 41.8377 17.8365 37.7187C9.12967 41.4672 0.241271 24.3377 0.214485 24.2871L-0.0027771 23.8719L0.214485 23.4568C0.241271 23.4047 9.12967 6.27522 17.8365 10.0252C18.4377 5.90468 20.7681 -5.95841 26.6922 3.82582H194.816C200.74 -5.95841 203.07 5.90468 203.671 10.0252C212.378 6.27522 221.267 23.4047 221.293 23.4568L221.512 23.8719L221.293 24.2871ZM203.448 35.5714C210.174 40.052 218.075 26.4508 219.491 23.8719C218.075 21.2931 210.174 7.69189 203.448 12.1711L202.223 12.988L202.066 11.5222C202.061 11.4821 200.609 -2.64591 196.094 5.16659L195.835 5.61302H25.6728L25.4139 5.16659C20.899 -2.64591 19.4466 11.4821 19.4422 11.5222L19.2844 12.988L18.0597 12.1711C11.3335 7.69189 3.43324 21.2931 2.01657 23.8719C3.43324 26.4508 11.3335 40.052 18.0597 35.5714L19.2844 34.7559L19.4422 36.2202C19.4466 36.2603 20.899 50.3898 25.4139 42.5773L25.6728 42.1309C82.3931 42.1309 139.115 42.1368 195.835 42.1309L196.094 42.5773C200.609 50.3898 202.061 36.2603 202.066 36.2202L202.223 34.7559L203.448 35.5714Z" fill="#FE6701"/>
</g>
</svg>
