<svg width="222" height="48" viewBox="0 0 222 48" fill="none" xmlns="http://www.w3.org/2000/svg">
<mask id="mask0_35_6337" style="mask-type:luminance" maskUnits="userSpaceOnUse" x="0" y="0" width="223" height="48">
<path d="M0.5 0H222.004V48H0.5V0Z" fill="white"/>
</mask>
<g mask="url(#mask0_35_6337)">
<path d="M221.798 24.2871C221.771 24.3377 212.883 41.4672 204.176 37.7187C203.575 41.8392 201.244 53.7023 195.32 43.9166H27.1967C21.2725 53.7023 18.9437 41.8377 18.341 37.7187C9.63415 41.4672 0.745757 24.3377 0.718971 24.2871L0.501709 23.8719L0.718971 23.4568C0.745757 23.4047 9.63415 6.27522 18.341 10.0252C18.9422 5.90468 21.2725 -5.95841 27.1967 3.82582H195.32C201.244 -5.95841 203.575 5.90468 204.176 10.0252C212.883 6.27522 221.771 23.4047 221.798 23.4568L222.017 23.8719L221.798 24.2871ZM203.953 35.5714C210.679 40.052 218.579 26.4508 219.996 23.8719C218.579 21.2931 210.679 7.69189 203.953 12.1711L202.728 12.988L202.57 11.5222C202.566 11.4821 201.113 -2.64591 196.598 5.16659L196.34 5.61302H26.1773L25.9184 5.16659C21.4035 -2.64591 19.9511 11.4821 19.9467 11.5222L19.7889 12.988L18.5642 12.1711C11.838 7.69189 3.93772 21.2931 2.52105 23.8719C3.93772 26.4508 11.838 40.052 18.5642 35.5714L19.7889 34.7559L19.9467 36.2202C19.9511 36.2603 21.4035 50.3898 25.9184 42.5773L26.1773 42.1309C82.8976 42.1309 139.619 42.1368 196.34 42.1309L196.598 42.5773C201.113 50.3898 202.566 36.2603 202.57 36.2202L202.728 34.7559L203.953 35.5714Z" fill="#FE6701"/>
</g>
</svg>
