<svg width="222" height="49" viewBox="0 0 222 49" fill="none" xmlns="http://www.w3.org/2000/svg">
<path fill-rule="evenodd" clip-rule="evenodd" d="M221.139 24.6313C221.139 24.6313 211.828 42.5628 203.587 37.0747C203.587 37.0747 201.855 53.9884 195.956 43.7831H26.8206C20.9218 53.9884 19.1896 37.0747 19.1896 37.0747C10.9486 42.5628 1.63904 24.6313 1.63904 24.6313C1.63904 24.6313 10.9486 6.69825 19.1896 12.1878C19.1896 12.1878 20.9218 -4.72735 26.8206 5.4795H195.956C201.855 -4.72735 203.587 12.1878 203.587 12.1878C211.828 6.69825 221.139 24.6313 221.139 24.6313Z" fill="#FE6701"/>
<mask id="mask0_35_9014" style="mask-type:luminance" maskUnits="userSpaceOnUse" x="0" y="0" width="223" height="49">
<path d="M0.495605 0.491211H222V48.4912H0.495605V0.491211Z" fill="white"/>
</mask>
<g mask="url(#mask0_35_9014)">
<path d="M221.794 24.7788C221.767 24.8294 212.878 41.9588 204.171 38.2103C203.57 42.3308 201.24 54.1939 195.316 44.4082H27.1923C21.2682 54.1939 18.9393 42.3294 18.3366 38.2103C9.62976 41.9588 0.741362 24.8294 0.714576 24.7788L0.497314 24.3636L0.714576 23.9484C0.741362 23.8963 9.62976 6.76686 18.3366 10.5169C18.9378 6.39632 21.2682 -5.46677 27.1923 4.31745H195.316C201.24 -5.46677 203.57 6.39632 204.171 10.5169C212.878 6.76686 221.767 23.8963 221.794 23.9484L222.012 24.3636L221.794 24.7788ZM203.948 36.063C210.674 40.5436 218.575 26.9425 219.991 24.3636C218.575 21.7847 210.674 8.18353 203.948 12.6627L202.724 13.4797L202.566 12.0139C202.561 11.9737 201.109 -2.15427 196.594 5.65823L196.335 6.10466H26.1729L25.914 5.65823C21.3991 -2.15427 19.9467 11.9737 19.9423 12.0139L19.7845 13.4797L18.5598 12.6627C11.8336 8.18353 3.93333 21.7847 2.51666 24.3636C3.93333 26.9425 11.8336 40.5436 18.5598 36.063L19.7845 35.2475L19.9423 36.7118C19.9467 36.752 21.3991 50.8814 25.914 43.0689L26.1729 42.6225C82.8932 42.6225 139.615 42.6285 196.335 42.6225L196.594 43.0689C201.109 50.8814 202.561 36.752 202.566 36.7118L202.724 35.2475L203.948 36.063Z" fill="#FE6701"/>
</g>
</svg>
