<svg width="391" height="63" viewBox="0 0 391 63" fill="none" xmlns="http://www.w3.org/2000/svg">
<mask id="mask0_70_91" style="mask-type:luminance" maskUnits="userSpaceOnUse" x="0" y="0" width="391" height="63">
<path d="M0 0H391V62.1741H0V0Z" fill="white"/>
</mask>
<g mask="url(#mask0_70_91)">
<path d="M376.345 45.3545C377.811 43.9237 379.115 42.1608 380.493 40.29C383.139 36.7037 385.876 32.9961 390.046 31.3202L390.636 31.0857L390.046 30.8486C385.876 29.1753 383.139 25.4652 380.493 21.8788C379.115 20.0106 377.811 18.2451 376.345 16.8169C374.62 15.1331 371.874 14.34 369.279 14.7563L361.451 0H29.3563L21.5283 14.7563C18.934 14.34 16.1842 15.1331 14.4623 16.8169C12.9965 18.2451 11.6929 20.0106 10.3148 21.8788C7.66867 25.4652 4.93177 29.1753 0.76157 30.8486L0.171387 31.0857L0.76157 31.3202C4.93177 32.9961 7.66867 36.7037 10.3148 40.29C11.6929 42.1608 12.9965 43.9237 14.4623 45.3545C16.1842 47.0357 18.934 47.8315 21.5283 47.4151L29.3563 62.1714H361.451L369.279 47.4151C371.874 47.8315 374.62 47.0357 376.345 45.3545Z" fill="#014D40"/>
</g>
</svg>
