<svg width="120" height="34" viewBox="0 0 120 34" fill="none" xmlns="http://www.w3.org/2000/svg">
<circle cx="16.2857" cy="17.0855" r="15.9464" fill="#FAF6F0" stroke="#CA3100" stroke-width="0.678571"/>
<path d="M16.9837 10.2987C17.4789 10.2968 17.974 10.3018 18.4691 10.3136L18.6007 10.3184C18.7527 10.3238 18.9027 10.3306 19.0839 10.3387C19.8059 10.3727 20.2985 10.4867 20.7308 10.6543C21.1786 10.8266 21.5559 11.06 21.9332 11.4373C22.2782 11.7763 22.5451 12.1864 22.7156 12.6391C22.8832 13.0713 22.9972 13.5647 23.0311 14.2866C23.0393 14.4672 23.046 14.6178 23.0515 14.7698L23.0555 14.9014C23.0676 15.3962 23.0728 15.8912 23.0712 16.3862L23.0718 16.8924V17.7813C23.0735 18.2765 23.0683 18.7717 23.0562 19.2667L23.0522 19.3983C23.0467 19.5503 23.0399 19.7003 23.0318 19.8815C22.9979 20.6035 22.8825 21.0961 22.7156 21.5284C22.5457 21.9815 22.2786 22.3919 21.9332 22.7308C21.5939 23.0757 21.1836 23.3427 20.7308 23.5132C20.2985 23.6808 19.8059 23.7948 19.0839 23.8287C18.9027 23.8369 18.7527 23.8436 18.6007 23.8491L18.4691 23.8531C17.974 23.8652 17.4789 23.8704 16.9837 23.8688L16.4775 23.8694H15.5892C15.094 23.8711 14.5989 23.8659 14.1038 23.8538L13.9722 23.8498C13.8111 23.8439 13.65 23.8371 13.489 23.8294C12.767 23.7955 12.2744 23.6801 11.8415 23.5132C11.3886 23.3431 10.9785 23.0761 10.6397 22.7308C10.2944 22.3917 10.0271 21.9814 9.85665 21.5284C9.68904 21.0961 9.57504 20.6035 9.54111 19.8815C9.53356 19.7205 9.52677 19.5594 9.52076 19.3983L9.51736 19.2667C9.50485 18.7717 9.4992 18.2765 9.5004 17.7813V16.3862C9.49851 15.8912 9.50348 15.3962 9.51533 14.9014L9.52008 14.7698C9.52551 14.6178 9.53229 14.4672 9.54043 14.2866C9.57436 13.564 9.68836 13.072 9.85597 12.6391C10.0265 12.1862 10.2943 11.7762 10.6404 11.438C10.9789 11.0924 11.3888 10.825 11.8415 10.6543C12.2744 10.4867 12.7664 10.3727 13.489 10.3387L13.9722 10.3184L14.1038 10.315C14.5986 10.3025 15.0936 10.2968 15.5885 10.298L16.9837 10.2987ZM16.2861 13.6915C15.8366 13.6852 15.3902 13.7682 14.9731 13.9359C14.5559 14.1035 14.1762 14.3524 13.856 14.668C13.5359 14.9837 13.2817 15.3598 13.1082 15.7746C12.9346 16.1894 12.8453 16.6345 12.8453 17.0841C12.8453 17.5337 12.9346 17.9788 13.1082 18.3935C13.2817 18.8083 13.5359 19.1844 13.856 19.5001C14.1762 19.8157 14.5559 20.0646 14.9731 20.2322C15.3902 20.3999 15.8366 20.4829 16.2861 20.4766C17.186 20.4766 18.0489 20.1191 18.6852 19.4828C19.3215 18.8465 19.679 17.9836 19.679 17.0837C19.679 16.1839 19.3215 15.3209 18.6852 14.6846C18.0489 14.0483 17.186 13.6915 16.2861 13.6915ZM16.2861 15.0487C16.5565 15.0437 16.8252 15.0927 17.0765 15.1927C17.3278 15.2927 17.5566 15.4418 17.7496 15.6313C17.9427 15.8207 18.096 16.0468 18.2007 16.2961C18.3053 16.5455 18.3593 16.8133 18.3593 17.0837C18.3594 17.3542 18.3055 17.6219 18.2009 17.8714C18.0963 18.1208 17.9431 18.3468 17.7501 18.5364C17.5572 18.7259 17.3284 18.8751 17.0771 18.9752C16.8259 19.0753 16.5572 19.1243 16.2868 19.1194C15.7469 19.1194 15.2291 18.905 14.8473 18.5232C14.4656 18.1414 14.2511 17.6236 14.2511 17.0837C14.2511 16.5438 14.4656 16.026 14.8473 15.6443C15.2291 15.2625 15.7469 15.048 16.2868 15.048L16.2861 15.0487ZM19.8486 12.6737C19.6297 12.6824 19.4227 12.7756 19.2709 12.9336C19.1191 13.0915 19.0343 13.3021 19.0343 13.5212C19.0343 13.7403 19.1191 13.9509 19.2709 14.1089C19.4227 14.2669 19.6297 14.36 19.8486 14.3688C20.0736 14.3688 20.2893 14.2794 20.4484 14.1203C20.6075 13.9613 20.6968 13.7455 20.6968 13.5205C20.6968 13.2956 20.6075 13.0798 20.4484 12.9208C20.2893 12.7617 20.0736 12.6723 19.8486 12.6723V12.6737Z" fill="#CA3100"/>
<circle cx="59.7143" cy="17.0855" r="15.9464" fill="#FAF6F0" stroke="#CA3100" stroke-width="0.678571"/>
<path d="M66.5 17.0836C66.5 13.3379 63.46 10.2979 59.7143 10.2979C55.9686 10.2979 52.9286 13.3379 52.9286 17.0836C52.9286 20.3679 55.2628 23.1025 58.3571 23.7336V19.1193H57V17.0836H58.3571V15.3871C58.3571 14.0775 59.4225 13.0121 60.7321 13.0121H62.4286V15.0479H61.0714C60.6982 15.0479 60.3928 15.3532 60.3928 15.7264V17.0836H62.4286V19.1193H60.3928V23.8354C63.8196 23.4961 66.5 20.6054 66.5 17.0836Z" fill="#CA3100"/>
<circle cx="103.143" cy="17.0855" r="15.9464" fill="#FAF6F0" stroke="#CA3100" stroke-width="0.678571"/>
<path d="M106.538 12.3359H99.751C98.2515 12.3359 97.036 13.5515 97.036 15.0509V19.1234C97.036 20.6229 98.2515 21.8384 99.751 21.8384H106.538C108.038 21.8384 109.253 20.6229 109.253 19.1234V15.0509C109.253 13.5515 108.038 12.3359 106.538 12.3359Z" stroke="#CA3100" stroke-width="1.5" stroke-linecap="round" stroke-linejoin="round"/>
<path d="M101.787 15.0508L105.181 17.087L101.787 19.1233V15.0508Z" stroke="#CA3100" stroke-width="1.5" stroke-linecap="round" stroke-linejoin="round"/>
</svg>
