<svg width="145" height="26" viewBox="0 0 145 26" fill="none" xmlns="http://www.w3.org/2000/svg">
<path d="M7.31665 10.0317L13.0583 13.3575L18.7566 10.0533" stroke="#B9B9B9" stroke-width="1.5" stroke-linecap="round" stroke-linejoin="round"/>
<path d="M13.0583 19.2508V13.3467" stroke="#B9B9B9" stroke-width="1.5" stroke-linecap="round" stroke-linejoin="round"/>
<path d="M11.715 6.81415L8.24837 8.74249C7.46837 9.17582 6.81836 10.27 6.81836 11.1692V14.8416C6.81836 15.7408 7.45753 16.835 8.24837 17.2683L11.715 19.1967C12.4517 19.6083 13.665 19.6083 14.4125 19.1967L17.8792 17.2683C18.6592 16.835 19.3092 15.7408 19.3092 14.8416V11.1583C19.3092 10.2592 18.67 9.16498 17.8792 8.73165L14.4125 6.80332C13.665 6.39165 12.4517 6.39165 11.715 6.81415Z" stroke="#B9B9B9" stroke-width="1.5" stroke-linecap="round" stroke-linejoin="round"/>
<path d="M23.8917 16.25C23.8917 20.4425 20.5008 23.8333 16.3083 23.8333L17.4458 21.9375" stroke="#B9B9B9" stroke-width="1.5" stroke-linecap="round" stroke-linejoin="round"/>
<path d="M2.2251 9.75002C2.2251 5.55752 5.61593 2.16669 9.80843 2.16669L8.67094 4.06252" stroke="#B9B9B9" stroke-width="1.5" stroke-linecap="round" stroke-linejoin="round"/>
<path d="M55.7039 13.9922C55.7039 14.416 55.6492 14.7897 55.5398 15.1133C55.435 15.4368 55.2846 15.7171 55.0886 15.9541C54.8972 16.1911 54.6694 16.3893 54.405 16.5488C54.1407 16.7083 53.8513 16.8359 53.5369 16.9316C53.227 17.0273 52.8966 17.0957 52.5457 17.1367C52.1993 17.1777 51.8461 17.1982 51.4861 17.1982C51.0121 17.1982 50.5746 17.1618 50.1736 17.0889C49.7725 17.0205 49.3943 16.9111 49.0388 16.7607C48.6879 16.6058 48.3484 16.4076 48.0203 16.166C47.6967 15.9245 47.3731 15.6305 47.0496 15.2842L48.4441 13.8691C48.5717 14.1836 48.7472 14.4753 48.9705 14.7441C49.1938 15.0085 49.4376 15.2363 49.7019 15.4277C49.9708 15.6191 50.2488 15.7695 50.5359 15.8789C50.823 15.9883 51.0942 16.043 51.3494 16.043C51.6501 16.043 51.9327 16.0225 52.197 15.9814C52.4613 15.9359 52.6915 15.863 52.8875 15.7627C53.0834 15.6624 53.2361 15.5303 53.3455 15.3662C53.4594 15.1976 53.5164 14.988 53.5164 14.7373C53.5164 14.5459 53.4731 14.3818 53.3865 14.2451C53.2999 14.1084 53.186 13.9922 53.0447 13.8965C52.908 13.7962 52.7507 13.7119 52.573 13.6436C52.3953 13.5752 52.213 13.5182 52.0261 13.4727C51.8438 13.4225 51.6638 13.3792 51.4861 13.3428C51.3083 13.3018 51.1511 13.2607 51.0144 13.2197C50.7455 13.1423 50.4653 13.0602 50.1736 12.9736C49.8819 12.8825 49.5948 12.7799 49.3123 12.666C49.0297 12.5521 48.7608 12.4222 48.5056 12.2764C48.255 12.126 48.0339 11.9505 47.8425 11.75C47.6511 11.5449 47.4985 11.3102 47.3845 11.0459C47.2706 10.777 47.2136 10.4694 47.2136 10.123C47.2136 9.70833 47.2638 9.34147 47.364 9.02246C47.4688 8.69889 47.6147 8.41862 47.8015 8.18164C47.9884 7.94466 48.2094 7.74642 48.4646 7.58691C48.7198 7.42285 49.0001 7.29297 49.3054 7.19727C49.6108 7.09701 49.9343 7.02637 50.2761 6.98535C50.6225 6.93978 50.9757 6.91699 51.3357 6.91699C51.8279 6.91699 52.2745 6.96257 52.6755 7.05371C53.0811 7.14486 53.4548 7.27474 53.7966 7.44336C54.1384 7.61198 54.4506 7.81478 54.7332 8.05176C55.0203 8.28418 55.2891 8.54395 55.5398 8.83105L54.1453 10.2461C54.0359 9.91797 53.8832 9.62174 53.6873 9.35742C53.4958 9.0931 53.2817 8.86751 53.0447 8.68066C52.8077 8.48926 52.5593 8.34342 52.2996 8.24316C52.0398 8.13835 51.7891 8.08594 51.5476 8.08594C51.2332 8.08594 50.9438 8.10872 50.6794 8.1543C50.4151 8.19531 50.1873 8.26595 49.9958 8.36621C49.809 8.46191 49.6632 8.59408 49.5583 8.7627C49.4535 8.92676 49.4011 9.13184 49.4011 9.37793C49.4011 9.57389 49.4399 9.74023 49.5173 9.87695C49.5948 10.0137 49.6973 10.1299 49.825 10.2256C49.9571 10.3213 50.1052 10.401 50.2693 10.4648C50.4333 10.5241 50.602 10.5765 50.7751 10.6221C50.9529 10.6676 51.1261 10.7087 51.2947 10.7451C51.4679 10.777 51.6251 10.8135 51.7664 10.8545C52.0398 10.932 52.3269 11.014 52.6277 11.1006C52.9285 11.1872 53.2247 11.2897 53.5164 11.4082C53.808 11.5221 54.086 11.6543 54.3503 11.8047C54.6147 11.9551 54.8471 12.1351 55.0476 12.3447C55.2481 12.5498 55.4076 12.7891 55.5261 13.0625C55.6446 13.3314 55.7039 13.6413 55.7039 13.9922ZM60.113 17H57.7957V10.0205H56.3601V9.10449H57.7957V6.19922H60.113V9.10449H62.5056V10.0205H60.113V17ZM71.5632 13.0352C71.5632 13.4453 71.5085 13.8304 71.3992 14.1904C71.2898 14.5505 71.1371 14.8831 70.9412 15.1885C70.7498 15.4938 70.5173 15.7695 70.2439 16.0156C69.9705 16.2572 69.6697 16.4622 69.3416 16.6309C69.018 16.7995 68.6694 16.9294 68.2957 17.0205C67.9265 17.1117 67.546 17.1572 67.1541 17.1572C66.7621 17.1572 66.3816 17.1117 66.0125 17.0205C65.6433 16.9294 65.2947 16.7995 64.9666 16.6309C64.643 16.4622 64.3445 16.2572 64.071 16.0156C63.7976 15.7695 63.5629 15.4938 63.3669 15.1885C63.1755 14.8831 63.0251 14.5505 62.9158 14.1904C62.8064 13.8258 62.7517 13.4408 62.7517 13.0352C62.7517 12.6296 62.8064 12.2467 62.9158 11.8867C63.0251 11.5221 63.1755 11.1872 63.3669 10.8818C63.5629 10.5765 63.7976 10.3031 64.071 10.0615C64.3445 9.81543 64.643 9.60807 64.9666 9.43945C65.2947 9.27083 65.6433 9.14095 66.0125 9.0498C66.3816 8.95866 66.7621 8.91309 67.1541 8.91309C67.546 8.91309 67.9265 8.95866 68.2957 9.0498C68.6694 9.14095 69.018 9.27083 69.3416 9.43945C69.6697 9.60807 69.9705 9.81543 70.2439 10.0615C70.5173 10.3031 70.7498 10.5765 70.9412 10.8818C71.1371 11.1872 71.2898 11.5221 71.3992 11.8867C71.5085 12.2467 71.5632 12.6296 71.5632 13.0352ZM69.2117 13.0352C69.2117 12.8164 69.198 12.5863 69.1707 12.3447C69.1479 12.0986 69.1069 11.8594 69.0476 11.627C68.9884 11.39 68.9063 11.1644 68.8015 10.9502C68.7013 10.7314 68.5759 10.5423 68.4255 10.3828C68.2751 10.2188 68.0951 10.0889 67.8855 9.99316C67.6759 9.8929 67.432 9.84277 67.1541 9.84277C66.8897 9.84277 66.655 9.8929 66.45 9.99316C66.2449 10.0934 66.0649 10.2279 65.9099 10.3965C65.7595 10.5605 65.6319 10.752 65.5271 10.9707C65.4268 11.1895 65.3448 11.4173 65.281 11.6543C65.2172 11.8867 65.1716 12.1237 65.1443 12.3652C65.1169 12.6022 65.1033 12.8255 65.1033 13.0352C65.1033 13.2448 65.1169 13.4704 65.1443 13.7119C65.1716 13.9489 65.2172 14.1859 65.281 14.4229C65.3448 14.6598 65.4268 14.8877 65.5271 15.1064C65.6319 15.3206 65.7595 15.512 65.9099 15.6807C66.0649 15.8447 66.2449 15.9769 66.45 16.0771C66.655 16.1774 66.8897 16.2275 67.1541 16.2275C67.4275 16.2275 67.669 16.1797 67.8787 16.084C68.0883 15.9837 68.2683 15.8516 68.4187 15.6875C68.5736 15.5234 68.7013 15.3343 68.8015 15.1201C68.9018 14.9059 68.9815 14.6803 69.0408 14.4434C69.1046 14.2064 69.1479 13.9671 69.1707 13.7256C69.198 13.484 69.2117 13.2539 69.2117 13.0352ZM79.739 9.80176L78.4402 11.9551C78.3855 11.7728 78.3149 11.5677 78.2283 11.3398C78.1417 11.112 78.0346 10.9001 77.907 10.7041C77.7794 10.5036 77.6267 10.3372 77.449 10.2051C77.2712 10.0684 77.0662 10 76.8337 10C76.6195 10 76.4327 10.0547 76.2732 10.1641C76.1182 10.2734 75.9861 10.417 75.8767 10.5947C75.7673 10.7679 75.6762 10.9661 75.6033 11.1895C75.5349 11.4082 75.4802 11.6315 75.4392 11.8594C75.4028 12.0827 75.3777 12.2992 75.364 12.5088C75.3503 12.7139 75.3435 12.8916 75.3435 13.042V17H73.0261V9.10449H73.9148L74.8513 10.9434C74.9789 10.6471 75.1248 10.376 75.2888 10.1299C75.4529 9.87923 75.642 9.66504 75.8562 9.4873C76.0704 9.30501 76.3119 9.16374 76.5808 9.06348C76.8542 8.96322 77.1619 8.91309 77.5037 8.91309C77.6814 8.91309 77.8796 8.92904 78.0984 8.96094C78.3171 8.98828 78.5313 9.03841 78.741 9.11133C78.9506 9.17969 79.1443 9.27083 79.322 9.38477C79.4998 9.4987 79.6388 9.6377 79.739 9.80176ZM82.405 13.2539C82.6876 13.3177 82.9701 13.3678 83.2527 13.4043C83.5352 13.4408 83.8201 13.459 84.1072 13.459C84.408 13.459 84.686 13.4316 84.9412 13.377C85.2009 13.3177 85.4242 13.222 85.6111 13.0898C85.8025 12.9531 85.9529 12.7731 86.0623 12.5498C86.1716 12.3265 86.2263 12.0485 86.2263 11.7158C86.2263 11.4469 86.1899 11.2008 86.1169 10.9775C86.044 10.7542 85.9347 10.5628 85.7888 10.4033C85.6475 10.2438 85.4721 10.1208 85.2625 10.0342C85.0528 9.94303 84.809 9.89746 84.531 9.89746C84.2712 9.89746 84.0365 9.94531 83.8269 10.041C83.6218 10.1367 83.4395 10.2666 83.28 10.4307C83.1251 10.5902 82.9906 10.777 82.8767 10.9912C82.7673 11.2054 82.6762 11.4287 82.6033 11.6611C82.5304 11.8936 82.4779 12.1283 82.446 12.3652C82.4141 12.6022 82.3982 12.8255 82.3982 13.0352C82.3982 13.0716 82.3982 13.1081 82.3982 13.1445C82.3982 13.181 82.4005 13.2174 82.405 13.2539ZM88.0994 11.6953C88.0994 12.0189 88.047 12.3083 87.9421 12.5635C87.8373 12.8141 87.6938 13.0352 87.5115 13.2266C87.3337 13.418 87.1264 13.5798 86.8894 13.7119C86.6524 13.8441 86.3995 13.9535 86.1306 14.04C85.8617 14.1221 85.5837 14.1813 85.2966 14.2178C85.0141 14.2542 84.7384 14.2725 84.4695 14.2725C84.1277 14.2725 83.7904 14.2497 83.4578 14.2041C83.1251 14.154 82.797 14.0765 82.4734 13.9717C82.5235 14.2725 82.6033 14.5596 82.7126 14.833C82.822 15.1019 82.9679 15.3389 83.1501 15.5439C83.3324 15.7445 83.5557 15.904 83.8201 16.0225C84.0889 16.141 84.4057 16.2002 84.7703 16.2002C85.0118 16.2002 85.2419 16.1637 85.4607 16.0908C85.6794 16.0179 85.88 15.9154 86.0623 15.7832C86.2445 15.651 86.4041 15.4938 86.5408 15.3115C86.682 15.1292 86.796 14.9264 86.8826 14.7031L87.8806 15.0723C87.7302 15.4323 87.5229 15.7445 87.2585 16.0088C86.9988 16.2686 86.7026 16.485 86.3699 16.6582C86.0417 16.8268 85.6908 16.9521 85.3171 17.0342C84.948 17.1162 84.5811 17.1572 84.2166 17.1572C83.615 17.1572 83.059 17.057 82.5486 16.8564C82.0382 16.6514 81.5984 16.3665 81.2292 16.002C80.8601 15.6374 80.5707 15.2021 80.3611 14.6963C80.1514 14.1904 80.0466 13.6367 80.0466 13.0352C80.0466 12.4336 80.1514 11.8799 80.3611 11.374C80.5707 10.8682 80.8601 10.4329 81.2292 10.0684C81.5984 9.70378 82.0382 9.42122 82.5486 9.2207C83.059 9.01562 83.615 8.91309 84.2166 8.91309C84.5082 8.91309 84.8067 8.93359 85.1121 8.97461C85.4174 9.01562 85.7136 9.08171 86.0007 9.17285C86.2878 9.25944 86.559 9.37337 86.8142 9.51465C87.0694 9.65592 87.2904 9.83138 87.4773 10.041C87.6687 10.2461 87.8191 10.4854 87.9285 10.7588C88.0424 11.0322 88.0994 11.3444 88.0994 11.6953ZM101.901 13.0352C101.901 13.6094 101.815 14.1471 101.641 14.6484C101.468 15.1497 101.218 15.5872 100.889 15.9609C100.561 16.3301 100.16 16.6217 99.6863 16.8359C99.2123 17.0501 98.6746 17.1572 98.073 17.1572C97.6127 17.1572 97.1889 17.0684 96.8015 16.8906C96.4187 16.7083 96.0906 16.4303 95.8171 16.0566V20.6436H93.5066V9.10449H94.3953L95.4207 10.8203C95.5209 10.5332 95.6576 10.2734 95.8308 10.041C96.0085 9.80404 96.2113 9.60352 96.4392 9.43945C96.6716 9.27083 96.9246 9.14095 97.198 9.0498C97.476 8.95866 97.7677 8.91309 98.073 8.91309C98.6746 8.91309 99.2123 9.02018 99.6863 9.23438C100.16 9.44857 100.561 9.74251 100.889 10.1162C101.218 10.4854 101.468 10.9206 101.641 11.4219C101.815 11.9232 101.901 12.4609 101.901 13.0352ZM99.5564 13.0352C99.5564 12.8346 99.545 12.6227 99.5222 12.3994C99.504 12.1715 99.4698 11.946 99.4197 11.7227C99.3695 11.4993 99.2989 11.2852 99.2078 11.0801C99.1212 10.875 99.0095 10.695 98.8728 10.54C98.7361 10.3805 98.5697 10.2552 98.3738 10.1641C98.1824 10.0684 97.9591 10.0205 97.7039 10.0205C97.4395 10.0205 97.2094 10.0661 97.0134 10.1572C96.822 10.2484 96.6557 10.3737 96.5144 10.5332C96.3777 10.6882 96.2638 10.8682 96.1726 11.0732C96.086 11.2738 96.0177 11.4857 95.9675 11.709C95.9174 11.9323 95.8809 12.1579 95.8582 12.3857C95.8399 12.6136 95.8308 12.8301 95.8308 13.0352C95.8308 13.2174 95.8445 13.4202 95.8718 13.6436C95.8992 13.8623 95.9425 14.0833 96.0017 14.3066C96.061 14.5299 96.1384 14.7464 96.2341 14.9561C96.3298 15.1657 96.446 15.3525 96.5828 15.5166C96.724 15.6807 96.8858 15.8128 97.0681 15.9131C97.255 16.0088 97.4669 16.0566 97.7039 16.0566C97.9636 16.0566 98.1892 16.0111 98.3806 15.9199C98.572 15.8242 98.7361 15.6989 98.8728 15.5439C99.0095 15.3844 99.1212 15.2021 99.2078 14.9971C99.2989 14.792 99.3695 14.5778 99.4197 14.3545C99.4698 14.1312 99.504 13.9056 99.5222 13.6777C99.545 13.4499 99.5564 13.2357 99.5564 13.0352ZM105.818 7.19727C105.818 7.37044 105.784 7.53451 105.716 7.68945C105.652 7.8444 105.563 7.97884 105.449 8.09277C105.335 8.20671 105.201 8.29785 105.046 8.36621C104.891 8.43001 104.727 8.46191 104.553 8.46191C104.38 8.46191 104.216 8.43001 104.061 8.36621C103.911 8.29785 103.779 8.20671 103.665 8.09277C103.551 7.97884 103.46 7.8444 103.391 7.68945C103.328 7.53451 103.296 7.37044 103.296 7.19727C103.296 7.02409 103.328 6.8623 103.391 6.71191C103.46 6.55697 103.551 6.42253 103.665 6.30859C103.779 6.19466 103.911 6.10579 104.061 6.04199C104.216 5.97363 104.38 5.93945 104.553 5.93945C104.727 5.93945 104.891 5.97363 105.046 6.04199C105.201 6.10579 105.335 6.19466 105.449 6.30859C105.563 6.42253 105.652 6.55697 105.716 6.71191C105.784 6.8623 105.818 7.02409 105.818 7.19727ZM105.716 17H103.398V9.11133H105.716V17ZM114.944 11.0596L113.946 11.4561C113.787 10.9548 113.52 10.5697 113.146 10.3008C112.773 10.0319 112.324 9.89746 111.8 9.89746C111.517 9.89746 111.264 9.94303 111.041 10.0342C110.822 10.1208 110.628 10.2415 110.46 10.3965C110.296 10.5514 110.154 10.7314 110.036 10.9365C109.922 11.1416 109.829 11.3604 109.756 11.5928C109.683 11.8252 109.63 12.0667 109.598 12.3174C109.566 12.5635 109.551 12.8027 109.551 13.0352C109.551 13.2858 109.564 13.5387 109.592 13.7939C109.619 14.0492 109.664 14.2952 109.728 14.5322C109.797 14.7646 109.885 14.9834 109.995 15.1885C110.104 15.389 110.241 15.5645 110.405 15.7148C110.574 15.8652 110.772 15.9837 111 16.0703C111.232 16.1569 111.499 16.2002 111.8 16.2002C112.041 16.2002 112.271 16.1637 112.49 16.0908C112.709 16.0179 112.909 15.9154 113.092 15.7832C113.274 15.651 113.436 15.4938 113.577 15.3115C113.718 15.1292 113.83 14.9264 113.912 14.7031L114.917 15.0723C114.766 15.4323 114.566 15.7445 114.315 16.0088C114.069 16.2686 113.789 16.485 113.474 16.6582C113.16 16.8268 112.823 16.9521 112.463 17.0342C112.103 17.1162 111.738 17.1572 111.369 17.1572C110.772 17.1572 110.218 17.057 109.708 16.8564C109.197 16.6514 108.755 16.3665 108.382 16.002C108.012 15.6328 107.723 15.1976 107.513 14.6963C107.304 14.1904 107.199 13.6367 107.199 13.0352C107.199 12.429 107.302 11.873 107.507 11.3672C107.716 10.8613 108.006 10.4261 108.375 10.0615C108.744 9.69694 109.184 9.41439 109.694 9.21387C110.205 9.01335 110.763 8.91309 111.369 8.91309C111.752 8.91309 112.125 8.95638 112.49 9.04297C112.855 9.125 113.192 9.25488 113.502 9.43262C113.816 9.60579 114.096 9.82682 114.343 10.0957C114.593 10.3646 114.794 10.6859 114.944 11.0596ZM118.622 17H116.311V6.19922H118.622V13.2881C119 13.0146 119.372 12.7139 119.736 12.3857C120.105 12.0576 120.456 11.7135 120.789 11.3535C121.122 10.9889 121.429 10.6175 121.712 10.2393C121.999 9.861 122.249 9.48275 122.464 9.10449H124.036C123.717 9.64225 123.339 10.18 122.901 10.7178C122.464 11.251 121.987 11.7614 121.472 12.249L124.063 17H121.513L119.675 13.7051C119.333 13.9375 118.982 14.1517 118.622 14.3477V17ZM124.672 13.623C124.672 13.263 124.701 12.8893 124.76 12.502C124.824 12.1146 124.913 11.7272 125.027 11.3398C125.146 10.9525 125.287 10.5697 125.451 10.1914C125.615 9.81315 125.8 9.45085 126.005 9.10449H127.693C127.579 9.44629 127.477 9.80404 127.385 10.1777C127.299 10.5469 127.224 10.9183 127.16 11.292C127.101 11.6611 127.053 12.0234 127.016 12.3789C126.984 12.7344 126.969 13.0648 126.969 13.3701C126.969 13.5479 126.975 13.7393 126.989 13.9443C127.007 14.1449 127.037 14.3477 127.078 14.5527C127.119 14.7533 127.176 14.9469 127.249 15.1338C127.326 15.3206 127.424 15.487 127.543 15.6328C127.661 15.7741 127.805 15.888 127.973 15.9746C128.147 16.0566 128.349 16.0977 128.582 16.0977C128.81 16.0977 129.012 16.0475 129.19 15.9473C129.372 15.8424 129.532 15.708 129.669 15.5439C129.805 15.3753 129.922 15.1839 130.017 14.9697C130.113 14.7555 130.191 14.5368 130.25 14.3135C130.314 14.0856 130.359 13.8646 130.386 13.6504C130.418 13.4316 130.434 13.2357 130.434 13.0625V9.10449H132.745V17H131.856L130.797 15.1611C130.664 15.4665 130.503 15.7445 130.311 15.9951C130.124 16.2412 129.91 16.4531 129.669 16.6309C129.427 16.8086 129.158 16.9453 128.862 17.041C128.57 17.1367 128.254 17.1846 127.912 17.1846C127.365 17.1846 126.889 17.0957 126.483 16.918C126.078 16.7402 125.74 16.4941 125.471 16.1797C125.203 15.8652 125.002 15.4915 124.87 15.0586C124.738 14.6211 124.672 14.1426 124.672 13.623ZM143.067 13.0352C143.067 13.6094 142.981 14.1471 142.807 14.6484C142.634 15.1497 142.384 15.5872 142.055 15.9609C141.727 16.3301 141.326 16.6217 140.852 16.8359C140.378 17.0501 139.841 17.1572 139.239 17.1572C138.779 17.1572 138.355 17.0684 137.968 16.8906C137.585 16.7083 137.257 16.4303 136.983 16.0566V20.6436H134.673V9.10449H135.561L136.587 10.8203C136.687 10.5332 136.824 10.2734 136.997 10.041C137.175 9.80404 137.377 9.60352 137.605 9.43945C137.838 9.27083 138.091 9.14095 138.364 9.0498C138.642 8.95866 138.934 8.91309 139.239 8.91309C139.841 8.91309 140.378 9.02018 140.852 9.23438C141.326 9.44857 141.727 9.74251 142.055 10.1162C142.384 10.4854 142.634 10.9206 142.807 11.4219C142.981 11.9232 143.067 12.4609 143.067 13.0352ZM140.722 13.0352C140.722 12.8346 140.711 12.6227 140.688 12.3994C140.67 12.1715 140.636 11.946 140.586 11.7227C140.536 11.4993 140.465 11.2852 140.374 11.0801C140.287 10.875 140.176 10.695 140.039 10.54C139.902 10.3805 139.736 10.2552 139.54 10.1641C139.348 10.0684 139.125 10.0205 138.87 10.0205C138.606 10.0205 138.375 10.0661 138.179 10.1572C137.988 10.2484 137.822 10.3737 137.68 10.5332C137.544 10.6882 137.43 10.8682 137.339 11.0732C137.252 11.2738 137.184 11.4857 137.134 11.709C137.083 11.9323 137.047 12.1579 137.024 12.3857C137.006 12.6136 136.997 12.8301 136.997 13.0352C136.997 13.2174 137.01 13.4202 137.038 13.6436C137.065 13.8623 137.108 14.0833 137.168 14.3066C137.227 14.5299 137.304 14.7464 137.4 14.9561C137.496 15.1657 137.612 15.3525 137.749 15.5166C137.89 15.6807 138.052 15.8128 138.234 15.9131C138.421 16.0088 138.633 16.0566 138.87 16.0566C139.13 16.0566 139.355 16.0111 139.547 15.9199C139.738 15.8242 139.902 15.6989 140.039 15.5439C140.176 15.3844 140.287 15.2021 140.374 14.9971C140.465 14.792 140.536 14.5778 140.586 14.3545C140.636 14.1312 140.67 13.9056 140.688 13.6777C140.711 13.4499 140.722 13.2357 140.722 13.0352Z" fill="#424242"/>
</svg>
