<svg width="296" height="64" viewBox="0 0 296 64" fill="none" xmlns="http://www.w3.org/2000/svg">
<mask id="mask0_248_16344" style="mask-type:luminance" maskUnits="userSpaceOnUse" x="0" y="0" width="296" height="64">
<path d="M0.0136719 0H295.014V63.9265H0.0136719V0Z" fill="white"/>
</mask>
<g mask="url(#mask0_248_16344)">
<path d="M294.738 32.3458C294.702 32.4132 282.865 55.2263 271.269 50.234C270.468 55.7217 267.365 71.521 259.475 58.4884H35.568C27.6783 71.521 24.5767 55.7197 23.774 50.234C12.1782 55.2263 0.340648 32.4132 0.304975 32.3458L0.015625 31.7929L0.304975 31.24C0.340648 31.1706 12.1782 8.35755 23.774 13.3518C24.5747 7.86407 27.6783 -7.93522 35.568 5.09543H259.475C267.365 -7.93522 270.468 7.86407 271.269 13.3518C282.865 8.35755 294.702 31.1706 294.738 31.24L295.029 31.7929L294.738 32.3458ZM270.972 47.3742C279.93 53.3415 290.451 35.2274 292.338 31.7929C290.451 28.3584 279.93 10.2443 270.972 16.2096L269.341 17.2977L269.131 15.3455C269.125 15.292 267.19 -3.52362 261.178 6.88108L260.833 7.47563H34.2104L33.8656 6.88108C27.8527 -3.52362 25.9184 15.292 25.9124 15.3455L25.7024 17.2977L24.0713 16.2096C15.1133 10.2443 4.59171 28.3584 2.70499 31.7929C4.59171 35.2274 15.1133 53.3415 24.0713 47.3742L25.7024 46.2881L25.9124 48.2383C25.9184 48.2918 27.8527 67.1094 33.8656 56.7047L34.2104 56.1102C109.751 56.1102 185.293 56.1181 260.833 56.1102L261.178 56.7047C267.19 67.1094 269.125 48.2918 269.131 48.2383L269.341 46.2881L270.972 47.3742Z" fill="#B3B3B3"/>
<path d="M64.4595 32.918C64.4595 33.4932 64.3853 34.0003 64.2368 34.4395C64.0946 34.8786 63.8905 35.259 63.6245 35.5806C63.3647 35.9022 63.0555 36.1712 62.6968 36.3877C62.3381 36.6042 61.9453 36.7773 61.5186 36.9072C61.098 37.0371 60.6496 37.1299 60.1733 37.1855C59.7033 37.2412 59.224 37.269 58.7354 37.269C58.0921 37.269 57.4984 37.2196 56.9541 37.1206C56.4098 37.0278 55.8965 36.8794 55.4141 36.6753C54.9378 36.465 54.4771 36.196 54.0317 35.8682C53.5926 35.5404 53.1535 35.1414 52.7144 34.6714L54.6069 32.751C54.7801 33.1777 55.0182 33.5736 55.3213 33.9385C55.6243 34.2972 55.9552 34.6064 56.314 34.8662C56.6789 35.126 57.0562 35.3301 57.4458 35.4785C57.8354 35.627 58.2035 35.7012 58.5498 35.7012C58.958 35.7012 59.3415 35.6733 59.7002 35.6177C60.0589 35.5558 60.3713 35.4569 60.6372 35.3208C60.9032 35.1847 61.1104 35.0054 61.2588 34.7827C61.4134 34.5539 61.4907 34.2694 61.4907 33.9292C61.4907 33.6694 61.432 33.4468 61.3145 33.2612C61.1969 33.0757 61.0423 32.918 60.8506 32.7881C60.665 32.652 60.4517 32.5376 60.2104 32.4448C59.9692 32.3521 59.7218 32.2747 59.4683 32.2129C59.2209 32.1449 58.9766 32.0861 58.7354 32.0366C58.4941 31.981 58.2808 31.9253 58.0952 31.8696C57.7303 31.7645 57.3499 31.6532 56.9541 31.5356C56.5583 31.4119 56.1686 31.2728 55.7852 31.1182C55.4017 30.9635 55.0368 30.7873 54.6904 30.5894C54.3503 30.3853 54.0503 30.1471 53.7905 29.875C53.5308 29.5967 53.3236 29.2782 53.1689 28.9194C53.0143 28.5545 52.937 28.137 52.937 27.667C52.937 27.1042 53.005 26.6063 53.1411 26.1733C53.2834 25.7342 53.4813 25.3538 53.7349 25.0322C53.9884 24.7106 54.2884 24.4416 54.6348 24.2251C54.9811 24.0024 55.3615 23.8262 55.7759 23.6963C56.1903 23.5602 56.6294 23.4644 57.0933 23.4087C57.5633 23.3468 58.0426 23.3159 58.5312 23.3159C59.1992 23.3159 59.8053 23.3778 60.3496 23.5015C60.9001 23.6252 61.4072 23.8014 61.8711 24.0303C62.335 24.2591 62.7586 24.5343 63.1421 24.856C63.5317 25.1714 63.8966 25.5239 64.2368 25.9136L62.3442 27.834C62.1958 27.3887 61.9886 26.9867 61.7227 26.6279C61.4629 26.2692 61.1722 25.9631 60.8506 25.7095C60.529 25.4497 60.1919 25.2518 59.8394 25.1157C59.4868 24.9735 59.1466 24.9023 58.8188 24.9023C58.3921 24.9023 57.9993 24.9333 57.6406 24.9951C57.2819 25.0508 56.9727 25.1466 56.7129 25.2827C56.4593 25.4126 56.2614 25.592 56.1191 25.8208C55.9769 26.0435 55.9058 26.3218 55.9058 26.6558C55.9058 26.9217 55.9583 27.1475 56.0635 27.333C56.1686 27.5186 56.3078 27.6763 56.481 27.8062C56.6603 27.936 56.8613 28.0443 57.084 28.1309C57.3066 28.2113 57.5355 28.2824 57.7705 28.3442C58.0117 28.4061 58.2467 28.4618 58.4756 28.5112C58.7106 28.5545 58.924 28.604 59.1157 28.6597C59.4868 28.7648 59.8765 28.8761 60.2847 28.9937C60.6929 29.1112 61.0949 29.2503 61.4907 29.4111C61.8866 29.5658 62.2638 29.7451 62.6226 29.9492C62.9813 30.1533 63.2967 30.3976 63.5688 30.6821C63.841 30.9604 64.0575 31.2852 64.2183 31.6562C64.3791 32.0212 64.4595 32.4417 64.4595 32.918ZM71.2505 37H68.4302L65.4985 26.2847H68.6343L70.4712 33.7993L72.002 26.2847H74.8223L76.6963 34.0034L78.5054 26.2847H80.6763L77.4292 37H74.6089L73.0225 30.4873L71.2505 37ZM84.6841 31.916C85.0675 32.0026 85.451 32.0706 85.8345 32.1201C86.2179 32.1696 86.6045 32.1943 86.9941 32.1943C87.4023 32.1943 87.7796 32.1572 88.126 32.083C88.4785 32.0026 88.7816 31.8727 89.0352 31.6934C89.2949 31.5078 89.499 31.2635 89.6475 30.9604C89.7959 30.6574 89.8701 30.2801 89.8701 29.8286C89.8701 29.4637 89.8206 29.1297 89.7217 28.8267C89.6227 28.5236 89.4743 28.2638 89.2764 28.0474C89.0846 27.8309 88.8465 27.6639 88.562 27.5464C88.2775 27.4227 87.9466 27.3608 87.5693 27.3608C87.2168 27.3608 86.8983 27.4258 86.6138 27.5557C86.3354 27.6855 86.0881 27.8618 85.8716 28.0845C85.6613 28.3009 85.4788 28.5545 85.3242 28.8452C85.1758 29.1359 85.0521 29.439 84.9531 29.7544C84.8542 30.0698 84.783 30.3883 84.7397 30.71C84.6965 31.0316 84.6748 31.3346 84.6748 31.6191C84.6748 31.6686 84.6748 31.7181 84.6748 31.7676C84.6748 31.8171 84.6779 31.8665 84.6841 31.916ZM92.4121 29.8008C92.4121 30.2399 92.341 30.6326 92.1987 30.979C92.0565 31.3192 91.8617 31.6191 91.6143 31.8789C91.373 32.1387 91.0916 32.3582 90.77 32.5376C90.4484 32.717 90.1051 32.8654 89.7402 32.9829C89.3753 33.0942 88.998 33.1746 88.6084 33.2241C88.2249 33.2736 87.8507 33.2983 87.4858 33.2983C87.022 33.2983 86.5643 33.2674 86.1128 33.2056C85.6613 33.1375 85.216 33.0324 84.7769 32.8901C84.8449 33.2983 84.9531 33.688 85.1016 34.0591C85.25 34.424 85.4479 34.7456 85.6953 35.0239C85.9427 35.2961 86.2458 35.5125 86.6045 35.6733C86.9694 35.8341 87.3993 35.9146 87.894 35.9146C88.2218 35.9146 88.5342 35.8651 88.8311 35.7661C89.1279 35.6672 89.4001 35.528 89.6475 35.3486C89.8949 35.1693 90.1113 34.9559 90.2969 34.7085C90.4886 34.4611 90.6432 34.1859 90.7607 33.8828L92.1152 34.3838C91.9111 34.8724 91.6297 35.2961 91.271 35.6548C90.9185 36.0073 90.5164 36.3011 90.0649 36.5361C89.6196 36.765 89.1434 36.9351 88.6362 37.0464C88.1353 37.1577 87.6374 37.2134 87.1426 37.2134C86.3262 37.2134 85.5716 37.0773 84.8789 36.8052C84.1862 36.5269 83.5894 36.1403 83.0884 35.6455C82.5874 35.1507 82.1947 34.5601 81.9102 33.8735C81.6257 33.187 81.4834 32.4355 81.4834 31.6191C81.4834 30.8027 81.6257 30.0513 81.9102 29.3647C82.1947 28.6782 82.5874 28.0876 83.0884 27.5928C83.5894 27.098 84.1862 26.7145 84.8789 26.4424C85.5716 26.1641 86.3262 26.0249 87.1426 26.0249C87.5384 26.0249 87.9435 26.0527 88.3579 26.1084C88.7723 26.1641 89.1743 26.2537 89.564 26.3774C89.9536 26.495 90.3216 26.6496 90.668 26.8413C91.0143 27.033 91.3143 27.2712 91.5679 27.5557C91.8276 27.834 92.0317 28.1587 92.1802 28.5298C92.3348 28.9009 92.4121 29.3245 92.4121 29.8008ZM96.9487 31.916C97.3322 32.0026 97.7157 32.0706 98.0991 32.1201C98.4826 32.1696 98.8691 32.1943 99.2588 32.1943C99.667 32.1943 100.044 32.1572 100.391 32.083C100.743 32.0026 101.046 31.8727 101.3 31.6934C101.56 31.5078 101.764 31.2635 101.912 30.9604C102.061 30.6574 102.135 30.2801 102.135 29.8286C102.135 29.4637 102.085 29.1297 101.986 28.8267C101.887 28.5236 101.739 28.2638 101.541 28.0474C101.349 27.8309 101.111 27.6639 100.827 27.5464C100.542 27.4227 100.211 27.3608 99.834 27.3608C99.4814 27.3608 99.1629 27.4258 98.8784 27.5557C98.6001 27.6855 98.3527 27.8618 98.1362 28.0845C97.9259 28.3009 97.7435 28.5545 97.5889 28.8452C97.4404 29.1359 97.3167 29.439 97.2178 29.7544C97.1188 30.0698 97.0477 30.3883 97.0044 30.71C96.9611 31.0316 96.9395 31.3346 96.9395 31.6191C96.9395 31.6686 96.9395 31.7181 96.9395 31.7676C96.9395 31.8171 96.9425 31.8665 96.9487 31.916ZM104.677 29.8008C104.677 30.2399 104.606 30.6326 104.463 30.979C104.321 31.3192 104.126 31.6191 103.879 31.8789C103.638 32.1387 103.356 32.3582 103.035 32.5376C102.713 32.717 102.37 32.8654 102.005 32.9829C101.64 33.0942 101.263 33.1746 100.873 33.2241C100.49 33.2736 100.115 33.2983 99.7505 33.2983C99.2866 33.2983 98.8289 33.2674 98.3774 33.2056C97.9259 33.1375 97.4806 33.0324 97.0415 32.8901C97.1095 33.2983 97.2178 33.688 97.3662 34.0591C97.5146 34.424 97.7126 34.7456 97.96 35.0239C98.2074 35.2961 98.5104 35.5125 98.8691 35.6733C99.234 35.8341 99.6639 35.9146 100.159 35.9146C100.486 35.9146 100.799 35.8651 101.096 35.7661C101.393 35.6672 101.665 35.528 101.912 35.3486C102.16 35.1693 102.376 34.9559 102.562 34.7085C102.753 34.4611 102.908 34.1859 103.025 33.8828L104.38 34.3838C104.176 34.8724 103.894 35.2961 103.536 35.6548C103.183 36.0073 102.781 36.3011 102.33 36.5361C101.884 36.765 101.408 36.9351 100.901 37.0464C100.4 37.1577 99.902 37.2134 99.4072 37.2134C98.5908 37.2134 97.8363 37.0773 97.1436 36.8052C96.4508 36.5269 95.854 36.1403 95.353 35.6455C94.8521 35.1507 94.4593 34.5601 94.1748 33.8735C93.8903 33.187 93.748 32.4355 93.748 31.6191C93.748 30.8027 93.8903 30.0513 94.1748 29.3647C94.4593 28.6782 94.8521 28.0876 95.353 27.5928C95.854 27.098 96.4508 26.7145 97.1436 26.4424C97.8363 26.1641 98.5908 26.0249 99.4072 26.0249C99.8031 26.0249 100.208 26.0527 100.623 26.1084C101.037 26.1641 101.439 26.2537 101.829 26.3774C102.218 26.495 102.586 26.6496 102.933 26.8413C103.279 27.033 103.579 27.2712 103.833 27.5557C104.092 27.834 104.296 28.1587 104.445 28.5298C104.599 28.9009 104.677 29.3245 104.677 29.8008ZM110.67 37H107.525V27.5278H105.577V26.2847H107.525V22.3418H110.67V26.2847H113.917V27.5278H110.67V37ZM134.16 32.3335C133.938 32.7974 133.678 33.2427 133.381 33.6694C133.09 34.0962 132.762 34.4951 132.397 34.8662L133.604 36.0073L131.498 37.5195L130.421 36.3784C129.859 36.6815 129.274 36.9041 128.668 37.0464C128.062 37.1948 127.44 37.269 126.803 37.269C126.333 37.269 125.841 37.2474 125.328 37.2041C124.821 37.167 124.317 37.0959 123.816 36.9907C123.321 36.8794 122.848 36.7248 122.396 36.5269C121.951 36.3289 121.558 36.0754 121.218 35.7661C120.884 35.4569 120.615 35.0827 120.411 34.6436C120.213 34.2044 120.114 33.6849 120.114 33.085C120.114 32.6149 120.201 32.1789 120.374 31.7769C120.553 31.3748 120.792 31.0192 121.088 30.71C121.391 30.3945 121.738 30.1317 122.127 29.9214C122.523 29.7049 122.941 29.5503 123.38 29.4575C123.163 29.3091 122.95 29.1297 122.74 28.9194C122.536 28.703 122.35 28.471 122.183 28.2236C122.022 27.9701 121.889 27.7072 121.784 27.4351C121.685 27.1629 121.636 26.8908 121.636 26.6187C121.636 26.0249 121.759 25.5239 122.007 25.1157C122.26 24.7075 122.588 24.3797 122.99 24.1323C123.392 23.8787 123.844 23.6963 124.345 23.585C124.852 23.4736 125.359 23.418 125.866 23.418C126.367 23.418 126.874 23.4736 127.388 23.585C127.901 23.6963 128.362 23.8787 128.77 24.1323C129.184 24.3859 129.521 24.7168 129.781 25.125C130.041 25.527 130.171 26.0249 130.171 26.6187C130.171 27.0454 130.087 27.432 129.92 27.7783C129.753 28.1185 129.534 28.4277 129.262 28.7061C128.99 28.9782 128.683 29.2225 128.343 29.439C128.003 29.6554 127.663 29.8503 127.323 30.0234L130.431 32.9829C130.567 32.6304 130.672 32.2686 130.746 31.8975C130.82 31.5202 130.857 31.1429 130.857 30.7656L134.16 32.3335ZM127.267 26.8228C127.267 26.6063 127.236 26.3991 127.174 26.2012C127.119 26.0033 127.032 25.8301 126.915 25.6816C126.803 25.5332 126.658 25.4157 126.479 25.3291C126.305 25.2363 126.101 25.1899 125.866 25.1899C125.613 25.1899 125.399 25.2332 125.226 25.3198C125.059 25.4002 124.92 25.5146 124.809 25.6631C124.703 25.8115 124.626 25.9847 124.577 26.1826C124.533 26.3805 124.512 26.5939 124.512 26.8228C124.512 26.9959 124.555 27.1753 124.642 27.3608C124.734 27.5464 124.846 27.7257 124.976 27.8989C125.112 28.0721 125.254 28.236 125.402 28.3906C125.551 28.5452 125.687 28.6782 125.811 28.7896C125.996 28.6906 126.175 28.5731 126.349 28.437C126.528 28.3009 126.683 28.1525 126.812 27.9917C126.949 27.8247 127.057 27.6453 127.137 27.4536C127.224 27.2557 127.267 27.0454 127.267 26.8228ZM129.03 34.9775L124.957 30.877C124.53 31.112 124.224 31.4212 124.039 31.8047C123.859 32.1882 123.77 32.6149 123.77 33.085C123.77 33.5055 123.853 33.8797 124.02 34.2075C124.193 34.5291 124.422 34.8013 124.707 35.0239C124.991 35.2466 125.313 35.4167 125.671 35.5342C126.036 35.6455 126.414 35.7012 126.803 35.7012C127.211 35.7012 127.604 35.6455 127.981 35.5342C128.359 35.4167 128.708 35.2311 129.03 34.9775ZM152.242 32.918C152.242 33.4932 152.167 34.0003 152.019 34.4395C151.877 34.8786 151.673 35.259 151.407 35.5806C151.147 35.9022 150.838 36.1712 150.479 36.3877C150.12 36.6042 149.728 36.7773 149.301 36.9072C148.88 37.0371 148.432 37.1299 147.956 37.1855C147.486 37.2412 147.006 37.269 146.518 37.269C145.874 37.269 145.281 37.2196 144.736 37.1206C144.192 37.0278 143.679 36.8794 143.196 36.6753C142.72 36.465 142.259 36.196 141.814 35.8682C141.375 35.5404 140.936 35.1414 140.497 34.6714L142.389 32.751C142.562 33.1777 142.8 33.5736 143.104 33.9385C143.407 34.2972 143.737 34.6064 144.096 34.8662C144.461 35.126 144.838 35.3301 145.228 35.4785C145.618 35.627 145.986 35.7012 146.332 35.7012C146.74 35.7012 147.124 35.6733 147.482 35.6177C147.841 35.5558 148.153 35.4569 148.419 35.3208C148.685 35.1847 148.893 35.0054 149.041 34.7827C149.196 34.5539 149.273 34.2694 149.273 33.9292C149.273 33.6694 149.214 33.4468 149.097 33.2612C148.979 33.0757 148.825 32.918 148.633 32.7881C148.447 32.652 148.234 32.5376 147.993 32.4448C147.751 32.3521 147.504 32.2747 147.25 32.2129C147.003 32.1449 146.759 32.0861 146.518 32.0366C146.276 31.981 146.063 31.9253 145.877 31.8696C145.513 31.7645 145.132 31.6532 144.736 31.5356C144.34 31.4119 143.951 31.2728 143.567 31.1182C143.184 30.9635 142.819 30.7873 142.473 30.5894C142.132 30.3853 141.833 30.1471 141.573 29.875C141.313 29.5967 141.106 29.2782 140.951 28.9194C140.797 28.5545 140.719 28.137 140.719 27.667C140.719 27.1042 140.787 26.6063 140.923 26.1733C141.066 25.7342 141.264 25.3538 141.517 25.0322C141.771 24.7106 142.071 24.4416 142.417 24.2251C142.763 24.0024 143.144 23.8262 143.558 23.6963C143.972 23.5602 144.412 23.4644 144.875 23.4087C145.346 23.3468 145.825 23.3159 146.313 23.3159C146.981 23.3159 147.588 23.3778 148.132 23.5015C148.682 23.6252 149.189 23.8014 149.653 24.0303C150.117 24.2591 150.541 24.5343 150.924 24.856C151.314 25.1714 151.679 25.5239 152.019 25.9136L150.126 27.834C149.978 27.3887 149.771 26.9867 149.505 26.6279C149.245 26.2692 148.954 25.9631 148.633 25.7095C148.311 25.4497 147.974 25.2518 147.622 25.1157C147.269 24.9735 146.929 24.9023 146.601 24.9023C146.174 24.9023 145.782 24.9333 145.423 24.9951C145.064 25.0508 144.755 25.1466 144.495 25.2827C144.242 25.4126 144.044 25.592 143.901 25.8208C143.759 26.0435 143.688 26.3218 143.688 26.6558C143.688 26.9217 143.741 27.1475 143.846 27.333C143.951 27.5186 144.09 27.6763 144.263 27.8062C144.443 27.936 144.644 28.0443 144.866 28.1309C145.089 28.2113 145.318 28.2824 145.553 28.3442C145.794 28.4061 146.029 28.4618 146.258 28.5112C146.493 28.5545 146.706 28.604 146.898 28.6597C147.269 28.7648 147.659 28.8761 148.067 28.9937C148.475 29.1112 148.877 29.2503 149.273 29.4111C149.669 29.5658 150.046 29.7451 150.405 29.9492C150.764 30.1533 151.079 30.3976 151.351 30.6821C151.623 30.9604 151.84 31.2852 152 31.6562C152.161 32.0212 152.242 32.4417 152.242 32.918ZM165.017 37H161.881V35.7197C161.51 36.2269 161.061 36.6042 160.536 36.8516C160.016 37.0928 159.444 37.2134 158.819 37.2134C158.003 37.2134 157.273 37.068 156.63 36.7773C155.987 36.4867 155.442 36.0908 154.997 35.5898C154.552 35.0827 154.212 34.4889 153.977 33.8086C153.742 33.1283 153.624 32.3984 153.624 31.6191C153.624 30.8398 153.742 30.11 153.977 29.4297C154.212 28.7493 154.552 28.1587 154.997 27.6577C155.442 27.1506 155.987 26.7516 156.63 26.4609C157.273 26.1702 158.003 26.0249 158.819 26.0249C159.234 26.0249 159.626 26.0868 159.998 26.2104C160.375 26.3341 160.718 26.5104 161.027 26.7393C161.343 26.9619 161.618 27.234 161.853 27.5557C162.094 27.8711 162.283 28.2236 162.419 28.6133L163.811 26.2847H165.017V37ZM161.862 31.6191C161.862 31.3408 161.847 31.047 161.816 30.7378C161.791 30.4285 161.745 30.1224 161.677 29.8193C161.609 29.5163 161.513 29.2287 161.389 28.9565C161.272 28.6782 161.117 28.4339 160.925 28.2236C160.74 28.0072 160.514 27.8371 160.248 27.7134C159.982 27.5897 159.673 27.5278 159.32 27.5278C158.968 27.5278 158.662 27.5928 158.402 27.7227C158.142 27.8464 157.919 28.0164 157.734 28.2329C157.548 28.4432 157.394 28.6875 157.27 28.9658C157.153 29.2441 157.06 29.5348 156.992 29.8379C156.924 30.141 156.874 30.4471 156.843 30.7563C156.819 31.0594 156.806 31.347 156.806 31.6191C156.806 31.8913 156.819 32.182 156.843 32.4912C156.874 32.8005 156.924 33.1066 156.992 33.4097C157.06 33.7127 157.153 34.0034 157.27 34.2817C157.394 34.5601 157.548 34.8075 157.734 35.0239C157.919 35.2342 158.142 35.4043 158.402 35.5342C158.662 35.6579 158.968 35.7197 159.32 35.7197C159.642 35.7197 159.926 35.6548 160.174 35.5249C160.427 35.3888 160.647 35.2095 160.833 34.9868C161.024 34.7642 161.185 34.5106 161.315 34.2261C161.445 33.9416 161.55 33.6478 161.63 33.3447C161.711 33.0417 161.77 32.7417 161.807 32.4448C161.844 32.1418 161.862 31.8665 161.862 31.6191ZM173.153 37H170.333L166.436 26.2847H169.572L172.429 34.8198L175.203 26.2847H177.374L173.153 37ZM189.796 31.6191C189.796 32.1758 189.722 32.6984 189.574 33.187C189.425 33.6756 189.218 34.1271 188.952 34.5415C188.692 34.9559 188.377 35.3301 188.006 35.6641C187.635 35.9919 187.227 36.2702 186.781 36.499C186.342 36.7279 185.869 36.9041 185.362 37.0278C184.861 37.1515 184.344 37.2134 183.812 37.2134C183.281 37.2134 182.764 37.1515 182.263 37.0278C181.762 36.9041 181.289 36.7279 180.844 36.499C180.405 36.2702 180 35.9919 179.628 35.6641C179.257 35.3301 178.939 34.9559 178.673 34.5415C178.413 34.1271 178.209 33.6756 178.061 33.187C177.912 32.6922 177.838 32.1696 177.838 31.6191C177.838 31.0687 177.912 30.5492 178.061 30.0605C178.209 29.5658 178.413 29.1112 178.673 28.6968C178.939 28.2824 179.257 27.9113 179.628 27.5835C180 27.2495 180.405 26.9681 180.844 26.7393C181.289 26.5104 181.762 26.3341 182.263 26.2104C182.764 26.0868 183.281 26.0249 183.812 26.0249C184.344 26.0249 184.861 26.0868 185.362 26.2104C185.869 26.3341 186.342 26.5104 186.781 26.7393C187.227 26.9681 187.635 27.2495 188.006 27.5835C188.377 27.9113 188.692 28.2824 188.952 28.6968C189.218 29.1112 189.425 29.5658 189.574 30.0605C189.722 30.5492 189.796 31.0687 189.796 31.6191ZM186.605 31.6191C186.605 31.3223 186.586 31.0099 186.549 30.6821C186.518 30.3481 186.463 30.0234 186.382 29.708C186.302 29.3864 186.191 29.0802 186.048 28.7896C185.912 28.4927 185.742 28.236 185.538 28.0195C185.334 27.7969 185.09 27.6206 184.805 27.4907C184.521 27.3547 184.19 27.2866 183.812 27.2866C183.454 27.2866 183.135 27.3547 182.857 27.4907C182.579 27.6268 182.334 27.8092 182.124 28.0381C181.92 28.2607 181.747 28.5205 181.604 28.8174C181.468 29.1143 181.357 29.4235 181.271 29.7451C181.184 30.0605 181.122 30.3822 181.085 30.71C181.048 31.0316 181.029 31.3346 181.029 31.6191C181.029 31.9036 181.048 32.2098 181.085 32.5376C181.122 32.8592 181.184 33.1808 181.271 33.5024C181.357 33.8241 181.468 34.1333 181.604 34.4302C181.747 34.7209 181.92 34.9806 182.124 35.2095C182.334 35.4321 182.579 35.6115 182.857 35.7476C183.135 35.8836 183.454 35.9517 183.812 35.9517C184.184 35.9517 184.511 35.8867 184.796 35.7568C185.08 35.6208 185.325 35.4414 185.529 35.2188C185.739 34.9961 185.912 34.7394 186.048 34.4487C186.184 34.158 186.293 33.8519 186.373 33.5303C186.46 33.2087 186.518 32.884 186.549 32.5562C186.586 32.2284 186.605 31.916 186.605 31.6191ZM191.234 32.417C191.234 31.9284 191.275 31.4212 191.355 30.8955C191.442 30.3698 191.562 29.8441 191.717 29.3184C191.878 28.7926 192.069 28.2731 192.292 27.7598C192.515 27.2464 192.765 26.7547 193.043 26.2847H195.335C195.18 26.7485 195.041 27.234 194.917 27.7412C194.8 28.2422 194.698 28.7463 194.611 29.2534C194.531 29.7544 194.466 30.2461 194.417 30.7285C194.373 31.2109 194.352 31.6593 194.352 32.0737C194.352 32.3149 194.361 32.5747 194.379 32.853C194.404 33.1252 194.444 33.4004 194.5 33.6787C194.556 33.9508 194.633 34.2137 194.732 34.4673C194.837 34.7209 194.97 34.9466 195.131 35.1445C195.292 35.3363 195.486 35.4909 195.715 35.6084C195.95 35.7197 196.226 35.7754 196.541 35.7754C196.85 35.7754 197.125 35.7074 197.367 35.5713C197.614 35.429 197.831 35.2466 198.016 35.0239C198.202 34.7951 198.359 34.5353 198.489 34.2446C198.619 33.9539 198.724 33.6571 198.805 33.354C198.891 33.0448 198.953 32.7448 198.99 32.4541C199.034 32.1572 199.055 31.8913 199.055 31.6562V26.2847H202.191V37H200.985L199.547 34.5044C199.368 34.9188 199.148 35.2961 198.888 35.6362C198.635 35.9702 198.344 36.2578 198.016 36.499C197.688 36.7402 197.323 36.9258 196.921 37.0557C196.526 37.1855 196.096 37.2505 195.632 37.2505C194.89 37.2505 194.243 37.1299 193.693 36.8887C193.142 36.6475 192.685 36.3135 192.32 35.8867C191.955 35.46 191.683 34.9528 191.503 34.3652C191.324 33.7715 191.234 33.1221 191.234 32.417ZM213.917 27.231L212.155 30.1533C212.081 29.9059 211.985 29.6276 211.867 29.3184C211.75 29.0091 211.604 28.7215 211.431 28.4556C211.258 28.1834 211.051 27.9577 210.81 27.7783C210.568 27.5928 210.29 27.5 209.975 27.5C209.684 27.5 209.43 27.5742 209.214 27.7227C209.004 27.8711 208.824 28.0659 208.676 28.3071C208.527 28.5422 208.404 28.8112 208.305 29.1143C208.212 29.4111 208.138 29.7142 208.082 30.0234C208.033 30.3265 207.999 30.6203 207.98 30.9048C207.961 31.1831 207.952 31.4243 207.952 31.6284V37H204.807V26.2847H206.013L207.284 28.7803C207.457 28.3783 207.655 28.0103 207.878 27.6763C208.101 27.3361 208.357 27.0454 208.648 26.8042C208.939 26.5568 209.266 26.3651 209.631 26.229C210.002 26.0929 210.42 26.0249 210.884 26.0249C211.125 26.0249 211.394 26.0465 211.691 26.0898C211.988 26.127 212.278 26.195 212.563 26.2939C212.847 26.3867 213.11 26.5104 213.352 26.665C213.593 26.8197 213.781 27.0083 213.917 27.231ZM218.528 23.6963C218.528 23.9313 218.482 24.154 218.389 24.3643C218.303 24.5745 218.182 24.757 218.027 24.9116C217.873 25.0662 217.69 25.1899 217.48 25.2827C217.27 25.3693 217.047 25.4126 216.812 25.4126C216.577 25.4126 216.354 25.3693 216.144 25.2827C215.94 25.1899 215.761 25.0662 215.606 24.9116C215.451 24.757 215.328 24.5745 215.235 24.3643C215.148 24.154 215.105 23.9313 215.105 23.6963C215.105 23.4613 215.148 23.2417 215.235 23.0376C215.328 22.8273 215.451 22.6449 215.606 22.4902C215.761 22.3356 215.94 22.215 216.144 22.1284C216.354 22.0356 216.577 21.9893 216.812 21.9893C217.047 21.9893 217.27 22.0356 217.48 22.1284C217.69 22.215 217.873 22.3356 218.027 22.4902C218.182 22.6449 218.303 22.8273 218.389 23.0376C218.482 23.2417 218.528 23.4613 218.528 23.6963ZM218.389 37H215.244V26.2939H218.389V37ZM223.603 31.916C223.986 32.0026 224.37 32.0706 224.753 32.1201C225.137 32.1696 225.523 32.1943 225.913 32.1943C226.321 32.1943 226.699 32.1572 227.045 32.083C227.397 32.0026 227.701 31.8727 227.954 31.6934C228.214 31.5078 228.418 31.2635 228.566 30.9604C228.715 30.6574 228.789 30.2801 228.789 29.8286C228.789 29.4637 228.74 29.1297 228.641 28.8267C228.542 28.5236 228.393 28.2638 228.195 28.0474C228.004 27.8309 227.765 27.6639 227.481 27.5464C227.196 27.4227 226.866 27.3608 226.488 27.3608C226.136 27.3608 225.817 27.4258 225.533 27.5557C225.254 27.6855 225.007 27.8618 224.791 28.0845C224.58 28.3009 224.398 28.5545 224.243 28.8452C224.095 29.1359 223.971 29.439 223.872 29.7544C223.773 30.0698 223.702 30.3883 223.659 30.71C223.615 31.0316 223.594 31.3346 223.594 31.6191C223.594 31.6686 223.594 31.7181 223.594 31.7676C223.594 31.8171 223.597 31.8665 223.603 31.916ZM231.331 29.8008C231.331 30.2399 231.26 30.6326 231.118 30.979C230.975 31.3192 230.781 31.6191 230.533 31.8789C230.292 32.1387 230.011 32.3582 229.689 32.5376C229.367 32.717 229.024 32.8654 228.659 32.9829C228.294 33.0942 227.917 33.1746 227.527 33.2241C227.144 33.2736 226.77 33.2983 226.405 33.2983C225.941 33.2983 225.483 33.2674 225.032 33.2056C224.58 33.1375 224.135 33.0324 223.696 32.8901C223.764 33.2983 223.872 33.688 224.021 34.0591C224.169 34.424 224.367 34.7456 224.614 35.0239C224.862 35.2961 225.165 35.5125 225.523 35.6733C225.888 35.8341 226.318 35.9146 226.813 35.9146C227.141 35.9146 227.453 35.8651 227.75 35.7661C228.047 35.6672 228.319 35.528 228.566 35.3486C228.814 35.1693 229.03 34.9559 229.216 34.7085C229.408 34.4611 229.562 34.1859 229.68 33.8828L231.034 34.3838C230.83 34.8724 230.549 35.2961 230.19 35.6548C229.837 36.0073 229.435 36.3011 228.984 36.5361C228.539 36.765 228.062 36.9351 227.555 37.0464C227.054 37.1577 226.556 37.2134 226.062 37.2134C225.245 37.2134 224.491 37.0773 223.798 36.8052C223.105 36.5269 222.508 36.1403 222.007 35.6455C221.506 35.1507 221.114 34.5601 220.829 33.8735C220.545 33.187 220.402 32.4355 220.402 31.6191C220.402 30.8027 220.545 30.0513 220.829 29.3647C221.114 28.6782 221.506 28.0876 222.007 27.5928C222.508 27.098 223.105 26.7145 223.798 26.4424C224.491 26.1641 225.245 26.0249 226.062 26.0249C226.457 26.0249 226.862 26.0527 227.277 26.1084C227.691 26.1641 228.093 26.2537 228.483 26.3774C228.873 26.495 229.241 26.6496 229.587 26.8413C229.933 27.033 230.233 27.2712 230.487 27.5557C230.747 27.834 230.951 28.1587 231.099 28.5298C231.254 28.9009 231.331 29.3245 231.331 29.8008ZM242.51 33.5767C242.51 34.0467 242.442 34.4642 242.306 34.8291C242.17 35.194 241.985 35.5125 241.75 35.7847C241.514 36.0506 241.236 36.2764 240.915 36.4619C240.593 36.6413 240.247 36.7866 239.875 36.8979C239.511 37.0093 239.127 37.0897 238.725 37.1392C238.323 37.1886 237.924 37.2134 237.528 37.2134C236.996 37.2134 236.526 37.1794 236.118 37.1113C235.71 37.0433 235.32 36.9351 234.949 36.7866C234.578 36.632 234.207 36.4341 233.836 36.1929C233.471 35.9517 233.063 35.6579 232.611 35.3115L234.439 33.8179C234.606 34.1333 234.826 34.4209 235.098 34.6807C235.376 34.9342 235.664 35.1538 235.96 35.3394C236.257 35.5249 236.545 35.6672 236.823 35.7661C237.102 35.8651 237.327 35.9146 237.5 35.9146C237.643 35.9146 237.804 35.9115 237.983 35.9053C238.162 35.8929 238.345 35.8743 238.53 35.8496C238.716 35.8187 238.898 35.7754 239.078 35.7197C239.257 35.6641 239.415 35.5898 239.551 35.4971C239.693 35.3981 239.804 35.2775 239.885 35.1353C239.971 34.9868 240.015 34.8105 240.015 34.6064C240.015 34.3962 239.959 34.2137 239.848 34.0591C239.743 33.8983 239.603 33.7591 239.43 33.6416C239.257 33.5241 239.059 33.4251 238.836 33.3447C238.614 33.2643 238.388 33.1932 238.159 33.1313C237.937 33.0695 237.72 33.0169 237.51 32.9736C237.299 32.9242 237.117 32.8778 236.962 32.8345C236.678 32.7541 236.378 32.6737 236.062 32.5933C235.747 32.5067 235.435 32.4108 235.125 32.3057C234.816 32.1943 234.519 32.0645 234.235 31.916C233.957 31.7676 233.709 31.5913 233.493 31.3872C233.282 31.1769 233.112 30.9326 232.982 30.6543C232.859 30.3698 232.797 30.0389 232.797 29.6616C232.797 28.9689 232.933 28.3906 233.205 27.9268C233.483 27.4567 233.848 27.0825 234.3 26.8042C234.751 26.5197 235.265 26.3187 235.84 26.2012C236.415 26.0837 237 26.0249 237.593 26.0249C238.001 26.0249 238.431 26.0682 238.883 26.1548C239.334 26.2352 239.773 26.3589 240.2 26.5259C240.627 26.6867 241.026 26.8846 241.397 27.1196C241.768 27.3547 242.077 27.6237 242.325 27.9268L240.497 29.4297C240.361 29.0586 240.182 28.7401 239.959 28.4741C239.743 28.2082 239.504 27.9917 239.245 27.8247C238.991 27.6515 238.728 27.5247 238.456 27.4443C238.19 27.3639 237.943 27.3237 237.714 27.3237C237.491 27.3237 237.241 27.333 236.962 27.3516C236.684 27.3701 236.421 27.4227 236.174 27.5093C235.933 27.5959 235.725 27.7288 235.552 27.9082C235.385 28.0814 235.302 28.3226 235.302 28.6318C235.302 28.8545 235.351 29.0462 235.45 29.207C235.555 29.3617 235.691 29.4977 235.858 29.6152C236.025 29.7266 236.214 29.8224 236.424 29.9028C236.641 29.9771 236.86 30.0451 237.083 30.1069C237.306 30.1626 237.522 30.2121 237.732 30.2554C237.943 30.2987 238.131 30.3451 238.298 30.3945C238.583 30.4749 238.883 30.5584 239.198 30.645C239.52 30.7254 239.835 30.8213 240.145 30.9326C240.454 31.0378 240.751 31.1646 241.035 31.313C241.326 31.4552 241.579 31.6315 241.796 31.8418C242.012 32.0521 242.186 32.2995 242.315 32.584C242.445 32.8623 242.51 33.1932 242.51 33.5767Z" fill="#C65E00"/>
</g>
</svg>
