<svg width="206" height="94" viewBox="0 0 206 94" fill="none" xmlns="http://www.w3.org/2000/svg">
<path fill-rule="evenodd" clip-rule="evenodd" d="M205.199 47.5608C205.199 47.5608 196.54 64.2372 188.876 59.1333C188.876 59.1333 187.265 74.8631 181.779 65.3721H24.4824C18.9965 74.8631 17.3856 59.1333 17.3856 59.1333C9.72137 64.2372 1.06348 47.5608 1.06348 47.5608C1.06348 47.5608 9.72137 30.883 17.3856 35.9883C17.3856 35.9883 18.9965 20.2572 24.4824 29.7496H181.779C187.265 20.2572 188.876 35.9883 188.876 35.9883C196.54 30.883 205.199 47.5608 205.199 47.5608Z" fill="#FCD765"/>
<mask id="mask0_36_10423" style="mask-type:luminance" maskUnits="userSpaceOnUse" x="0" y="25" width="206" height="45">
<path d="M0 25.1101H206V69.7503H0V25.1101Z" fill="white"/>
</mask>
<g mask="url(#mask0_36_10423)">
<path d="M205.808 47.6972C205.783 47.7443 197.517 63.6748 189.42 60.1886C188.86 64.0207 186.693 75.0535 181.184 65.9527H24.8282C19.3188 75.0535 17.1529 64.0194 16.5924 60.1886C8.49504 63.6748 0.228797 47.7443 0.203886 47.6972L0.00183105 47.3111L0.203886 46.925C0.228797 46.8766 8.49504 30.9461 16.5924 34.4336C17.1515 30.6015 19.3188 19.5688 24.8282 28.6681H181.184C186.693 19.5688 188.86 30.6015 189.42 34.4336C197.517 30.9461 205.783 46.8766 205.808 46.925L206.012 47.3111L205.808 47.6972ZM189.212 58.1916C195.467 62.3586 202.815 49.7095 204.132 47.3111C202.815 44.9128 195.467 32.2636 189.212 36.4292L188.073 37.189L187.926 35.8258C187.922 35.7885 186.571 22.6494 182.373 29.9151L182.132 30.3302H23.8802L23.6394 29.9151C19.4406 22.6494 18.0899 35.7885 18.0857 35.8258L17.939 37.189L16.8 36.4292C10.5446 32.2636 3.19734 44.9128 1.87983 47.3111C3.19734 49.7095 10.5446 62.3586 16.8 58.1916L17.939 57.4332L18.0857 58.795C18.0899 58.8324 19.4406 71.9728 23.6394 64.7072L23.8802 64.292C76.6303 64.292 129.382 64.2975 182.132 64.292L182.373 64.7072C186.571 71.9728 187.922 58.8324 187.926 58.795L188.073 57.4332L189.212 58.1916Z" fill="#FCD765"/>
</g>
<mask id="mask1_36_10423" style="mask-type:luminance" maskUnits="userSpaceOnUse" x="13" y="0" width="83" height="94">
<path d="M13.0195 0H95.6811V93.6124H13.0195V0Z" fill="white"/>
</mask>
<g mask="url(#mask1_36_10423)">
<path d="M95.6699 37.3928V57.0162L94.2493 57.4716C90.4826 58.6814 88.0494 61.2968 88.0494 64.1337V66.1999H83.1721C82.0778 67.8923 80.4711 69.4406 78.3736 70.8231C78.2472 72.9953 77.2983 75.0302 75.5842 76.7715C74.509 77.8631 73.1129 78.8649 71.407 79.7689C69.8138 80.613 67.9542 81.3702 65.8269 82.0403C61.5504 83.3875 59.211 85.209 58.0011 86.499C56.7329 87.8529 55.6672 90.4683 55.6631 90.4819C55.6699 90.4547 54.4342 93.6138 54.4342 93.6138L53.2747 90.5376C53.2747 90.5376 52.1369 87.8529 50.87 86.4976C49.6616 85.2076 47.3222 83.3875 43.0457 82.0403C40.8503 81.3471 38.9364 80.5614 37.3052 79.6805C35.6726 78.7983 34.335 77.8291 33.2897 76.7702C31.5755 75.0289 30.6254 72.9939 30.5003 70.8231C28.4028 69.4393 26.7961 67.891 25.7018 66.1999H20.66V64.1324C20.66 61.2968 18.2268 58.6828 14.4601 57.4703L13.0382 57.0149V37.3928L14.4601 36.9374C18.2268 35.7276 20.66 33.1136 20.66 30.2753V28.2091H25.6978C26.7934 26.518 28.4001 24.9684 30.4962 23.5859C30.6226 21.4137 31.5728 19.3788 33.287 17.6375C34.3269 16.5799 35.6658 15.6107 37.3025 14.7285C38.9309 13.849 40.8449 13.0619 43.0429 12.3687C47.3194 11.0216 49.6589 9.20004 50.8673 7.91002C52.1356 6.55612 53.0395 3.94075 53.0436 3.92715L54.3513 -0.00134277C54.3513 -0.00134277 55.0174 2.03087 55.7161 3.87006C55.9281 4.42195 56.7288 6.55612 57.9971 7.91002C59.2069 9.20004 61.5463 11.0216 65.8228 12.3687C67.9447 13.0375 69.8057 13.7946 71.4043 14.6415C73.1089 15.5441 74.5049 16.5459 75.5802 17.6375C77.2943 19.3788 78.2445 21.4137 78.3695 23.5859C80.467 24.9684 82.0737 26.518 83.168 28.2091H88.0453V30.2753C88.0453 33.1109 90.4799 35.7249 94.2453 36.9374L95.6699 37.3928Z" fill="#FCD765"/>
</g>
<path fill-rule="evenodd" clip-rule="evenodd" d="M53.5478 32C57.4363 32 61.0907 33.5118 63.8356 36.258C69.5094 41.9318 69.5094 51.1625 63.8356 56.8363C61.0542 59.6191 57.3091 61.0917 53.5153 61.0917C51.4472 61.0917 49.3655 60.6545 47.4179 59.7531C46.844 59.523 46.3067 59.3064 45.9209 59.3064C45.477 59.3091 44.8801 59.5149 44.3035 59.7138C43.1206 60.1199 41.648 60.6261 40.5584 59.5406C39.473 58.4537 39.9737 56.9852 40.3771 55.8036C40.576 55.2216 40.7804 54.6207 40.7804 54.1659C40.7804 53.7924 40.6004 53.3159 40.3243 52.6297C37.7892 47.1549 38.9613 40.5567 43.2613 36.2594C46.0062 33.5132 49.6592 32 53.5478 32ZM53.5491 34.0302C50.202 34.0302 47.0579 35.3323 44.696 37.6954C40.9956 41.3931 39.9886 47.071 42.188 51.8258C42.5047 52.6094 42.8106 53.3728 42.8106 54.1659C42.8106 54.9577 42.5386 55.7549 42.299 56.4587C42.1014 57.038 41.8023 57.9123 41.9945 58.1045C42.1826 58.2994 43.0624 57.9922 43.643 57.7932C44.3401 57.555 45.1305 57.2816 45.9142 57.2762C46.6992 57.2762 47.4395 57.574 48.2232 57.8893C53.024 60.109 58.7018 59.0993 62.4009 55.4016C67.2815 50.5183 67.2815 42.5747 62.4009 37.6941C60.0377 35.3309 56.8949 34.0302 53.5491 34.0302ZM58.8912 45.755C59.6383 45.755 60.2447 46.36 60.2447 47.1085C60.2447 47.8569 59.6383 48.462 58.8912 48.462C58.1441 48.462 57.5323 47.8569 57.5323 47.1085C57.5323 46.36 58.1319 45.755 58.879 45.755H58.8912ZM53.4654 45.755C54.2125 45.755 54.8188 46.36 54.8188 47.1085C54.8188 47.8569 54.2125 48.462 53.4654 48.462C52.7182 48.462 52.1065 47.8569 52.1065 47.1085C52.1065 46.36 52.7047 45.755 53.4532 45.755H53.4654ZM48.039 45.755C48.7861 45.755 49.3925 46.36 49.3925 47.1085C49.3925 47.8569 48.7861 48.462 48.039 48.462C47.2919 48.462 46.6801 47.8569 46.6801 47.1085C46.6801 46.36 47.2797 45.755 48.0268 45.755H48.039Z" fill="#310000"/>
<path d="M93.2784 53V41.3636H95.0341V51.4886H100.307V53H93.2784ZM105.935 53.1761C105.075 53.1761 104.334 52.9924 103.713 52.625C103.096 52.2538 102.618 51.733 102.281 51.0625C101.948 50.3883 101.781 49.5985 101.781 48.6932C101.781 47.7992 101.948 47.0114 102.281 46.3295C102.618 45.6477 103.088 45.1155 103.69 44.733C104.296 44.3504 105.005 44.1591 105.815 44.1591C106.308 44.1591 106.785 44.2405 107.247 44.4034C107.709 44.5663 108.124 44.822 108.491 45.1705C108.859 45.5189 109.149 45.9716 109.361 46.5284C109.573 47.0814 109.679 47.7538 109.679 48.5455V49.1477H102.741V47.875H108.014C108.014 47.428 107.923 47.0322 107.741 46.6875C107.56 46.339 107.304 46.0644 106.974 45.8636C106.649 45.6629 106.266 45.5625 105.827 45.5625C105.349 45.5625 104.933 45.6799 104.577 45.9148C104.224 46.1458 103.952 46.4489 103.759 46.8239C103.569 47.1951 103.474 47.5985 103.474 48.0341V49.0284C103.474 49.6117 103.577 50.108 103.781 50.517C103.99 50.9261 104.279 51.2386 104.651 51.4545C105.022 51.6667 105.455 51.7727 105.952 51.7727C106.274 51.7727 106.567 51.7273 106.832 51.6364C107.098 51.5417 107.327 51.4015 107.52 51.2159C107.713 51.0303 107.861 50.8011 107.963 50.5284L109.571 50.8182C109.442 51.2917 109.211 51.7064 108.878 52.0625C108.548 52.4148 108.134 52.6894 107.634 52.8864C107.137 53.0795 106.571 53.1761 105.935 53.1761ZM115.638 44.2727V45.6364H110.871V44.2727H115.638ZM112.149 42.1818H113.848V50.4375C113.848 50.767 113.897 51.0152 113.996 51.1818C114.094 51.3447 114.221 51.4564 114.376 51.517C114.536 51.5739 114.708 51.6023 114.893 51.6023C115.03 51.6023 115.149 51.5928 115.251 51.5739C115.354 51.5549 115.433 51.5398 115.49 51.5284L115.797 52.9318C115.698 52.9697 115.558 53.0076 115.376 53.0455C115.195 53.0871 114.967 53.1098 114.695 53.1136C114.248 53.1212 113.831 53.0417 113.445 52.875C113.058 52.7083 112.746 52.4508 112.507 52.1023C112.268 51.7538 112.149 51.3163 112.149 50.7898V42.1818ZM119.415 41.3636V42.4545C119.415 42.7765 119.354 43.1155 119.233 43.4716C119.116 43.8239 118.949 44.1629 118.733 44.4886C118.517 44.8144 118.263 45.0947 117.972 45.3295L117.131 44.7273C117.354 44.4015 117.547 44.0549 117.71 43.6875C117.877 43.3201 117.96 42.9148 117.96 42.4716V41.3636H119.415ZM126.494 46.4034L124.955 46.6761C124.89 46.4792 124.788 46.2917 124.648 46.1136C124.511 45.9356 124.326 45.7898 124.091 45.6761C123.856 45.5625 123.563 45.5057 123.21 45.5057C122.729 45.5057 122.328 45.6136 122.006 45.8295C121.684 46.0417 121.523 46.3163 121.523 46.6534C121.523 46.9451 121.631 47.1799 121.847 47.358C122.063 47.536 122.411 47.6818 122.892 47.7955L124.278 48.1136C125.081 48.2992 125.68 48.5852 126.074 48.9716C126.468 49.358 126.665 49.8598 126.665 50.4773C126.665 51 126.513 51.4659 126.21 51.875C125.911 52.2803 125.492 52.5985 124.955 52.8295C124.42 53.0606 123.801 53.1761 123.097 53.1761C122.119 53.1761 121.322 52.9678 120.705 52.5511C120.087 52.1307 119.708 51.5341 119.568 50.7614L121.21 50.5114C121.313 50.9394 121.523 51.2633 121.841 51.483C122.159 51.6989 122.574 51.8068 123.085 51.8068C123.642 51.8068 124.087 51.6913 124.42 51.4602C124.754 51.2254 124.92 50.9394 124.92 50.6023C124.92 50.3295 124.818 50.1004 124.614 49.9148C124.413 49.7292 124.104 49.589 123.688 49.4943L122.21 49.1705C121.396 48.9848 120.794 48.6894 120.403 48.2841C120.017 47.8788 119.824 47.3655 119.824 46.7443C119.824 46.2292 119.968 45.7784 120.256 45.392C120.544 45.0057 120.941 44.7045 121.449 44.4886C121.956 44.2689 122.538 44.1591 123.193 44.1591C124.136 44.1591 124.879 44.3636 125.42 44.7727C125.962 45.178 126.32 45.7216 126.494 46.4034ZM136.841 44.2727V45.6364H132.074V44.2727H136.841ZM133.352 42.1818H135.051V50.4375C135.051 50.767 135.1 51.0152 135.199 51.1818C135.297 51.3447 135.424 51.4564 135.58 51.517C135.739 51.5739 135.911 51.6023 136.097 51.6023C136.233 51.6023 136.352 51.5928 136.455 51.5739C136.557 51.5549 136.636 51.5398 136.693 51.5284L137 52.9318C136.902 52.9697 136.761 53.0076 136.58 53.0455C136.398 53.0871 136.17 53.1098 135.898 53.1136C135.451 53.1212 135.034 53.0417 134.648 52.875C134.261 52.7083 133.949 52.4508 133.71 52.1023C133.472 51.7538 133.352 51.3163 133.352 50.7898V42.1818ZM141.26 53.1932C140.707 53.1932 140.207 53.0909 139.76 52.8864C139.313 52.678 138.959 52.3769 138.697 51.983C138.44 51.589 138.311 51.1061 138.311 50.5341C138.311 50.0417 138.406 49.6364 138.595 49.3182C138.785 49 139.04 48.7481 139.362 48.5625C139.684 48.3769 140.044 48.2367 140.442 48.142C140.839 48.0473 141.245 47.9754 141.658 47.9261C142.18 47.8655 142.605 47.8163 142.93 47.7784C143.256 47.7367 143.493 47.6705 143.641 47.5795C143.788 47.4886 143.862 47.3409 143.862 47.1364V47.0966C143.862 46.6004 143.722 46.2159 143.442 45.9432C143.165 45.6705 142.752 45.5341 142.203 45.5341C141.631 45.5341 141.18 45.661 140.851 45.9148C140.525 46.1648 140.3 46.4432 140.175 46.75L138.578 46.3864C138.768 45.8561 139.044 45.428 139.408 45.1023C139.775 44.7727 140.197 44.5341 140.675 44.3864C141.152 44.2348 141.654 44.1591 142.18 44.1591C142.529 44.1591 142.898 44.2008 143.288 44.2841C143.682 44.3636 144.05 44.5114 144.391 44.7273C144.735 44.9432 145.018 45.2519 145.237 45.6534C145.457 46.0511 145.567 46.5682 145.567 47.2045V53H143.908V51.8068H143.839C143.73 52.0265 143.565 52.2424 143.345 52.4545C143.125 52.6667 142.843 52.8428 142.499 52.983C142.154 53.1231 141.741 53.1932 141.26 53.1932ZM141.629 51.8295C142.099 51.8295 142.5 51.7367 142.834 51.5511C143.171 51.3655 143.427 51.1231 143.601 50.8239C143.779 50.5208 143.868 50.197 143.868 49.8523V48.7273C143.807 48.7879 143.69 48.8447 143.516 48.8977C143.345 48.947 143.15 48.9905 142.93 49.0284C142.711 49.0625 142.497 49.0947 142.288 49.125C142.08 49.1515 141.906 49.1742 141.766 49.1932C141.436 49.2348 141.135 49.3049 140.862 49.4034C140.593 49.5019 140.377 49.6439 140.214 49.8295C140.055 50.0114 139.976 50.2538 139.976 50.5568C139.976 50.9773 140.131 51.2955 140.442 51.5114C140.752 51.7235 141.148 51.8295 141.629 51.8295ZM149.528 41.3636V53H147.83V41.3636H149.528ZM153.376 50.0398L153.365 47.9659H153.661L157.138 44.2727H159.172L155.206 48.4773H154.939L153.376 50.0398ZM151.814 53V41.3636H153.513V53H151.814ZM157.325 53L154.2 48.8523L155.371 47.6648L159.411 53H157.325Z" fill="#310000"/>
</svg>
