<svg width="703" height="54" viewBox="0 0 703 54" fill="none" xmlns="http://www.w3.org/2000/svg">
<path d="M468.766 38.8464C467.777 38.8464 466.978 38.0518 466.978 37.0632C466.978 36.0746 467.777 35.2661 468.766 35.2661H656.756C657.744 35.2661 658.544 36.0746 658.544 37.0632C658.544 38.0518 657.744 38.8464 656.756 38.8464H468.766Z" fill="#970000"/>
<path d="M46.8903 38.8464C45.9017 38.8464 45.0933 38.0518 45.0933 37.0632C45.0933 36.0746 45.9017 35.2661 46.8903 35.2661H234.252C235.245 35.2661 236.054 36.0746 236.054 37.0632C236.054 38.0518 235.245 38.8464 234.252 38.8464H46.8903Z" fill="#970000"/>
<path fill-rule="evenodd" clip-rule="evenodd" d="M278.305 35.0067C276.157 35.5888 276.61 38.7302 279.123 38.0604C286.408 36.8269 286.399 49.2262 275.76 47.3414C268.742 46.1079 265.277 36.6329 270.659 31.5558C281.687 21.143 303.607 40.7814 310.68 47.8264C313.373 45.7429 316.866 44.7081 321.157 44.7312C318.071 44.1491 315.304 43.8165 312.847 43.7195C303.487 35.2423 281.604 17.2717 269.043 30.2762C262.949 36.5774 267.352 47.2675 275.552 48.3023C289.614 50.0531 290.561 32.1148 278.305 35.0067Z" fill="#970000"/>
<path fill-rule="evenodd" clip-rule="evenodd" d="M339.022 39.1048C341.166 38.5366 340.713 35.3952 338.2 36.0604C330.915 37.2893 330.915 24.8992 341.563 26.7702C348.585 28.0083 352.031 37.4925 346.663 42.5696C335.636 52.9778 313.72 33.3394 306.647 26.2944C303.949 28.3732 300.457 29.4034 296.165 29.3849C299.242 29.9763 302.009 30.3089 304.481 30.392C313.826 38.8692 335.724 56.8491 348.28 43.8493C354.364 37.548 349.976 26.8441 341.762 25.8231C327.713 24.0584 326.761 41.9967 339.022 39.1048Z" fill="#970000"/>
<path fill-rule="evenodd" clip-rule="evenodd" d="M364.616 39.1048C362.467 38.5366 362.925 35.3952 365.433 36.0604C372.732 37.2893 372.723 24.8992 362.07 26.7702C355.053 28.0083 351.602 37.4925 356.984 42.5696C368.002 52.9778 389.927 33.3394 396.99 26.2944C399.698 28.3732 403.176 29.4034 407.468 29.3849C404.396 29.9763 401.624 30.3089 399.166 30.392C389.811 38.8692 367.914 56.8491 355.367 43.8493C349.273 37.548 353.671 26.8441 361.876 25.8231C375.934 24.0584 376.885 41.9967 364.616 39.1048Z" fill="#970000"/>
<path fill-rule="evenodd" clip-rule="evenodd" d="M425.342 35.0067C427.49 35.5888 427.037 38.7302 424.524 38.0604C417.225 36.8269 417.239 49.2262 427.887 47.3414C434.905 46.1079 438.356 36.6329 432.978 31.5558C421.96 21.143 400.03 40.7814 392.958 47.8264C390.264 45.7429 386.781 44.7081 382.489 44.7312C385.561 44.1491 388.333 43.8165 390.791 43.7195C400.151 35.2423 422.043 17.2717 434.595 30.2762C440.684 36.5774 436.286 47.2675 428.081 48.3023C414.024 50.0531 413.076 32.1148 425.342 35.0067Z" fill="#970000"/>
<path d="M255.197 36.9566C255.585 36.6008 256.191 36.6332 256.546 37.0305C256.893 37.4278 256.86 38.0283 256.472 38.3748C246.415 47.3232 231.849 38.2039 215.925 28.2207C197.931 16.9486 178.15 4.54005 162.226 16.9394C161.805 17.2627 161.214 17.1888 160.891 16.7777C160.563 16.3573 160.627 15.7567 161.052 15.4333C178.03 2.21634 198.417 14.9945 216.937 26.6084C232.224 36.1804 246.207 44.944 255.197 36.9566Z" fill="#970000"/>
<path d="M173.493 11.4558C166.332 10.0237 162.073 10.883 160.013 12.4537C158.742 13.4099 158.396 14.648 158.774 15.6597C159.172 16.7269 160.35 17.5861 162.073 17.7478C164.836 17.9927 168.855 16.4774 173.493 11.4558ZM158.848 10.9384C161.449 8.97039 166.72 7.894 175.507 9.94053C175.646 9.97287 175.789 10.0329 175.904 10.1438C176.316 10.4764 176.357 11.077 176.024 11.4881C170.448 18.0389 165.385 19.9514 161.911 19.6373C159.38 19.4156 157.62 18.0389 156.987 16.3157C156.326 14.551 156.834 12.4768 158.848 10.9384Z" fill="#970000"/>
<path d="M175.24 9.91737C175.767 9.88503 176.219 10.2823 176.243 10.809C176.275 11.3356 175.873 11.7884 175.346 11.8207C173.018 11.9593 170.754 12.4674 168.574 13.3175C166.375 14.1629 164.264 15.3779 162.226 16.9393C161.806 17.2627 161.201 17.1888 160.877 16.7684C160.554 16.3572 160.642 15.7567 161.053 15.4333C163.252 13.7563 165.525 12.4536 167.876 11.5296C170.246 10.6149 172.695 10.0791 175.24 9.91737Z" fill="#970000"/>
<mask id="mask0_35_7557" style="mask-type:luminance" maskUnits="userSpaceOnUse" x="186" y="0" width="15" height="19">
<path d="M186.567 0.03125H200.759V18.8612H186.567V0.03125Z" fill="white"/>
</mask>
<g mask="url(#mask0_35_7557)">
<path d="M198.343 15.7984C197.876 8.51775 195.936 4.64643 193.889 3.06649C192.628 2.08712 191.344 2.07788 190.462 2.70154C189.533 3.35754 189.006 4.71111 189.297 6.43426C189.769 9.14141 192.273 12.6293 198.343 15.7984ZM195.054 1.56047C197.631 3.5377 200.024 8.33758 200.325 17.2952C200.334 17.4569 200.315 17.6278 200.237 17.7803C200.011 18.2607 199.442 18.4686 198.966 18.2422C191.173 14.5742 188.013 10.1855 187.408 6.74378C186.978 4.24914 187.861 2.20723 189.362 1.15393C190.9 0.0544433 193.039 -0.000993133 195.054 1.56047Z" fill="#970000"/>
</g>
<path d="M200.282 17.0778C200.444 17.5721 200.172 18.1126 199.677 18.2836C199.183 18.4453 198.633 18.1773 198.471 17.683C197.866 15.909 197.016 14.2598 195.894 12.7445C194.785 11.2293 193.394 9.84336 191.754 8.58218C191.334 8.2588 191.246 7.65824 191.57 7.25171C191.893 6.83131 192.489 6.74354 192.909 7.06692C194.706 8.43435 196.217 9.94962 197.446 11.6173C198.675 13.285 199.622 15.1098 200.282 17.0778Z" fill="#970000"/>
<path d="M215.838 28.2116C209.5 24.5851 205.199 24.0492 202.741 24.8854C201.231 25.4028 200.51 26.4561 200.542 27.5325C200.584 28.6643 201.415 29.8562 203.009 30.5538C205.545 31.6625 209.846 31.5147 215.838 28.2116ZM202.127 23.0791C205.208 22.0396 210.558 22.6956 218.231 27.417C218.351 27.4909 218.471 27.5972 218.545 27.7265C218.813 28.1792 218.675 28.7706 218.222 29.0385C210.858 33.4919 205.448 33.6952 202.242 32.3093C199.928 31.2883 198.699 29.4173 198.634 27.5972C198.579 25.7031 199.711 23.8968 202.127 23.0791Z" fill="#970000"/>
<path d="M217.972 27.3062C218.489 27.4355 218.794 27.9622 218.651 28.4703C218.512 28.9831 217.995 29.288 217.478 29.1448C215.787 28.6967 214.05 28.5119 212.29 28.5997C210.525 28.6828 208.723 29.0386 206.88 29.6715C206.372 29.847 205.836 29.5744 205.66 29.0801C205.489 28.5858 205.757 28.0407 206.256 27.8651C208.261 27.1768 210.243 26.7795 212.193 26.6964C214.156 26.5993 216.087 26.8026 217.972 27.3062Z" fill="#970000"/>
<path d="M240.645 41.0726C232.441 37.4184 228.884 33.3854 228.02 30.2533C227.331 27.8141 228.195 25.8553 229.789 24.8436C231.332 23.8642 233.573 23.8134 235.721 25.1577C238.682 27.0056 241.56 31.5884 242.027 40.1718C242.059 40.6984 241.648 41.1465 241.121 41.1696C240.959 41.1789 240.798 41.1465 240.645 41.0726ZM229.854 29.7497C230.556 32.2444 233.42 35.492 239.999 38.675C239.343 31.8656 237.056 28.2437 234.704 26.7793C233.24 25.8553 231.771 25.8461 230.815 26.4559C229.895 27.0287 229.433 28.2206 229.854 29.7497Z" fill="#970000"/>
<path d="M241.689 39.4926C242.091 39.8345 242.142 40.4397 241.8 40.837C241.453 41.2343 240.848 41.2897 240.451 40.9432C238.908 39.622 237.614 38.1067 236.547 36.3743C235.503 34.665 234.681 32.7386 234.099 30.6182C233.96 30.1146 234.261 29.588 234.769 29.4494C235.277 29.32 235.804 29.6064 235.947 30.1239C236.473 32.0595 237.217 33.815 238.187 35.3857C239.134 36.9333 240.312 38.31 241.689 39.4926Z" fill="#970000"/>
<path d="M447.174 38.3748C446.777 38.0283 446.744 37.4278 447.086 37.0305C447.442 36.6332 448.047 36.6008 448.449 36.9566C457.425 44.944 471.409 36.1804 486.696 26.6084C505.23 14.9945 525.617 2.21634 542.585 15.4333C543.005 15.7567 543.079 16.3573 542.756 16.7777C542.432 17.1888 541.832 17.2627 541.411 16.9394C525.497 4.54005 505.706 16.9486 487.721 28.2207C471.797 38.2039 457.231 47.3232 447.174 38.3748Z" fill="#970000"/>
<path d="M528.131 9.94053C536.917 7.894 542.198 8.97039 544.785 10.9384C546.813 12.4768 547.321 14.551 546.651 16.3157C546.014 18.0389 544.258 19.4156 541.736 19.6373C538.252 19.9514 533.185 18.0389 527.623 11.4881C527.276 11.077 527.331 10.4764 527.729 10.1438C527.849 10.0329 527.987 9.97287 528.131 9.94053ZM543.634 12.4537C541.56 10.883 537.315 10.0237 530.145 11.4558C534.783 16.4774 538.811 17.9927 541.56 17.7478C543.297 17.5861 544.461 16.7269 544.863 15.6597C545.237 14.648 544.896 13.4099 543.63 12.4537H543.634Z" fill="#970000"/>
<path d="M528.291 11.8207C527.76 11.7884 527.363 11.3356 527.395 10.809C527.428 10.2823 527.88 9.88503 528.407 9.91737C530.943 10.0791 533.392 10.6149 535.762 11.5296C538.122 12.4536 540.395 13.7563 542.585 15.4333C543.005 15.7567 543.079 16.3572 542.756 16.7684C542.432 17.1888 541.832 17.2627 541.421 16.9393C539.374 15.3779 537.258 14.1629 535.073 13.3175C532.883 12.4674 530.629 11.9593 528.291 11.8207Z" fill="#970000"/>
<mask id="mask1_35_7557" style="mask-type:luminance" maskUnits="userSpaceOnUse" x="502" y="0" width="15" height="19">
<path d="M502.332 0.03125H516.524V18.8612H502.332V0.03125Z" fill="white"/>
</mask>
<g mask="url(#mask1_35_7557)">
<path d="M503.312 17.2952C503.612 8.33758 506.014 3.5377 508.583 1.56047C510.597 -0.000993133 512.745 0.0544433 514.284 1.15393C515.771 2.20723 516.658 4.24914 516.224 6.74378C515.623 10.1855 512.464 14.5742 504.67 18.2422C504.194 18.4686 503.621 18.2607 503.395 17.7803C503.321 17.6278 503.298 17.4569 503.312 17.2952ZM509.756 3.06649C507.696 4.64643 505.77 8.51775 505.294 15.7984C511.364 12.6293 513.863 9.14141 514.339 6.43426C514.639 4.71111 514.104 3.35754 513.175 2.70154C512.293 2.07788 511.018 2.08712 509.756 3.06649Z" fill="#970000"/>
</g>
<path d="M505.174 17.683C505.003 18.1773 504.463 18.4453 503.959 18.2836C503.46 18.1126 503.192 17.5721 503.363 17.0778C504.024 15.1098 504.971 13.285 506.2 11.6173C507.428 9.94962 508.939 8.43435 510.727 7.06692C511.147 6.74354 511.752 6.83131 512.067 7.25171C512.39 7.65824 512.311 8.2588 511.891 8.58218C510.242 9.84336 508.861 11.2293 507.743 12.7445C506.62 14.2598 505.77 15.909 505.174 17.683Z" fill="#970000"/>
<path d="M485.403 27.417C493.09 22.6956 498.439 22.0396 501.521 23.0791C503.928 23.8968 505.069 25.7031 505.004 27.5972C504.939 29.4173 503.72 31.2883 501.391 32.3093C498.19 33.6952 492.78 33.4919 485.416 29.0385C484.964 28.7706 484.821 28.1792 485.093 27.7265C485.176 27.5972 485.287 27.4909 485.403 27.417ZM500.906 24.8854C498.439 24.0492 494.138 24.5851 487.796 28.2116C493.792 31.5147 498.093 31.6625 500.625 30.5538C502.223 29.8562 503.055 28.6643 503.096 27.5325C503.128 26.4561 502.417 25.4028 500.906 24.8854Z" fill="#970000"/>
<path d="M486.159 29.1448C485.651 29.288 485.125 28.9831 484.981 28.4703C484.852 27.9622 485.157 27.4355 485.66 27.3062C487.55 26.8026 489.476 26.5993 491.44 26.6964C493.403 26.7795 495.376 27.1768 497.381 27.8651C497.889 28.0407 498.147 28.5858 497.972 29.0801C497.81 29.5744 497.261 29.847 496.766 29.6715C494.923 29.0386 493.112 28.6828 491.357 28.5997C489.587 28.5119 487.859 28.6967 486.159 29.1448Z" fill="#970000"/>
<path d="M463.638 38.675C470.226 35.492 473.09 32.2444 473.783 29.7497C474.213 28.2206 473.737 27.0287 472.822 26.4559C471.861 25.8461 470.406 25.8553 468.928 26.7793C466.59 28.2437 464.294 31.8656 463.638 38.675ZM475.627 30.2533C474.753 33.3854 471.205 37.4184 462.992 41.0726C462.848 41.1465 462.687 41.1789 462.516 41.1696C461.989 41.1465 461.587 40.6984 461.61 40.1718C462.072 31.5884 464.964 27.0056 467.916 25.1577C470.074 23.8134 472.305 23.8642 473.857 24.8436C475.451 25.8553 476.306 27.8141 475.627 30.2533Z" fill="#970000"/>
<path d="M463.185 40.9432C462.783 41.2897 462.183 41.2343 461.836 40.837C461.504 40.4397 461.545 39.8345 461.943 39.4926C463.324 38.31 464.497 36.9333 465.458 35.3857C466.419 33.815 467.163 32.0595 467.689 30.1239C467.828 29.6064 468.359 29.32 468.863 29.4494C469.371 29.588 469.676 30.1146 469.533 30.6182C468.951 32.7386 468.142 34.665 467.084 36.3743C466.031 38.1067 464.724 39.622 463.185 40.9432Z" fill="#970000"/>
<path fill-rule="evenodd" clip-rule="evenodd" d="M656.756 29.856C660.742 29.856 663.976 33.0805 663.976 37.0627C663.976 41.0403 660.742 44.2694 656.756 44.2694C652.764 44.2694 649.53 41.0403 649.53 37.0627C649.53 33.0805 652.764 29.856 656.756 29.856Z" fill="#970000"/>
<path fill-rule="evenodd" clip-rule="evenodd" d="M46.8906 29.856C50.882 29.856 54.1158 33.0805 54.1158 37.0627C54.1158 41.0403 50.882 44.2694 46.8906 44.2694C42.9038 44.2694 39.67 41.0403 39.67 37.0627C39.67 33.0805 42.9038 29.856 46.8906 29.856Z" fill="#970000"/>
<path fill-rule="evenodd" clip-rule="evenodd" d="M255.835 29.8145C259.827 29.8145 263.06 33.039 263.06 37.0166C263.06 40.9988 259.827 44.2233 255.835 44.2233C251.835 44.2233 248.601 40.9988 248.601 37.0166C248.601 33.039 251.835 29.8145 255.835 29.8145Z" fill="#970000"/>
<path fill-rule="evenodd" clip-rule="evenodd" d="M447.812 29.8145C451.799 29.8145 455.033 33.039 455.033 37.0166C455.033 40.9988 451.799 44.2233 447.812 44.2233C443.821 44.2233 440.587 40.9988 440.587 37.0166C440.587 33.039 443.821 29.8145 447.812 29.8145Z" fill="#970000"/>
<mask id="mask2_35_7557" style="mask-type:luminance" maskUnits="userSpaceOnUse" x="670" y="33" width="33" height="9">
<path d="M670.269 33.0527H703V41.3313H670.269V33.0527Z" fill="white"/>
</mask>
<g mask="url(#mask2_35_7557)">
<path fill-rule="evenodd" clip-rule="evenodd" d="M670.38 37.0629C677.143 36.7949 691.575 35.4922 697.604 33.1685C699.309 34.3834 701.119 35.6723 703.06 37.0629C701.119 38.4395 699.309 39.7377 697.604 40.9573C691.575 38.6197 677.143 37.3308 670.38 37.0629Z" fill="#970000"/>
</g>
<path fill-rule="evenodd" clip-rule="evenodd" d="M686.812 29.7176C681.647 33.3718 675.471 35.5015 668.292 36.1067C667.871 36.3746 667.677 36.6841 667.687 37.063C667.677 37.4279 667.871 37.7513 668.292 38.0192C675.471 38.6198 681.647 40.7495 686.812 44.4083C685.075 45.6464 683.504 46.7644 682.1 47.7622C680.072 45.614 667.807 38.0192 664.785 38.7723C664.185 38.9247 664.097 39.2666 664.559 39.5253C674.297 44.9673 676.958 49.356 678.058 50.6449C675.073 52.7746 673.572 53.8417 673.572 53.8417C668.754 45.4062 663.15 40.1397 656.756 38.0192C656.756 37.5342 656.756 37.2247 656.756 37.063C656.756 36.9013 656.756 36.5779 656.756 36.1067C663.15 33.977 668.754 28.7059 673.572 20.2842C673.572 20.2842 675.073 21.3513 678.058 23.481C676.958 24.7699 674.297 29.1448 664.559 34.5868C664.097 34.8594 664.185 35.2012 664.785 35.3537C667.807 36.1067 680.072 28.5026 682.1 26.3591C683.504 27.3523 685.075 28.4703 686.812 29.7176Z" fill="#970000"/>
<mask id="mask3_35_7557" style="mask-type:luminance" maskUnits="userSpaceOnUse" x="0" y="33" width="35" height="9">
<path d="M0 33.0527H34.0057V41.3313H0V33.0527Z" fill="white"/>
</mask>
<g mask="url(#mask3_35_7557)">
<path fill-rule="evenodd" clip-rule="evenodd" d="M33.2527 37.0629C26.4941 36.7949 12.0575 35.4922 6.03336 33.1685C4.33793 34.3834 2.51776 35.6723 0.577484 37.0629C2.51776 38.4395 4.33793 39.7377 6.03336 40.9573C12.0575 38.6197 26.4941 37.3308 33.2527 37.0629Z" fill="#970000"/>
</g>
<path fill-rule="evenodd" clip-rule="evenodd" d="M16.825 29.7176C21.9852 33.3718 28.1664 35.5015 35.3546 36.1067C35.7658 36.3746 35.9598 36.6841 35.9506 37.063C35.9598 37.4279 35.7658 37.7513 35.3546 38.0192C28.1664 38.6198 21.9852 40.7495 16.825 44.4083C18.5712 45.6464 20.1327 46.7644 21.5325 47.7622C23.5605 45.614 35.8305 38.0192 38.861 38.7723C39.4523 38.9247 39.5493 39.2666 39.0735 39.5253C29.349 44.9673 26.6788 49.356 25.5793 50.6449C28.5729 52.7746 30.0743 53.8417 30.0743 53.8417C34.8927 45.4062 40.4964 40.1397 46.89 38.0192C46.89 37.5342 46.89 37.2247 46.89 37.063C46.89 36.9013 46.89 36.5779 46.89 36.1067C40.4964 33.977 34.8927 28.7059 30.0743 20.2842C30.0743 20.2842 28.5729 21.3513 25.5793 23.481C26.6788 24.7699 29.349 29.1448 39.0735 34.5868C39.5493 34.8594 39.4523 35.2012 38.861 35.3537C35.8305 36.1067 23.5605 28.5026 21.5325 26.3591C20.1327 27.3523 18.5712 28.4703 16.825 29.7176Z" fill="#970000"/>
<path fill-rule="evenodd" clip-rule="evenodd" d="M74.8442 31.3853C77.9856 31.3853 80.5403 33.9215 80.5403 37.0629C80.5403 40.1904 77.9856 42.7405 74.8442 42.7405C71.6982 42.7405 69.1527 40.1904 69.1527 37.0629C69.1527 33.9215 71.6982 31.3853 74.8442 31.3853Z" fill="#970000"/>
<path fill-rule="evenodd" clip-rule="evenodd" d="M628.798 31.3853C631.939 31.3853 634.494 33.9215 634.494 37.0629C634.494 40.1904 631.939 42.7405 628.798 42.7405C625.652 42.7405 623.106 40.1904 623.106 37.0629C623.106 33.9215 625.652 31.3853 628.798 31.3853Z" fill="#970000"/>
</svg>
