<svg width="704" height="55" viewBox="0 0 704 55" fill="none" xmlns="http://www.w3.org/2000/svg">
<path d="M469.552 15.6577C468.564 15.6577 467.765 16.4615 467.765 17.4548C467.765 18.4434 468.564 19.2472 469.552 19.2472H657.542C658.531 19.2472 659.33 18.4434 659.33 17.4548C659.33 16.4615 658.531 15.6577 657.542 15.6577H469.552Z" fill="#970000"/>
<path d="M47.6769 15.6577C46.6883 15.6577 45.8798 16.4615 45.8798 17.4548C45.8798 18.4434 46.6883 19.2472 47.6769 19.2472H235.038C236.032 19.2472 236.84 18.4434 236.84 17.4548C236.84 16.4615 236.032 15.6577 235.038 15.6577H47.6769Z" fill="#970000"/>
<path fill-rule="evenodd" clip-rule="evenodd" d="M279.092 19.5061C276.943 18.9241 277.396 15.7873 279.909 16.4525C287.195 17.6906 287.185 5.29129 276.546 7.17152C269.529 8.4096 266.064 17.8846 271.446 22.9571C282.473 33.3699 304.394 13.7315 311.467 6.68645C314.16 8.77455 317.652 9.79551 321.944 9.78627C318.858 10.3637 316.091 10.701 313.633 10.7841C304.274 19.2613 282.39 37.2412 269.829 24.2413C263.736 17.9354 268.138 7.23619 276.338 6.21524C290.401 4.45051 291.348 22.3888 279.092 19.5061Z" fill="#970000"/>
<path fill-rule="evenodd" clip-rule="evenodd" d="M339.809 15.3993C341.952 15.9814 341.5 19.1182 338.987 18.453C331.701 17.2149 331.701 29.6188 342.35 27.734C349.372 26.4959 352.818 17.0209 347.45 11.9484C336.423 1.53559 314.507 21.174 307.434 28.219C304.736 26.1448 301.243 25.11 296.952 25.1192C300.029 24.5417 302.796 24.2091 305.267 24.1213C314.613 15.6442 336.51 -2.33573 349.067 10.6687C355.151 16.97 350.762 27.6693 342.548 28.6902C328.5 30.455 327.548 12.5166 339.809 15.3993Z" fill="#970000"/>
<path fill-rule="evenodd" clip-rule="evenodd" d="M365.402 15.3993C363.254 15.9814 363.711 19.1182 366.22 18.453C373.519 17.2149 373.51 29.6188 362.857 27.734C355.839 26.4959 352.388 17.0209 357.77 11.9484C368.788 1.53559 390.713 21.174 397.777 28.219C400.484 26.1448 403.963 25.11 408.254 25.1192C405.182 24.5417 402.411 24.2091 399.953 24.1213C390.598 15.6442 368.701 -2.33573 356.153 10.6687C350.06 16.97 354.458 27.6693 362.663 28.6902C376.72 30.455 377.672 12.5166 365.402 15.3993Z" fill="#970000"/>
<path fill-rule="evenodd" clip-rule="evenodd" d="M426.128 19.5061C428.276 18.9241 427.824 15.7873 425.311 16.4525C418.011 17.6906 418.025 5.29129 428.674 7.17152C435.691 8.4096 439.142 17.8846 433.765 22.9571C422.747 33.3699 400.817 13.7315 393.744 6.68645C391.051 8.77455 387.568 9.79551 383.276 9.78627C386.348 10.3637 389.12 10.701 391.577 10.7841C400.937 19.2613 422.83 37.2412 435.382 24.2413C441.47 17.9354 437.072 7.23619 428.868 6.21524C414.81 4.45051 413.863 22.3888 426.128 19.5061Z" fill="#970000"/>
<path d="M255.984 17.5612C256.372 17.9169 256.977 17.8707 257.333 17.4873C257.679 17.0854 257.647 16.4848 257.259 16.1291C247.202 7.19457 232.636 16.3139 216.712 26.2924C198.718 37.5645 178.936 49.9638 163.012 37.5738C162.592 37.2504 162.001 37.3289 161.677 37.7355C161.349 38.1559 161.414 38.7472 161.839 39.0706C178.816 52.2968 199.203 39.5233 217.723 27.9047C233.01 18.3235 246.994 9.5691 255.984 17.5612Z" fill="#970000"/>
<path d="M174.279 43.0618C167.119 44.4893 162.86 43.63 160.799 42.0593C159.529 41.0938 159.182 39.8649 159.561 38.8532C159.958 37.7907 161.136 36.9175 162.86 36.7697C165.622 36.5203 169.641 38.0263 174.279 43.0618ZM159.635 43.5745C162.236 45.5425 167.507 46.6189 176.294 44.577C176.432 44.5447 176.575 44.4708 176.691 44.3738C177.102 44.0273 177.144 43.4267 176.811 43.0294C171.235 36.4787 166.172 34.5615 162.698 34.8756C160.166 35.102 158.406 36.4787 157.773 38.188C157.113 39.9619 157.621 42.0362 159.635 43.5745Z" fill="#970000"/>
<path d="M176.027 44.5951C176.553 44.6275 177.006 44.2209 177.029 43.6943C177.061 43.1769 176.66 42.7242 176.133 42.6918C173.805 42.544 171.541 42.0497 169.36 41.1996C167.161 40.3496 165.05 39.1346 163.013 37.5639C162.593 37.2498 161.987 37.3283 161.664 37.7349C161.341 38.1553 161.428 38.7558 161.84 39.0792C164.039 40.7562 166.311 42.0589 168.663 42.9736C171.033 43.8976 173.481 44.4381 176.027 44.5951Z" fill="#970000"/>
<mask id="mask0_35_7703" style="mask-type:luminance" maskUnits="userSpaceOnUse" x="187" y="35" width="15" height="20">
<path d="M187.353 35.6333H201.545V54.491H187.353V35.6333Z" fill="white"/>
</mask>
<g mask="url(#mask0_35_7703)">
<path d="M199.129 38.715C198.663 45.9864 196.722 49.8669 194.676 51.4469C193.415 52.417 192.13 52.4401 191.248 51.8165C190.32 51.1466 189.793 49.8023 190.084 48.0837C190.555 45.372 193.059 41.8887 199.129 38.715ZM195.84 52.9529C198.418 50.9757 200.811 46.1804 201.111 37.2182C201.12 37.0611 201.102 36.8856 201.023 36.7239C200.797 36.2527 200.229 36.0494 199.753 36.2758C191.96 39.9392 188.8 44.3279 188.194 47.7604C187.765 50.255 188.647 52.3108 190.149 53.3641C191.687 54.4589 193.826 54.5051 195.84 52.9529Z" fill="#970000"/>
</g>
<path d="M201.069 37.435C201.231 36.9407 200.958 36.4048 200.464 36.2292C199.969 36.0676 199.42 36.3401 199.258 36.8344C198.653 38.6084 197.803 40.253 196.68 41.7683C195.571 43.2835 194.181 44.6741 192.541 45.9306C192.12 46.254 192.033 46.8453 192.356 47.2657C192.679 47.6861 193.275 47.7693 193.696 47.4459C195.493 46.0831 197.004 44.554 198.232 42.9001C199.461 41.2185 200.408 39.403 201.069 37.435Z" fill="#970000"/>
<path d="M216.625 26.3017C210.287 29.9282 205.986 30.4549 203.528 29.6279C202.017 29.1105 201.297 28.0572 201.329 26.9808C201.37 25.8398 202.202 24.6479 203.796 23.9595C206.332 22.8508 210.633 23.0033 216.625 26.3017ZM202.913 31.4342C205.995 32.4783 211.344 31.8223 219.018 27.1009C219.138 27.0224 219.258 26.9162 219.332 26.7776C219.6 26.3341 219.461 25.7428 219.009 25.4748C211.645 21.0214 206.235 20.8089 203.029 22.2087C200.714 23.2296 199.486 25.0868 199.421 26.9162C199.366 28.8102 200.497 30.6165 202.913 31.4342Z" fill="#970000"/>
<path d="M218.758 27.2069C219.276 27.0776 219.581 26.5509 219.438 26.0474C219.299 25.53 218.782 25.2297 218.264 25.3683C216.573 25.821 214.836 26.0012 213.076 25.918C211.312 25.8302 209.51 25.4745 207.667 24.8416C207.158 24.6707 206.623 24.9294 206.447 25.4329C206.276 25.9273 206.544 26.477 207.043 26.6479C209.048 27.3363 211.03 27.7243 212.979 27.8213C214.943 27.9183 216.874 27.7105 218.758 27.2069Z" fill="#970000"/>
<path d="M241.432 13.4404C233.227 17.0992 229.67 21.1322 228.806 24.2505C228.118 26.7035 228.982 28.6577 230.576 29.6694C232.119 30.6488 234.359 30.6903 236.507 29.346C239.468 27.5074 242.347 22.9246 242.813 14.3458C242.845 13.8192 242.434 13.3664 241.908 13.3433C241.746 13.3341 241.584 13.3664 241.432 13.4404ZM230.64 24.7679C231.342 22.2686 234.207 19.021 240.785 15.838C240.129 22.6382 237.842 26.2739 235.491 27.7337C234.026 28.6484 232.557 28.6715 231.601 28.0571C230.682 27.4889 230.22 26.2924 230.64 24.7679Z" fill="#970000"/>
<path d="M242.476 15.0202C242.878 14.6783 242.928 14.0778 242.586 13.6759C242.24 13.2693 241.635 13.2278 241.238 13.5696C239.695 14.8908 238.401 16.4107 237.334 18.1431C236.29 19.8524 235.468 21.765 234.885 23.8947C234.747 24.3982 235.047 24.9295 235.555 25.0542C236.063 25.1974 236.59 24.8971 236.733 24.389C237.26 22.4533 238.004 20.7024 238.974 19.1317C239.921 17.5703 241.099 16.2028 242.476 15.0202Z" fill="#970000"/>
<path d="M447.961 16.1291C447.563 16.4848 447.531 17.0854 447.873 17.4873C448.229 17.8707 448.834 17.9169 449.236 17.5612C458.212 9.5691 472.196 18.3235 487.482 27.9047C506.016 39.5233 526.403 52.2968 543.371 39.0706C543.792 38.7472 543.866 38.1559 543.542 37.7355C543.219 37.3289 542.618 37.2504 542.198 37.5738C526.283 49.9638 506.492 37.5645 488.508 26.2924C472.584 16.3139 458.018 7.19457 447.961 16.1291Z" fill="#970000"/>
<path d="M528.917 44.577C537.704 46.6189 542.984 45.5425 545.571 43.5745C547.599 42.0362 548.108 39.9619 547.438 38.188C546.8 36.4787 545.045 35.102 542.522 34.8756C539.039 34.5615 533.971 36.4787 528.409 43.0294C528.063 43.4267 528.118 44.0273 528.515 44.3738C528.635 44.4708 528.774 44.5447 528.917 44.577ZM544.421 42.0593C542.347 43.63 538.101 44.4893 530.931 43.0618C535.57 38.0263 539.598 36.5203 542.347 36.7697C544.084 36.9175 545.248 37.7907 545.65 38.8532C546.024 39.8649 545.682 41.0938 544.416 42.0593H544.421Z" fill="#970000"/>
<path d="M529.078 42.6918C528.547 42.7242 528.149 43.1769 528.182 43.6943C528.214 44.2209 528.667 44.6275 529.194 44.5951C531.73 44.4381 534.178 43.8976 536.548 42.9736C538.909 42.0589 541.182 40.7562 543.371 39.0792C543.792 38.7558 543.866 38.1553 543.542 37.7349C543.219 37.3283 542.618 37.2498 542.207 37.5639C540.161 39.1346 538.045 40.3496 535.86 41.1996C533.67 42.0497 531.416 42.544 529.078 42.6918Z" fill="#970000"/>
<mask id="mask1_35_7703" style="mask-type:luminance" maskUnits="userSpaceOnUse" x="503" y="35" width="15" height="20">
<path d="M503.119 35.6333H517.31V54.491H503.119V35.6333Z" fill="white"/>
</mask>
<g mask="url(#mask1_35_7703)">
<path d="M504.099 37.2182C504.399 46.1804 506.801 50.9757 509.37 52.9529C511.384 54.5051 513.532 54.4589 515.07 53.3641C516.558 52.3108 517.445 50.255 517.011 47.7604C516.41 44.3279 513.25 39.9392 505.457 36.2758C504.981 36.0494 504.408 36.2527 504.182 36.7239C504.108 36.8856 504.085 37.0611 504.099 37.2182ZM510.543 51.4469C508.483 49.8669 506.556 45.9864 506.08 38.715C512.151 41.8887 514.65 45.372 515.126 48.0837C515.426 49.8023 514.89 51.1466 513.962 51.8165C513.079 52.4401 511.804 52.417 510.543 51.4469Z" fill="#970000"/>
</g>
<path d="M505.961 36.8344C505.79 36.3401 505.249 36.0676 504.746 36.2292C504.247 36.4048 503.979 36.9407 504.15 37.435C504.81 39.403 505.757 41.2185 506.986 42.9001C508.215 44.554 509.726 46.0831 511.513 47.4459C511.934 47.7693 512.539 47.6861 512.853 47.2657C513.177 46.8453 513.098 46.254 512.678 45.9306C511.028 44.6741 509.647 43.2835 508.529 41.7683C507.406 40.253 506.556 38.6084 505.961 36.8344Z" fill="#970000"/>
<path d="M486.189 27.1009C493.876 31.8223 499.226 32.4783 502.307 31.4342C504.714 30.6165 505.855 28.8102 505.791 26.9162C505.726 25.0868 504.506 23.2296 502.178 22.2087C498.977 20.8089 493.567 21.0214 486.203 25.4748C485.75 25.7428 485.607 26.3341 485.88 26.7776C485.963 26.9162 486.074 27.0224 486.189 27.1009ZM501.693 29.6279C499.226 30.4549 494.925 29.9282 488.582 26.3017C494.579 23.0033 498.88 22.8508 501.411 23.9595C503.01 24.6479 503.841 25.8398 503.883 26.9808C503.915 28.0572 503.204 29.1105 501.693 29.6279Z" fill="#970000"/>
<path d="M486.946 25.3683C486.438 25.2297 485.911 25.53 485.768 26.0474C485.639 26.5509 485.943 27.0776 486.447 27.2069C488.336 27.7105 490.263 27.9183 492.226 27.8213C494.19 27.7243 496.162 27.3363 498.167 26.6479C498.675 26.477 498.934 25.9273 498.759 25.4329C498.597 24.9294 498.047 24.6707 497.553 24.8416C495.71 25.4745 493.899 25.8302 492.143 25.918C490.374 26.0012 488.646 25.821 486.946 25.3683Z" fill="#970000"/>
<path d="M464.425 15.838C471.013 19.021 473.877 22.2686 474.57 24.7679C474.999 26.2924 474.524 27.4889 473.609 28.0571C472.648 28.6715 471.193 28.6484 469.715 27.7337C467.377 26.2739 465.081 22.6382 464.425 15.838ZM476.413 24.2505C475.54 21.1322 471.992 17.0992 463.778 13.4404C463.635 13.3664 463.473 13.3341 463.302 13.3433C462.776 13.3664 462.374 13.8192 462.397 14.3458C462.859 22.9246 465.751 27.5074 468.703 29.346C470.86 30.6903 473.092 30.6488 474.644 29.6694C476.238 28.6577 477.092 26.7035 476.413 24.2505Z" fill="#970000"/>
<path d="M463.972 13.5696C463.57 13.2278 462.969 13.2693 462.623 13.6759C462.29 14.0778 462.332 14.6783 462.729 15.0202C464.11 16.2028 465.284 17.5703 466.245 19.1317C467.206 20.7024 467.949 22.4533 468.476 24.389C468.615 24.8971 469.146 25.1974 469.649 25.0542C470.158 24.9295 470.462 24.3982 470.319 23.8947C469.737 21.765 468.929 19.8524 467.871 18.1431C466.818 16.4107 465.51 14.8908 463.972 13.5696Z" fill="#970000"/>
<path fill-rule="evenodd" clip-rule="evenodd" d="M657.542 24.6569C661.529 24.6569 664.763 21.4324 664.763 17.4548C664.763 13.4726 661.529 10.248 657.542 10.248C653.551 10.248 650.317 13.4726 650.317 17.4548C650.317 21.4324 653.551 24.6569 657.542 24.6569Z" fill="#970000"/>
<path fill-rule="evenodd" clip-rule="evenodd" d="M47.6772 24.6569C51.6686 24.6569 54.9024 21.4324 54.9024 17.4548C54.9024 13.4726 51.6686 10.248 47.6772 10.248C43.6904 10.248 40.4566 13.4726 40.4566 17.4548C40.4566 21.4324 43.6904 24.6569 47.6772 24.6569Z" fill="#970000"/>
<path fill-rule="evenodd" clip-rule="evenodd" d="M256.622 24.703C260.613 24.703 263.847 21.4739 263.847 17.4963C263.847 13.5141 260.613 10.2896 256.622 10.2896C252.621 10.2896 249.387 13.5141 249.387 17.4963C249.387 21.4739 252.621 24.703 256.622 24.703Z" fill="#970000"/>
<path fill-rule="evenodd" clip-rule="evenodd" d="M448.599 24.703C452.585 24.703 455.819 21.4739 455.819 17.4963C455.819 13.5141 452.585 10.2896 448.599 10.2896C444.607 10.2896 441.373 13.5141 441.373 17.4963C441.373 21.4739 444.607 24.703 448.599 24.703Z" fill="#970000"/>
<mask id="mask2_35_7703" style="mask-type:luminance" maskUnits="userSpaceOnUse" x="671" y="13" width="33" height="9">
<path d="M671.056 13.1631H703.787V21.4416H671.056V13.1631Z" fill="white"/>
</mask>
<g mask="url(#mask2_35_7703)">
<path fill-rule="evenodd" clip-rule="evenodd" d="M671.166 17.4545C677.93 17.7224 692.362 19.0206 698.39 21.3443C700.095 20.1293 701.906 18.8404 703.846 17.4545C701.906 16.0778 700.095 14.775 698.39 13.5601C692.362 15.8838 677.93 17.1819 671.166 17.4545Z" fill="#970000"/>
</g>
<path fill-rule="evenodd" clip-rule="evenodd" d="M687.599 24.7999C682.434 21.1411 676.257 19.0114 669.078 18.4108C668.658 18.1429 668.464 17.8195 668.473 17.4546C668.464 17.085 668.658 16.7662 669.078 16.4937C676.257 15.8931 682.434 13.7634 687.599 10.1046C685.862 8.87115 684.291 7.75317 682.887 6.7507C680.859 8.88962 668.593 16.4937 665.572 15.7407C664.971 15.5928 664.884 15.2463 665.346 14.9876C675.084 9.53638 677.745 5.16152 678.844 3.868C675.86 1.73831 674.359 0.675781 674.359 0.675781C669.54 9.09751 663.937 14.3778 657.543 16.4937C657.543 16.9695 657.543 17.2929 657.543 17.4546C657.543 17.6116 657.543 17.935 657.543 18.4108C663.937 20.5267 669.54 25.807 674.359 34.2287C674.359 34.2287 675.86 33.1662 678.844 31.0365C677.745 29.743 675.084 25.3681 665.346 19.9169C664.884 19.6582 664.971 19.3117 665.572 19.1639C668.593 18.4108 680.859 26.0149 682.887 28.1538C684.291 27.1513 685.862 26.0334 687.599 24.7999Z" fill="#970000"/>
<mask id="mask3_35_7703" style="mask-type:luminance" maskUnits="userSpaceOnUse" x="0" y="13" width="35" height="9">
<path d="M0.78656 13.1631H34.7922V21.4416H0.78656V13.1631Z" fill="white"/>
</mask>
<g mask="url(#mask3_35_7703)">
<path fill-rule="evenodd" clip-rule="evenodd" d="M34.0392 17.4545C27.2806 17.7224 12.844 19.0206 6.81992 21.3443C5.12449 20.1293 3.30432 18.8404 1.36404 17.4545C3.30432 16.0778 5.12449 14.775 6.81992 13.5601C12.844 15.8838 27.2806 17.1819 34.0392 17.4545Z" fill="#970000"/>
</g>
<path fill-rule="evenodd" clip-rule="evenodd" d="M17.6115 24.7999C22.7718 21.1411 28.9529 19.0114 36.1412 18.4108C36.5523 18.1429 36.7464 17.8195 36.7371 17.4546C36.7464 17.085 36.5523 16.7662 36.1412 16.4937C28.9529 15.8931 22.7718 13.7634 17.6115 10.1046C19.3578 8.87115 20.9193 7.75317 22.319 6.7507C24.3471 8.88962 36.617 16.4937 39.6476 15.7407C40.2389 15.5928 40.3359 15.2463 39.8601 14.9876C30.1356 9.53638 27.4654 5.16152 26.3659 3.868C29.3595 1.73831 30.8609 0.675781 30.8609 0.675781C35.6792 9.09751 41.2829 14.3778 47.6766 16.4937C47.6766 16.9695 47.6766 17.2929 47.6766 17.4546C47.6766 17.6116 47.6766 17.935 47.6766 18.4108C41.2829 20.5267 35.6792 25.807 30.8609 34.2287C30.8609 34.2287 29.3595 33.1662 26.3659 31.0365C27.4654 29.743 30.1356 25.3681 39.8601 19.9169C40.3359 19.6582 40.2389 19.3117 39.6476 19.1639C36.617 18.4108 24.3471 26.0149 22.319 28.1538C20.9193 27.1513 19.3578 26.0334 17.6115 24.7999Z" fill="#970000"/>
<path fill-rule="evenodd" clip-rule="evenodd" d="M75.6308 23.1323C78.7722 23.1323 81.3269 20.5915 81.3269 17.4547C81.3269 14.3133 78.7722 11.7725 75.6308 11.7725C72.4847 11.7725 69.9393 14.3133 69.9393 17.4547C69.9393 20.5915 72.4847 23.1323 75.6308 23.1323Z" fill="#970000"/>
<path fill-rule="evenodd" clip-rule="evenodd" d="M629.584 23.1323C632.726 23.1323 635.28 20.5915 635.28 17.4547C635.28 14.3133 632.726 11.7725 629.584 11.7725C626.438 11.7725 623.893 14.3133 623.893 17.4547C623.893 20.5915 626.438 23.1323 629.584 23.1323Z" fill="#970000"/>
</svg>
