<svg width="296" height="64" viewBox="0 0 296 64" fill="none" xmlns="http://www.w3.org/2000/svg">
<mask id="mask0_248_10409" style="mask-type:luminance" maskUnits="userSpaceOnUse" x="0" y="0" width="296" height="64">
<path d="M0.506958 0.0367432H295.507V63.9632H0.506958V0.0367432Z" fill="white"/>
</mask>
<g mask="url(#mask0_248_10409)">
<path d="M295.231 32.3826C295.196 32.45 283.358 55.263 271.762 50.2707C270.962 55.7585 267.858 71.5578 259.968 58.5251H36.0612C28.1715 71.5578 25.0699 55.7565 24.2672 50.2707C12.6714 55.263 0.833873 32.45 0.7982 32.3826L0.50885 31.8296L0.7982 31.2767C0.833873 31.2073 12.6714 8.39429 24.2672 13.3886C25.0679 7.90082 28.1715 -7.89847 36.0612 5.13217H259.968C267.858 -7.89847 270.962 7.90082 271.762 13.3886C283.358 8.39429 295.196 31.2073 295.231 31.2767L295.523 31.8296L295.231 32.3826ZM271.465 47.4109C280.423 53.3783 290.945 35.2642 292.831 31.8296C290.945 28.3951 280.423 10.281 271.465 16.2464L269.834 17.3344L269.624 15.3823C269.618 15.3288 267.684 -3.48688 261.671 6.91782L261.326 7.51237H34.7036L34.3588 6.91782C28.3459 -3.48688 26.4116 15.3288 26.4057 15.3823L26.1956 17.3344L24.5645 16.2464C15.6066 10.281 5.08494 28.3951 3.19822 31.8296C5.08494 35.2642 15.6066 53.3783 24.5645 47.4109L26.1956 46.3249L26.4057 48.275C26.4116 48.3285 28.3459 67.1462 34.3588 56.7415L34.7036 56.1469C110.244 56.1469 185.786 56.1548 261.326 56.1469L261.671 56.7415C267.684 67.1462 269.618 48.3285 269.624 48.275L269.834 46.3249L271.465 47.4109Z" fill="#B3B3B3"/>
<path d="M103.94 37.0367H100.572L95.5812 23.6774H99.3385L103.04 34.4298L106.389 23.6774H108.672L103.94 37.0367ZM111.733 31.9528C112.116 32.0393 112.5 32.1074 112.883 32.1569C113.267 32.2063 113.653 32.2311 114.043 32.2311C114.451 32.2311 114.829 32.194 115.175 32.1198C115.527 32.0393 115.831 31.9095 116.084 31.7301C116.344 31.5446 116.548 31.3003 116.696 30.9972C116.845 30.6941 116.919 30.3169 116.919 29.8654C116.919 29.5004 116.87 29.1665 116.771 28.8634C116.672 28.5603 116.523 28.3006 116.325 28.0841C116.134 27.8676 115.895 27.7006 115.611 27.5831C115.326 27.4594 114.996 27.3976 114.618 27.3976C114.266 27.3976 113.947 27.4625 113.663 27.5924C113.384 27.7223 113.137 27.8986 112.921 28.1212C112.71 28.3377 112.528 28.5913 112.373 28.882C112.225 29.1726 112.101 29.4757 112.002 29.7911C111.903 30.1066 111.832 30.4251 111.789 30.7467C111.745 31.0683 111.724 31.3714 111.724 31.6559C111.724 31.7054 111.724 31.7548 111.724 31.8043C111.724 31.8538 111.727 31.9033 111.733 31.9528ZM119.461 29.8375C119.461 30.2767 119.39 30.6694 119.248 31.0157C119.105 31.3559 118.911 31.6559 118.663 31.9156C118.422 32.1754 118.141 32.395 117.819 32.5743C117.497 32.7537 117.154 32.9021 116.789 33.0197C116.424 33.131 116.047 33.2114 115.657 33.2609C115.274 33.3103 114.9 33.3351 114.535 33.3351C114.071 33.3351 113.613 33.3042 113.162 33.2423C112.71 33.1743 112.265 33.0691 111.826 32.9269C111.894 33.3351 112.002 33.7247 112.151 34.0958C112.299 34.4607 112.497 34.7823 112.744 35.0607C112.992 35.3328 113.295 35.5493 113.653 35.7101C114.018 35.8709 114.448 35.9513 114.943 35.9513C115.271 35.9513 115.583 35.9018 115.88 35.8029C116.177 35.7039 116.449 35.5647 116.696 35.3854C116.944 35.206 117.16 34.9926 117.346 34.7452C117.538 34.4978 117.692 34.2226 117.81 33.9196L119.164 34.4205C118.96 34.9091 118.679 35.3328 118.32 35.6915C117.967 36.0441 117.565 36.3378 117.114 36.5729C116.669 36.8017 116.192 36.9718 115.685 37.0831C115.184 37.1945 114.686 37.2501 114.192 37.2501C113.375 37.2501 112.621 37.1141 111.928 36.8419C111.235 36.5636 110.638 36.177 110.137 35.6823C109.636 35.1875 109.244 34.5968 108.959 33.9103C108.675 33.2238 108.532 32.4723 108.532 31.6559C108.532 30.8395 108.675 30.088 108.959 29.4015C109.244 28.715 109.636 28.1243 110.137 27.6295C110.638 27.1347 111.235 26.7513 111.928 26.4791C112.621 26.2008 113.375 26.0616 114.192 26.0616C114.587 26.0616 114.992 26.0895 115.407 26.1451C115.821 26.2008 116.223 26.2905 116.613 26.4142C117.003 26.5317 117.371 26.6863 117.717 26.8781C118.063 27.0698 118.363 27.3079 118.617 27.5924C118.877 27.8707 119.081 28.1954 119.229 28.5665C119.384 28.9376 119.461 29.3613 119.461 29.8375ZM132.208 35.7472C132.208 36.6007 132.081 37.4047 131.828 38.1593C131.574 38.9139 131.206 39.5726 130.724 40.1354C130.241 40.7044 129.648 41.1528 128.943 41.4806C128.244 41.8146 127.446 41.9816 126.549 41.9816C126.054 41.9816 125.553 41.9259 125.046 41.8146C124.545 41.7032 124.069 41.5301 123.617 41.295C123.172 41.0662 122.77 40.7724 122.411 40.4137C122.059 40.0612 121.78 39.6437 121.576 39.1613L122.931 38.651C123.048 38.9541 123.2 39.2324 123.385 39.486C123.577 39.7395 123.797 39.956 124.044 40.1354C124.291 40.3209 124.564 40.4632 124.86 40.5621C125.157 40.6673 125.47 40.7198 125.797 40.7198C126.416 40.7198 126.932 40.5931 127.347 40.3395C127.767 40.0859 128.104 39.755 128.358 39.3468C128.612 38.9386 128.794 38.4747 128.905 37.9552C129.017 37.4419 129.072 36.9192 129.072 36.3873V35.7565C128.701 36.2636 128.253 36.6409 127.727 36.8883C127.208 37.1295 126.636 37.2501 126.011 37.2501C125.194 37.2501 124.465 37.1048 123.821 36.8141C123.178 36.5234 122.634 36.1276 122.189 35.6266C121.743 35.1194 121.403 34.5257 121.168 33.8453C120.933 33.165 120.816 32.4352 120.816 31.6559C120.816 30.8766 120.933 30.1468 121.168 29.4664C121.403 28.7861 121.743 28.1954 122.189 27.6945C122.634 27.1873 123.178 26.7884 123.821 26.4977C124.465 26.207 125.194 26.0616 126.011 26.0616C126.425 26.0616 126.818 26.1235 127.189 26.2472C127.566 26.3709 127.91 26.5472 128.219 26.776C128.534 26.9987 128.81 27.2708 129.045 27.5924C129.286 27.9078 129.474 28.2604 129.61 28.65L131.002 26.3214H132.208V35.7472ZM129.054 31.6559C129.054 31.3776 129.038 31.0838 129.007 30.7745C128.983 30.4653 128.936 30.1591 128.868 29.8561C128.8 29.553 128.704 29.2654 128.581 28.9933C128.463 28.715 128.309 28.4707 128.117 28.2604C127.931 28.0439 127.706 27.8738 127.44 27.7501C127.174 27.6264 126.864 27.5646 126.512 27.5646C126.159 27.5646 125.853 27.6295 125.593 27.7594C125.334 27.8831 125.111 28.0532 124.925 28.2697C124.74 28.4799 124.585 28.7242 124.462 29.0026C124.344 29.2809 124.251 29.5716 124.183 29.8746C124.115 30.1777 124.066 30.4838 124.035 30.7931C124.01 31.0962 123.998 31.3837 123.998 31.6559C123.998 31.928 124.01 32.2187 124.035 32.528C124.066 32.8372 124.115 33.1434 124.183 33.4464C124.251 33.7495 124.344 34.0402 124.462 34.3185C124.585 34.5968 124.74 34.8442 124.925 35.0607C125.111 35.271 125.334 35.441 125.593 35.5709C125.853 35.6946 126.159 35.7565 126.512 35.7565C126.833 35.7565 127.118 35.6915 127.365 35.5616C127.619 35.4256 127.839 35.2462 128.024 35.0236C128.216 34.8009 128.377 34.5473 128.506 34.2628C128.636 33.9783 128.741 33.6845 128.822 33.3815C128.902 33.0784 128.961 32.7784 128.998 32.4816C129.035 32.1785 129.054 31.9033 129.054 31.6559ZM137.413 31.9528C137.796 32.0393 138.18 32.1074 138.563 32.1569C138.947 32.2063 139.333 32.2311 139.723 32.2311C140.131 32.2311 140.508 32.194 140.855 32.1198C141.207 32.0393 141.51 31.9095 141.764 31.7301C142.024 31.5446 142.228 31.3003 142.376 30.9972C142.525 30.6941 142.599 30.3169 142.599 29.8654C142.599 29.5004 142.549 29.1665 142.45 28.8634C142.351 28.5603 142.203 28.3006 142.005 28.0841C141.813 27.8676 141.575 27.7006 141.291 27.5831C141.006 27.4594 140.675 27.3976 140.298 27.3976C139.945 27.3976 139.627 27.4625 139.342 27.5924C139.064 27.7223 138.817 27.8986 138.6 28.1212C138.39 28.3377 138.207 28.5913 138.053 28.882C137.904 29.1726 137.781 29.4757 137.682 29.7911C137.583 30.1066 137.512 30.4251 137.468 30.7467C137.425 31.0683 137.403 31.3714 137.403 31.6559C137.403 31.7054 137.403 31.7548 137.403 31.8043C137.403 31.8538 137.407 31.9033 137.413 31.9528ZM145.141 29.8375C145.141 30.2767 145.07 30.6694 144.927 31.0157C144.785 31.3559 144.59 31.6559 144.343 31.9156C144.102 32.1754 143.82 32.395 143.499 32.5743C143.177 32.7537 142.834 32.9021 142.469 33.0197C142.104 33.131 141.727 33.2114 141.337 33.2609C140.954 33.3103 140.579 33.3351 140.214 33.3351C139.751 33.3351 139.293 33.3042 138.841 33.2423C138.39 33.1743 137.945 33.0691 137.505 32.9269C137.574 33.3351 137.682 33.7247 137.83 34.0958C137.979 34.4607 138.177 34.7823 138.424 35.0607C138.671 35.3328 138.974 35.5493 139.333 35.7101C139.698 35.8709 140.128 35.9513 140.623 35.9513C140.95 35.9513 141.263 35.9018 141.56 35.8029C141.857 35.7039 142.129 35.5647 142.376 35.3854C142.623 35.206 142.84 34.9926 143.026 34.7452C143.217 34.4978 143.372 34.2226 143.489 33.9196L144.844 34.4205C144.64 34.9091 144.358 35.3328 144 35.6915C143.647 36.0441 143.245 36.3378 142.794 36.5729C142.348 36.8017 141.872 36.9718 141.365 37.0831C140.864 37.1945 140.366 37.2501 139.871 37.2501C139.055 37.2501 138.3 37.1141 137.608 36.8419C136.915 36.5636 136.318 36.177 135.817 35.6823C135.316 35.1875 134.923 34.5968 134.639 33.9103C134.354 33.2238 134.212 32.4723 134.212 31.6559C134.212 30.8395 134.354 30.088 134.639 29.4015C134.923 28.715 135.316 28.1243 135.817 27.6295C136.318 27.1347 136.915 26.7513 137.608 26.4791C138.3 26.2008 139.055 26.0616 139.871 26.0616C140.267 26.0616 140.672 26.0895 141.087 26.1451C141.501 26.2008 141.903 26.2905 142.293 26.4142C142.682 26.5317 143.05 26.6863 143.397 26.8781C143.743 27.0698 144.043 27.3079 144.297 27.5924C144.556 27.8707 144.76 28.1954 144.909 28.5665C145.063 28.9376 145.141 29.3613 145.141 29.8375ZM151.134 37.0367H147.989V27.5646H146.041V26.3214H147.989V22.3785H151.134V26.3214H154.381V27.5646H151.134V37.0367ZM166.275 37.0367H163.139V35.7565C162.768 36.2636 162.319 36.6409 161.794 36.8883C161.274 37.1295 160.702 37.2501 160.077 37.2501C159.261 37.2501 158.531 37.1048 157.888 36.8141C157.245 36.5234 156.7 36.1276 156.255 35.6266C155.81 35.1194 155.47 34.5257 155.234 33.8453C154.999 33.165 154.882 32.4352 154.882 31.6559C154.882 30.8766 154.999 30.1468 155.234 29.4664C155.47 28.7861 155.81 28.1954 156.255 27.6945C156.7 27.1873 157.245 26.7884 157.888 26.4977C158.531 26.207 159.261 26.0616 160.077 26.0616C160.492 26.0616 160.884 26.1235 161.255 26.2472C161.633 26.3709 161.976 26.5472 162.285 26.776C162.601 26.9987 162.876 27.2708 163.111 27.5924C163.352 27.9078 163.541 28.2604 163.677 28.65L165.068 26.3214H166.275V37.0367ZM163.12 31.6559C163.12 31.3776 163.105 31.0838 163.074 30.7745C163.049 30.4653 163.003 30.1591 162.935 29.8561C162.867 29.553 162.771 29.2654 162.647 28.9933C162.53 28.715 162.375 28.4707 162.183 28.2604C161.998 28.0439 161.772 27.8738 161.506 27.7501C161.24 27.6264 160.931 27.5646 160.578 27.5646C160.226 27.5646 159.92 27.6295 159.66 27.7594C159.4 27.8831 159.177 28.0532 158.992 28.2697C158.806 28.4799 158.652 28.7242 158.528 29.0026C158.41 29.2809 158.318 29.5716 158.25 29.8746C158.182 30.1777 158.132 30.4838 158.101 30.7931C158.076 31.0962 158.064 31.3837 158.064 31.6559C158.064 31.928 158.076 32.2187 158.101 32.528C158.132 32.8372 158.182 33.1434 158.25 33.4464C158.318 33.7495 158.41 34.0402 158.528 34.3185C158.652 34.5968 158.806 34.8442 158.992 35.0607C159.177 35.271 159.4 35.441 159.66 35.5709C159.92 35.6946 160.226 35.7565 160.578 35.7565C160.9 35.7565 161.184 35.6915 161.432 35.5616C161.685 35.4256 161.905 35.2462 162.09 35.0236C162.282 34.8009 162.443 34.5473 162.573 34.2628C162.703 33.9783 162.808 33.6845 162.888 33.3815C162.969 33.0784 163.027 32.7784 163.065 32.4816C163.102 32.1785 163.12 31.9033 163.12 31.6559ZM180.293 31.693C180.293 32.4723 180.175 33.2021 179.94 33.8824C179.705 34.5628 179.365 35.1565 178.92 35.6637C178.474 36.1647 177.93 36.5605 177.287 36.8512C176.644 37.1419 175.914 37.2872 175.097 37.2872C174.683 37.2872 174.287 37.2254 173.91 37.1017C173.539 36.978 173.195 36.8048 172.88 36.5822C172.571 36.3533 172.296 36.0812 172.054 35.7657C171.819 35.4503 171.634 35.0978 171.498 34.7081L170.106 37.0367H168.9V22.3785H172.036V27.6017C172.407 27.0883 172.852 26.7111 173.372 26.4698C173.897 26.2286 174.473 26.108 175.097 26.108C175.914 26.108 176.644 26.2534 177.287 26.5441C177.93 26.8348 178.474 27.2306 178.92 27.7316C179.365 28.2325 179.705 28.8232 179.94 29.5035C180.175 30.1839 180.293 30.9137 180.293 31.693ZM177.11 31.693C177.11 31.4209 177.095 31.1333 177.064 30.8302C177.039 30.521 176.993 30.2148 176.925 29.9117C176.857 29.6087 176.761 29.318 176.637 29.0397C176.52 28.7614 176.368 28.517 176.183 28.3068C175.997 28.0903 175.775 27.9202 175.515 27.7965C175.255 27.6666 174.949 27.6017 174.596 27.6017C174.275 27.6017 173.987 27.6697 173.734 27.8058C173.486 27.9357 173.267 28.1119 173.075 28.3346C172.889 28.5573 172.732 28.8108 172.602 29.0953C172.472 29.3798 172.367 29.6736 172.286 29.9767C172.206 30.2797 172.147 30.5797 172.11 30.8766C172.073 31.1735 172.054 31.4456 172.054 31.693C172.054 31.9713 172.067 32.2651 172.091 32.5743C172.122 32.8836 172.172 33.1928 172.24 33.5021C172.308 33.8051 172.401 34.0958 172.518 34.3741C172.642 34.6463 172.797 34.8906 172.982 35.1071C173.174 35.3173 173.4 35.4843 173.659 35.608C173.925 35.7317 174.238 35.7936 174.596 35.7936C174.943 35.7936 175.246 35.7317 175.505 35.608C175.771 35.4781 175.997 35.3081 176.183 35.0978C176.368 34.8813 176.52 34.6339 176.637 34.3556C176.761 34.0711 176.857 33.7773 176.925 33.4742C176.993 33.1712 177.039 32.8681 177.064 32.5651C177.095 32.2558 177.11 31.9651 177.11 31.693ZM185.451 37.0367H182.315V21.3859H183.521L185.451 24.6422V37.0367ZM190.646 31.9528C191.03 32.0393 191.413 32.1074 191.797 32.1569C192.18 32.2063 192.567 32.2311 192.956 32.2311C193.364 32.2311 193.742 32.194 194.088 32.1198C194.441 32.0393 194.744 31.9095 194.997 31.7301C195.257 31.5446 195.461 31.3003 195.609 30.9972C195.758 30.6941 195.832 30.3169 195.832 29.8654C195.832 29.5004 195.783 29.1665 195.684 28.8634C195.585 28.5603 195.436 28.3006 195.238 28.0841C195.047 27.8676 194.809 27.7006 194.524 27.5831C194.24 27.4594 193.909 27.3976 193.531 27.3976C193.179 27.3976 192.86 27.4625 192.576 27.5924C192.297 27.7223 192.05 27.8986 191.834 28.1212C191.623 28.3377 191.441 28.5913 191.286 28.882C191.138 29.1726 191.014 29.4757 190.915 29.7911C190.816 30.1066 190.745 30.4251 190.702 30.7467C190.658 31.0683 190.637 31.3714 190.637 31.6559C190.637 31.7054 190.637 31.7548 190.637 31.8043C190.637 31.8538 190.64 31.9033 190.646 31.9528ZM198.374 29.8375C198.374 30.2767 198.303 30.6694 198.161 31.0157C198.019 31.3559 197.824 31.6559 197.576 31.9156C197.335 32.1754 197.054 32.395 196.732 32.5743C196.41 32.7537 196.067 32.9021 195.702 33.0197C195.337 33.131 194.96 33.2114 194.57 33.2609C194.187 33.3103 193.813 33.3351 193.448 33.3351C192.984 33.3351 192.526 33.3042 192.075 33.2423C191.623 33.1743 191.178 33.0691 190.739 32.9269C190.807 33.3351 190.915 33.7247 191.064 34.0958C191.212 34.4607 191.41 34.7823 191.657 35.0607C191.905 35.3328 192.208 35.5493 192.567 35.7101C192.931 35.8709 193.361 35.9513 193.856 35.9513C194.184 35.9513 194.496 35.9018 194.793 35.8029C195.09 35.7039 195.362 35.5647 195.609 35.3854C195.857 35.206 196.073 34.9926 196.259 34.7452C196.451 34.4978 196.605 34.2226 196.723 33.9196L198.077 34.4205C197.873 34.9091 197.592 35.3328 197.233 35.6915C196.88 36.0441 196.478 36.3378 196.027 36.5729C195.582 36.8017 195.105 36.9718 194.598 37.0831C194.097 37.1945 193.599 37.2501 193.105 37.2501C192.288 37.2501 191.534 37.1141 190.841 36.8419C190.148 36.5636 189.551 36.177 189.05 35.6823C188.549 35.1875 188.157 34.5968 187.872 33.9103C187.588 33.2238 187.445 32.4723 187.445 31.6559C187.445 30.8395 187.588 30.088 187.872 29.4015C188.157 28.715 188.549 28.1243 189.05 27.6295C189.551 27.1347 190.148 26.7513 190.841 26.4791C191.534 26.2008 192.288 26.0616 193.105 26.0616C193.5 26.0616 193.906 26.0895 194.32 26.1451C194.734 26.2008 195.136 26.2905 195.526 26.4142C195.916 26.5317 196.284 26.6863 196.63 26.8781C196.976 27.0698 197.276 27.3079 197.53 27.5924C197.79 27.8707 197.994 28.1954 198.142 28.5665C198.297 28.9376 198.374 29.3613 198.374 29.8375ZM209.553 33.6134C209.553 34.0835 209.485 34.5009 209.349 34.8658C209.213 35.2308 209.028 35.5493 208.793 35.8214C208.558 36.0874 208.279 36.3131 207.958 36.4987C207.636 36.678 207.29 36.8234 206.919 36.9347C206.554 37.046 206.17 37.1264 205.768 37.1759C205.366 37.2254 204.967 37.2501 204.571 37.2501C204.04 37.2501 203.569 37.2161 203.161 37.1481C202.753 37.08 202.363 36.9718 201.992 36.8234C201.621 36.6687 201.25 36.4708 200.879 36.2296C200.514 35.9884 200.106 35.6946 199.654 35.3483L201.482 33.8546C201.649 34.17 201.869 34.4576 202.141 34.7174C202.419 34.971 202.707 35.1906 203.004 35.3761C203.3 35.5616 203.588 35.7039 203.866 35.8029C204.145 35.9018 204.37 35.9513 204.544 35.9513C204.686 35.9513 204.847 35.9482 205.026 35.942C205.205 35.9296 205.388 35.9111 205.573 35.8864C205.759 35.8554 205.941 35.8121 206.121 35.7565C206.3 35.7008 206.458 35.6266 206.594 35.5338C206.736 35.4349 206.847 35.3142 206.928 35.172C207.014 35.0236 207.058 34.8473 207.058 34.6432C207.058 34.4329 207.002 34.2504 206.891 34.0958C206.786 33.935 206.646 33.7959 206.473 33.6783C206.3 33.5608 206.102 33.4619 205.88 33.3815C205.657 33.3011 205.431 33.2299 205.202 33.1681C204.98 33.1062 204.763 33.0537 204.553 33.0104C204.343 32.9609 204.16 32.9145 204.005 32.8712C203.721 32.7908 203.421 32.7104 203.106 32.63C202.79 32.5434 202.478 32.4476 202.169 32.3424C201.859 32.2311 201.562 32.1012 201.278 31.9528C201 31.8043 200.752 31.6281 200.536 31.424C200.325 31.2137 200.155 30.9694 200.026 30.691C199.902 30.4065 199.84 30.0756 199.84 29.6984C199.84 29.0057 199.976 28.4274 200.248 27.9635C200.526 27.4934 200.891 27.1193 201.343 26.8409C201.794 26.5564 202.308 26.3554 202.883 26.2379C203.458 26.1204 204.043 26.0616 204.636 26.0616C205.045 26.0616 205.474 26.1049 205.926 26.1915C206.377 26.2719 206.817 26.3956 207.243 26.5626C207.67 26.7234 208.069 26.9213 208.44 27.1564C208.811 27.3914 209.12 27.6604 209.368 27.9635L207.54 29.4664C207.404 29.0953 207.225 28.7768 207.002 28.5109C206.786 28.2449 206.547 28.0284 206.288 27.8615C206.034 27.6883 205.771 27.5615 205.499 27.4811C205.233 27.4007 204.986 27.3605 204.757 27.3605C204.534 27.3605 204.284 27.3698 204.005 27.3883C203.727 27.4069 203.464 27.4594 203.217 27.546C202.976 27.6326 202.769 27.7656 202.595 27.9449C202.428 28.1181 202.345 28.3593 202.345 28.6686C202.345 28.8912 202.394 29.083 202.493 29.2438C202.598 29.3984 202.734 29.5345 202.901 29.652C203.068 29.7633 203.257 29.8592 203.467 29.9396C203.684 30.0138 203.903 30.0818 204.126 30.1437C204.349 30.1993 204.565 30.2488 204.776 30.2921C204.986 30.3354 205.174 30.3818 205.341 30.4313C205.626 30.5117 205.926 30.5952 206.241 30.6818C206.563 30.7622 206.878 30.858 207.188 30.9694C207.497 31.0745 207.794 31.2013 208.078 31.3497C208.369 31.492 208.623 31.6683 208.839 31.8785C209.055 32.0888 209.229 32.3362 209.359 32.6207C209.488 32.899 209.553 33.2299 209.553 33.6134Z" fill="#C65E00"/>
</g>
</svg>
