<svg width="431" height="15" viewBox="0 0 431 15" fill="none" xmlns="http://www.w3.org/2000/svg">
<mask id="mask0_248_10305" style="mask-type:luminance" maskUnits="userSpaceOnUse" x="0" y="4" width="431" height="6">
<path d="M0 4.95874H430.999V9.36653H0V4.95874Z" fill="white"/>
</mask>
<g mask="url(#mask0_248_10305)">
<path d="M427.211 8.88432H5.37155C4.56231 8.88432 3.90803 8.24725 3.90803 7.43801C3.90803 6.62877 4.56231 5.97449 5.37155 5.97449H427.211C428.037 5.97449 428.691 6.62877 428.691 7.43801C428.691 8.24725 428.037 8.88432 427.211 8.88432Z" fill="#E9B121"/>
</g>
<mask id="mask1_248_10305" style="mask-type:luminance" maskUnits="userSpaceOnUse" x="418" y="0" width="13" height="14">
<path d="M418.741 0.550415H431V13.7738H418.741V0.550415Z" fill="white"/>
</mask>
<g mask="url(#mask1_248_10305)">
<path d="M429.485 7.29975C429.485 7.9196 429.364 8.52223 429.123 9.10763C428.882 9.69305 428.538 10.2096 428.073 10.64C427.625 11.0877 427.109 11.4321 426.523 11.6731C425.938 11.9142 425.318 12.0347 424.681 12.0347C424.044 12.0347 423.441 11.9142 422.839 11.6731C422.253 11.4321 421.737 11.0877 421.289 10.64C420.841 10.2096 420.497 9.69305 420.239 9.10763C419.998 8.52223 419.877 7.9196 419.877 7.29975C419.877 6.66269 419.998 6.06006 420.239 5.47465C420.497 4.88924 420.841 4.38993 421.289 3.94226C421.737 3.4946 422.253 3.15024 422.839 2.90918C423.441 2.66814 424.044 2.54761 424.681 2.54761C425.318 2.54761 425.938 2.66814 426.523 2.90918C427.109 3.15024 427.625 3.4946 428.073 3.94226C428.538 4.38993 428.882 4.88924 429.123 5.47465C429.364 6.06006 429.485 6.66269 429.485 7.29975Z" fill="#E9B121"/>
</g>
<path d="M409.908 7.30039C409.908 8.10963 409.753 8.90165 409.426 9.67646C409.116 10.4341 408.651 11.1055 408.066 11.6737C407.48 12.2591 406.792 12.7068 406.034 13.034C405.259 13.3439 404.467 13.4988 403.623 13.4988C402.797 13.4988 401.988 13.3439 401.23 13.034C400.455 12.7068 399.784 12.2591 399.181 11.6737C398.596 11.1055 398.148 10.4341 397.821 9.67646C397.511 8.90165 397.356 8.10963 397.356 7.30039C397.356 6.47393 397.511 5.6819 397.821 4.92431C398.148 4.16672 398.596 3.49523 399.181 2.90982C399.784 2.32441 400.455 1.87674 401.23 1.56682C401.988 1.23968 402.797 1.08472 403.623 1.08472C404.467 1.08472 405.259 1.23968 406.034 1.56682C406.792 1.87674 407.48 2.32441 408.066 2.90982C408.651 3.49523 409.116 4.16672 409.426 4.92431C409.753 5.6819 409.908 6.47393 409.908 7.30039Z" fill="#E9B121"/>
<path d="M389.228 7.3004C389.228 8.2646 389.039 9.19437 388.66 10.0897C388.281 10.985 387.747 11.7771 387.059 12.4486C386.37 13.1373 385.561 13.671 384.665 14.0326C383.753 14.4114 382.806 14.6008 381.825 14.6008C380.86 14.6008 379.913 14.4114 379.001 14.0326C378.105 13.671 377.296 13.1373 376.607 12.4486C375.919 11.7771 375.385 10.985 375.006 10.0897C374.627 9.19437 374.438 8.2646 374.438 7.3004C374.438 6.31898 374.627 5.38921 375.006 4.49388C375.385 3.59855 375.919 2.82374 376.607 2.13502C377.296 1.44631 378.105 0.912549 379.001 0.550973C379.913 0.172177 380.86 0 381.825 0C382.806 0 383.753 0.172177 384.665 0.550973C385.561 0.912549 386.37 1.44631 387.059 2.13502C387.747 2.82374 388.281 3.59855 388.66 4.49388C389.039 5.38921 389.228 6.31898 389.228 7.3004Z" fill="#E9B121"/>
</svg>
